<?xml version="1.0" encoding="UTF-8" standalone="no"?>
<svg
   width="552.90625"
   height="143.90724"
   viewBox="0 0 146.28977 38.075457"
   version="1.1"
   id="svg8"
   inkscape:version="1.1 (c68e22c387, 2021-05-23)"
   sodipodi:docname="logo.svg"
   inkscape:export-filename="C:\Users\onigi\Desktop\drawing.png"
   inkscape:export-xdpi="96"
   inkscape:export-ydpi="96"
   xmlns:inkscape="http://www.inkscape.org/namespaces/inkscape"
   xmlns:sodipodi="http://sodipodi.sourceforge.net/DTD/sodipodi-0.dtd"
   xmlns="http://www.w3.org/2000/svg"
   xmlns:svg="http://www.w3.org/2000/svg"
   xmlns:rdf="http://www.w3.org/1999/02/22-rdf-syntax-ns#"
   xmlns:cc="http://creativecommons.org/ns#"
   xmlns:dc="http://purl.org/dc/elements/1.1/">
  <defs
     id="defs2">
    <filter
       inkscape:collect="always"
       style="color-interpolation-filters:sRGB"
       id="filter965"
       x="-0.0021588006"
       width="1.0043176"
       y="-0.0088219565"
       height="1.0176439">
      <feGaussianBlur
         inkscape:collect="always"
         stdDeviation="0.49520122"
         id="feGaussianBlur967" />
    </filter>
  </defs>
  <sodipodi:namedview
     id="base"
     pagecolor="#8d8d8d"
     bordercolor="#606060"
     borderopacity="1"
     inkscape:pageopacity="0"
     inkscape:pageshadow="2"
     inkscape:zoom="0.99911116"
     inkscape:cx="276.74598"
     inkscape:cy="-41.53692"
     inkscape:document-units="px"
     inkscape:current-layer="layer1"
     showgrid="false"
     units="px"
     showborder="true"
     inkscape:showpageshadow="false"
     borderlayer="true"
     inkscape:pagecheckerboard="true"
     inkscape:window-width="1920"
     inkscape:window-height="1017"
     inkscape:window-x="-8"
     inkscape:window-y="-8"
     inkscape:window-maximized="1"
     inkscape:object-paths="true"
     inkscape:snap-page="true"
     fit-margin-top="0"
     fit-margin-left="0"
     fit-margin-right="0"
     fit-margin-bottom="0"
     inkscape:document-rotation="0"
     inkscape:snap-global="true" />
  <metadata
     id="metadata5">
    <rdf:RDF>
      <cc:Work
         rdf:about="">
        <dc:format>image/svg+xml</dc:format>
        <dc:type
           rdf:resource="http://purl.org/dc/dcmitype/StillImage" />
      </cc:Work>
    </rdf:RDF>
  </metadata>
  <g
     inkscape:label="Layer 1"
     inkscape:groupmode="layer"
     id="layer1"
     transform="translate(-99.915471,-191.6117)">
    <g
       id="g996"
       transform="translate(0,9.4762376)">
      <path
         id="path847"
         style="font-style:normal;font-variant:normal;font-weight:bold;font-stretch:normal;font-size:52.6246px;line-height:1.25;font-family:Ubuntu;-inkscape-font-specification:'Ubuntu Bold';text-align:center;letter-spacing:0px;word-spacing:0px;writing-mode:lr-tb;text-anchor:middle;opacity:0.5;fill:#000000;fill-opacity:1;stroke:none;stroke-width:0.999999;filter:url(#filter965)"
         d="m 135.81641,0 c 0,0 -6.87537,7.7751899 -11.19336,10.53125 -3.38831,2.16265 -11.19336,4.486328 -11.19336,4.486328 V 122.63086 c 0,0 6.87441,-7.80054 11.19336,-10.57422 3.38694,-2.17512 11.19336,-4.5332 11.19336,-4.5332 V 56.492188 c 1.40228,-0.400631 2.95354,-0.752225 4.65625,-1.052735 1.80292,-0.40063 3.70575,-0.601562 5.70898,-0.601562 5.00806,0 8.41392,1.502972 10.2168,4.507812 1.90306,3.00484 2.85547,8.112609 2.85547,15.324219 v 47.960938 c 0,0 6.87438,-7.80054 11.19336,-10.57422 3.38695,-2.17512 11.1914,-4.5332 11.1914,-4.5332 V 71.966797 c 0,-5.40873 -0.55057,-10.317529 -1.65234,-14.724609 -1.00162,-4.407121 -2.80403,-8.212809 -5.40821,-11.417969 -2.50405,-3.20515 -5.90987,-5.658608 -10.21679,-7.361328 -4.20681,-1.80291 -9.51548,-2.705079 -15.92578,-2.705079 -2.20354,0 -4.50627,0.250944 -6.91016,0.751954 -2.3037,0.40063 -4.20655,0.850782 -5.70898,1.351562 z m 181.20312,0.41210938 c 0,0 -7.23744,7.81690872 -11.71875,10.57421862 -3.56704,2.19481 -7.63765,4.411799 -11.71875,6.042969 -4.87185,1.94721 -15.10742,4.416015 -15.10742,4.416015 l 15.10742,5.925782 v 75.154296 c -0.77265,3.59781 -2.40345,7.06414 -4.53125,10.06641 -2.81409,3.97062 -10.57617,10.0664 -10.57617,10.0664 0,0 23.17471,-1.50976 34.7793,-1.50976 11.60462,0 34.78125,1.50976 34.78125,1.50976 0,0 2.4054,-7.06413 4.5332,-10.0664 2.81408,-3.97066 10.57422,-10.06641 10.57422,-10.06641 H 317.01953 Z M 21.330078,15.492188 c 0,0 -2.406891,7.013514 -4.53125,9.990234 -2.817071,3.94737 -10.5761717,9.992187 -10.5761718,9.992187 0,0 28.7372438,-1.511718 43.1191408,-1.511718 3.627741,0 8.170709,0.09659 12.933594,0.240234 -1.842822,1.68302 -3.783795,3.311459 -5.378907,4.292969 -3.567042,2.19481 -11.71875,4.53125 -11.71875,4.53125 v 91.691406 c 0,0 7.237478,-7.81878 11.71875,-10.57617 3.567081,-2.19481 7.637616,-4.4118 11.71875,-6.04297 4.871811,-1.94721 15.107422,-4.41602 15.107422,-4.41602 L 68.615234,107.75781 V 34.417969 c 12.184253,0.44504 23.845703,1.05664 23.845704,1.05664 0,0 2.408843,-7.015437 4.533203,-9.992187 2.81707,-3.94734 10.574219,-9.990234 10.574219,-9.990234 z M 230.11133,39.154297 c -4.80775,0 -9.51565,0.900285 -14.12305,2.703125 -4.50728,1.80291 -8.51387,4.45726 -12.01953,7.96289 -3.50566,3.505661 -6.35892,7.914127 -8.5625,13.222657 -2.10338,5.20842 -3.15625,11.316875 -3.15625,18.328125 0,5.80936 0.80174,11.218502 2.4043,16.226562 1.70275,5.008034 4.2566,9.364374 7.66211,13.070314 3.50566,3.60579 7.86193,6.46103 13.07031,8.56445 5.30853,2.10338 11.51941,3.1543 18.63086,3.1543 2.80452,0 5.60762,-0.14893 8.41211,-0.44922 2.80456,-0.30047 5.40864,-0.70233 7.8125,-1.20312 2.50405,-0.40068 4.75849,-0.90098 6.76172,-1.50196 2.00318,-0.60095 3.60666,-1.20178 4.80859,-1.80273 0,0 -1.68509,-5.80005 -1.35352,-8.72461 0.47494,-4.18923 4.6875,-11.748049 4.6875,-11.748049 -2.50401,1.10177 -12.09901,4.347179 -16.10546,5.148439 -3.90629,0.70118 -7.91289,1.05078 -12.01954,1.05078 -6.4103,0 -11.51803,-1.35231 -15.32421,-4.056641 -3.80609,-2.70432 -5.34489,-6.873196 -6.46094,-10.966797 -0.60843,-2.23163 -0.72038,-7.664516 -0.2168,-13.216796 2.09703,1.61873 4.78738,3.812287 6.25977,5.554687 1.91531,2.26662 4.5332,7.662109 4.5332,7.662109 0,0 13.38356,-1.511718 20.10352,-1.511718 6.71989,0 20.10156,1.511718 20.10156,1.511718 0.0998,-1.20193 0.20062,-2.55421 0.30078,-4.05664 0.10016,-1.60256 0.15234,-3.055332 0.15234,-4.357422 0,-13.32147 -3.25707,-23.388249 -9.76758,-30.199219 -6.51046,-6.91114 -15.37374,-10.365234 -26.59179,-10.365234 z m 173.58203,0.349609 c -5.60905,0 -18.64648,3.00586 -18.64648,3.00586 0,0 -4.23595,7.609147 -7.19532,10.742187 -2.9311,3.1031 -10.21679,7.720703 -10.21679,7.720703 v 37.126953 c 0,0 4.55743,9.514721 7.96289,13.220701 3.40551,3.60582 7.46233,6.41083 12.16992,8.41407 4.80775,2.00322 10.11642,3.0039 15.92578,3.0039 5.90952,0 18.94726,-3.0039 18.94726,-3.0039 0,0 4.1291,-7.65391 7.04493,-10.81836 2.87591,-3.12106 10.0664,-7.79493 10.0664,-7.79493 l -0.15039,-37.126949 c 0,0 -4.55746,-9.466446 -7.96289,-13.072266 -3.4055,-3.60582 -7.51256,-6.408919 -12.32031,-8.412109 -4.70759,-2.00326 -9.9158,-3.00586 -15.625,-3.00586 z m 61.86133,4.09961 c 0,0 -5.87894,7.545826 -9.71875,10.285156 -2.89565,2.06577 -9.71875,4.40625 -9.71875,4.40625 2.2035,7.81254 0.30767,0.883233 2.61133,8.595703 2.40412,7.61223 4.70853,14.874016 6.9121,21.785156 2.30367,6.81097 4.50607,13.122279 6.60938,18.931639 2.10346,5.80936 4.05654,10.81664 5.85938,15.02344 0,0 7.06884,-5.44697 10.98046,-7.55274 3.54142,-1.90643 11.18164,-4.5332 11.18164,-4.5332 l 2.32813,-10.599608 c 2.30366,-7.51212 4.45775,-15.075229 6.46094,-22.6875 2.00318,7.612271 4.20544,15.17538 6.60937,22.6875 2.40378,7.512068 4.85735,15.073278 7.36133,22.685548 0,0 7.58916,-5.44489 11.73633,-7.55274 3.7384,-1.90004 11.73633,-4.5332 11.73633,-4.5332 3.66829,-10.829408 2.42609,-10.04557 6.42578,-21.869139 2.30366,-6.91114 4.60841,-14.172926 6.91211,-21.785156 2.40393,-7.71247 4.70654,-15.474519 6.91015,-23.287109 0,0 -8.40711,7.732967 -13.40429,10.367187 -4.15347,2.18952 -13.40625,4.324219 -13.40625,4.324219 -1.80749,8.12504 -0.1663,1.68211 -2.18555,10.25 -1.00169,4.50723 -2.10284,9.064485 -3.30469,13.671875 -0.60094,2.25366 -1.20179,4.469917 -1.80273,6.648437 -0.60095,2.17856 -0.93209,1.905745 -1.80274,1.890625 -0.96064,-0.0151 -1.29005,0.09939 -1.91601,-2.154297 -0.62616,-2.25362 -1.24063,-4.532237 -1.8418,-6.835937 -1.20189,-4.60743 -2.35327,-9.114404 -3.45508,-13.521484 -1.10177,-4.50728 -2.15279,-8.815225 -3.15429,-12.921875 -1.00168,-4.20677 -1.90379,-8.11293 -2.70508,-11.71875 0,0 -5.96659,7.628467 -9.875,10.367187 -2.94282,2.06207 -9.875,4.324219 -9.875,4.324219 -0.73807,3.3504 -1.80659,6.620469 -2.63672,9.949219 -1.10181,4.40708 -2.30331,8.914054 -3.60547,13.521484 -0.60095,2.3037 -1.21384,4.204148 -1.83984,6.080078 -0.62597,1.87593 -0.75503,2.902596 -1.91602,2.910156 -1.06723,0.008 -1.20163,-0.845654 -1.80273,-2.646484 -0.60094,-1.80079 -1.20179,-3.638918 -1.80274,-5.892578 -1.10177,-4.60739 -2.20288,-9.164645 -3.30469,-13.671875 -1.0015,-4.50728 -2.00416,-8.865496 -3.00585,-13.072266 -0.90142,-4.30692 -1.7534,-8.26332 -2.55469,-11.86914 z m -235.14453,14.03125 c 2.60421,0 4.75822,0.450152 6.46093,1.351562 1.80291,0.9015 3.25566,2.052798 4.35743,3.455078 1.20193,1.40228 2.05389,3.003731 2.55468,4.806641 0.60102,1.80287 0.95059,3.657437 1.05078,5.560547 h -29.59765 c 0.22715,-1.89347 0.75061,-3.757677 1.35156,-5.560547 0.70114,-1.90307 1.65354,-3.554831 2.85547,-4.957031 1.20196,-1.40232 2.7049,-2.503388 4.50781,-3.304688 1.80287,-0.90141 3.95494,-1.351562 6.45899,-1.351562 z m 173.2832,1.099609 c 5.10822,0 11.71875,6.009766 11.71875,6.009766 v 32.753906 c 0,0 -6.61053,6.009763 -11.71875,6.009763 -5.10822,0 -11.86914,-6.009763 -11.86914,-6.009763 V 64.744141 c 0,0 6.76092,-6.009766 11.86914,-6.009766 z"
         transform="matrix(0.26458332,0,0,0.26458332,98.583513,184.25213)" />
      <path
         id="path1857"
         style="font-style:normal;font-variant:normal;font-weight:bold;font-stretch:normal;font-size:52.6246px;line-height:1.25;font-family:Ubuntu;-inkscape-font-specification:'Ubuntu Bold';text-align:center;letter-spacing:0px;word-spacing:0px;writing-mode:lr-tb;text-anchor:middle;fill:#ffffff;fill-opacity:1;stroke:none;stroke-width:0.264583"
         d="m 134.51827,182.13546 c 0,0 -1.81911,2.05719 -2.96158,2.78639 -0.89649,0.5722 -2.96157,1.18701 -2.96157,1.18701 v 28.47268 c 0,0 1.81885,-2.06389 2.96157,-2.79776 0.89613,-0.5755 2.96158,-1.19941 2.96158,-1.19941 v -13.50202 c 0.37102,-0.106 0.78146,-0.19903 1.23197,-0.27854 0.47702,-0.106 0.98048,-0.15916 1.5105,-0.15916 1.32505,0 2.22618,0.39766 2.70319,1.19269 0.50352,0.79503 0.75551,2.14646 0.75551,4.05454 v 12.68966 c 0,0 1.81885,-2.06389 2.96158,-2.79776 0.89613,-0.5755 2.96106,-1.19941 2.96106,-1.19941 v -9.4077 c 0,-1.43106 -0.14568,-2.72984 -0.43719,-3.89588 -0.26501,-1.16605 -0.7419,-2.17297 -1.43092,-3.02101 -0.66253,-0.84803 -1.56365,-1.49717 -2.70319,-1.94768 -1.11305,-0.47702 -2.51764,-0.71572 -4.2137,-0.71572 -0.58302,0 -1.19228,0.0664 -1.82831,0.19896 -0.60952,0.106 -1.11298,0.2251 -1.5105,0.3576 z m 47.94332,0.10904 c 0,0 -1.9149,2.06822 -3.10058,2.79776 -0.94378,0.58071 -2.0208,1.16729 -3.10059,1.59887 -1.28901,0.5152 -3.99717,1.1684 -3.99717,1.1684 l 3.99717,1.56786 v 19.88458 c -0.20443,0.95192 -0.63591,1.86905 -1.19889,2.6634 -0.74456,1.05056 -2.79828,2.6634 -2.79828,2.6634 0,0 6.13164,-0.39945 9.20202,-0.39945 3.07039,0 9.20254,0.39945 9.20254,0.39945 0,0 0.63643,-1.86905 1.19941,-2.6634 0.74456,-1.05057 2.79776,-2.6634 2.79776,-2.6634 h -12.20339 z m -78.23449,3.98993 c 0,0 -0.63683,1.85566 -1.1989,2.64325 -0.74535,1.04441 -2.79828,2.64377 -2.79828,2.64377 0,0 7.6034,-0.39998 11.40861,-0.39998 0.95984,0 2.16183,0.0256 3.42201,0.0636 -0.48758,0.4453 -1.00113,0.87615 -1.42317,1.13584 -0.94378,0.58071 -3.10058,1.1989 -3.10058,1.1989 v 24.26001 c 0,0 1.91491,-2.06871 3.10058,-2.79827 0.94379,-0.58071 2.02079,-1.16729 3.10059,-1.59887 1.289,-0.5152 3.99717,-1.16841 3.99717,-1.16841 l -3.99717,-1.56786 v -19.4045 c 3.22375,0.11775 6.30917,0.27957 6.30917,0.27957 0,0 0.63734,-1.85617 1.19941,-2.64377 0.74535,-1.0444 2.79777,-2.64325 2.79777,-2.64325 z m 55.24003,6.2606 c -1.27205,0 -2.51768,0.2382 -3.73672,0.71521 -1.19255,0.47702 -2.25263,1.17931 -3.18017,2.10684 -0.92754,0.92754 -1.68246,2.09395 -2.26549,3.4985 -0.55652,1.37806 -0.83509,2.99425 -0.83509,4.84931 0,1.53706 0.21212,2.96823 0.63613,4.29328 0.45052,1.32504 1.12623,2.47766 2.02727,3.45819 0.92754,0.95403 2.08014,1.70948 3.45819,2.26601 1.40454,0.55652 3.04784,0.83457 4.92941,0.83457 0.74203,0 1.48368,-0.0394 2.22571,-0.11885 0.74204,-0.0795 1.43103,-0.18583 2.06705,-0.31833 0.66253,-0.10601 1.25902,-0.23838 1.78904,-0.39739 0.53001,-0.159 0.95426,-0.31797 1.27227,-0.47697 0,0 -0.44584,-1.5346 -0.35812,-2.30839 0.12567,-1.1084 1.24024,-3.10834 1.24024,-3.10834 -0.66252,0.29151 -3.2012,1.15019 -4.26124,1.36219 -1.03354,0.18552 -2.09362,0.27802 -3.18017,0.27802 -1.69606,0 -3.04748,-0.3578 -4.05453,-1.07332 -1.00703,-0.71551 -1.41417,-1.81853 -1.70945,-2.90163 -0.16098,-0.59045 -0.1906,-2.0279 -0.0574,-3.49694 0.55484,0.42829 1.26667,1.00867 1.65623,1.46968 0.50676,0.59971 1.19941,2.02726 1.19941,2.02726 0,0 3.54107,-0.39997 5.31906,-0.39997 1.77797,0 5.31854,0.39997 5.31854,0.39997 0.0264,-0.31801 0.0531,-0.6758 0.0796,-1.07332 0.0265,-0.42401 0.0403,-0.80839 0.0403,-1.1529 0,-3.52464 -0.86177,-6.18814 -2.58434,-7.99021 -1.72256,-1.82857 -4.06764,-2.74247 -7.03575,-2.74247 z m 45.92691,0.0925 c -1.48406,0 -4.93355,0.79531 -4.93355,0.79531 0,0 -1.12076,2.01325 -1.90376,2.8422 -0.77552,0.82103 -2.70319,2.04277 -2.70319,2.04277 v 9.82317 c 0,0 1.20582,2.51744 2.10685,3.49798 0.90104,0.95404 1.97441,1.6962 3.21996,2.22622 1.27205,0.53002 2.67663,0.79478 4.21369,0.79478 1.56356,0 5.01313,-0.79478 5.01313,-0.79478 0,0 1.09249,-2.0251 1.86397,-2.86236 0.76092,-0.82578 2.6634,-2.06241 2.6634,-2.06241 l -0.0398,-9.82317 c 0,0 -1.20582,-2.50466 -2.10684,-3.4587 -0.90104,-0.95404 -1.9877,-1.69569 -3.25975,-2.2257 -1.24555,-0.53003 -2.62356,-0.79531 -4.13412,-0.79531 z m 16.36748,1.08469 c 0,0 -1.55547,1.9965 -2.57142,2.72128 -0.76614,0.54657 -2.57142,1.16582 -2.57142,1.16582 0.58301,2.06707 0.0814,0.23369 0.69091,2.27428 0.63609,2.01407 1.2458,3.93542 1.82883,5.76399 0.60951,1.80207 1.19223,3.47194 1.74873,5.009 0.55654,1.53706 1.0733,2.8619 1.5503,3.97495 0,0 1.87029,-1.44118 2.90524,-1.99833 0.937,-0.50441 2.95848,-1.19941 2.95848,-1.19941 l 0.61598,-2.80448 c 0.60951,-1.98758 1.17945,-3.98865 1.70946,-6.00273 0.53001,2.01408 1.11269,4.01515 1.74873,6.00273 0.636,1.98757 1.28517,3.98814 1.94768,6.00222 0,0 2.00797,-1.44063 3.10524,-1.99833 0.98912,-0.50272 3.10524,-1.19941 3.10524,-1.19941 0.97057,-2.86528 0.6419,-2.65789 1.70015,-5.78621 0.60951,-1.82857 1.21931,-3.74992 1.82883,-5.76399 0.63604,-2.04059 1.24527,-4.0943 1.82831,-6.16138 0,0 -2.22438,2.04602 -3.54655,2.74299 -1.09894,0.57931 -3.54707,1.14411 -3.54707,1.14411 -0.47823,2.14975 -0.044,0.44506 -0.57826,2.71198 -0.26503,1.19254 -0.55638,2.39831 -0.87437,3.61735 -0.15899,0.59628 -0.31797,1.18267 -0.47697,1.75907 -0.159,0.57641 -0.24661,0.50423 -0.47697,0.50023 -0.25417,-0.004 -0.34133,0.0263 -0.50695,-0.56999 -0.16567,-0.59627 -0.32825,-1.19916 -0.48731,-1.80868 -0.318,-1.21905 -0.62263,-2.41152 -0.91415,-3.57756 -0.29151,-1.19255 -0.5696,-2.33236 -0.83458,-3.41891 -0.26502,-1.11304 -0.50371,-2.14655 -0.71571,-3.10059 0,0 -1.57866,2.01837 -2.61276,2.74299 -0.77863,0.54559 -2.61277,1.14411 -2.61277,1.14411 -0.19528,0.88646 -0.47799,1.75167 -0.69763,2.6324 -0.29152,1.16604 -0.60941,2.35851 -0.95394,3.57756 -0.15901,0.60952 -0.32117,1.11235 -0.4868,1.60869 -0.16562,0.49634 -0.19976,0.76798 -0.50694,0.76998 -0.28237,0.002 -0.31793,-0.22375 -0.47697,-0.70022 -0.159,-0.47646 -0.31798,-0.9628 -0.47698,-1.55908 -0.29151,-1.21904 -0.58284,-2.42481 -0.87437,-3.61735 -0.26498,-1.19255 -0.53026,-2.34566 -0.79529,-3.4587 -0.2385,-1.13954 -0.46392,-2.18634 -0.67593,-3.14038 z m -62.21532,3.71244 c 0.68903,0 1.25894,0.1191 1.70945,0.3576 0.47702,0.23852 0.8614,0.54313 1.15291,0.91415 0.31801,0.37102 0.54342,0.79474 0.67592,1.27176 0.15902,0.47701 0.25151,0.9677 0.27802,1.47123 h -7.83104 c 0.0601,-0.50098 0.19859,-0.99422 0.3576,-1.47123 0.18551,-0.50352 0.4375,-0.94055 0.75551,-1.31155 0.31801,-0.37103 0.71567,-0.66235 1.19269,-0.87436 0.47701,-0.2385 1.04641,-0.3576 1.70894,-0.3576 z m 45.84784,0.29094 c 1.35155,0 3.10059,1.59008 3.10059,1.59008 v 8.66614 c 0,0 -1.74904,1.59008 -3.10059,1.59008 -1.35155,0 -3.14037,-1.59008 -3.14037,-1.59008 v -8.66614 c 0,0 1.78882,-1.59008 3.14037,-1.59008 z" />
    </g>
  </g>
</svg>
