<?xml version="1.0" encoding="UTF-8" standalone="no"?>
<!-- Created with Inkscape (http://www.inkscape.org/) -->

<svg
   xmlns:dc="http://purl.org/dc/elements/1.1/"
   xmlns:cc="http://creativecommons.org/ns#"
   xmlns:rdf="http://www.w3.org/1999/02/22-rdf-syntax-ns#"
   xmlns:svg="http://www.w3.org/2000/svg"
   xmlns="http://www.w3.org/2000/svg"
   xmlns:sodipodi="http://sodipodi.sourceforge.net/DTD/sodipodi-0.dtd"
   xmlns:inkscape="http://www.inkscape.org/namespaces/inkscape"
   width="70mm"
   height="70mm"
   viewBox="0 0 70 70"
   version="1.1"
   id="svg8"
   inkscape:version="0.92.4 (5da689c313, 2019-01-14)"
   sodipodi:docname="copy.svg">
  <defs
     id="defs2" />
  <sodipodi:namedview
     id="base"
     pagecolor="#ffffff"
     bordercolor="#666666"
     borderopacity="1.0"
     inkscape:pageopacity="0.0"
     inkscape:pageshadow="2"
     inkscape:zoom="0.49497475"
     inkscape:cx="-9.4579509"
     inkscape:cy="384.94574"
     inkscape:document-units="mm"
     inkscape:current-layer="layer1"
     showgrid="false"
     inkscape:window-width="1920"
     inkscape:window-height="1017"
     inkscape:window-x="-8"
     inkscape:window-y="-8"
     inkscape:window-maximized="1" />
  <metadata
     id="metadata5">
    <rdf:RDF>
      <cc:Work
         rdf:about="">
        <dc:format>image/svg+xml</dc:format>
        <dc:type
           rdf:resource="http://purl.org/dc/dcmitype/StillImage" />
        <dc:title></dc:title>
      </cc:Work>
    </rdf:RDF>
  </metadata>
  <g
     inkscape:label="Layer 1"
     inkscape:groupmode="layer"
     id="layer1"
     transform="translate(0,-227)">
    <path
       style="color:#000000;font-style:normal;font-variant:normal;font-weight:normal;font-stretch:normal;font-size:medium;line-height:normal;font-family:sans-serif;font-variant-ligatures:normal;font-variant-position:normal;font-variant-caps:normal;font-variant-numeric:normal;font-variant-alternates:normal;font-feature-settings:normal;text-indent:0;text-align:start;text-decoration:none;text-decoration-line:none;text-decoration-style:solid;text-decoration-color:#000000;letter-spacing:normal;word-spacing:normal;text-transform:none;writing-mode:lr-tb;direction:ltr;text-orientation:mixed;dominant-baseline:auto;baseline-shift:baseline;text-anchor:start;white-space:normal;shape-padding:0;clip-rule:nonzero;display:inline;overflow:visible;visibility:visible;opacity:1;isolation:auto;mix-blend-mode:normal;color-interpolation:sRGB;color-interpolation-filters:linearRGB;solid-color:#000000;solid-opacity:1;vector-effect:none;fill:#000000;fill-opacity:1;fill-rule:nonzero;stroke:none;stroke-width:11.90599823;stroke-linecap:round;stroke-linejoin:round;stroke-miterlimit:4;stroke-dasharray:none;stroke-dashoffset:2.64566922;stroke-opacity:1;paint-order:markers fill stroke;color-rendering:auto;image-rendering:auto;shape-rendering:auto;text-rendering:auto;enable-background:accumulate"
       d="m 26.331867,227 c -2.492553,0 -4.594368,2.10287 -4.594368,4.59543 v 2.22046 6.11582 2.39488 c 0,2.49255 2.101814,4.59463 4.594368,4.59463 H 43.6684 c 2.492556,0 4.594368,-2.10207 4.594368,-4.59463 v -2.39488 -6.11582 -2.22046 C 48.262768,229.10286 46.160956,227 43.6684,227 Z m 1.522253,6.11662 h 14.292027 v 0.69927 6.11582 0.87289 H 27.85412 v -0.87289 -6.11582 z m -11.185929,0.69927 c -4.021493,0 -7.3548111,3.33252 -7.3548111,7.35401 v 48.47528 c 0,4.0215 3.3333191,7.35482 7.3548111,7.35481 h 36.663621 c 4.021493,0 7.354808,-3.33331 7.354808,-7.35481 V 241.1699 c 0,-4.02149 -3.333315,-7.35401 -7.354808,-7.35401 h -2.350546 v 6.11582 h 2.350546 c 0.738756,0 1.23819,0.49943 1.23819,1.23819 v 48.47528 c 0,0.73876 -0.499429,1.23819 -1.23819,1.23819 H 16.668191 c -0.738756,0 -1.23819,-0.49943 -1.23819,-1.23819 V 241.1699 c 0,-0.73875 0.499435,-1.23819 1.23819,-1.23819 h 2.35081 v -6.11582 z"
       id="path846"
       inkscape:connector-curvature="0" />
  </g>
</svg>
