<?xml version="1.0" encoding="UTF-8" standalone="no"?>
<!-- Created with Inkscape (http://www.inkscape.org/) -->

<svg
   xmlns:dc="http://purl.org/dc/elements/1.1/"
   xmlns:cc="http://creativecommons.org/ns#"
   xmlns:rdf="http://www.w3.org/1999/02/22-rdf-syntax-ns#"
   xmlns:svg="http://www.w3.org/2000/svg"
   xmlns="http://www.w3.org/2000/svg"
   xmlns:sodipodi="http://sodipodi.sourceforge.net/DTD/sodipodi-0.dtd"
   xmlns:inkscape="http://www.inkscape.org/namespaces/inkscape"
   width="70mm"
   height="70mm"
   viewBox="0 0 70 70"
   version="1.1"
   id="svg8"
   inkscape:version="0.92.4 (5da689c313, 2019-01-14)"
   sodipodi:docname="menu.svg">
  <defs
     id="defs2" />
  <sodipodi:namedview
     id="base"
     pagecolor="#ffffff"
     bordercolor="#666666"
     borderopacity="1.0"
     inkscape:pageopacity="0.0"
     inkscape:pageshadow="2"
     inkscape:zoom="2.8"
     inkscape:cx="111.78031"
     inkscape:cy="149.56619"
     inkscape:document-units="mm"
     inkscape:current-layer="layer1"
     showgrid="false"
     inkscape:window-width="1920"
     inkscape:window-height="1017"
     inkscape:window-x="-8"
     inkscape:window-y="-8"
     inkscape:window-maximized="1"
     inkscape:pagecheckerboard="true"
     showguides="false" />
  <metadata
     id="metadata5">
    <rdf:RDF>
      <cc:Work
         rdf:about="">
        <dc:format>image/svg+xml</dc:format>
        <dc:type
           rdf:resource="http://purl.org/dc/dcmitype/StillImage" />
        <dc:title />
      </cc:Work>
    </rdf:RDF>
  </metadata>
  <g
     inkscape:label="Layer 1"
     inkscape:groupmode="layer"
     id="layer1"
     transform="translate(0,-227)">
    <path
       style="opacity:1;fill:#89b0ae;fill-opacity:1;stroke:none;stroke-width:11.90624905;stroke-linecap:round;stroke-linejoin:round;stroke-miterlimit:4;stroke-dasharray:none;stroke-dashoffset:2.64566922;stroke-opacity:1;paint-order:markers stroke fill"
       d="M 34.999999,227 C 15.670087,227.00004 1.0711047e-4,242.67002 6.9118027e-5,261.99993 1.0564922e-4,281.32984 15.670086,296.99982 34.999999,296.99986 54.329912,296.99982 69.999894,281.32984 69.999931,261.99993 69.999894,242.67002 54.329912,227.00004 34.999999,227 Z"
       id="path819"
       inkscape:connector-curvature="0"
       sodipodi:nodetypes="ccccc" />
    <g
       id="g822"
       style="opacity:1">
      <path
         inkscape:connector-curvature="0"
         id="path855"
         d="m 17.099934,273.07259 c -0.24792,0 -0.48948,0.0248 -0.72295,0.0724 -0.23348,0.0475 -0.45853,0.1174 -0.67283,0.20774 -0.2143,0.0903 -0.41783,0.20128 -0.60823,0.32969 -0.1904,0.12842 -0.36792,0.27438 -0.52969,0.43615 -0.16177,0.16178 -0.30773,0.33929 -0.43615,0.52969 -0.12841,0.19039 -0.23935,0.39393 -0.32969,0.60823 -0.0903,0.2143 -0.16021,0.43936 -0.20774,0.67283 -0.0475,0.23347 -0.0724,0.47503 -0.0724,0.72295 0,0.24791 0.0248,0.49 0.0724,0.72347 0.0475,0.23347 0.1174,0.45853 0.20774,0.67283 0.0903,0.21429 0.20128,0.41783 0.32969,0.60823 0.12842,0.19039 0.27438,0.36791 0.43615,0.52968 0.16177,0.16177 0.33929,0.30773 0.52969,0.43615 0.1904,0.12842 0.39393,0.23884 0.60823,0.32918 0.2143,0.0903 0.43935,0.16072 0.67283,0.20826 0.23347,0.0475 0.47503,0.0723 0.72295,0.0723 h 35.8004 c 0.24792,0 0.48948,-0.0248 0.72295,-0.0723 0.23347,-0.0475 0.45853,-0.11792 0.67283,-0.20826 0.21429,-0.0903 0.41783,-0.20076 0.60823,-0.32918 0.1904,-0.12842 0.36791,-0.27438 0.52968,-0.43615 0.16177,-0.16177 0.30773,-0.33929 0.43615,-0.52968 0.12842,-0.1904 0.23936,-0.39394 0.3297,-0.60823 0.0903,-0.2143 0.16021,-0.43936 0.20774,-0.67283 0.0475,-0.23347 0.0723,-0.47556 0.0723,-0.72347 0,-0.24792 -0.0248,-0.48948 -0.0723,-0.72295 -0.0475,-0.23347 -0.1174,-0.45853 -0.20774,-0.67283 -0.0903,-0.2143 -0.20128,-0.41784 -0.3297,-0.60823 -0.12842,-0.1904 -0.27438,-0.36791 -0.43615,-0.52969 -0.16177,-0.16177 -0.33928,-0.30773 -0.52968,-0.43615 -0.1904,-0.12841 -0.39394,-0.23935 -0.60823,-0.32969 -0.2143,-0.0903 -0.43936,-0.16021 -0.67283,-0.20774 -0.23347,-0.0475 -0.47503,-0.0724 -0.72295,-0.0724 z"
         style="opacity:1;fill:#ffffff;fill-opacity:1;stroke:none;stroke-width:11.90625;stroke-linecap:round;stroke-linejoin:round;stroke-miterlimit:4;stroke-dasharray:none;stroke-dashoffset:2.64566922;stroke-opacity:1;paint-order:markers stroke fill" />
      <path
         inkscape:connector-curvature="0"
         id="path853"
         d="m 17.099934,258.41992 c -0.24792,0 -0.48948,0.0248 -0.72295,0.0724 -0.23348,0.0475 -0.45853,0.11791 -0.67283,0.20825 -0.2143,0.0903 -0.41783,0.20076 -0.60823,0.32918 -0.1904,0.12842 -0.36792,0.2749 -0.52969,0.43667 -0.16177,0.16177 -0.30773,0.33877 -0.43615,0.52916 -0.12841,0.1904 -0.23935,0.39394 -0.32969,0.60824 -0.0903,0.21429 -0.16021,0.43935 -0.20774,0.67282 -0.0475,0.23348 -0.0724,0.47556 -0.0724,0.72347 0,0.24792 0.0248,0.48949 0.0724,0.72296 0.0475,0.23347 0.1174,0.45853 0.20774,0.67282 0.0903,0.2143 0.20128,0.41784 0.32969,0.60824 0.12842,0.19039 0.27438,0.36791 0.43615,0.52968 0.16177,0.16177 0.33929,0.30825 0.52969,0.43666 0.1904,0.12842 0.39393,0.23885 0.60823,0.32919 0.2143,0.0903 0.43935,0.1602 0.67283,0.20773 0.23347,0.0475 0.47503,0.0729 0.72295,0.0729 h 35.8004 c 0.24792,0 0.48948,-0.0253 0.72295,-0.0729 0.23347,-0.0475 0.45853,-0.1174 0.67283,-0.20773 0.21429,-0.0903 0.41783,-0.20077 0.60823,-0.32919 0.1904,-0.12841 0.36791,-0.27489 0.52968,-0.43666 0.16177,-0.16177 0.30773,-0.33929 0.43615,-0.52968 0.12842,-0.1904 0.23936,-0.39394 0.3297,-0.60824 0.0903,-0.21429 0.16021,-0.43935 0.20774,-0.67282 0.0475,-0.23347 0.0723,-0.47504 0.0723,-0.72296 0,-0.24791 -0.0248,-0.48999 -0.0723,-0.72347 -0.0475,-0.23347 -0.1174,-0.45853 -0.20774,-0.67282 -0.0903,-0.2143 -0.20128,-0.41784 -0.3297,-0.60824 -0.12842,-0.19039 -0.27438,-0.36739 -0.43615,-0.52916 -0.16177,-0.16177 -0.33928,-0.30825 -0.52968,-0.43667 -0.1904,-0.12842 -0.39394,-0.23884 -0.60823,-0.32918 -0.2143,-0.0903 -0.43936,-0.16072 -0.67283,-0.20825 -0.23347,-0.0475 -0.47503,-0.0724 -0.72295,-0.0724 z"
         style="opacity:1;fill:#ffffff;fill-opacity:1;stroke:none;stroke-width:11.90625;stroke-linecap:round;stroke-linejoin:round;stroke-miterlimit:4;stroke-dasharray:none;stroke-dashoffset:2.64566922;stroke-opacity:1;paint-order:markers stroke fill" />
      <path
         inkscape:connector-curvature="0"
         id="path851"
         d="m 17.099934,243.76724 c -0.24792,0 -0.48948,0.0253 -0.72295,0.0729 -0.23348,0.0475 -0.45853,0.1174 -0.67283,0.20774 -0.2143,0.0903 -0.41783,0.20076 -0.60823,0.32918 -0.1904,0.12842 -0.36792,0.27489 -0.52969,0.43667 -0.16177,0.16177 -0.30773,0.33928 -0.43615,0.52968 -0.12841,0.1904 -0.23935,0.39393 -0.32969,0.60823 -0.0903,0.2143 -0.16021,0.43936 -0.20774,0.67283 -0.0475,0.23347 -0.0724,0.47503 -0.0724,0.72295 0,0.24792 0.0248,0.49 0.0724,0.72347 0.0475,0.23347 0.1174,0.45853 0.20774,0.67283 0.0903,0.2143 0.20128,0.41783 0.32969,0.60823 0.12842,0.1904 0.27438,0.3674 0.43615,0.52917 0.16177,0.16177 0.33929,0.30824 0.52969,0.43666 0.1904,0.12842 0.39393,0.23884 0.60823,0.32918 0.2143,0.0903 0.43935,0.16072 0.67283,0.20826 0.23347,0.0475 0.47503,0.0723 0.72295,0.0723 h 35.8004 c 0.24792,0 0.48948,-0.0248 0.72295,-0.0723 0.23347,-0.0475 0.45853,-0.11792 0.67283,-0.20826 0.21429,-0.0903 0.41783,-0.20076 0.60823,-0.32918 0.1904,-0.12842 0.36791,-0.27489 0.52968,-0.43666 0.16177,-0.16177 0.30773,-0.33877 0.43615,-0.52917 0.12842,-0.1904 0.23936,-0.39393 0.3297,-0.60823 0.0903,-0.2143 0.16021,-0.43936 0.20774,-0.67283 0.0475,-0.23347 0.0723,-0.47555 0.0723,-0.72347 0,-0.24792 -0.0248,-0.48948 -0.0723,-0.72295 -0.0475,-0.23347 -0.1174,-0.45853 -0.20774,-0.67283 -0.0903,-0.2143 -0.20128,-0.41783 -0.3297,-0.60823 -0.12842,-0.1904 -0.27438,-0.36791 -0.43615,-0.52968 -0.16177,-0.16178 -0.33928,-0.30825 -0.52968,-0.43667 -0.1904,-0.12842 -0.39394,-0.23884 -0.60823,-0.32918 -0.2143,-0.0903 -0.43936,-0.1602 -0.67283,-0.20774 -0.23347,-0.0475 -0.47503,-0.0729 -0.72295,-0.0729 z"
         style="opacity:1;fill:#ffffff;fill-opacity:1;stroke:none;stroke-width:11.90625;stroke-linecap:round;stroke-linejoin:round;stroke-miterlimit:4;stroke-dasharray:none;stroke-dashoffset:2.64566922;stroke-opacity:1;paint-order:markers stroke fill" />
    </g>
  </g>
</svg>
