<?xml version="1.0" encoding="UTF-8" standalone="no"?>
<!-- Created with Inkscape (http://www.inkscape.org/) -->

<svg
   xmlns:dc="http://purl.org/dc/elements/1.1/"
   xmlns:cc="http://creativecommons.org/ns#"
   xmlns:rdf="http://www.w3.org/1999/02/22-rdf-syntax-ns#"
   xmlns:svg="http://www.w3.org/2000/svg"
   xmlns="http://www.w3.org/2000/svg"
   xmlns:sodipodi="http://sodipodi.sourceforge.net/DTD/sodipodi-0.dtd"
   xmlns:inkscape="http://www.inkscape.org/namespaces/inkscape"
   width="100mm"
   height="100mm"
   viewBox="0 0 100 100"
   version="1.1"
   id="svg8"
   sodipodi:docname="wand.svg"
   inkscape:version="0.92.4 (5da689c313, 2019-01-14)">
  <defs
     id="defs2" />
  <sodipodi:namedview
     id="base"
     pagecolor="#ffffff"
     bordercolor="#666666"
     borderopacity="1.0"
     inkscape:pageopacity="0.0"
     inkscape:pageshadow="2"
     inkscape:zoom="0.7"
     inkscape:cx="-211.34974"
     inkscape:cy="239.69832"
     inkscape:document-units="mm"
     inkscape:current-layer="layer1"
     showgrid="false"
     inkscape:window-width="1920"
     inkscape:window-height="1017"
     inkscape:window-x="-8"
     inkscape:window-y="-8"
     inkscape:window-maximized="1"
     inkscape:snap-smooth-nodes="true"
     inkscape:pagecheckerboard="true" />
  <metadata
     id="metadata5">
    <rdf:RDF>
      <cc:Work
         rdf:about="">
        <dc:format>image/svg+xml</dc:format>
        <dc:type
           rdf:resource="http://purl.org/dc/dcmitype/StillImage" />
        <dc:title />
      </cc:Work>
    </rdf:RDF>
  </metadata>
  <g
     inkscape:label="Layer 1"
     inkscape:groupmode="layer"
     id="layer1"
     transform="translate(0,-197)">
    <path
       style="opacity:1;fill:#ffffff;fill-opacity:1;stroke:none;stroke-width:2.89133835;stroke-linecap:round;stroke-linejoin:round;stroke-miterlimit:4;stroke-dasharray:none;stroke-dashoffset:2.64566922;stroke-opacity:1;paint-order:markers fill stroke"
       d="m 90.545027,199.20779 c -3.53929,-1.99067 -7.91903,-2.35617 -11.74071,-0.37586 -1.30239,0.67484 -2.43662,1.59918 -3.35973,2.68689 -0.26058,0.35844 -0.50232,0.73037 -0.7245,1.11384 -1.58011,2.74773 -2.08918,5.98238 -1.43013,9.08271 0.17566,0.51946 0.39784,1.0313 0.67004,1.53049 2.23122,4.09218 7.56112,6.10236 11.68583,3.68448 3.04476,-1.78487 4.53642,-5.90384 2.53643,-8.9456 -0.65916,-1.00251 -1.75655,-1.77824 -2.9072,-2.07317 -1.15004,-0.29548 -2.30864,-0.14376 -3.27909,0.64203 -0.48487,0.39256 -0.91527,1.12208 -1.0223,1.78875 -0.10738,0.66642 0.0223,1.18516 0.56439,1.58414 -0.027,-0.0198 0.42605,0.0948 0.66903,0.0765 -0.2296,-0.9934 1.19969,-1.42906 1.56354,-0.47638 0.18209,0.46513 0.1618,1.05063 -0.12495,1.45126 -0.28705,0.40062 -0.6927,0.55908 -1.05259,0.63431 -0.72006,0.15018 -1.39824,0.0927 -2.02203,-0.36361 -1.06879,-0.78145 -1.39293,-2.0617 -1.21474,-3.1666 0.17813,-1.10487 0.76898,-2.12109 1.60899,-2.80135 1.39994,-1.13315 3.15609,-1.35484 4.71755,-0.95362 1.56136,0.40126 2.97182,1.39475 3.86913,2.75945 2.5683,3.90617 0.71504,9.03509 -3.07705,11.258 -3.00413,1.76098 -5.10069,1.42837 -8.93246,0.21475 -8.04043,-5.07001 -63.90491,54.28061 -71.5129201,70.48233 -2.03777,2.57265 -3.43968,4.51216 -3.38364,4.87081 0.0322,0.20708 3.97221,4.83113 3.7605,1.15446 -0.26629,-4.62447 63.1878901,-76.11507 72.3914201,-71.40614 11.18005,0.22837 13.71294,-1.70198 17.05632,-7.42869 1.99619,-3.41922 1.97659,-7.61107 0.093,-11.38189 -1.20966,-2.42179 -3.13321,-4.3658 -5.40201,-5.64176 z"
       id="path856"
       inkscape:connector-curvature="0"
       sodipodi:nodetypes="csccccccccccccccccccssccsscsscc" />
  </g>
</svg>
