<?xml version="1.0" encoding="UTF-8" standalone="no"?>
<!-- Created with Inkscape (http://www.inkscape.org/) -->

<svg
   xmlns:dc="http://purl.org/dc/elements/1.1/"
   xmlns:cc="http://creativecommons.org/ns#"
   xmlns:rdf="http://www.w3.org/1999/02/22-rdf-syntax-ns#"
   xmlns:svg="http://www.w3.org/2000/svg"
   xmlns="http://www.w3.org/2000/svg"
   xmlns:sodipodi="http://sodipodi.sourceforge.net/DTD/sodipodi-0.dtd"
   xmlns:inkscape="http://www.inkscape.org/namespaces/inkscape"
   width="300mm"
   height="100mm"
   viewBox="0 0 300 100"
   version="1.1"
   id="svg8"
   inkscape:version="0.92.4 (5da689c313, 2019-01-14)"
   sodipodi:docname="playstyle.svg">
  <defs
     id="defs2" />
  <sodipodi:namedview
     id="base"
     pagecolor="#ffffff"
     bordercolor="#666666"
     borderopacity="1.0"
     inkscape:pageopacity="0.0"
     inkscape:pageshadow="2"
     inkscape:zoom="0.49497475"
     inkscape:cx="256.64157"
     inkscape:cy="460.41631"
     inkscape:document-units="mm"
     inkscape:current-layer="layer1"
     showgrid="false"
     inkscape:pagecheckerboard="true"
     inkscape:window-width="1920"
     inkscape:window-height="1017"
     inkscape:window-x="-8"
     inkscape:window-y="-8"
     inkscape:window-maximized="1" />
  <metadata
     id="metadata5">
    <rdf:RDF>
      <cc:Work
         rdf:about="">
        <dc:format>image/svg+xml</dc:format>
        <dc:type
           rdf:resource="http://purl.org/dc/dcmitype/StillImage" />
        <dc:title></dc:title>
      </cc:Work>
    </rdf:RDF>
  </metadata>
  <g
     inkscape:label="Layer 1"
     inkscape:groupmode="layer"
     id="layer1"
     transform="translate(0,-197)">
    <g
       transform="matrix(0.70732567,0,0,0.70732567,114.63372,72.290557)"
       id="layer1-1"
       inkscape:label="Layer 1"
       style="stroke-width:1.41377592">
      <path
         sodipodi:nodetypes="ccccccccccccccccccccccccscccccscccccccccccccsc"
         inkscape:connector-curvature="0"
         id="path825"
         d="m 2.6682174,199.30943 c -0.11545,0.11373 -0.20807,0.23276 -0.26058,0.34243 -1.31173,2.72802 -0.3653,5.94585 1.67104,8.95954 l 10.7824296,68.99599 -3.40113,3.40111 3.95805,-0.0991 1.2044,1.20439 -0.11376,3.94339 3.52335,-3.5233 67.787017,9.98705 c 3.174172,2.30728 6.628416,3.46635 9.529225,2.07148 0.438273,-0.21069 1.031996,-1.05681 0.79333,-1.48162 -1.814977,-3.23469 -7.879469,-1.92172 -10.333922,-4.80524 -7.19357,-8.45123 1.459915,-26.5369 -2.628228,-38.85893 -1.104329,-3.32759 -2.807912,-6.70233 -4.927952,-9.61276 -2.96424,-4.06937 -3.36736,-5.06534 -9.37012,-11.15074 l 5.92858,-5.92865 5.826,-2.77554 4.03117,-9.11435 -9.11395,4.03156 -2.77597,5.8256 -5.9246,5.92456 c -6.36053,-6.32746 -7.41579,-6.78692 -11.68659,-9.89796 -2.91049,-2.12007 -6.28514,-3.82393 -9.61278,-4.92794 -12.32206,-4.08818 -30.40773,4.56533 -38.8589296,-2.62825 -2.88357,-2.45446 -1.57059,-8.51895 -4.80525,-10.33392 -0.31828,-0.17854 -0.87398,0.11072 -1.22085,0.45112 z m 3.72695,12.02633 c 1.21382,1.47664 1.55724,1.77531 3.0691,2.99184 7.2333396,5.82034 20.0019896,2.82311 30.7245196,5.37437 3.51352,0.83599 7.0742,1.95126 10.09904,3.92456 4.42606,2.88728 5.58231,3.25413 11.97855,9.60606 l -39.73455,39.73457 -3.21326,0.18282 -2.54291,2.54288 z m 18.1692596,63.66415 39.72956,-39.72947 c 6.01924,6.12836 6.32754,7.22344 9.07925,11.44159 1.97325,3.02489 3.08854,6.58557 3.92453,10.09905 2.55146,10.72251 -0.44599,23.49119 5.37436,30.72454 1.097003,1.36325 1.243619,1.57213 2.55931,2.70519 l -63.28016,-9.62623 2.41584,-2.41591 z"
         style="opacity:1;fill:#ffffff;fill-opacity:1;stroke:none;stroke-width:16.83241463;stroke-linecap:round;stroke-linejoin:round;stroke-miterlimit:4;stroke-dasharray:none;stroke-dashoffset:2.64566922;stroke-opacity:1;paint-order:markers fill stroke" />
    </g>
    <g
       transform="matrix(0.70732567,0,0,0.70732567,-1.5592764,72.290565)"
       id="layer1-4"
       inkscape:label="Layer 1"
       style="stroke-width:1.41377592">
      <path
         sodipodi:nodetypes="ccccccccccaaacccccccccccccccccccc"
         inkscape:connector-curvature="0"
         id="rect815"
         d="m 97.795528,199.20395 -9.719576,2.88805 -60.588636,60.58862 -10.82017,-10.82023 -6.097875,-1.17229 2.261153,5.00904 6.492247,6.49221 6.486828,6.48682 -12.866991,12.867 -6.5401297,6.54012 c 0,0 -2.7714305,0.40187 -3.4679284,1.44218 -0.8447133,1.26169 -1.0883344,3.48136 -0.014817,4.55508 1.0736897,1.07378 3.2936307,0.83036 4.5554742,-0.0143 1.0403543,-0.69646 1.4421826,-3.46796 1.4421826,-3.46796 l 6.5401013,-6.5401 12.867,-12.867 6.485666,6.48566 6.492238,6.4922 5.008994,2.26126 -1.172314,-6.09791 -10.82021,-10.82016 60.588636,-60.58862 z m -7.858102,7.84849 c 0.223111,0.21341 -0.0015,0.79322 -0.498699,1.28585 l -50.31067,50.31069 -5.759535,6.16771 -1.814408,0.6285 0.628582,-1.81444 6.167686,-5.75949 50.310708,-50.31068 c 0.484482,-0.48862 1.054999,-0.71601 1.276818,-0.50936 z"
         style="opacity:1;fill:#ffffff;fill-opacity:1;stroke:none;stroke-width:16.83241272;stroke-linecap:round;stroke-linejoin:round;stroke-miterlimit:4;stroke-dasharray:none;stroke-dashoffset:2.64566922;stroke-opacity:1;paint-order:markers fill stroke" />
    </g>
    <g
       transform="matrix(0.70732567,0,0,0.70732567,231.13781,72.290562)"
       id="layer1-8"
       inkscape:label="Layer 1"
       style="stroke-width:1.41377592">
      <path
         sodipodi:nodetypes="csccccccccccccccccccssccsscsscc"
         inkscape:connector-curvature="0"
         id="path856"
         d="m 90.545027,199.20779 c -3.53929,-1.99067 -7.91903,-2.35617 -11.74071,-0.37586 -1.30239,0.67484 -2.43662,1.59918 -3.35973,2.68689 -0.26058,0.35844 -0.50232,0.73037 -0.7245,1.11384 -1.58011,2.74773 -2.08918,5.98238 -1.43013,9.08271 0.17566,0.51946 0.39784,1.0313 0.67004,1.53049 2.23122,4.09218 7.56112,6.10236 11.68583,3.68448 3.04476,-1.78487 4.53642,-5.90384 2.53643,-8.9456 -0.65916,-1.00251 -1.75655,-1.77824 -2.9072,-2.07317 -1.15004,-0.29548 -2.30864,-0.14376 -3.27909,0.64203 -0.48487,0.39256 -0.91527,1.12208 -1.0223,1.78875 -0.10738,0.66642 0.0223,1.18516 0.56439,1.58414 -0.027,-0.0198 0.42605,0.0948 0.66903,0.0765 -0.2296,-0.9934 1.19969,-1.42906 1.56354,-0.47638 0.18209,0.46513 0.1618,1.05063 -0.12495,1.45126 -0.28705,0.40062 -0.6927,0.55908 -1.05259,0.63431 -0.72006,0.15018 -1.39824,0.0927 -2.02203,-0.36361 -1.06879,-0.78145 -1.39293,-2.0617 -1.21474,-3.1666 0.17813,-1.10487 0.76898,-2.12109 1.60899,-2.80135 1.39994,-1.13315 3.15609,-1.35484 4.71755,-0.95362 1.56136,0.40126 2.97182,1.39475 3.86913,2.75945 2.5683,3.90617 0.71504,9.03509 -3.07705,11.258 -3.00413,1.76098 -5.10069,1.42837 -8.93246,0.21475 -8.04043,-5.07001 -63.90491,54.28061 -71.5129201,70.48233 -2.03777,2.57265 -3.43968,4.51216 -3.38364,4.87081 0.0322,0.20708 3.97221,4.83113 3.7605,1.15446 -0.26629,-4.62447 63.1878901,-76.11507 72.3914201,-71.40614 11.18005,0.22837 13.71294,-1.70198 17.05632,-7.42869 1.99619,-3.41922 1.97659,-7.61107 0.093,-11.38189 -1.20966,-2.42179 -3.13321,-4.3658 -5.40201,-5.64176 z"
         style="opacity:1;fill:#ffffff;fill-opacity:1;stroke:none;stroke-width:4.08770466;stroke-linecap:round;stroke-linejoin:round;stroke-miterlimit:4;stroke-dasharray:none;stroke-dashoffset:2.64566922;stroke-opacity:1;paint-order:markers fill stroke" />
    </g>
  </g>
</svg>
