<?xml version="1.0" encoding="UTF-8" standalone="no"?>
<!-- Created with Inkscape (http://www.inkscape.org/) -->

<svg
   xmlns:dc="http://purl.org/dc/elements/1.1/"
   xmlns:cc="http://creativecommons.org/ns#"
   xmlns:rdf="http://www.w3.org/1999/02/22-rdf-syntax-ns#"
   xmlns:svg="http://www.w3.org/2000/svg"
   xmlns="http://www.w3.org/2000/svg"
   xmlns:sodipodi="http://sodipodi.sourceforge.net/DTD/sodipodi-0.dtd"
   xmlns:inkscape="http://www.inkscape.org/namespaces/inkscape"
   width="338.45712"
   height="719.6156"
   viewBox="0 0 89.550112 190.39829"
   version="1.1"
   id="svg8"
   inkscape:version="0.92.4 (5da689c313, 2019-01-14)"
   sodipodi:docname="artwork.svg">
  <defs
     id="defs2">
    <filter
       style="color-interpolation-filters:sRGB"
       inkscape:label="Drop Shadow"
       id="filter2131">
      <feFlood
         flood-opacity="0.498039"
         flood-color="rgb(0,0,0)"
         result="flood"
         id="feFlood2121" />
      <feComposite
         in="flood"
         in2="SourceGraphic"
         operator="in"
         result="composite1"
         id="feComposite2123" />
      <feGaussianBlur
         in="composite1"
         stdDeviation="5"
         result="blur"
         id="feGaussianBlur2125" />
      <feOffset
         dx="0"
         dy="0"
         result="offset"
         id="feOffset2127" />
      <feComposite
         in="SourceGraphic"
         in2="offset"
         operator="over"
         result="composite2"
         id="feComposite2129" />
    </filter>
  </defs>
  <sodipodi:namedview
     id="base"
     pagecolor="#ffffff"
     bordercolor="#606060"
     borderopacity="1"
     inkscape:pageopacity="0.0"
     inkscape:pageshadow="2"
     inkscape:zoom="0.90509668"
     inkscape:cx="199.12202"
     inkscape:cy="374.32297"
     inkscape:document-units="px"
     inkscape:current-layer="layer1"
     showgrid="false"
     units="px"
     showborder="true"
     inkscape:showpageshadow="false"
     borderlayer="true"
     inkscape:pagecheckerboard="true"
     inkscape:window-width="1920"
     inkscape:window-height="1017"
     inkscape:window-x="-8"
     inkscape:window-y="-8"
     inkscape:window-maximized="1"
     fit-margin-top="0"
     fit-margin-left="0"
     fit-margin-right="0"
     fit-margin-bottom="0" />
  <metadata
     id="metadata5">
    <rdf:RDF>
      <cc:Work
         rdf:about="">
        <dc:format>image/svg+xml</dc:format>
        <dc:type
           rdf:resource="http://purl.org/dc/dcmitype/StillImage" />
        <dc:title></dc:title>
      </cc:Work>
    </rdf:RDF>
  </metadata>
  <g
     inkscape:label="Layer 1"
     inkscape:groupmode="layer"
     id="layer1"
     transform="translate(-124.55828,-106.55087)">
    <g
       id="g2072"
       transform="matrix(0.92709718,0,0,0.92709718,12.344877,39.237632)"
       style="stroke-width:1.07863557;filter:url(#filter2131)">
      <path
         sodipodi:nodetypes="ccccccccccccccccccsccccccccccccccsccccccc"
         inkscape:connector-curvature="0"
         id="path4508"
         transform="matrix(0.26458333,0,0,0.26458333,0,106.50002)"
         d="m 535.17578,241.88281 c -25.72414,2.7e-4 -47.28906,13.07617 -47.28906,13.07617 l 13.02344,21.74219 21.29869,-0.0425 3.79781,3.60878 5.69856,3.60901 -26.72866,0.0435 c 3.0536,8.67946 7.84375,21.74219 7.84375,21.74219 h 163.68946 l 25.54296,-44.24023 C 576.80721,260.14793 569.4903,241.88281 535.17578,241.88281 Z m 256.9375,13.07617 c 0,0 -25.38994,3.29198 -49.32422,5.20313 l -9.54883,16.53906 h 24.38086 21.33594 c 4.97998,-9.06965 13.15625,-21.74219 13.15625,-21.74219 z m -58.92383,5.89649 c -6.26597,0.39373 -12.1633,0.64062 -17.13281,0.64062 -1.66024,0 -3.21132,-0.0159 -4.83398,-0.0215 l -25.51172,44.1875 h 21.60937 l 16.72071,-28.96094 z m -4.11718,23.06445 -12.55274,21.74219 h 50.33985 c 0,0 4.86734,-13.06443 7.9746,-21.74219 h -26.71093 z m -214.54493,29.70899 c 0,0 -1.62456,10.37961 -3.27539,15.34179 -1.77785,5.34369 -7.07422,15.34375 -7.07422,15.34375 0,0 60.37316,11.10477 89.26954,8.91797 55.42877,-4.19471 62.82938,-24.18031 101.67578,-27.59961 16.18352,-1.42427 75.11718,6.54492 75.11718,6.54492 0,0 -3.77876,-7.1319 -5.04687,-10.94335 -1.1774,-3.53915 -0.041,-7.60547 -0.041,-7.60547 h -53.23242 -30.80859 z"
         style="fill:#ffffff;fill-opacity:1;stroke:none;stroke-width:1.07863533px;stroke-linecap:butt;stroke-linejoin:miter;stroke-opacity:1" />
      <path
         id="path4510"
         d="m 172.77452,89.720652 c 0,0 -5.20809,4.564978 -8.40701,13.467678 -2.86229,7.58261 -0.78329,14.59701 1.25008,18.1189 3.22853,5.59205 9.7143,9.68769 13.83419,13.55986 3.98423,3.98429 6.71916,8.32941 8.17721,13.19767 0.68319,2.65844 1.11527,4.49535 0.90953,6.84175 -0.23098,2.54612 -0.95334,4.96005 -2.50821,6.8154 -3.33353,3.97756 -10.14154,6.74453 -13.44604,7.84888 -2.65236,0.87482 -4.24639,1.28382 -4.24639,1.28382 0,0 1.66104,0.16553 4.63833,0.15775 3.6765,0 12.32475,-0.17469 19.584,-4.91703 3.47971,-2.2733 6.19902,-5.54982 7.72179,-9.30092 1.39875,-3.41107 1.91307,-7.00074 1.71864,-10.53276 0,-5.97327 -3.43297,-13.41564 -8.72899,-18.71167 -3.17094,-2.81489 -8.13622,-6.33173 -10.86141,-8.32784 -4.13669,-2.98454 -9.50791,-7.6449 -10.33238,-15.17671 -0.70019,-8.215716 0.69666,-14.324778 0.69666,-14.324778 z"
         style="fill:#ffffff;fill-opacity:1;stroke:none;stroke-width:0.28538895px;stroke-linecap:butt;stroke-linejoin:miter;stroke-opacity:1"
         inkscape:connector-curvature="0"
         sodipodi:nodetypes="ccscccacccscccccc" />
      <path
         sodipodi:nodetypes="cccccccccccccacc"
         inkscape:connector-curvature="0"
         id="path4512"
         d="m 158.60181,142.35954 c -3.7847,-0.35768 -6.04813,6.08062 -5.71778,9.8678 0.2891,0.40789 0.38887,0.47987 0.60004,0.71353 0.65351,0.70699 1.34043,1.34782 2.03755,1.92608 1.51257,1.2546 3.08732,2.22924 4.55118,3.06326 2.18759,1.33697 3.99273,2.19008 5.33088,3.33994 1.43444,1.1477 3.25468,3.02004 3.61942,4.05013 0.77191,2.16818 -0.009,3.92807 -0.009,3.92807 0,0 2.23662,-0.89273 3.30581,-3.81222 0.50817,-1.39313 1.53532,-4.44063 0.29916,-7.08901 -1.22713,-2.48571 -3.20931,-4.60263 -5.28458,-6.29747 -1.29892,-1.13084 -2.59346,-2.11026 -3.62204,-2.94029 -0.48471,-0.39109 -0.93019,-0.76433 -1.31867,-1.13515 -1.41038,-1.2914 -2.48022,-2.74905 -3.35314,-4.36198 -0.21051,-0.38906 -0.23836,-0.40298 -0.43848,-1.25269 z"
         style="fill:#ffffff;fill-opacity:1;stroke:none;stroke-width:0.28538895px;stroke-linecap:butt;stroke-linejoin:miter;stroke-opacity:1" />
      <path
         sodipodi:nodetypes="cccscccccccccacccc"
         inkscape:connector-curvature="0"
         id="path4514"
         d="m 151.43337,109.64226 c 0,0 0.96948,1.33468 1.79259,3.61328 0.83343,2.30704 1.35671,5.41907 0.46182,8.65028 -0.77158,2.93943 -3.05894,6.19386 -5.11232,8.24723 -3.29024,3.29031 -6.83939,6.16548 -9.39211,10.32734 -2.53665,4.34329 -3.14067,9.10276 -2.01193,13.55477 1.2376,4.84237 4.40768,8.75861 8.1151,11.49727 3.64172,2.60503 7.4593,3.99515 10.44221,4.70188 2.96533,0.70254 5.28237,0.77747 6.38195,0.77936 0.65927,-0.0959 0.9838,-0.15913 0.9838,-0.15913 0,0 -0.30976,-0.11519 -0.83918,-0.31656 -2.01075,-1.18797 -6.81887,-4.337 -8.64689,-9.34452 -0.83349,-2.78266 -1.63352,-6.52905 -0.72438,-8.96612 1.36534,-3.5479 3.7135,-6.63751 5.71778,-9.8678 1.39868,-2.25435 3.06169,-4.03837 4.39807,-6.63333 2.58639,-5.06387 2.58136,-10.24196 0.96863,-14.51738 -1.80128,-4.67775 -5.35964,-7.69865 -7.98945,-9.35707 -2.68106,-1.69073 -4.54569,-2.2095 -4.54569,-2.2095 z"
         style="fill:#ffffff;fill-opacity:1;stroke:none;stroke-width:0.28538895px;stroke-linecap:butt;stroke-linejoin:miter;stroke-opacity:1" />
      <path
         sodipodi:nodetypes="csccsc"
         inkscape:connector-curvature="0"
         id="path4516"
         d="m 136.85643,199.67545 c 0,0 7.20577,1.86385 10.47052,2.35653 2.89164,0.4364 7.85922,0.54009 7.85922,0.54009 l 2.73898,18.08725 c 0,0 -6.9674,-10.34212 -10.63233,-14.00705 -3.66492,-3.66493 -10.43639,-6.97682 -10.43639,-6.97682 z"
         style="opacity:1;vector-effect:none;fill:#ffffff;fill-opacity:1;stroke:none;stroke-width:5.70777893;stroke-linecap:round;stroke-linejoin:round;stroke-miterlimit:4;stroke-dasharray:none;stroke-dashoffset:9.99938011;stroke-opacity:1;paint-order:normal" />
      <path
         style="opacity:1;vector-effect:none;fill:#ffffff;fill-opacity:1;stroke:none;stroke-width:5.70777893;stroke-linecap:round;stroke-linejoin:round;stroke-miterlimit:4;stroke-dasharray:none;stroke-dashoffset:9.99938011;stroke-opacity:1;paint-order:normal"
         d="m 202.3544,196.14664 c 0,0 -7.2263,0.13128 -10.69758,0.76714 -2.74179,0.50223 -7.63215,2.12948 -7.63215,2.12948 l -2.71729,15.28105 c 0,0 4.65102,-7.81116 8.0713,-10.28432 3.53542,-2.55646 12.97572,-7.89335 12.97572,-7.89335 z"
         id="path4518"
         inkscape:connector-curvature="0"
         sodipodi:nodetypes="csccsc" />
      <path
         sodipodi:nodetypes="csccscc"
         inkscape:connector-curvature="0"
         id="path4520"
         d="m 159.04513,202.57207 c 0,0 7.58816,0.42711 11.0531,-0.85076 4.03359,-1.48766 10.36127,-7.68047 10.36127,-7.68047 l -5.03438,45.69327 c 0,0 -4.75837,4.05973 -5.93124,6.09123 -2.65334,4.59571 -4.99679,15.03729 -4.99679,15.03729 z"
         style="opacity:1;vector-effect:none;fill:#ffffff;fill-opacity:1;stroke:none;stroke-width:5.70777893;stroke-linecap:round;stroke-linejoin:round;stroke-miterlimit:4;stroke-dasharray:none;stroke-dashoffset:9.99938011;stroke-opacity:1;paint-order:normal" />
      <path
         inkscape:connector-curvature="0"
         style="opacity:1;vector-effect:none;fill:#ffffff;fill-opacity:0.97979796;stroke:none;stroke-width:5.70777893;stroke-linecap:round;stroke-linejoin:round;stroke-miterlimit:4;stroke-dasharray:none;stroke-dashoffset:9.99938011;stroke-opacity:1;paint-order:normal"
         d="m 149.82045,216.46562 1.87299,6.54715 8.37622,11.80808 -1.35573,-8.95194 z"
         id="path4522" />
      <path
         inkscape:connector-curvature="0"
         style="opacity:1;vector-effect:none;fill:#ffffff;fill-opacity:0.97979796;stroke:none;stroke-width:5.70777893;stroke-linecap:round;stroke-linejoin:round;stroke-miterlimit:4;stroke-dasharray:none;stroke-dashoffset:9.99938011;stroke-opacity:1;paint-order:normal"
         d="m 141.53137,207.7019 0.16652,1.21962 7.28233,10.26615 -1.48113,-5.17613 z"
         id="path4524" />
      <path
         inkscape:connector-curvature="0"
         style="opacity:1;vector-effect:none;fill:#ffffff;fill-opacity:0.97979796;stroke:none;stroke-width:5.70777893;stroke-linecap:round;stroke-linejoin:round;stroke-miterlimit:4;stroke-dasharray:none;stroke-dashoffset:9.99938011;stroke-opacity:1;paint-order:normal"
         d="m 182.73248,223.12463 1.34462,-7.55972 -3.5751,3.28829 -1.64633,9.25803 z"
         id="path4526" />
      <path
         inkscape:connector-curvature="0"
         style="opacity:1;vector-effect:none;fill:#ffffff;fill-opacity:0.97979796;stroke:none;stroke-width:5.70777893;stroke-linecap:round;stroke-linejoin:round;stroke-miterlimit:4;stroke-dasharray:none;stroke-dashoffset:9.99938011;stroke-opacity:1;paint-order:normal"
         d="m 197.66429,203.06665 -11.96688,11.0074 -1.20713,6.7897 12.90884,-16.60383 z"
         id="path4528" />
    </g>
  </g>
</svg>
