<?xml version="1.0" encoding="UTF-8" standalone="no"?>
<!-- Created with Inkscape (http://www.inkscape.org/) -->

<svg
   xmlns:dc="http://purl.org/dc/elements/1.1/"
   xmlns:cc="http://creativecommons.org/ns#"
   xmlns:rdf="http://www.w3.org/1999/02/22-rdf-syntax-ns#"
   xmlns:svg="http://www.w3.org/2000/svg"
   xmlns="http://www.w3.org/2000/svg"
   xmlns:sodipodi="http://sodipodi.sourceforge.net/DTD/sodipodi-0.dtd"
   xmlns:inkscape="http://www.inkscape.org/namespaces/inkscape"
   width="32"
   height="32"
   viewBox="0 0 8.4666667 8.4666667"
   version="1.1"
   id="svg8"
   inkscape:version="0.92.4 (5da689c313, 2019-01-14)"
   sodipodi:docname="icon32.svg">
  <defs
     id="defs2">
    <filter
       id="filter2131"
       inkscape:label="Drop Shadow"
       style="color-interpolation-filters:sRGB;">
      <feFlood
         id="feFlood2121"
         result="flood"
         flood-color="rgb(0,0,0)"
         flood-opacity="0.498039" />
      <feComposite
         id="feComposite2123"
         result="composite1"
         operator="in"
         in2="SourceGraphic"
         in="flood" />
      <feGaussianBlur
         id="feGaussianBlur2125"
         result="blur"
         stdDeviation="5"
         in="composite1" />
      <feOffset
         id="feOffset2127"
         result="offset"
         dy="0"
         dx="0" />
      <feComposite
         id="feComposite2129"
         result="composite2"
         operator="over"
         in2="offset"
         in="SourceGraphic" />
    </filter>
    <filter
       id="filter2143"
       inkscape:label="Drop Shadow"
       style="color-interpolation-filters:sRGB;">
      <feFlood
         id="feFlood2133"
         result="flood"
         flood-color="rgb(0,0,0)"
         flood-opacity="0.498039" />
      <feComposite
         id="feComposite2135"
         result="composite1"
         operator="in"
         in2="SourceGraphic"
         in="flood" />
      <feGaussianBlur
         id="feGaussianBlur2137"
         result="blur"
         stdDeviation="5"
         in="composite1" />
      <feOffset
         id="feOffset2139"
         result="offset"
         dy="0"
         dx="0" />
      <feComposite
         id="feComposite2141"
         result="composite2"
         operator="over"
         in2="offset"
         in="SourceGraphic" />
    </filter>
  </defs>
  <sodipodi:namedview
     id="base"
     pagecolor="#ffffff"
     bordercolor="#666666"
     borderopacity="1.0"
     inkscape:pageopacity="0.0"
     inkscape:pageshadow="2"
     inkscape:zoom="11.2"
     inkscape:cx="10.331004"
     inkscape:cy="14.113392"
     inkscape:document-units="px"
     inkscape:current-layer="g1149"
     showgrid="false"
     inkscape:pagecheckerboard="true"
     borderlayer="true"
     showborder="true"
     inkscape:showpageshadow="false"
     units="px"
     inkscape:window-width="1920"
     inkscape:window-height="1017"
     inkscape:window-x="-8"
     inkscape:window-y="-8"
     inkscape:window-maximized="1" />
  <metadata
     id="metadata5">
    <rdf:RDF>
      <cc:Work
         rdf:about="">
        <dc:format>image/svg+xml</dc:format>
        <dc:type
           rdf:resource="http://purl.org/dc/dcmitype/StillImage" />
        <dc:title></dc:title>
      </cc:Work>
    </rdf:RDF>
  </metadata>
  <g
     inkscape:label="Layer 1"
     inkscape:groupmode="layer"
     id="layer1"
     transform="translate(0,-288.53333)">
    <g
       id="g1149"
       transform="matrix(0.73114225,0,0,0.73114225,1.0902412,77.569301)"
       style="stroke-width:1.36772287">
      <g
         id="g1155"
         transform="matrix(1.1364749,0,0,1.1364749,-0.30962387,-39.348904)"
         style="stroke-width:1.20347822">
        <path
           style="fill:#ffffff;fill-opacity:1;stroke:none;stroke-width:0.31842017px;stroke-linecap:butt;stroke-linejoin:miter;stroke-opacity:1"
           d="m 1.493298,295.9755 c -0.62866941,0 -1.15569212,0.31956 -1.15569212,0.31956 l 0.31827842,0.53136 0.5205163,-10e-4 0.092814,0.0882 0.1392665,0.0882 -0.6532188,10e-4 c 0.0746266,0.21212 0.19169255,0.53135 0.19169255,0.53135 H 4.9473439 l 0.6242415,-1.08118 C 2.510724,296.42188 2.3319068,295.9755 1.493298,295.9755 Z m 6.2792673,0.31956 c 0,0 -0.6205019,0.0805 -1.2054292,0.12716 l -0.2333628,0.4042 h 0.5958412 0.5214267 c 0.1217052,-0.22165 0.3215241,-0.53136 0.3215241,-0.53136 z m -1.440033,0.14411 c -0.1531333,0.01 -0.2972575,0.0156 -0.4187068,0.0156 -0.040574,0 -0.078481,-3.8e-4 -0.1181371,-5.2e-4 l -0.6234782,1.07989 h 0.5281091 l 0.4086355,-0.70777 z m -0.1006193,0.56367 -0.306775,0.53135 h 1.23025 c 0,0 0.1189524,-0.31928 0.1948904,-0.53135 H 6.6974929 Z m -5.24323994,0.72605 c 0,0 -0.0397024,0.25367 -0.0800469,0.37494 -0.0434487,0.13059 -0.17288609,0.37498 -0.17288609,0.37498 0,0 1.47545303,0.27139 2.18164853,0.21795 1.3546176,-0.10252 1.5354803,-0.59094 2.4848432,-0.67451 0.3955072,-0.0348 1.8357805,0.15996 1.8357805,0.15996 0,0 -0.092349,-0.1743 -0.1233399,-0.26745 -0.028774,-0.0865 -0.001,-0.18587 -0.001,-0.18587 H 5.8127291 5.0598014 Z"
           id="path4508"
           inkscape:connector-curvature="0"
           sodipodi:nodetypes="ccccccccccccccccccsccccccccccccccsccccccc" />
        <path
           sodipodi:nodetypes="ccscccacccscccccc"
           inkscape:connector-curvature="0"
           style="fill:#ffffff;fill-opacity:1;stroke:none;stroke-width:0.31842026px;stroke-linecap:butt;stroke-linejoin:miter;stroke-opacity:1"
           d="m 4.3729413,288.51428 c 0,0 -0.4810581,0.42166 -0.7765343,1.24397 -0.2643824,0.70039 -0.072351,1.34829 0.1154668,1.6736 0.2982111,0.51653 0.8972853,0.89483 1.2778291,1.25249 0.3680133,0.36802 0.6206318,0.76937 0.7553082,1.21904 0.063104,0.24555 0.1030147,0.41522 0.084011,0.63195 -0.021335,0.23518 -0.088058,0.45815 -0.231677,0.62952 -0.3079098,0.3674 -0.9367484,0.62298 -1.2419767,0.72498 -0.2449918,0.0808 -0.3922283,0.11859 -0.3922283,0.11859 0,0 0.153426,0.0153 0.4284308,0.0146 0.339589,0 1.138406,-0.0161 1.8089245,-0.45417 0.321412,-0.20998 0.5725878,-0.51263 0.7132422,-0.85911 0.129199,-0.31507 0.1767055,-0.64664 0.1587465,-0.97288 0,-0.55174 -0.3170948,-1.23917 -0.8062748,-1.72835 -0.2928917,-0.26001 -0.751522,-0.58485 -1.0032409,-0.76922 -0.3820956,-0.27568 -0.8782216,-0.70614 -0.9543758,-1.40184 -0.064675,-0.75886 0.064349,-1.32314 0.064349,-1.32314 z"
           id="path4510" />
        <path
           style="fill:#ffffff;fill-opacity:1;stroke:none;stroke-width:0.31842026px;stroke-linecap:butt;stroke-linejoin:miter;stroke-opacity:1"
           d="m 3.0638439,293.3764 c -0.3495831,-0.033 -0.5586504,0.56165 -0.5281368,0.91146 0.026703,0.0377 0.035919,0.0443 0.055424,0.0659 0.060363,0.0653 0.1238122,0.1245 0.1882034,0.17791 0.1397122,0.11588 0.2851679,0.20591 0.420381,0.28294 0.2020621,0.1235 0.3687983,0.2023 0.4923999,0.30851 0.1324955,0.10601 0.3006265,0.27895 0.3343166,0.3741 0.071299,0.20027 -8.313e-4,0.36282 -8.313e-4,0.36282 0,0 0.2065909,-0.0825 0.3053493,-0.35212 0.046938,-0.12868 0.1418136,-0.41017 0.027633,-0.6548 -0.1133469,-0.2296 -0.2964359,-0.42513 -0.4881233,-0.58168 -0.119978,-0.10445 -0.2395514,-0.19492 -0.3345587,-0.27159 -0.044771,-0.0361 -0.085919,-0.0706 -0.1218022,-0.10485 -0.1302732,-0.11928 -0.2290916,-0.25392 -0.3097211,-0.4029 -0.019444,-0.0359 -0.022017,-0.0372 -0.040501,-0.11571 z"
           id="path4512"
           inkscape:connector-curvature="0"
           sodipodi:nodetypes="cccccccccccccacc" />
        <path
           style="fill:#ffffff;fill-opacity:1;stroke:none;stroke-width:0.31842026px;stroke-linecap:butt;stroke-linejoin:miter;stroke-opacity:1"
           d="m 2.4017133,290.35439 c 0,0 0.089548,0.12328 0.165577,0.33375 0.076982,0.21309 0.1253158,0.50054 0.042657,0.799 -0.071269,0.27151 -0.2825465,0.57211 -0.4722121,0.76178 -0.3039111,0.30392 -0.6317371,0.56949 -0.8675254,0.95391 -0.2343039,0.40118 -0.29009574,0.8408 -0.1858369,1.25202 0.114314,0.44728 0.4071263,0.80901 0.7495713,1.06197 0.3363764,0.24062 0.6889966,0.36902 0.9645205,0.4343 0.2739,0.0649 0.4879191,0.0718 0.5894846,0.072 0.060895,-0.009 0.090871,-0.0147 0.090871,-0.0147 0,0 -0.028612,-0.0106 -0.077513,-0.0292 -0.1857279,-0.10973 -0.6298418,-0.4006 -0.7986914,-0.86313 -0.076987,-0.25703 -0.1508841,-0.60307 -0.066909,-0.82818 0.126113,-0.32771 0.3430066,-0.61309 0.5281368,-0.91146 0.1291926,-0.20823 0.2828006,-0.37301 0.4062386,-0.6127 0.2388983,-0.46774 0.2384337,-0.94603 0.08947,-1.34094 -0.1663796,-0.43207 -0.4950564,-0.7111 -0.7379653,-0.86429 -0.2476427,-0.15616 -0.4198738,-0.20408 -0.4198738,-0.20408 z"
           id="path4514"
           inkscape:connector-curvature="0"
           sodipodi:nodetypes="cccscccccccccacccc" />
      </g>
    </g>
  </g>
</svg>
