<?xml version="1.0" encoding="UTF-8" standalone="no"?>
<!-- Created with Inkscape (http://www.inkscape.org/) -->

<svg
   xmlns:dc="http://purl.org/dc/elements/1.1/"
   xmlns:cc="http://creativecommons.org/ns#"
   xmlns:rdf="http://www.w3.org/1999/02/22-rdf-syntax-ns#"
   xmlns:svg="http://www.w3.org/2000/svg"
   xmlns="http://www.w3.org/2000/svg"
   xmlns:sodipodi="http://sodipodi.sourceforge.net/DTD/sodipodi-0.dtd"
   xmlns:inkscape="http://www.inkscape.org/namespaces/inkscape"
   width="660.6358"
   height="622.44464"
   viewBox="0 0 174.79322 164.68848"
   version="1.1"
   id="svg8"
   inkscape:version="0.92.4 (5da689c313, 2019-01-14)"
   sodipodi:docname="logo.svg"
   inkscape:export-filename="C:\Users\onigi\Desktop\drawing.png"
   inkscape:export-xdpi="96"
   inkscape:export-ydpi="96">
  <defs
     id="defs2">
    <filter
       style="color-interpolation-filters:sRGB"
       inkscape:label="Drop Shadow"
       id="filter2131">
      <feFlood
         flood-opacity="0.498039"
         flood-color="rgb(0,0,0)"
         result="flood"
         id="feFlood2121" />
      <feComposite
         in="flood"
         in2="SourceGraphic"
         operator="in"
         result="composite1"
         id="feComposite2123" />
      <feGaussianBlur
         in="composite1"
         stdDeviation="5"
         result="blur"
         id="feGaussianBlur2125" />
      <feOffset
         dx="0"
         dy="0"
         result="offset"
         id="feOffset2127" />
      <feComposite
         in="SourceGraphic"
         in2="offset"
         operator="over"
         result="composite2"
         id="feComposite2129" />
    </filter>
    <filter
       style="color-interpolation-filters:sRGB"
       inkscape:label="Drop Shadow"
       id="filter2143">
      <feFlood
         flood-opacity="0.498039"
         flood-color="rgb(0,0,0)"
         result="flood"
         id="feFlood2133" />
      <feComposite
         in="flood"
         in2="SourceGraphic"
         operator="in"
         result="composite1"
         id="feComposite2135" />
      <feGaussianBlur
         in="composite1"
         stdDeviation="5"
         result="blur"
         id="feGaussianBlur2137" />
      <feOffset
         dx="0"
         dy="0"
         result="offset"
         id="feOffset2139" />
      <feComposite
         in="SourceGraphic"
         in2="offset"
         operator="over"
         result="composite2"
         id="feComposite2141" />
    </filter>
  </defs>
  <sodipodi:namedview
     id="base"
     pagecolor="#ffffff"
     bordercolor="#606060"
     borderopacity="1"
     inkscape:pageopacity="0.0"
     inkscape:pageshadow="2"
     inkscape:zoom="0.49497475"
     inkscape:cx="318.0768"
     inkscape:cy="319.46182"
     inkscape:document-units="px"
     inkscape:current-layer="layer1"
     showgrid="false"
     units="px"
     showborder="true"
     inkscape:showpageshadow="false"
     borderlayer="true"
     inkscape:pagecheckerboard="true"
     inkscape:window-width="1920"
     inkscape:window-height="1017"
     inkscape:window-x="1912"
     inkscape:window-y="-8"
     inkscape:window-maximized="1"
     inkscape:object-paths="true"
     inkscape:snap-page="true"
     fit-margin-top="0"
     fit-margin-left="0"
     fit-margin-right="0"
     fit-margin-bottom="0" />
  <metadata
     id="metadata5">
    <rdf:RDF>
      <cc:Work
         rdf:about="">
        <dc:format>image/svg+xml</dc:format>
        <dc:type
           rdf:resource="http://purl.org/dc/dcmitype/StillImage" />
        <dc:title></dc:title>
      </cc:Work>
    </rdf:RDF>
  </metadata>
  <g
     inkscape:label="Layer 1"
     inkscape:groupmode="layer"
     id="layer1"
     transform="translate(-81.936715,-111.78605)">
    <g
       id="g2072"
       transform="matrix(0.77304859,0,0,0.77304859,38.430438,55.657729)"
       style="stroke-width:1.2935797;filter:url(#filter2131)">
      <path
         sodipodi:nodetypes="ccccccccccccccccccsccccccccccccccsccccccc"
         inkscape:connector-curvature="0"
         id="path4508"
         transform="matrix(0.26458333,0,0,0.26458333,0,106.50002)"
         d="m 535.17578,241.88281 c -25.72414,2.7e-4 -47.28906,13.07617 -47.28906,13.07617 l 13.02344,21.74219 21.29869,-0.0425 3.79781,3.60878 5.69856,3.60901 -26.72866,0.0435 c 3.0536,8.67946 7.84375,21.74219 7.84375,21.74219 h 163.68946 l 25.54296,-44.24023 C 576.80721,260.14793 569.4903,241.88281 535.17578,241.88281 Z m 256.9375,13.07617 c 0,0 -25.38994,3.29198 -49.32422,5.20313 l -9.54883,16.53906 h 24.38086 21.33594 c 4.97998,-9.06965 13.15625,-21.74219 13.15625,-21.74219 z m -58.92383,5.89649 c -6.26597,0.39373 -12.1633,0.64062 -17.13281,0.64062 -1.66024,0 -3.21132,-0.0159 -4.83398,-0.0215 l -25.51172,44.1875 h 21.60937 l 16.72071,-28.96094 z m -4.11718,23.06445 -12.55274,21.74219 h 50.33985 c 0,0 4.86734,-13.06443 7.9746,-21.74219 h -26.71093 z m -214.54493,29.70899 c 0,0 -1.62456,10.37961 -3.27539,15.34179 -1.77785,5.34369 -7.07422,15.34375 -7.07422,15.34375 0,0 60.37316,11.10477 89.26954,8.91797 55.42877,-4.19471 62.82938,-24.18031 101.67578,-27.59961 16.18352,-1.42427 75.11718,6.54492 75.11718,6.54492 0,0 -3.77876,-7.1319 -5.04687,-10.94335 -1.1774,-3.53915 -0.041,-7.60547 -0.041,-7.60547 h -53.23242 -30.80859 z"
         style="fill:#ffffff;fill-opacity:1;stroke:none;stroke-width:1.29357946px;stroke-linecap:butt;stroke-linejoin:miter;stroke-opacity:1" />
      <path
         id="path4510"
         d="m 172.77452,89.720652 c 0,0 -5.20809,4.564978 -8.40701,13.467678 -2.86229,7.58261 -0.78329,14.59701 1.25008,18.1189 3.22853,5.59205 9.7143,9.68769 13.83419,13.55986 3.98423,3.98429 6.71916,8.32941 8.17721,13.19767 0.68319,2.65844 1.11527,4.49535 0.90953,6.84175 -0.23098,2.54612 -0.95334,4.96005 -2.50821,6.8154 -3.33353,3.97756 -10.14154,6.74453 -13.44604,7.84888 -2.65236,0.87482 -4.24639,1.28382 -4.24639,1.28382 0,0 1.66104,0.16553 4.63833,0.15775 3.6765,0 12.32475,-0.17469 19.584,-4.91703 3.47971,-2.2733 6.19902,-5.54982 7.72179,-9.30092 1.39875,-3.41107 1.91307,-7.00074 1.71864,-10.53276 0,-5.97327 -3.43297,-13.41564 -8.72899,-18.71167 -3.17094,-2.81489 -8.13622,-6.33173 -10.86141,-8.32784 -4.13669,-2.98454 -9.50791,-7.6449 -10.33238,-15.17671 -0.70019,-8.215716 0.69666,-14.324778 0.69666,-14.324778 z"
         style="fill:#ffffff;fill-opacity:1;stroke:none;stroke-width:0.34225959px;stroke-linecap:butt;stroke-linejoin:miter;stroke-opacity:1"
         inkscape:connector-curvature="0"
         sodipodi:nodetypes="ccscccacccscccccc" />
      <path
         sodipodi:nodetypes="cccccccccccccacc"
         inkscape:connector-curvature="0"
         id="path4512"
         d="m 158.60181,142.35954 c -3.7847,-0.35768 -6.04813,6.08062 -5.71778,9.8678 0.2891,0.40789 0.38887,0.47987 0.60004,0.71353 0.65351,0.70699 1.34043,1.34782 2.03755,1.92608 1.51257,1.2546 3.08732,2.22924 4.55118,3.06326 2.18759,1.33697 3.99273,2.19008 5.33088,3.33994 1.43444,1.1477 3.25468,3.02004 3.61942,4.05013 0.77191,2.16818 -0.009,3.92807 -0.009,3.92807 0,0 2.23662,-0.89273 3.30581,-3.81222 0.50817,-1.39313 1.53532,-4.44063 0.29916,-7.08901 -1.22713,-2.48571 -3.20931,-4.60263 -5.28458,-6.29747 -1.29892,-1.13084 -2.59346,-2.11026 -3.62204,-2.94029 -0.48471,-0.39109 -0.93019,-0.76433 -1.31867,-1.13515 -1.41038,-1.2914 -2.48022,-2.74905 -3.35314,-4.36198 -0.21051,-0.38906 -0.23836,-0.40298 -0.43848,-1.25269 z"
         style="fill:#ffffff;fill-opacity:1;stroke:none;stroke-width:0.34225959px;stroke-linecap:butt;stroke-linejoin:miter;stroke-opacity:1" />
      <path
         sodipodi:nodetypes="cccscccccccccacccc"
         inkscape:connector-curvature="0"
         id="path4514"
         d="m 151.43337,109.64226 c 0,0 0.96948,1.33468 1.79259,3.61328 0.83343,2.30704 1.35671,5.41907 0.46182,8.65028 -0.77158,2.93943 -3.05894,6.19386 -5.11232,8.24723 -3.29024,3.29031 -6.83939,6.16548 -9.39211,10.32734 -2.53665,4.34329 -3.14067,9.10276 -2.01193,13.55477 1.2376,4.84237 4.40768,8.75861 8.1151,11.49727 3.64172,2.60503 7.4593,3.99515 10.44221,4.70188 2.96533,0.70254 5.28237,0.77747 6.38195,0.77936 0.65927,-0.0959 0.9838,-0.15913 0.9838,-0.15913 0,0 -0.30976,-0.11519 -0.83918,-0.31656 -2.01075,-1.18797 -6.81887,-4.337 -8.64689,-9.34452 -0.83349,-2.78266 -1.63352,-6.52905 -0.72438,-8.96612 1.36534,-3.5479 3.7135,-6.63751 5.71778,-9.8678 1.39868,-2.25435 3.06169,-4.03837 4.39807,-6.63333 2.58639,-5.06387 2.58136,-10.24196 0.96863,-14.51738 -1.80128,-4.67775 -5.35964,-7.69865 -7.98945,-9.35707 -2.68106,-1.69073 -4.54569,-2.2095 -4.54569,-2.2095 z"
         style="fill:#ffffff;fill-opacity:1;stroke:none;stroke-width:0.34225959px;stroke-linecap:butt;stroke-linejoin:miter;stroke-opacity:1" />
      <path
         sodipodi:nodetypes="csccsc"
         inkscape:connector-curvature="0"
         id="path4516"
         d="m 136.85643,199.67545 c 0,0 7.20577,1.86385 10.47052,2.35653 2.89164,0.4364 7.85922,0.54009 7.85922,0.54009 l 2.73898,18.08725 c 0,0 -6.9674,-10.34212 -10.63233,-14.00705 -3.66492,-3.66493 -10.43639,-6.97682 -10.43639,-6.97682 z"
         style="opacity:1;vector-effect:none;fill:#ffffff;fill-opacity:1;stroke:none;stroke-width:6.84519196;stroke-linecap:round;stroke-linejoin:round;stroke-miterlimit:4;stroke-dasharray:none;stroke-dashoffset:9.99938011;stroke-opacity:1;paint-order:normal" />
      <path
         style="opacity:1;vector-effect:none;fill:#ffffff;fill-opacity:1;stroke:none;stroke-width:6.84519196;stroke-linecap:round;stroke-linejoin:round;stroke-miterlimit:4;stroke-dasharray:none;stroke-dashoffset:9.99938011;stroke-opacity:1;paint-order:normal"
         d="m 202.3544,196.14664 c 0,0 -7.2263,0.13128 -10.69758,0.76714 -2.74179,0.50223 -7.63215,2.12948 -7.63215,2.12948 l -2.71729,15.28105 c 0,0 4.65102,-7.81116 8.0713,-10.28432 3.53542,-2.55646 12.97572,-7.89335 12.97572,-7.89335 z"
         id="path4518"
         inkscape:connector-curvature="0"
         sodipodi:nodetypes="csccsc" />
      <path
         sodipodi:nodetypes="csccscc"
         inkscape:connector-curvature="0"
         id="path4520"
         d="m 159.04513,202.57207 c 0,0 7.58816,0.42711 11.0531,-0.85076 4.03359,-1.48766 10.36127,-7.68047 10.36127,-7.68047 l -5.03438,45.69327 c 0,0 -4.75837,4.05973 -5.93124,6.09123 -2.65334,4.59571 -4.99679,15.03729 -4.99679,15.03729 z"
         style="opacity:1;vector-effect:none;fill:#ffffff;fill-opacity:1;stroke:none;stroke-width:6.84519196;stroke-linecap:round;stroke-linejoin:round;stroke-miterlimit:4;stroke-dasharray:none;stroke-dashoffset:9.99938011;stroke-opacity:1;paint-order:normal" />
      <path
         inkscape:connector-curvature="0"
         style="opacity:1;vector-effect:none;fill:#ffffff;fill-opacity:0.97979796;stroke:none;stroke-width:6.84519196;stroke-linecap:round;stroke-linejoin:round;stroke-miterlimit:4;stroke-dasharray:none;stroke-dashoffset:9.99938011;stroke-opacity:1;paint-order:normal"
         d="m 149.82045,216.46562 1.87299,6.54715 8.37622,11.80808 -1.35573,-8.95194 z"
         id="path4522" />
      <path
         inkscape:connector-curvature="0"
         style="opacity:1;vector-effect:none;fill:#ffffff;fill-opacity:0.97979796;stroke:none;stroke-width:6.84519196;stroke-linecap:round;stroke-linejoin:round;stroke-miterlimit:4;stroke-dasharray:none;stroke-dashoffset:9.99938011;stroke-opacity:1;paint-order:normal"
         d="m 141.53137,207.7019 0.16652,1.21962 7.28233,10.26615 -1.48113,-5.17613 z"
         id="path4524" />
      <path
         inkscape:connector-curvature="0"
         style="opacity:1;vector-effect:none;fill:#ffffff;fill-opacity:0.97979796;stroke:none;stroke-width:6.84519196;stroke-linecap:round;stroke-linejoin:round;stroke-miterlimit:4;stroke-dasharray:none;stroke-dashoffset:9.99938011;stroke-opacity:1;paint-order:normal"
         d="m 182.73248,223.12463 1.34462,-7.55972 -3.5751,3.28829 -1.64633,9.25803 z"
         id="path4526" />
      <path
         inkscape:connector-curvature="0"
         style="opacity:1;vector-effect:none;fill:#ffffff;fill-opacity:0.97979796;stroke:none;stroke-width:6.84519196;stroke-linecap:round;stroke-linejoin:round;stroke-miterlimit:4;stroke-dasharray:none;stroke-dashoffset:9.99938011;stroke-opacity:1;paint-order:normal"
         d="m 197.66429,203.06665 -11.96688,11.0074 -1.20713,6.7897 12.90884,-16.60383 z"
         id="path4528" />
    </g>
    <g
       id="g4038"
       transform="matrix(0.50539915,0,0,0.50539915,-292.07289,591.33394)"
       style="stroke-width:1.97863412;filter:url(#filter2143)">
      <path
         sodipodi:nodetypes="cscsccccccccccccc"
         inkscape:connector-curvature="0"
         id="path1857"
         d="m 776.75818,-728.84097 c 0,0 -1.26058,3.67212 -2.37271,5.23047 -1.47478,2.0665 -5.53632,5.23046 -5.53632,5.23046 0,0 15.0448,-0.79091 22.57393,-0.79091 1.89917,0 4.27714,0.0507 6.77056,0.12585 -0.96473,0.88109 -1.98099,1.733 -2.81604,2.24682 -1.8674,1.14901 -6.1349,2.3727 -6.1349,2.3727 v 48.00099 c 0,0 3.78888,-4.09281 6.1349,-5.53633 1.8674,-1.14901 3.99838,-2.30966 6.13491,-3.16361 2.55046,-1.01939 7.90901,-2.31168 7.90901,-2.31168 l -7.90901,-3.10259 v -38.39429 c 6.37861,0.23299 12.48374,0.55301 12.48374,0.55301 0,0 1.26058,-3.6721 2.37271,-5.23047 1.47477,-2.06649 5.5363,-5.23046 5.5363,-5.23046 z"
         style="font-style:normal;font-variant:normal;font-weight:bold;font-stretch:normal;font-size:52.62459183px;line-height:1.25;font-family:Ubuntu;-inkscape-font-specification:'Ubuntu Bold';text-align:center;letter-spacing:0px;word-spacing:0px;writing-mode:lr-tb;text-anchor:middle;fill:#ffffff;fill-opacity:1;stroke:none;stroke-width:0.52351362" />
      <path
         sodipodi:nodetypes="ccacccscccscacscscccac"
         d="m 824.97345,-672.75203 v -56.33705 c 0,0 4.08588,-1.21694 5.8597,-2.34911 2.26053,-1.44285 5.85969,-5.51272 5.85969,-5.51272 v 19.82072 c 0.78655,-0.26217 1.78283,-0.49814 2.98885,-0.70788 1.25846,-0.26218 2.46448,-0.39327 3.61807,-0.39327 3.35588,0 6.13499,0.47193 8.3373,1.41576 2.25474,0.89141 4.03755,2.17609 5.34845,3.85404 1.36333,1.67794 2.30716,3.6705 2.83152,5.97769 0.57679,2.30716 0.86519,4.87652 0.86519,7.70806 v 18.61473 c 0,0 -4.08658,1.23399 -5.8597,2.37271 -2.26103,1.45206 -5.85969,5.53632 -5.85969,5.53632 v -25.108 c 0,-3.77538 -0.49815,-6.44961 -1.49443,-8.02268 -0.94383,-1.57307 -2.72666,-2.35961 -5.34845,-2.35961 -1.04871,0 -2.04499,0.10492 -2.98883,0.31461 -0.89141,0.15731 -1.70417,0.34084 -2.43828,0.55058 v 26.71607 c 0,0 -4.08658,1.23399 -5.85969,2.37271 -2.26103,1.45206 -5.8597,5.53632 -5.8597,5.53632 z"
         style="font-style:normal;font-variant:normal;font-weight:bold;font-stretch:normal;font-size:52.62459183px;line-height:1.25;font-family:Ubuntu;-inkscape-font-specification:'Ubuntu Bold';text-align:center;letter-spacing:0px;word-spacing:0px;writing-mode:lr-tb;text-anchor:middle;fill:#ffffff;fill-opacity:1;stroke:none;stroke-width:0.52351362"
         id="path1859"
         inkscape:connector-curvature="0" />
      <path
         sodipodi:nodetypes="scccscccsccccaccscsscccscccccacaccscs"
         inkscape:connector-curvature="0"
         id="path1861"
         d="m 886.05796,-716.45363 c -2.51692,0 -4.9818,0.47192 -7.39384,1.41575 -2.35962,0.94385 -4.45721,2.33319 -6.29247,4.16845 -1.83526,1.83526 -3.32922,4.14286 -4.48281,6.92194 -1.10116,2.72668 -1.65209,5.92461 -1.65209,9.59511 0,3.04128 0.41999,5.87346 1.25896,8.49525 0.89141,2.62178 2.22806,4.90226 4.01089,6.84238 1.83525,1.88768 4.11649,3.38242 6.84317,4.48358 2.77909,1.10115 6.02971,1.65132 9.75265,1.65132 1.46821,0 2.93662,-0.0783 4.40479,-0.23557 1.46823,-0.15731 2.83123,-0.36729 4.08969,-0.62947 1.3109,-0.20974 2.49103,-0.47166 3.53975,-0.78628 1.04871,-0.31461 1.88791,-0.62922 2.51714,-0.94383 0,0 -0.88255,-3.03683 -0.70897,-4.56787 0.24865,-2.19312 2.45463,-6.14969 2.45463,-6.14969 -1.31089,0.57679 -6.33382,2.27552 -8.43125,2.695 -2.045,0.36707 -4.14259,0.54993 -6.29247,0.54993 -3.35588,0 -6.02999,-0.70747 -8.02256,-2.12323 -1.99255,-1.41576 -2.79792,-3.59871 -3.38218,-5.74177 -0.35886,-1.31624 -0.39101,-4.75894 0,-8.02256 0.11882,-0.99126 0.39287,-1.96644 0.70747,-2.91028 0.36707,-0.99628 0.86531,-1.86182 1.49453,-2.59591 0.62924,-0.73412 1.41575,-1.31064 2.35959,-1.73012 0.94383,-0.47192 2.07128,-0.70747 3.38219,-0.70747 1.36333,0 2.49078,0.23555 3.38218,0.70747 0.94385,0.47193 1.704,1.07479 2.28079,1.8089 0.62922,0.73411 1.07556,1.57329 1.33774,2.51713 0.31464,0.94384 0.49746,1.91399 0.54992,2.91028 h -17.07623 c 0,0 3.40858,2.42926 4.74542,4.01127 1.00268,1.18658 2.3727,4.01129 2.3727,4.01129 0,0 7.00628,-0.79091 10.52426,-0.79091 3.51797,0 10.52425,0.79091 10.52425,0.79091 0.0523,-0.62924 0.10507,-1.33746 0.15756,-2.12401 0.0525,-0.83897 0.0788,-1.59913 0.0788,-2.2808 0,-6.97396 -1.70473,-12.24392 -5.11306,-15.80955 -3.40833,-3.61807 -8.04831,-5.42664 -13.92112,-5.42664 z"
         style="font-style:normal;font-variant:normal;font-weight:bold;font-stretch:normal;font-size:52.62459183px;line-height:1.25;font-family:Ubuntu;-inkscape-font-specification:'Ubuntu Bold';text-align:center;letter-spacing:0px;word-spacing:0px;writing-mode:lr-tb;text-anchor:middle;fill:#ffffff;fill-opacity:1;stroke:none;stroke-width:0.52351362" />
      <path
         sodipodi:nodetypes="csscccscsccccc"
         inkscape:connector-curvature="0"
         id="path1863"
         d="m 931.55559,-736.73583 c 0,0 -3.78889,4.0928 -6.1349,5.5363 -1.86741,1.14902 -3.99839,2.30968 -6.1349,3.16362 -2.55048,1.01939 -7.90902,2.31168 -7.90902,2.31168 l 7.90902,3.10261 v 39.3443 c -0.40448,1.8835 -1.25878,3.69812 -2.37271,5.26985 -1.47321,2.07868 -5.53631,5.26984 -5.53631,5.26984 0,0 12.13259,-0.79089 18.20775,-0.79089 6.07518,0 18.20852,0.79089 18.20852,0.79089 0,0 1.25877,-3.69812 2.37271,-5.26984 1.47321,-2.07869 5.53631,-5.26985 5.53631,-5.26985 h -24.14647 z"
         style="font-style:normal;font-variant:normal;font-weight:bold;font-stretch:normal;font-size:52.62459183px;line-height:1.25;font-family:Ubuntu;-inkscape-font-specification:'Ubuntu Bold';text-align:center;letter-spacing:0px;word-spacing:0px;writing-mode:lr-tb;text-anchor:middle;fill:#ffffff;fill-opacity:1;stroke:none;stroke-width:0.52351362" />
      <path
         sodipodi:nodetypes="cacsccccacscscccsccscc"
         d="m 995.80717,-684.01341 c 0,0 -3.7642,2.44734 -5.26978,4.08126 -1.52649,1.65664 -3.688,5.66307 -3.688,5.66307 0,0 -6.82539,1.57307 -9.9191,1.57307 -3.04127,0 -5.82036,-0.52436 -8.33728,-1.57307 -2.4645,-1.04871 -4.58814,-2.51691 -6.37097,-4.4046 -1.78281,-1.94012 -4.16864,-6.92153 -4.16864,-6.92153 v -19.43619 c 0,0 3.81396,-2.41743 5.34844,-4.04196 1.54926,-1.64019 3.76667,-5.62372 3.76667,-5.62372 0,0 6.82538,-1.57308 9.76178,-1.57308 2.98885,0 5.71551,0.52436 8.17999,1.57308 2.51692,1.04871 4.66678,2.51692 6.44959,4.40461 1.7828,1.88769 4.1687,6.84287 4.1687,6.84287 z m -12.74189,-19.04292 c 0,0 -3.46076,-3.14615 -6.13499,-3.14615 -2.67422,0 -6.21364,3.14615 -6.21364,3.14615 v 17.1465 c 0,0 3.53942,3.14616 6.21364,3.14616 2.67423,0 6.13499,-3.14616 6.13499,-3.14616 z"
         style="font-style:normal;font-variant:normal;font-weight:bold;font-stretch:normal;font-size:52.62459183px;line-height:1.25;font-family:Ubuntu;-inkscape-font-specification:'Ubuntu Bold';text-align:center;letter-spacing:0px;word-spacing:0px;writing-mode:lr-tb;text-anchor:middle;fill:#ffffff;fill-opacity:1;stroke:none;stroke-width:0.52351362"
         id="path1865"
         inkscape:connector-curvature="0" />
      <path
         sodipodi:nodetypes="cccacccccaccccsascccaccccsascccaccccacsc"
         d="m 1026.856,-696.50546 c -1.0487,3.98512 -2.1761,7.94404 -3.3821,11.87672 l -1.2181,5.54948 c 0,0 -4.0002,1.37466 -5.8542,2.3727 -2.0478,1.1024 -5.7483,3.95453 -5.7483,3.95453 -0.9438,-2.20231 -1.9663,-4.8241 -3.0675,-7.86538 -1.1011,-3.04128 -2.2547,-6.34473 -3.4607,-9.91036 -1.1536,-3.61807 -2.3596,-7.41967 -3.6182,-11.40478 -1.20596,-4.03757 -0.213,-0.41049 -1.36656,-4.50048 0,0 3.57206,-1.22523 5.08796,-2.30669 2.0102,-1.43407 5.0879,-5.38417 5.0879,-5.38417 0.4195,1.88769 0.8652,3.95892 1.3371,6.21365 0.5244,2.20231 1.0488,4.48326 1.5731,6.84288 0.5768,2.3596 1.1536,4.74543 1.7304,7.15747 0.3146,1.17981 0.6292,2.14222 0.9438,3.08497 0.3147,0.94276 0.3852,1.38961 0.9439,1.3852 0.6078,-0.004 0.6751,-0.54076 1.0028,-1.52284 0.3277,-0.98207 0.6489,-1.97726 0.9635,-3.18328 0.6817,-2.41205 1.3109,-4.77166 1.8877,-7.07883 0.4346,-1.74264 0.9936,-3.45438 1.38,-5.20836 0,0 3.6291,-1.1841 5.1697,-2.26363 2.0461,-1.43376 5.1697,-5.42723 5.1697,-5.42723 0.4195,1.88769 0.8914,3.93269 1.4158,6.13499 0.5243,2.14988 1.0749,4.40461 1.6517,6.76423 0.5768,2.30717 1.1798,4.66678 1.809,7.07883 0.3147,1.20602 0.6358,2.39893 0.9636,3.57874 0.3277,1.17981 0.4999,1.11866 1.0028,1.12738 0.4558,0.007 0.6292,0.15074 0.9438,-0.98974 0.3146,-1.14048 0.6293,-2.30062 0.9439,-3.48043 0.6292,-2.41204 1.206,-4.79787 1.7304,-7.15747 1.057,-4.4854 0.1977,-1.1121 1.1439,-5.36567 0,0 4.8437,-1.11738 7.0181,-2.26363 2.6161,-1.37904 7.0181,-5.42723 7.0181,-5.42723 -1.1536,4.08999 -2.3596,8.15377 -3.6181,12.19134 -1.206,3.98511 -2.412,7.78671 -3.618,11.40478 -2.0939,6.18979 -1.4443,5.77918 -3.3647,11.44851 0,0 -4.1866,1.37803 -6.1437,2.37272 -2.1711,1.10349 -6.1437,3.95451 -6.1437,3.95451 -1.3109,-3.98512 -2.5956,-7.94402 -3.854,-11.87671 -1.2585,-3.93268 -2.4121,-7.8916 -3.4608,-11.87672 z"
         style="font-style:normal;font-variant:normal;font-weight:bold;font-stretch:normal;font-size:52.62459183px;line-height:1.25;font-family:Ubuntu;-inkscape-font-specification:'Ubuntu Bold';text-align:center;letter-spacing:0px;word-spacing:0px;writing-mode:lr-tb;text-anchor:middle;fill:#ffffff;fill-opacity:1;stroke:none;stroke-width:0.52351362"
         id="path1867"
         inkscape:connector-curvature="0" />
      <path
         inkscape:connector-curvature="0"
         id="path1873"
         d="m 860.49306,-666.42459 -11.30812,16.53654 11.30812,16.53653 h 56.95893 56.95894 l 11.3081,-16.53653 -11.3081,-16.53654 h -56.95894 z m 31.71468,6.36397 c 0.34467,0 0.62129,0.10888 0.82992,0.32658 0.21769,0.21768 0.32656,0.48069 0.32656,0.78909 0,0.31746 -0.10887,0.58523 -0.32656,0.80291 -0.20863,0.21769 -0.48525,0.32658 -0.82992,0.32658 -0.34468,0 -0.62573,-0.10889 -0.84343,-0.32658 -0.20862,-0.21768 -0.31306,-0.48545 -0.31306,-0.80291 0,-0.3084 0.10444,-0.57141 0.31306,-0.78909 0.2177,-0.2177 0.49875,-0.32658 0.84343,-0.32658 z m 39.99659,0.32658 c 0.644,0 1.12,0.0864 1.4284,0.25873 0.3175,0.16327 0.4764,0.43516 0.4764,0.8161 0,0.17235 -0.036,0.3268 -0.109,0.46285 -0.063,0.12699 -0.1404,0.22669 -0.2311,0.29926 -0.1723,-0.0544 -0.3584,-0.10002 -0.558,-0.13629 -0.1905,-0.0363 -0.4082,-0.0543 -0.6531,-0.0543 -0.4173,0 -0.7347,0.0772 -0.9524,0.23143 -0.2177,0.1451 -0.3266,0.3945 -0.3266,0.74828 v 0.51685 h 2.313 c 0.045,0.0907 0.091,0.20432 0.1363,0.34038 0.055,0.13607 0.082,0.28545 0.082,0.44872 0,0.29026 -0.068,0.49915 -0.2041,0.62612 -0.127,0.12699 -0.2951,0.19029 -0.5037,0.19029 h -1.7277 v 4.44917 c -0.091,0.0272 -0.2179,0.0497 -0.3812,0.0678 -0.1632,0.0272 -0.3446,0.0408 -0.5441,0.0408 -0.4082,0 -0.7029,-0.0633 -0.8843,-0.19029 -0.1814,-0.13604 -0.2722,-0.39462 -0.2722,-0.77559 v -5.78243 c 0,-0.44445 0.073,-0.82995 0.2179,-1.15648 0.1542,-0.32654 0.3628,-0.58955 0.6258,-0.7891 0.2631,-0.20863 0.5713,-0.36276 0.9251,-0.46254 0.3537,-0.0998 0.7348,-0.14977 1.143,-0.14977 z m 13.4806,0.82991 c 0.4082,0 0.7029,0.068 0.8843,0.2041 0.1814,0.13606 0.2722,0.40383 0.2722,0.80293 v 5.00682 c 0,0.81635 -0.2314,1.44682 -0.6939,1.89127 -0.4536,0.44445 -1.1021,0.66664 -1.9456,0.66664 -0.4898,0 -0.8934,-0.0817 -1.2108,-0.24494 -0.3175,-0.16326 -0.4764,-0.44906 -0.4764,-0.85723 0,-0.17233 0.023,-0.32204 0.068,-0.44903 0.054,-0.12698 0.1133,-0.22668 0.1768,-0.29925 0.1633,0.0363 0.3129,0.0679 0.449,0.0951 0.1451,0.0181 0.2948,0.0273 0.449,0.0273 0.6985,0 1.0476,-0.3627 1.0476,-1.08834 v -5.64647 c 0.1,-0.0181 0.2403,-0.0409 0.4217,-0.0681 0.1905,-0.0272 0.3766,-0.0408 0.558,-0.0408 z m -63.58507,0.0816 c 0.42632,0 0.7618,0.0681 1.0067,0.2041 0.2449,0.13607 0.431,0.35825 0.55799,0.66664 0.0998,0.24491 0.20391,0.52185 0.31276,0.83024 0.10884,0.29933 0.21771,0.60759 0.32656,0.92507 0.10885,0.31746 0.21329,0.63491 0.31307,0.95237 0.10884,0.3084 0.20854,0.5942 0.29925,0.85724 h 0.0681 c 0.25397,-0.7982 0.50781,-1.5692 0.76178,-2.31297 0.25398,-0.75285 0.47616,-1.38331 0.66664,-1.89127 0.12698,-0.0635 0.28586,-0.11794 0.47635,-0.16328 0.19955,-0.0453 0.41731,-0.0681 0.65314,-0.0681 0.40816,0 0.73448,0.0592 0.97938,0.17711 0.2449,0.11789 0.3902,0.29008 0.43552,0.51684 0.0363,0.18142 0.0771,0.45804 0.12247,0.82992 0.0453,0.3719 0.0906,0.79822 0.13596,1.27896 0.0453,0.48072 0.0906,0.98871 0.13597,1.52387 0.0453,0.52609 0.0862,1.0385 0.12246,1.53737 0.0363,0.48981 0.0682,0.93893 0.0955,1.34709 0.0272,0.40817 0.0453,0.72563 0.0543,0.95238 -0.13605,0.0817 -0.28102,0.14052 -0.43521,0.17678 -0.15419,0.0454 -0.34947,0.0682 -0.58531,0.0682 -0.29932,0 -0.55759,-0.0544 -0.77528,-0.16329 -0.20862,-0.10884 -0.32228,-0.32215 -0.34038,-0.63963 -0.0635,-1.05215 -0.10875,-2.01339 -0.13597,-2.88414 -0.0181,-0.87984 -0.0409,-1.60114 -0.0681,-2.16352 h -0.0678 c -0.10884,0.38098 -0.26772,0.86172 -0.47635,1.44225 -0.19954,0.58046 -0.44896,1.32871 -0.74828,2.24482 -0.10885,0.0907 -0.24937,0.16349 -0.42171,0.21792 -0.17234,0.0544 -0.36731,0.0816 -0.585,0.0816 -0.29025,0 -0.53522,-0.0364 -0.73477,-0.10895 -0.19049,-0.0726 -0.3174,-0.19949 -0.38089,-0.3809 -0.29026,-0.84354 -0.53966,-1.54206 -0.74828,-2.09537 -0.19955,-0.56234 -0.35842,-1.04757 -0.47635,-1.45572 h -0.0543 c -0.0272,0.56235 -0.05,1.07921 -0.0681,1.55087 -0.0182,0.4626 -0.0361,0.91614 -0.0543,1.36059 -0.009,0.44445 -0.0227,0.89357 -0.0408,1.34709 -0.0181,0.45353 -0.0409,0.95233 -0.0681,1.49655 -0.0998,0.0363 -0.23587,0.068 -0.4082,0.0951 -0.16328,0.0363 -0.33545,0.0546 -0.51686,0.0546 -0.35375,0 -0.63036,-0.0589 -0.82992,-0.17678 -0.19954,-0.12701 -0.29956,-0.3403 -0.29956,-0.63965 0,-0.17233 0.005,-0.40811 0.0138,-0.70744 0.0182,-0.30841 0.0361,-0.6575 0.0543,-1.04754 0.0272,-0.3991 0.0544,-0.82541 0.0816,-1.27893 0.0363,-0.45354 0.0679,-0.91182 0.0951,-1.37442 0.0363,-0.47166 0.0682,-0.93407 0.0955,-1.38759 0.0272,-0.4626 0.0544,-0.88892 0.0816,-1.27895 0.0726,-0.0998 0.21752,-0.20865 0.43521,-0.32658 0.22676,-0.12697 0.53979,-0.19059 0.93889,-0.19059 z m 53.77807,0.0273 c 0.3991,0 0.6849,0.0725 0.8572,0.21761 0.1814,0.13606 0.2723,0.39021 0.2723,0.7621 v 0.88425 h 1.8774 c 0.045,0.0907 0.091,0.20844 0.136,0.35356 0.045,0.13607 0.068,0.28134 0.068,0.43553 0,0.29025 -0.068,0.49883 -0.2042,0.62581 -0.1269,0.12701 -0.2947,0.19061 -0.5033,0.19061 h -1.3741 v 2.63954 c 0,0.25397 0.082,0.43976 0.2449,0.55767 0.1633,0.10884 0.3899,0.16328 0.6802,0.16328 0.136,0 0.2813,-0.0136 0.4355,-0.0408 0.1542,-0.0363 0.2855,-0.0771 0.3944,-0.12246 0.082,0.0907 0.1496,0.19515 0.2041,0.31307 0.055,0.11791 0.082,0.254 0.082,0.4082 0,0.31748 -0.1269,0.5805 -0.3809,0.7891 -0.2449,0.19955 -0.676,0.29926 -1.2928,0.29926 -0.7619,0 -1.356,-0.17219 -1.7823,-0.51687 -0.4263,-0.35374 -0.6393,-0.92536 -0.6393,-1.71446 v -6.10901 c 0.1,-0.0272 0.2311,-0.0544 0.3944,-0.0816 0.1633,-0.0363 0.3402,-0.0543 0.5307,-0.0543 z m 13.9466,0.0273 h 4.5035 c 0.054,0.0907 0.1041,0.20402 0.1494,0.34008 0.045,0.13607 0.068,0.2902 0.068,0.46253 0,0.29932 -0.068,0.52151 -0.2041,0.66664 -0.127,0.14512 -0.3083,0.2176 -0.5441,0.2176 h -3.0205 v 1.52387 h 3.1564 c 0.054,0.0907 0.1045,0.20434 0.1498,0.34039 0.045,0.13606 0.068,0.29051 0.068,0.46284 0,0.29933 -0.063,0.52151 -0.1903,0.66664 -0.127,0.13605 -0.3083,0.2038 -0.5442,0.2038 h -2.6395 v 1.70065 h 3.6054 c 0.054,0.0907 0.1045,0.20876 0.1498,0.35389 0.045,0.14513 0.068,0.30372 0.068,0.47603 0,0.29932 -0.068,0.51709 -0.2041,0.65313 -0.127,0.13606 -0.3036,0.20442 -0.5304,0.20442 h -4.0409 c -0.3447,0 -0.6213,-0.1 -0.8299,-0.29956 -0.1996,-0.20862 -0.2996,-0.48555 -0.2996,-0.83022 v -6.01355 c 0,-0.34467 0.1,-0.61688 0.2996,-0.81643 0.2086,-0.2086 0.4852,-0.31275 0.8299,-0.31275 z m -51.78758,1.49656 c 0.98868,0 1.7505,0.21775 2.28566,0.65314 0.54423,0.43538 0.81642,1.05668 0.81642,1.86395 v 4.21774 c -0.0998,0.0272 -0.23113,0.05 -0.3944,0.0681 -0.16326,0.0272 -0.34462,0.0408 -0.54417,0.0408 -0.40816,0 -0.70315,-0.0636 -0.88456,-0.19061 -0.17234,-0.13604 -0.25842,-0.39463 -0.25842,-0.77559 v -3.30617 c 0,-0.31748 -0.0953,-0.55327 -0.28575,-0.70746 -0.19048,-0.15421 -0.44432,-0.23143 -0.76178,-0.23143 -0.21769,0 -0.41741,0.0272 -0.59881,0.0816 -0.18141,0.0544 -0.34916,0.12247 -0.50335,0.20411 v 4.81656 c -0.0907,0.0272 -0.21763,0.0497 -0.38089,0.0678 -0.16327,0.0272 -0.34494,0.0408 -0.54449,0.0408 -0.40817,0 -0.70284,-0.0633 -0.88424,-0.19029 -0.18141,-0.13605 -0.27225,-0.39463 -0.27225,-0.7756 v -4.20423 c 0,-0.23582 0.05,-0.42605 0.14979,-0.57118 0.0998,-0.14512 0.24029,-0.28122 0.4217,-0.40821 0.29026,-0.20862 0.66214,-0.37637 1.11567,-0.50334 0.46259,-0.127 0.97058,-0.19061 1.52387,-0.19061 z m 7.6759,0 c 0.4626,0 0.88449,0.0725 1.26545,0.21761 0.39003,0.13607 0.72108,0.33102 0.9932,0.58499 0.28118,0.25398 0.49894,0.55782 0.65313,0.91156 0.1542,0.35376 0.23111,0.73925 0.23111,1.1565 0,0.29025 -0.0769,0.508 -0.23111,0.65313 -0.15419,0.14513 -0.37195,0.24042 -0.65313,0.28574 l -3.5376,0.53067 c 0.12698,0.38097 0.34917,0.65315 0.66664,0.81642 0.31746,0.15422 0.68492,0.23111 1.10216,0.23111 0.38095,0 0.73924,-0.0494 1.07484,-0.14915 0.3356,-0.10886 0.60779,-0.22722 0.81642,-0.3542 0.13605,0.0907 0.24937,0.20907 0.34007,0.3542 0.0907,0.14513 0.13596,0.30337 0.13596,0.47572 0,0.20862 -0.0633,0.39027 -0.19029,0.54449 -0.12699,0.15419 -0.30391,0.28556 -0.53067,0.39438 -0.21769,0.0998 -0.4807,0.17261 -0.7891,0.21793 -0.29932,0.0544 -0.63038,0.0813 -0.9932,0.0813 -0.53516,0 -1.02953,-0.0722 -1.48305,-0.2173 -0.45352,-0.1542 -0.84345,-0.37638 -1.16999,-0.66664 -0.32653,-0.29932 -0.58512,-0.67152 -0.77559,-1.11598 -0.18142,-0.44445 -0.27225,-0.96604 -0.27225,-1.56469 0,-0.58051 0.0908,-1.08406 0.27225,-1.51037 0.19047,-0.42631 0.43988,-0.77954 0.74827,-1.06072 0.31747,-0.28119 0.67575,-0.48564 1.07485,-0.61262 0.40817,-0.13606 0.82532,-0.20411 1.25163,-0.20411 z m 7.61874,0 c 0.62586,0 1.11581,0.11331 1.46956,0.34008 0.36282,0.22675 0.54417,0.51256 0.54417,0.85723 0,0.16327 -0.0408,0.31298 -0.12246,0.44904 -0.0726,0.13604 -0.1634,0.25379 -0.27225,0.35357 -0.16326,-0.0907 -0.35824,-0.17237 -0.58499,-0.24494 -0.2177,-0.0725 -0.46235,-0.10863 -0.73447,-0.10863 -0.4898,0 -0.90726,0.15855 -1.25194,0.47603 -0.34468,0.30839 -0.51685,0.76636 -0.51685,1.37409 0,0.60772 0.16331,1.06156 0.48985,1.3609 0.3356,0.29933 0.75718,0.44872 1.26513,0.44872 0.29025,0 0.5444,-0.0358 0.76209,-0.10833 0.22676,-0.0816 0.41699,-0.1636 0.57118,-0.24524 0.15421,0.11792 0.27226,0.24514 0.35389,0.3812 0.0907,0.12698 0.13596,0.28524 0.13596,0.47573 0,0.34467 -0.18135,0.62191 -0.54417,0.83054 -0.36281,0.20862 -0.86606,0.31244 -1.51006,0.31244 -0.54423,0 -1.04335,-0.0722 -1.49687,-0.21729 -0.44445,-0.14513 -0.8252,-0.3629 -1.14267,-0.65314 -0.31746,-0.29027 -0.56243,-0.64886 -0.73477,-1.07516 -0.17234,-0.43538 -0.25843,-0.93894 -0.25843,-1.51037 0,-0.58958 0.0953,-1.10168 0.28574,-1.53707 0.19048,-0.43538 0.44875,-0.7984 0.77529,-1.08866 0.32653,-0.29022 0.7076,-0.50801 1.14298,-0.65313 0.43539,-0.14513 0.89336,-0.21761 1.37409,-0.21761 z m 11.29231,0 c 0.47167,0 0.89768,0.0497 1.27864,0.14947 0.38999,0.0907 0.72139,0.23598 0.99349,0.43553 0.2721,0.19955 0.4807,0.45338 0.6258,0.76178 0.1542,0.3084 0.2311,0.67142 0.2311,1.08867 v 3.07506 c 0,0.23583 -0.063,0.42636 -0.1902,0.57149 -0.118,0.13605 -0.2632,0.2538 -0.4356,0.35357 -0.2811,0.17235 -0.6258,0.304 -1.034,0.39471 -0.40816,0.0907 -0.87057,0.13596 -1.38758,0.13596 -0.93426,0 -1.67804,-0.17693 -2.23134,-0.53067 -0.55329,-0.36281 -0.83023,-0.91162 -0.83023,-1.64633 0,-0.62587 0.1861,-1.1019 0.55799,-1.42842 0.37188,-0.32655 0.94317,-0.531 1.71416,-0.61262 l 1.80962,-0.19029 v -0.14979 c 0,-0.29026 -0.11773,-0.50296 -0.35357,-0.63901 -0.23582,-0.13606 -0.57607,-0.20409 -1.02052,-0.20409 -0.34468,0 -0.68491,0.0405 -1.02052,0.12215 -0.32653,0.0816 -0.6212,0.1769 -0.88425,0.28574 -0.10884,-0.0726 -0.20411,-0.18143 -0.28574,-0.32656 -0.0726,-0.15421 -0.10896,-0.31752 -0.10896,-0.48986 0,-0.39909 0.20857,-0.68459 0.62581,-0.85692 0.26305,-0.0998 0.5672,-0.17259 0.91188,-0.21793 0.35375,-0.0544 0.69842,-0.0816 1.03402,-0.0816 z m -4.82502,0.0135 c 0.94333,0 1.41491,0.31748 1.41491,0.95238 0,0.15421 -0.0225,0.29473 -0.0678,0.42172 -0.0453,0.12699 -0.0953,0.23587 -0.14978,0.32656 -0.20861,-0.0453 -0.46276,-0.0678 -0.76209,-0.0678 -0.26304,0 -0.52606,0.0316 -0.7891,0.0951 -0.26304,0.0635 -0.49409,0.14956 -0.69364,0.25842 v 4.73491 c -0.0907,0.0272 -0.21794,0.0497 -0.3812,0.0678 -0.16328,0.0272 -0.34463,0.0408 -0.54418,0.0408 -0.40817,0 -0.70283,-0.0633 -0.88424,-0.19029 -0.1814,-0.13604 -0.27225,-0.39462 -0.27225,-0.77559 v -4.14959 c 0,-0.25397 0.0636,-0.47174 0.19061,-0.65313 0.12698,-0.18142 0.3039,-0.34029 0.53067,-0.47635 0.29932,-0.18142 0.65761,-0.32195 1.07485,-0.42172 0.42631,-0.10885 0.87068,-0.16328 1.33327,-0.16328 z m -27.69979,0.14979 c 0.40816,0 0.6984,0.068 0.87074,0.2041 0.18141,0.13605 0.27193,0.39431 0.27193,0.77529 v 5.59214 c -0.0907,0.0272 -0.21762,0.0497 -0.38089,0.0678 -0.16327,0.0272 -0.34462,0.0408 -0.54417,0.0408 -0.40817,0 -0.70283,-0.0633 -0.88425,-0.19028 -0.17233,-0.13605 -0.25874,-0.39463 -0.25874,-0.7756 v -5.59152 c 0.0907,-0.0273 0.21794,-0.0544 0.38121,-0.0816 0.16327,-0.0273 0.34462,-0.0411 0.54417,-0.0411 z m 13.62757,1.37408 c -0.39002,0 -0.71665,0.12249 -0.97969,0.3674 -0.25398,0.23583 -0.4037,0.5805 -0.44903,1.03402 l 2.59872,-0.42171 c -0.0182,-0.23583 -0.1226,-0.45802 -0.31307,-0.66664 -0.19049,-0.20861 -0.47597,-0.31307 -0.85693,-0.31307 z m 20.01291,2.42194 -1.11567,0.0951 c -0.29025,0.0272 -0.52636,0.0953 -0.70777,0.20409 -0.17234,0.0998 -0.25843,0.25391 -0.25843,0.46254 0,0.21767 0.0817,0.39018 0.24493,0.51717 0.16325,0.12698 0.43102,0.19029 0.80292,0.19029 0.19954,0 0.39452,-0.0181 0.58499,-0.0543 0.19955,-0.0453 0.34925,-0.0998 0.44903,-0.16329 z m -65.79445,1.06888 c 1.30058,6e-5 2.35484,1.05479 2.35474,2.35536 -8e-5,1.30047 -1.05428,2.35468 -2.35474,2.35474 -1.30046,-6e-5 -2.35468,-1.05427 -2.35474,-2.35474 -1.2e-4,-1.30057 1.05415,-2.3553 2.35474,-2.35536 z m 115.01371,0 c 1.3006,6e-5 2.3549,1.05479 2.3548,2.35536 -10e-5,1.30047 -1.0543,2.35468 -2.3548,2.35474 -1.3005,1.1e-4 -2.3549,-1.05416 -2.355,-2.35474 -10e-5,-1.3007 1.0543,-2.35546 2.355,-2.35536 z m -77.17747,3.80639 c 0.98867,0 1.7641,0.20857 2.32647,0.62582 0.56236,0.41723 0.84374,0.99326 0.84374,1.72797 0,0.4626 -0.11806,0.84366 -0.35389,1.14299 -0.22676,0.29026 -0.51699,0.51686 -0.87074,0.68014 0.19048,0.0816 0.37183,0.18166 0.54417,0.29955 0.17234,0.11793 0.32205,0.26288 0.44903,0.43523 0.13606,0.16326 0.24051,0.35823 0.31307,0.58499 0.0816,0.21769 0.12246,0.46711 0.12246,0.74827 0,0.38096 -0.0817,0.72564 -0.24492,1.03403 -0.16327,0.30839 -0.39464,0.57141 -0.69396,0.7891 -0.29026,0.20862 -0.6441,0.36751 -1.06134,0.47635 -0.40817,0.11791 -0.86615,0.17678 -1.37409,0.17678 -0.49888,0 -0.95242,-0.0589 -1.36059,-0.17678 -0.40818,-0.10884 -0.76203,-0.27216 -1.06135,-0.48986 -0.29025,-0.21768 -0.51687,-0.4807 -0.68014,-0.78909 -0.16327,-0.3084 -0.24492,-0.6575 -0.24492,-1.04753 0,-0.51702 0.13166,-0.94334 0.3947,-1.27895 0.27212,-0.34468 0.59844,-0.60768 0.97939,-0.7891 -0.37189,-0.18141 -0.65738,-0.4172 -0.85692,-0.70746 -0.19955,-0.29932 -0.29957,-0.65791 -0.29957,-1.07516 0,-0.36281 0.0728,-0.68913 0.21793,-0.97938 0.1542,-0.29933 0.3672,-0.54873 0.63931,-0.74828 0.28118,-0.20862 0.61225,-0.36749 0.9932,-0.47635 0.39003,-0.10883 0.81636,-0.16328 1.27896,-0.16328 z m 10.73588,0 c 0.98869,0 1.76411,0.20857 2.32648,0.62582 0.56236,0.41723 0.84342,0.99326 0.84342,1.72797 0,0.4626 -0.11774,0.84366 -0.35357,1.14299 -0.22676,0.29026 -0.517,0.51686 -0.87074,0.68014 0.19048,0.0816 0.37184,0.18166 0.54417,0.29955 0.17234,0.11793 0.32204,0.26288 0.44903,0.43523 0.13606,0.16326 0.24019,0.35823 0.31275,0.58499 0.0816,0.21769 0.12246,0.46711 0.12246,0.74827 0,0.38096 -0.0816,0.72564 -0.24492,1.03403 -0.16327,0.30839 -0.39463,0.57141 -0.69395,0.7891 -0.29025,0.20862 -0.64379,0.36751 -1.06103,0.47635 -0.40817,0.11791 -0.86615,0.17678 -1.3741,0.17678 -0.49887,0 -0.95241,-0.0589 -1.36059,-0.17678 -0.40816,-0.10884 -0.76201,-0.27216 -1.06134,-0.48986 -0.29026,-0.21768 -0.51718,-0.4807 -0.68045,-0.78909 -0.16326,-0.3084 -0.24461,-0.6575 -0.24461,-1.04753 0,-0.51702 0.13135,-0.94334 0.39439,-1.27895 0.27211,-0.34468 0.59875,-0.60768 0.9797,-0.7891 -0.37189,-0.18141 -0.65769,-0.4172 -0.85724,-0.70746 -0.19955,-0.29932 -0.29925,-0.65791 -0.29925,-1.07516 0,-0.36281 0.0725,-0.68913 0.21761,-0.97938 0.15419,-0.29933 0.36752,-0.54873 0.63963,-0.74828 0.28118,-0.20862 0.61225,-0.36749 0.99321,-0.47635 0.39003,-0.10883 0.81635,-0.16328 1.27894,-0.16328 z m 26.28109,0 c 0.9887,0 1.7641,0.20857 2.3265,0.62582 0.5624,0.41723 0.8437,0.99326 0.8437,1.72797 0,0.4626 -0.118,0.84366 -0.3539,1.14299 -0.2267,0.29026 -0.517,0.51686 -0.8707,0.68014 0.1905,0.0816 0.3718,0.18166 0.5442,0.29955 0.1723,0.11793 0.322,0.26288 0.449,0.43523 0.1361,0.16326 0.2405,0.35823 0.3131,0.58499 0.082,0.21769 0.1224,0.46711 0.1224,0.74827 0,0.38096 -0.082,0.72564 -0.2449,1.03403 -0.1633,0.30839 -0.3946,0.57141 -0.6939,0.7891 -0.2903,0.20862 -0.6441,0.36751 -1.0614,0.47635 -0.4082,0.11791 -0.8661,0.17678 -1.3741,0.17678 -0.4989,0 -0.9524,-0.0589 -1.3606,-0.17678 -0.4081,-0.10884 -0.762,-0.27216 -1.0613,-0.48986 -0.2903,-0.21768 -0.5169,-0.4807 -0.6802,-0.78909 -0.1632,-0.3084 -0.2449,-0.6575 -0.2449,-1.04753 0,-0.51702 0.1317,-0.94334 0.3947,-1.27895 0.2721,-0.34468 0.5985,-0.60768 0.9794,-0.7891 -0.3719,-0.18141 -0.6574,-0.4172 -0.8569,-0.70746 -0.1996,-0.29932 -0.2996,-0.65791 -0.2996,-1.07516 0,-0.36281 0.073,-0.68913 0.218,-0.97938 0.1541,-0.29933 0.3671,-0.54873 0.6393,-0.74828 0.2811,-0.20862 0.6122,-0.36749 0.9932,-0.47635 0.39,-0.10883 0.8163,-0.16328 1.2789,-0.16328 z m 10.306,0.0276 c 1.0522,0 1.8821,0.3491 2.4898,1.04752 0.6077,0.69844 0.9119,1.71882 0.9119,3.06125 0,0.77098 -0.095,1.44228 -0.2858,2.01373 -0.1814,0.57143 -0.44,1.04776 -0.7756,1.42872 -0.3356,0.37188 -0.7391,0.65295 -1.2108,0.84343 -0.4626,0.1814 -0.9753,0.27225 -1.5377,0.27225 -0.6893,0 -1.2426,-0.0908 -1.6598,-0.27225 -0.4082,-0.19048 -0.6123,-0.47627 -0.6123,-0.85724 0,-0.18139 0.041,-0.3536 0.1224,-0.51686 0.091,-0.16326 0.1908,-0.28574 0.2996,-0.36738 0.2358,0.10884 0.4852,0.19937 0.7483,0.27193 0.263,0.0635 0.526,0.0955 0.7891,0.0955 0.6167,0 1.1111,-0.17249 1.483,-0.51717 0.3719,-0.34468 0.5577,-0.82985 0.5577,-1.45572 -0.1723,0.14513 -0.4037,0.27204 -0.694,0.38088 -0.2811,0.0998 -0.6074,0.14978 -0.9793,0.14978 -0.4082,0 -0.7848,-0.0544 -1.1295,-0.16328 -0.3356,-0.10886 -0.6303,-0.27659 -0.8843,-0.50335 -0.2449,-0.22676 -0.4398,-0.50815 -0.585,-0.84374 -0.136,-0.33561 -0.2041,-0.72997 -0.2041,-1.18349 0,-0.3991 0.068,-0.77099 0.2041,-1.11567 0.1452,-0.35375 0.3493,-0.66233 0.6124,-0.92537 0.2721,-0.26304 0.6031,-0.46718 0.9931,-0.61231 0.3901,-0.1542 0.8389,-0.23111 1.3468,-0.23111 z m -56.34847,0.0948 c 0.34467,0 0.6213,0.10476 0.82992,0.31338 0.20862,0.20861 0.31275,0.48493 0.31275,0.82961 v 7.21116 c -0.0998,0.0272 -0.23112,0.0544 -0.39439,0.0816 -0.16327,0.0272 -0.34494,0.0408 -0.54449,0.0408 -0.40817,0 -0.70284,-0.068 -0.88424,-0.2041 -0.18141,-0.13605 -0.27224,-0.39434 -0.27224,-0.77529 v -5.41504 l -1.42842,0.50335 c -0.12699,-0.0816 -0.25391,-0.19526 -0.38089,-0.34037 -0.12699,-0.15422 -0.19061,-0.36277 -0.19061,-0.62582 0,-0.48981 0.29942,-0.83892 0.89806,-1.04752 l 1.5917,-0.5715 z m 37.01699,0 c 0.34468,0 0.62128,0.10476 0.82988,0.31338 0.2087,0.20861 0.3128,0.48493 0.3128,0.82961 v 7.21116 c -0.1,0.0272 -0.2311,0.0544 -0.3944,0.0816 -0.1633,0.0272 -0.3449,0.0408 -0.5445,0.0408 -0.40814,0 -0.70282,-0.068 -0.88423,-0.2041 -0.18141,-0.13605 -0.27225,-0.39434 -0.27225,-0.77529 v -5.41504 l -1.42841,0.50335 c -0.12699,-0.0816 -0.2539,-0.19526 -0.38089,-0.34037 -0.12698,-0.15422 -0.1906,-0.36277 -0.1906,-0.62582 0,-0.48981 0.29941,-0.83892 0.89806,-1.04752 l 1.5917,-0.5715 z m -27.99149,1.45606 c -0.32654,0 -0.58956,0.0817 -0.7891,0.24492 -0.19049,0.16328 -0.28575,0.37657 -0.28575,0.63963 0,0.31746 0.10888,0.5577 0.32657,0.72096 0.21769,0.16328 0.49874,0.27656 0.84342,0.34006 0.32654,-0.0998 0.57593,-0.23556 0.74827,-0.40789 0.18141,-0.17235 0.27225,-0.3901 0.27225,-0.65313 0,-0.28119 -0.0997,-0.49894 -0.29925,-0.65314 -0.19048,-0.15419 -0.46268,-0.23141 -0.81641,-0.23141 z m 10.73588,0 c -0.32654,0 -0.58986,0.0817 -0.78941,0.24492 -0.19048,0.16328 -0.28543,0.37657 -0.28543,0.63963 0,0.31746 0.10856,0.5577 0.32625,0.72096 0.21769,0.16328 0.49906,0.27656 0.84374,0.34006 0.32653,-0.0998 0.57594,-0.23556 0.74828,-0.40789 0.18141,-0.17235 0.27224,-0.3901 0.27224,-0.65313 0,-0.28119 -0.10001,-0.49894 -0.29956,-0.65314 -0.19049,-0.15419 -0.46236,-0.23141 -0.81611,-0.23141 z m 26.28109,0 c -0.3265,0 -0.5895,0.0817 -0.7891,0.24492 -0.1905,0.16328 -0.2857,0.37657 -0.2857,0.63963 0,0.31746 0.1088,0.5577 0.3265,0.72096 0.2177,0.16328 0.4988,0.27656 0.8435,0.34006 0.3265,-0.0998 0.5759,-0.23556 0.7482,-0.40789 0.1815,-0.17235 0.2723,-0.3901 0.2723,-0.65313 0,-0.28119 -0.1,-0.49894 -0.2993,-0.65314 -0.1904,-0.15419 -0.4626,-0.23141 -0.8164,-0.23141 z m 10.306,0.10895 c -0.3446,0 -0.6121,0.10446 -0.8026,0.31307 -0.1904,0.2086 -0.2857,0.49412 -0.2857,0.85691 0,0.38095 0.1133,0.67121 0.3401,0.87076 0.2267,0.19953 0.5125,0.29955 0.8572,0.29955 0.2268,0 0.4445,-0.05 0.6531,-0.14978 0.2087,-0.10884 0.372,-0.24019 0.4899,-0.39439 v -0.10897 c 0,-0.54422 -0.1089,-0.96136 -0.3266,-1.25162 -0.2086,-0.29025 -0.5172,-0.43553 -0.9254,-0.43553 z m -28.82233,2.48976 h 2.96611 c 0.0453,0.0816 0.0953,0.19969 0.14978,0.35389 0.0544,0.14513 0.0816,0.29926 0.0816,0.46252 0,0.29932 -0.0728,0.51707 -0.21792,0.65313 -0.13606,0.13608 -0.31741,0.20412 -0.54417,0.20412 h -2.97962 c -0.0544,-0.0907 -0.10413,-0.20876 -0.14946,-0.35389 -0.0453,-0.14513 -0.0681,-0.29928 -0.0681,-0.46252 0,-0.29933 0.0681,-0.51709 0.2041,-0.65314 0.13606,-0.13607 0.32185,-0.20411 0.55768,-0.20411 z m -18.63661,0.69395 c -0.38096,0.11791 -0.66676,0.28568 -0.85724,0.50336 -0.18141,0.2177 -0.27224,0.46267 -0.27224,0.73477 0,0.32655 0.11362,0.58039 0.34038,0.76179 0.23583,0.18141 0.5441,0.27223 0.92507,0.27223 0.39003,0 0.70304,-0.0861 0.93887,-0.25842 0.23583,-0.17235 0.35358,-0.43092 0.35358,-0.7756 0,-0.30839 -0.12249,-0.56697 -0.36739,-0.77559 -0.2449,-0.21768 -0.59843,-0.37183 -1.06103,-0.46254 z m 10.73557,0 c -0.38096,0.11791 -0.66675,0.28568 -0.85723,0.50336 -0.18141,0.2177 -0.27193,0.46267 -0.27193,0.73477 0,0.32655 0.1133,0.58039 0.34006,0.76179 0.23583,0.18141 0.54443,0.27223 0.92538,0.27223 0.39004,0 0.70274,-0.0861 0.93857,-0.25842 0.23584,-0.17235 0.35388,-0.43092 0.35388,-0.7756 0,-0.30839 -0.12248,-0.56697 -0.36738,-0.77559 -0.2449,-0.21768 -0.59876,-0.37183 -1.06135,-0.46254 z m 26.28147,0 c -0.381,0.11791 -0.6668,0.28568 -0.8573,0.50336 -0.1814,0.2177 -0.2722,0.46267 -0.2722,0.73477 0,0.32655 0.1136,0.58039 0.3404,0.76179 0.2358,0.18141 0.5441,0.27223 0.925,0.27223 0.3901,0 0.7031,-0.0861 0.9389,-0.25842 0.2358,-0.17235 0.3536,-0.43092 0.3536,-0.7756 0,-0.30839 -0.1225,-0.56697 -0.3674,-0.77559 -0.2449,-0.21768 -0.5984,-0.37183 -1.061,-0.46254 z m -42.25059,1.38791 c 0.37189,0 0.66656,0.11775 0.88424,0.35358 0.2177,0.23584 0.32657,0.52606 0.32657,0.87074 0,0.34468 -0.10887,0.63492 -0.32657,0.87074 -0.21768,0.23583 -0.51235,0.35389 -0.88424,0.35389 -0.38096,0 -0.68037,-0.11806 -0.89806,-0.35389 -0.20862,-0.23582 -0.31275,-0.52606 -0.31275,-0.87074 0,-0.34468 0.10413,-0.6349 0.31275,-0.87074 0.21769,-0.23583 0.5171,-0.35358 0.89806,-0.35358 z m 10.73557,0 c 0.37189,0 0.66688,0.11775 0.88456,0.35358 0.2177,0.23584 0.32657,0.52606 0.32657,0.87074 0,0.34468 -0.10887,0.63492 -0.32657,0.87074 -0.21768,0.23583 -0.51267,0.35389 -0.88456,0.35389 -0.38096,0 -0.68006,-0.11806 -0.89774,-0.35389 -0.20862,-0.23582 -0.31306,-0.52606 -0.31306,-0.87074 0,-0.34468 0.10444,-0.6349 0.31306,-0.87074 0.21768,-0.23583 0.51678,-0.35358 0.89774,-0.35358 z m 26.28142,0 c 0.3719,0 0.6666,0.11775 0.8842,0.35358 0.2177,0.23584 0.3266,0.52606 0.3266,0.87074 0,0.34468 -0.1089,0.63492 -0.3266,0.87074 -0.2176,0.23583 -0.5123,0.35389 -0.8842,0.35389 -0.381,0 -0.6804,-0.11806 -0.8981,-0.35389 -0.2086,-0.23582 -0.3127,-0.52606 -0.3127,-0.87074 0,-0.34468 0.1041,-0.6349 0.3127,-0.87074 0.2177,-0.23583 0.5171,-0.35358 0.8981,-0.35358 z m 10.7356,0 c 0.3719,0 0.6668,0.11775 0.8845,0.35358 0.2177,0.23584 0.3266,0.52606 0.3266,0.87074 0,0.34468 -0.1089,0.63492 -0.3266,0.87074 -0.2177,0.23583 -0.5126,0.35389 -0.8845,0.35389 -0.381,0 -0.6801,-0.11806 -0.8978,-0.35389 -0.2086,-0.23582 -0.313,-0.52606 -0.313,-0.87074 0,-0.34468 0.1044,-0.6349 0.313,-0.87074 0.2177,-0.23583 0.5168,-0.35358 0.8978,-0.35358 z"
         style="opacity:1;vector-effect:none;fill:#ffffff;fill-opacity:1;stroke:none;stroke-width:10.47027111;stroke-linecap:round;stroke-linejoin:round;stroke-miterlimit:4;stroke-dasharray:none;stroke-dashoffset:9.99938011;stroke-opacity:1;paint-order:normal"
         sodipodi:nodetypes="cccccccccscscscscsccscccscscccscscccscsscccccscsscscscccssccsscccccccccccscccccccccsccccccccscccccccsccscscccccccccccscccscscscscccscscscccccccscsccccscsccccscsscsscccccsccscsscsccccscsscccccccccsccccsccsscccscccscccccscscccscscscccscscccscccsccscsscccscscccscscccscccccsscsscccscsscccccccsccscsccccsccccscccscscccccccccscscscscccccscccscccscccscccsscscccccscccscccscccscccsscscccccscccscccscccscccsccscccscscccssccscccscccccccscsscscccscccccscsscscccscccscscccscsscscccscsscscccscsscscsccscssccscsccscsccscscsccccscscsccccscscsccscscscscsscscscscsscscscscsscscscscs" />
    </g>
  </g>
</svg>
