<?xml version="1.0" encoding="UTF-8" standalone="no"?>
<svg
   xmlns:dc="http://purl.org/dc/elements/1.1/"
   xmlns:cc="http://creativecommons.org/ns#"
   xmlns:rdf="http://www.w3.org/1999/02/22-rdf-syntax-ns#"
   xmlns:svg="http://www.w3.org/2000/svg"
   xmlns="http://www.w3.org/2000/svg"
   xmlns:sodipodi="http://sodipodi.sourceforge.net/DTD/sodipodi-0.dtd"
   xmlns:inkscape="http://www.inkscape.org/namespaces/inkscape"
   width="556.75146"
   height="215.53865"
   viewBox="0 0 147.30715 57.027934"
   version="1.1"
   id="svg8"
   inkscape:version="1.0.2-2 (e86c870879, 2021-01-15)"
   sodipodi:docname="logo.svg"
   inkscape:export-filename="C:\Users\onigi\Desktop\drawing.png"
   inkscape:export-xdpi="96"
   inkscape:export-ydpi="96">
  <defs
     id="defs2">
    <filter
       inkscape:collect="always"
       style="color-interpolation-filters:sRGB"
       id="filter1142"
       x="-0.0040364545"
       width="1.0080729"
       y="-0.010823228"
       height="1.0216465">
      <feGaussianBlur
         inkscape:collect="always"
         stdDeviation="0.24498061"
         id="feGaussianBlur1144" />
    </filter>
  </defs>
  <sodipodi:namedview
     id="base"
     pagecolor="#8d8d8d"
     bordercolor="#606060"
     borderopacity="1"
     inkscape:pageopacity="0"
     inkscape:pageshadow="2"
     inkscape:zoom="1.0870321"
     inkscape:cx="155.19183"
     inkscape:cy="94.850823"
     inkscape:document-units="px"
     inkscape:current-layer="layer1"
     showgrid="false"
     units="px"
     showborder="true"
     inkscape:showpageshadow="false"
     borderlayer="true"
     inkscape:pagecheckerboard="true"
     inkscape:window-width="1920"
     inkscape:window-height="1017"
     inkscape:window-x="-8"
     inkscape:window-y="-8"
     inkscape:window-maximized="1"
     inkscape:object-paths="true"
     inkscape:snap-page="true"
     fit-margin-top="0"
     fit-margin-left="0"
     fit-margin-right="0"
     fit-margin-bottom="0"
     inkscape:document-rotation="0"
     inkscape:snap-global="true" />
  <metadata
     id="metadata5">
    <rdf:RDF>
      <cc:Work
         rdf:about="">
        <dc:format>image/svg+xml</dc:format>
        <dc:type
           rdf:resource="http://purl.org/dc/dcmitype/StillImage" />
        <dc:title></dc:title>
      </cc:Work>
    </rdf:RDF>
  </metadata>
  <g
     inkscape:label="Layer 1"
     inkscape:groupmode="layer"
     id="layer1"
     transform="translate(-98.583513,-182.13546)">
    <path
       id="path1124"
       style="font-style:normal;font-variant:normal;font-weight:bold;font-stretch:normal;font-size:52.6246px;line-height:1.25;font-family:Ubuntu;-inkscape-font-specification:'Ubuntu Bold';text-align:center;letter-spacing:0px;word-spacing:0px;writing-mode:lr-tb;text-anchor:middle;opacity:0.5;fill:#020202;fill-opacity:1;stroke:none;stroke-width:0.264583;filter:url(#filter1142)"
       d="m 133.45981,184.25214 c 0,0 -1.81911,2.05719 -2.96158,2.78639 -0.89649,0.5722 -2.96157,1.18701 -2.96157,1.18701 v 28.47268 c 0,0 1.81885,-2.06389 2.96157,-2.79776 0.89613,-0.5755 2.96158,-1.19941 2.96158,-1.19941 v -13.50202 c 0.37102,-0.106 0.78145,-0.19902 1.23196,-0.27853 0.47702,-0.106 0.98048,-0.15917 1.51051,-0.15917 1.32504,0 2.22618,0.39767 2.70319,1.1927 0.50352,0.79503 0.75551,2.14646 0.75551,4.05453 v 12.68966 c 0,0 1.81884,-2.06389 2.96157,-2.79776 0.89613,-0.5755 2.96106,-1.19941 2.96106,-1.19941 v -9.40769 c 0,-1.43106 -0.14567,-2.72985 -0.43718,-3.89589 -0.26501,-1.16605 -0.7419,-2.17297 -1.43092,-3.021 -0.66253,-0.84803 -1.56365,-1.49718 -2.70319,-1.94769 -1.11305,-0.47702 -2.51764,-0.71572 -4.2137,-0.71572 -0.58302,0 -1.19228,0.0664 -1.82831,0.19896 -0.60952,0.106 -1.11298,0.2251 -1.5105,0.3576 z m 47.94332,0.10904 c 0,0 -1.9149,2.06822 -3.10058,2.79776 -0.94378,0.58071 -2.0208,1.16729 -3.10059,1.59887 -1.28901,0.5152 -3.99717,1.1684 -3.99717,1.1684 l 3.99717,1.56787 v 19.88457 c -0.20443,0.95192 -0.63591,1.86905 -1.19889,2.6634 -0.74456,1.05056 -2.79828,2.66341 -2.79828,2.66341 0,0 6.13164,-0.39946 9.20202,-0.39946 3.07039,0 9.20254,0.39946 9.20254,0.39946 0,0 0.63643,-1.86906 1.19941,-2.66341 0.74456,-1.05057 2.79776,-2.6634 2.79776,-2.6634 h -12.20339 z m -78.2345,3.98994 c 0,0 -0.63682,1.85566 -1.19889,2.64325 -0.74535,1.0444 -2.798274,2.64376 -2.798274,2.64376 0,0 7.603394,-0.39998 11.408604,-0.39998 0.95984,0 2.16183,0.0256 3.42201,0.0636 -0.48758,0.4453 -1.00113,0.87616 -1.42317,1.13585 -0.94378,0.58071 -3.10058,1.19889 -3.10058,1.19889 v 24.26002 c 0,0 1.91491,-2.06872 3.10058,-2.79828 0.94379,-0.58071 2.02079,-1.16729 3.10059,-1.59887 1.289,-0.5152 3.99717,-1.1684 3.99717,-1.1684 l -3.99717,-1.56787 v -19.4045 c 3.22375,0.11775 6.30917,0.27957 6.30917,0.27957 0,0 0.63734,-1.85616 1.19941,-2.64376 0.74535,-1.0444 2.79776,-2.64325 2.79776,-2.64325 z m 55.24004,6.2606 c -1.27205,0 -2.51768,0.2382 -3.73672,0.7152 -1.19255,0.47702 -2.25263,1.17932 -3.18017,2.10685 -0.92754,0.92754 -1.68246,2.09394 -2.26549,3.49849 -0.55652,1.37806 -0.83509,2.99426 -0.83509,4.84932 0,1.53706 0.21212,2.96823 0.63613,4.29327 0.45052,1.32505 1.12623,2.47766 2.02727,3.45819 0.92754,0.95403 2.08014,1.70948 3.45819,2.26601 1.40454,0.55652 3.04784,0.83458 4.92941,0.83458 0.74203,0 1.48368,-0.0394 2.2257,-0.11886 0.74204,-0.0795 1.43104,-0.18582 2.06706,-0.31833 0.66253,-0.10601 1.25902,-0.23838 1.78904,-0.39739 0.53001,-0.159 0.95426,-0.31797 1.27227,-0.47697 0,0 -0.44584,-1.5346 -0.35812,-2.30839 0.12567,-1.1084 1.24024,-3.10833 1.24024,-3.10833 -0.66252,0.29151 -3.2012,1.15019 -4.26124,1.36219 -1.03354,0.18552 -2.09362,0.27801 -3.18017,0.27801 -1.69606,0 -3.04748,-0.35779 -4.05453,-1.07331 -1.00703,-0.71552 -1.41417,-1.81854 -1.70946,-2.90163 -0.16098,-0.59046 -0.1906,-2.02791 -0.0574,-3.49695 0.55484,0.42829 1.26666,1.00867 1.65623,1.46968 0.50676,0.59971 1.19941,2.02727 1.19941,2.02727 0,0 3.54107,-0.39998 5.31906,-0.39998 1.77797,0 5.31854,0.39998 5.31854,0.39998 0.0264,-0.31802 0.0531,-0.67581 0.0796,-1.07332 0.0265,-0.42401 0.0403,-0.8084 0.0403,-1.15291 0,-3.52464 -0.86177,-6.18814 -2.58434,-7.9902 -1.72256,-1.82858 -4.06764,-2.74247 -7.03575,-2.74247 z m 45.92691,0.0925 c -1.48406,0 -4.93355,0.7953 -4.93355,0.7953 0,0 -1.12076,2.01325 -1.90376,2.8422 -0.77552,0.82103 -2.70319,2.04277 -2.70319,2.04277 v 9.82317 c 0,0 1.20582,2.51744 2.10685,3.49798 0.90104,0.95404 1.97441,1.6962 3.21996,2.22622 1.27205,0.53002 2.67663,0.79479 4.21369,0.79479 1.56356,0 5.01313,-0.79479 5.01313,-0.79479 0,0 1.09249,-2.0251 1.86397,-2.86236 0.76092,-0.82578 2.66341,-2.0624 2.66341,-2.0624 l -0.0398,-9.82317 c 0,0 -1.20582,-2.50467 -2.10684,-3.45871 -0.90104,-0.95404 -1.9877,-1.69569 -3.25975,-2.2257 -1.24555,-0.53003 -2.62356,-0.7953 -4.13412,-0.7953 z m 16.36748,1.08468 c 0,0 -1.55547,1.99651 -2.57142,2.72129 -0.76614,0.54657 -2.57142,1.16582 -2.57142,1.16582 0.58301,2.06706 0.0814,0.23369 0.69091,2.27428 0.63609,2.01407 1.2458,3.93541 1.82883,5.76399 0.60951,1.80207 1.19223,3.47193 1.74873,5.00899 0.55654,1.53706 1.0733,2.8619 1.5503,3.97495 0,0 1.8703,-1.44118 2.90525,-1.99832 0.937,-0.50441 2.95847,-1.19941 2.95847,-1.19941 l 0.61599,-2.80448 c 0.60951,-1.98759 1.17944,-3.98866 1.70945,-6.00274 0.53001,2.01408 1.11269,4.01515 1.74873,6.00274 0.636,1.98756 1.28518,3.98813 1.94769,6.00221 0,0 2.00796,-1.44063 3.10523,-1.99832 0.98912,-0.50272 3.10524,-1.19941 3.10524,-1.19941 0.97057,-2.86529 0.6419,-2.65789 1.70016,-5.78621 0.60951,-1.82858 1.2193,-3.74992 1.82882,-5.76399 0.63604,-2.04059 1.24528,-4.0943 1.82831,-6.16139 0,0 -2.22438,2.04602 -3.54655,2.74299 -1.09894,0.57931 -3.54707,1.14412 -3.54707,1.14412 -0.47823,2.14975 -0.044,0.44506 -0.57826,2.71198 -0.26503,1.19253 -0.55637,2.39831 -0.87436,3.61735 -0.159,0.59628 -0.31798,1.18266 -0.47698,1.75906 -0.159,0.57641 -0.24661,0.50423 -0.47697,0.50023 -0.25417,-0.004 -0.34133,0.0263 -0.50694,-0.56999 -0.16568,-0.59627 -0.32825,-1.19916 -0.48731,-1.80868 -0.318,-1.21905 -0.62264,-2.41152 -0.91416,-3.57756 -0.29151,-1.19255 -0.5696,-2.33236 -0.83458,-3.41891 -0.26502,-1.11304 -0.5037,-2.14655 -0.71571,-3.10059 0,0 -1.57866,2.01837 -2.61276,2.74299 -0.77862,0.54559 -2.61276,1.14412 -2.61276,1.14412 -0.19528,0.88646 -0.478,1.75166 -0.69764,2.63239 -0.29152,1.16604 -0.60941,2.35851 -0.95394,3.57756 -0.159,0.60952 -0.32116,1.11235 -0.48679,1.60869 -0.16562,0.49634 -0.19977,0.76798 -0.50695,0.76998 -0.28237,0.002 -0.31793,-0.22375 -0.47698,-0.70022 -0.15899,-0.47646 -0.31797,-0.96279 -0.47697,-1.55907 -0.29151,-1.21904 -0.58284,-2.42482 -0.87436,-3.61735 -0.26498,-1.19255 -0.53027,-2.34567 -0.7953,-3.45871 -0.2385,-1.13954 -0.46392,-2.18634 -0.67593,-3.14038 z m -62.21533,3.71244 c 0.68904,0 1.25895,0.1191 1.70946,0.3576 0.47702,0.23852 0.86139,0.54314 1.1529,0.91416 0.31801,0.37102 0.54343,0.79473 0.67593,1.27175 0.15902,0.47701 0.25151,0.9677 0.27802,1.47123 h -7.83105 c 0.0601,-0.50098 0.1986,-0.99422 0.35761,-1.47123 0.18551,-0.50352 0.43749,-0.94055 0.7555,-1.31154 0.31802,-0.37103 0.71568,-0.66236 1.1927,-0.87437 0.47701,-0.2385 1.0464,-0.3576 1.70893,-0.3576 z m 45.84785,0.29094 c 1.35155,0 3.10059,1.59008 3.10059,1.59008 v 8.66614 c 0,0 -1.74904,1.59008 -3.10059,1.59008 -1.35155,0 -3.14037,-1.59008 -3.14037,-1.59008 v -8.66614 c 0,0 1.78882,-1.59008 3.14037,-1.59008 z m -66.92459,18.69757 -6.8678,10.04279 6.8678,10.0428 h 34.59117 34.59117 l 6.86728,-10.0428 -6.86728,-10.04279 h -34.59117 z m 19.26032,3.86487 c 0.20932,0 0.37714,0.0662 0.50385,0.19844 0.13218,0.1322 0.19843,0.29175 0.19843,0.47904 0,0.1928 -0.0662,0.35563 -0.19843,0.48783 -0.12671,0.1322 -0.29453,0.19792 -0.50385,0.19792 -0.20932,0 -0.3799,-0.0657 -0.51211,-0.19792 -0.12669,-0.1322 -0.19017,-0.29503 -0.19017,-0.48783 0,-0.18729 0.0635,-0.34684 0.19017,-0.47904 0.13221,-0.13221 0.30279,-0.19844 0.51211,-0.19844 z m 24.28999,0.19844 c 0.3911,0 0.68037,0.0525 0.86765,0.1571 0.19283,0.0991 0.28887,0.26422 0.28887,0.49558 0,0.10466 -0.0217,0.19848 -0.0662,0.28112 -0.0381,0.0772 -0.085,0.13731 -0.14004,0.18138 -0.10465,-0.0331 -0.2178,-0.0606 -0.339,-0.0827 -0.11572,-0.022 -0.24815,-0.0326 -0.39687,-0.0326 -0.25342,0 -0.44606,0.0464 -0.57826,0.14004 -0.13221,0.0881 -0.19844,0.23991 -0.19844,0.45476 v 0.31367 h 1.40508 c 0.0274,0.055 0.0552,0.12408 0.0827,0.20671 0.0334,0.0827 0.0496,0.17369 0.0496,0.27285 0,0.17628 -0.0415,0.30271 -0.12402,0.37982 -0.0772,0.0772 -0.17924,0.11576 -0.30593,0.11576 h -1.04903 v 2.70216 c -0.0553,0.0166 -0.13233,0.0303 -0.23151,0.0413 -0.0991,0.0165 -0.20907,0.0248 -0.33021,0.0248 -0.2479,0 -0.42726,-0.0387 -0.53743,-0.11575 -0.11019,-0.0827 -0.16537,-0.23993 -0.16537,-0.47129 v -3.51142 c 0,-0.26992 0.0449,-0.50398 0.13281,-0.70228 0.0936,-0.19831 0.2201,-0.35835 0.37982,-0.47955 0.15978,-0.1267 0.34685,-0.22002 0.56172,-0.28061 0.2148,-0.0606 0.44613,-0.0909 0.69402,-0.0909 z m 8.18658,0.50385 c 0.2479,0 0.42726,0.0414 0.53743,0.12402 0.11018,0.0827 0.16485,0.24493 0.16485,0.48731 v 3.04116 c 0,0.49577 -0.14028,0.87833 -0.42116,1.14825 -0.27548,0.26992 -0.66959,0.40514 -1.18184,0.40514 -0.29747,0 -0.54208,-0.0497 -0.73484,-0.14883 -0.19281,-0.0991 -0.28939,-0.273 -0.28939,-0.52089 0,-0.10467 0.0139,-0.19522 0.0413,-0.27234 0.0328,-0.0771 0.0685,-0.13783 0.10697,-0.1819 0.0991,0.022 0.19022,0.0413 0.27286,0.0579 0.088,0.0108 0.1792,0.0165 0.27285,0.0165 0.4242,0 0.63613,-0.22025 0.63613,-0.66094 v -3.42925 c 0.0607,-0.0108 0.14615,-0.0249 0.25632,-0.0413 0.11571,-0.0165 0.22833,-0.0248 0.33848,-0.0248 z m -38.61521,0.0496 c 0.25891,0 0.46261,0.0414 0.61133,0.12402 0.14874,0.0827 0.26188,0.21734 0.339,0.40463 0.0606,0.14873 0.12353,0.31707 0.18965,0.50436 0.0661,0.18178 0.13234,0.36891 0.19844,0.56172 0.0661,0.19279 0.12957,0.38547 0.19016,0.57826 0.0661,0.1873 0.12682,0.36115 0.18191,0.5209 h 0.0413 c 0.15424,-0.48476 0.30825,-0.95338 0.4625,-1.40508 0.15423,-0.45721 0.28894,-0.83975 0.40463,-1.14825 0.0772,-0.0386 0.1737,-0.0717 0.28939,-0.0992 0.12119,-0.0275 0.25365,-0.0413 0.39687,-0.0413 0.24788,0 0.44606,0.0358 0.5948,0.10748 0.14873,0.0716 0.23706,0.17648 0.26458,0.3142 0.0219,0.11019 0.047,0.27799 0.0744,0.50384 0.0275,0.22585 0.0548,0.48475 0.0822,0.7767 0.0275,0.29195 0.0552,0.60052 0.0827,0.92552 0.0275,0.31951 0.0524,0.63083 0.0744,0.9338 0.022,0.29747 0.0413,0.57015 0.0579,0.81803 0.0165,0.24789 0.0276,0.44055 0.0331,0.57826 -0.0827,0.0496 -0.17043,0.0855 -0.26407,0.10749 -0.0936,0.0276 -0.21231,0.0413 -0.35553,0.0413 -0.18178,0 -0.33858,-0.0331 -0.47078,-0.0992 -0.12669,-0.0661 -0.19569,-0.19579 -0.2067,-0.3886 -0.0385,-0.63898 -0.0663,-1.22251 -0.0827,-1.75132 -0.0107,-0.53434 -0.0249,-0.97259 -0.0413,-1.31413 h -0.0413 c -0.0661,0.23138 -0.16217,0.52336 -0.28887,0.87592 -0.12118,0.35252 -0.27298,0.80686 -0.45475,1.36322 -0.0661,0.055 -0.15115,0.0992 -0.2558,0.13229 -0.10468,0.0331 -0.22331,0.0496 -0.35553,0.0496 -0.17626,0 -0.32479,-0.022 -0.44597,-0.0661 -0.11571,-0.0441 -0.19295,-0.12133 -0.23151,-0.23152 -0.17628,-0.51228 -0.32754,-0.93624 -0.45424,-1.27227 -0.12118,-0.34152 -0.21776,-0.63632 -0.28938,-0.88418 h -0.0331 c -0.0165,0.34152 -0.0302,0.65562 -0.0413,0.94206 -0.0108,0.28094 -0.022,0.55638 -0.0331,0.8263 -0.006,0.26992 -0.0134,0.54261 -0.0243,0.81804 -0.0108,0.27544 -0.0253,0.57848 -0.0419,0.90899 -0.0605,0.022 -0.14288,0.0409 -0.24753,0.0574 -0.0991,0.022 -0.20403,0.0336 -0.31419,0.0336 -0.21485,0 -0.38266,-0.0358 -0.50385,-0.10748 -0.12119,-0.0771 -0.1819,-0.20681 -0.1819,-0.38861 0,-0.10466 0.004,-0.24764 0.008,-0.42943 0.0107,-0.1873 0.022,-0.39927 0.0331,-0.63614 0.0164,-0.24238 0.033,-0.50127 0.0496,-0.7767 0.0219,-0.27544 0.0413,-0.55415 0.0579,-0.83509 0.022,-0.28645 0.0413,-0.56689 0.0579,-0.84232 0.0164,-0.28095 0.0329,-0.54035 0.0496,-0.77722 0.044,-0.0606 0.13239,-0.1263 0.26458,-0.19792 0.13771,-0.0771 0.32761,-0.11575 0.57,-0.11575 z m 32.6595,0.0165 c 0.24238,0 0.41575,0.0441 0.52038,0.1323 0.1102,0.0827 0.16537,0.23664 0.16537,0.4625 v 0.53692 h 1.1405 c 0.0273,0.055 0.055,0.12684 0.0822,0.21497 0.0274,0.0827 0.0413,0.17095 0.0413,0.26458 0,0.17628 -0.0413,0.30272 -0.12402,0.37983 -0.0771,0.0772 -0.17872,0.11575 -0.30541,0.11575 h -0.83457 v 1.603 c 0,0.15425 0.0499,0.26738 0.14883,0.339 0.0991,0.0661 0.23658,0.0987 0.41289,0.0987 0.0825,0 0.17094,-0.008 0.26458,-0.0248 0.0936,-0.022 0.17364,-0.0469 0.23978,-0.0744 0.0498,0.055 0.0905,0.11852 0.12351,0.19016 0.0334,0.0716 0.0501,0.15441 0.0501,0.24805 0,0.19282 -0.0773,0.35236 -0.23151,0.47904 -0.14873,0.1212 -0.41038,0.1819 -0.78496,0.1819 -0.46271,0 -0.82371,-0.10432 -1.08262,-0.31367 -0.25889,-0.21483 -0.38809,-0.56205 -0.38809,-1.04128 v -3.71037 c 0.0608,-0.0166 0.14009,-0.0327 0.23926,-0.0491 0.0991,-0.022 0.20677,-0.0331 0.32246,-0.0331 z m 8.46977,0.0165 h 5.1e-4 2.73472 c 0.0328,0.055 0.063,0.12407 0.0904,0.20671 0.0273,0.0827 0.0413,0.17593 0.0413,0.2806 0,0.18177 -0.0415,0.317 -0.12403,0.40514 -0.0772,0.0881 -0.187,0.13178 -0.33021,0.13178 h -1.83451 v 0.92552 h 1.91719 c 0.0328,0.055 0.0634,0.12408 0.0909,0.20671 0.0273,0.0827 0.0413,0.17645 0.0413,0.28112 0,0.18178 -0.0384,0.31702 -0.11576,0.40514 -0.0772,0.0827 -0.18695,0.12351 -0.33021,0.12351 h -1.60301 v 1.03301 h 2.18954 c 0.0328,0.055 0.0634,0.12683 0.091,0.21497 0.0273,0.0882 0.0413,0.18423 0.0413,0.28887 0,0.18178 -0.0414,0.31426 -0.12403,0.39688 -0.0772,0.0827 -0.1842,0.12402 -0.32194,0.12402 h -2.45412 c -0.20933,0 -0.37769,-0.0607 -0.50436,-0.1819 -0.12123,-0.1267 -0.1819,-0.29504 -0.1819,-0.50436 v -3.65197 c 0,-0.20932 0.0606,-0.37491 0.1819,-0.4961 0.12656,-0.12656 0.29477,-0.18954 0.50385,-0.18965 z m -31.45079,0.90847 v 5.2e-4 c 0.60043,0 1.06302,0.13195 1.38802,0.39636 0.3305,0.26442 0.4961,0.64197 0.4961,1.13223 v 2.5616 c -0.0605,0.0165 -0.14062,0.0304 -0.23978,0.0413 -0.0991,0.0166 -0.20903,0.0248 -0.33021,0.0248 -0.24787,0 -0.42728,-0.0386 -0.53744,-0.11575 -0.10467,-0.0825 -0.15658,-0.23994 -0.15658,-0.47129 v -2.00763 c 0,-0.19281 -0.058,-0.33631 -0.17363,-0.42995 -0.11573,-0.0936 -0.26971,-0.14056 -0.4625,-0.14056 -0.13221,0 -0.25365,0.0166 -0.36381,0.0496 -0.11018,0.0331 -0.21228,0.0745 -0.30592,0.12403 v 2.92488 c -0.0551,0.0166 -0.13185,0.0303 -0.231,0.0413 -0.0991,0.0165 -0.20954,0.0248 -0.33072,0.0248 -0.24789,0 -0.42676,-0.0386 -0.53692,-0.11576 -0.11019,-0.0827 -0.16537,-0.2394 -0.16537,-0.47077 v -2.55333 c 0,-0.14322 0.0302,-0.25861 0.091,-0.34675 0.0606,-0.0882 0.14562,-0.17093 0.2558,-0.24805 0.17626,-0.1267 0.40258,-0.22881 0.678,-0.30592 0.28094,-0.0771 0.589,-0.11576 0.92501,-0.11576 z m 9.28832,0 5.1e-4,5.2e-4 c 0.38007,0 0.67762,0.0685 0.89246,0.20619 0.22033,0.13771 0.33021,0.31157 0.33021,0.5209 0,0.0991 -0.0247,0.19022 -0.0744,0.27285 -0.0441,0.0827 -0.0992,0.15385 -0.16536,0.21446 -0.0991,-0.055 -0.21731,-0.10473 -0.35502,-0.14883 -0.1322,-0.044 -0.28071,-0.0661 -0.44596,-0.0661 -0.29747,0 -0.55135,0.0965 -0.76068,0.28939 -0.20933,0.18729 -0.31368,0.46549 -0.31368,0.83457 0,0.36907 0.0993,0.64451 0.29766,0.82631 0.20381,0.18178 0.45942,0.27233 0.76791,0.27233 0.17627,0 0.33082,-0.0214 0.46302,-0.0656 0.13773,-0.0495 0.25311,-0.0993 0.34675,-0.14882 0.0936,0.0716 0.1654,0.14887 0.21497,0.23151 0.0551,0.0772 0.0827,0.17319 0.0827,0.28887 0,0.20933 -0.11043,0.37766 -0.33072,0.50436 -0.22033,0.1267 -0.52564,0.18965 -0.91674,0.18965 -0.33051,0 -0.63356,-0.0437 -0.90899,-0.13177 -0.26991,-0.0882 -0.50122,-0.22062 -0.69402,-0.39688 -0.1928,-0.17629 -0.34183,-0.39378 -0.44648,-0.65267 -0.10467,-0.26441 -0.1571,-0.57023 -0.1571,-0.91726 0,-0.35806 0.058,-0.66938 0.17363,-0.93379 0.11571,-0.26441 0.27247,-0.48466 0.47078,-0.66094 0.1983,-0.17626 0.43013,-0.30876 0.69453,-0.39688 0.26442,-0.0882 0.5421,-0.13229 0.83406,-0.13229 z m 6.85798,0 v 5.2e-4 c 0.28645,0 0.54534,0.0299 0.77669,0.0904 0.23685,0.055 0.43832,0.14338 0.60358,0.26459 0.16524,0.12117 0.29171,0.2752 0.37983,0.4625 0.0936,0.18729 0.14055,0.40806 0.14055,0.66146 v 1.86758 c 0,0.14321 -0.0385,0.25861 -0.11575,0.34675 -0.0716,0.0827 -0.15987,0.1544 -0.26458,0.21498 -0.17071,0.10467 -0.37997,0.18468 -0.62787,0.23978 -0.24788,0.055 -0.52887,0.0822 -0.84284,0.0822 -0.56737,0 -1.01894,-0.10708 -1.35496,-0.32194 -0.33602,-0.22033 -0.50436,-0.55374 -0.50436,-0.99994 0,-0.3801 0.1132,-0.66934 0.33899,-0.86765 0.22583,-0.19831 0.57305,-0.3225 1.04128,-0.37207 l 1.09864,-0.11524 v -0.0915 c 0,-0.17628 -0.0712,-0.30548 -0.21445,-0.38808 -0.14321,-0.0827 -0.34969,-0.12351 -0.6196,-0.12351 -0.20932,0 -0.41629,0.0244 -0.62012,0.0739 -0.1983,0.0495 -0.37717,0.10752 -0.53692,0.17363 -0.0661,-0.0441 -0.12406,-0.1103 -0.17363,-0.19844 -0.0441,-0.0936 -0.0661,-0.193 -0.0661,-0.29766 0,-0.24237 0.12695,-0.41572 0.38034,-0.52038 0.15976,-0.0606 0.34413,-0.10473 0.55346,-0.13229 0.21483,-0.0331 0.42406,-0.0496 0.62787,-0.0496 z m -11.48457,5.2e-4 c 0.28094,0 0.53706,0.0436 0.76842,0.13177 0.23686,0.0827 0.4378,0.20131 0.60307,0.35554 0.17075,0.15424 0.30322,0.33862 0.39687,0.55345 0.0936,0.21484 0.14056,0.44888 0.14056,0.70228 0,0.17627 -0.0469,0.30874 -0.14056,0.39688 -0.0936,0.0882 -0.22612,0.14611 -0.39687,0.17363 l -2.14819,0.32195 c 0.0772,0.23137 0.21182,0.39693 0.40463,0.49609 0.19278,0.0936 0.41635,0.14004 0.66972,0.14004 0.23136,0 0.44887,-0.0298 0.65267,-0.0904 0.20382,-0.0661 0.36888,-0.13784 0.49558,-0.21497 0.0826,0.055 0.15163,0.12683 0.20671,0.21497 0.0551,0.0882 0.0827,0.18421 0.0827,0.28887 0,0.1267 -0.0385,0.23706 -0.11575,0.33073 -0.0772,0.0936 -0.18475,0.1737 -0.32247,0.23978 -0.13219,0.0606 -0.29174,0.10472 -0.47904,0.13229 -0.18177,0.0331 -0.3827,0.0491 -0.60306,0.0491 -0.325,0 -0.62529,-0.0437 -0.90072,-0.13177 -0.27542,-0.0936 -0.51225,-0.22887 -0.71055,-0.40514 -0.19831,-0.18178 -0.35561,-0.40756 -0.47129,-0.67748 -0.11019,-0.26993 -0.16537,-0.58676 -0.16537,-0.95033 0,-0.35254 0.0552,-0.65835 0.16537,-0.91726 0.11572,-0.25889 0.26747,-0.47313 0.45475,-0.64389 0.19279,-0.17078 0.41029,-0.29494 0.65268,-0.37207 0.24788,-0.0827 0.50126,-0.12402 0.76016,-0.12402 z m 8.55451,0.008 c 0.57289,0 0.85938,0.19269 0.85938,0.57826 0,0.0936 -0.0138,0.17918 -0.0413,0.25631 -0.0275,0.0771 -0.0578,0.14337 -0.0909,0.19844 -0.12669,-0.0275 -0.28124,-0.0413 -0.46302,-0.0413 -0.15975,0 -0.31929,0.0193 -0.47904,0.0579 -0.15974,0.0386 -0.29998,0.0909 -0.42116,0.1571 v 2.87527 c -0.0551,0.0165 -0.13235,0.0303 -0.23152,0.0413 -0.0991,0.0166 -0.20954,0.0248 -0.33072,0.0248 -0.2479,0 -0.42673,-0.0387 -0.53692,-0.11576 -0.11018,-0.0827 -0.16537,-0.2394 -0.16537,-0.47077 v -2.52026 c 0,-0.15425 0.0387,-0.28621 0.11576,-0.39636 0.0772,-0.1102 0.18474,-0.20677 0.32246,-0.28939 0.18178,-0.11019 0.39929,-0.19571 0.65267,-0.25631 0.25891,-0.0661 0.52884,-0.0992 0.80977,-0.0992 z m -16.82223,0.0909 c 0.24787,0 0.42398,0.0414 0.52865,0.12402 0.11018,0.0827 0.16537,0.2394 0.16537,0.47078 v 3.39617 c -0.0551,0.0165 -0.13235,0.0303 -0.23151,0.0413 -0.0991,0.0165 -0.20904,0.0248 -0.33021,0.0248 -0.24789,0 -0.42675,-0.0387 -0.53692,-0.11576 -0.10466,-0.0827 -0.1571,-0.2394 -0.1571,-0.47077 v -3.39618 c 0.0551,-0.0166 0.13235,-0.0326 0.23151,-0.0491 0.0991,-0.0166 0.20901,-0.0253 0.33021,-0.0253 z m 8.27598,0.83458 c -0.23687,0 -0.43504,0.0745 -0.59479,0.22324 -0.15425,0.14323 -0.24532,0.35244 -0.27285,0.62786 l 1.57819,-0.25579 c -0.0108,-0.14322 -0.0745,-0.27844 -0.19017,-0.40515 -0.1157,-0.12669 -0.28902,-0.19016 -0.52038,-0.19016 z m 12.1543,1.47071 -0.67799,0.0579 c -0.17627,0.0165 -0.31925,0.058 -0.42944,0.12403 -0.10465,0.0606 -0.15709,0.15442 -0.15709,0.28112 0,0.13219 0.0498,0.23706 0.14883,0.31419 0.0991,0.0772 0.26146,0.11524 0.48731,0.11524 0.12118,0 0.23984,-0.0105 0.35553,-0.0326 0.12118,-0.0275 0.21224,-0.0607 0.27285,-0.0992 z m -39.95725,0.64957 c 0.78985,4e-5 1.42995,0.64054 1.42989,1.4304 -4e-5,0.78978 -0.64011,1.42985 -1.42989,1.42989 -0.78976,-4e-5 -1.43037,-0.64011 -1.4304,-1.42989 -7e-5,-0.78986 0.64055,-1.43036 1.4304,-1.4304 z m 69.84793,0 c 0.78986,4e-5 1.42995,0.64054 1.42989,1.4304 -5e-5,0.78978 -0.6401,1.42985 -1.42989,1.42989 -0.78979,7e-5 -1.43034,-0.64004 -1.4304,-1.42989 -6e-5,-0.78993 0.64048,-1.43046 1.4304,-1.4304 z m -46.87,2.31149 c 0.60041,0 1.0713,0.12642 1.41283,0.37982 0.34151,0.25338 0.51263,0.60335 0.51263,1.04955 0,0.28094 -0.0718,0.51223 -0.21498,0.69401 -0.13771,0.17627 -0.31434,0.31425 -0.52916,0.41341 0.1157,0.0495 0.22606,0.1103 0.33073,0.1819 0.10465,0.0716 0.19574,0.15939 0.27285,0.26407 0.0826,0.0991 0.14612,0.21783 0.19017,0.35553 0.0496,0.13221 0.0744,0.28349 0.0744,0.45424 0,0.23135 -0.0498,0.44058 -0.14883,0.62787 -0.0991,0.18729 -0.23989,0.34735 -0.42168,0.47956 -0.17627,0.12669 -0.39101,0.22328 -0.6444,0.28938 -0.24788,0.0716 -0.52611,0.10697 -0.83457,0.10697 -0.30297,0 -0.57843,-0.0355 -0.82631,-0.10697 -0.24789,-0.0661 -0.46261,-0.16544 -0.6444,-0.29765 -0.17628,-0.1322 -0.31427,-0.29175 -0.41342,-0.47904 -0.0991,-0.1873 -0.14831,-0.39979 -0.14831,-0.63666 0,-0.31399 0.0795,-0.57287 0.23926,-0.7767 0.16526,-0.20932 0.36346,-0.36885 0.5948,-0.47903 -0.22585,-0.1102 -0.3992,-0.25316 -0.52038,-0.42944 -0.12119,-0.18179 -0.1819,-0.39978 -0.1819,-0.65319 0,-0.22033 0.0442,-0.41852 0.13229,-0.59479 0.0936,-0.1818 0.22337,-0.33306 0.38861,-0.45424 0.17077,-0.1267 0.37169,-0.22327 0.60306,-0.28939 0.23686,-0.0661 0.49573,-0.0992 0.7767,-0.0992 z m 6.52001,0 c 0.60044,0 1.07132,0.12642 1.41283,0.37982 0.34152,0.25338 0.51212,0.60335 0.51212,1.04955 0,0.28094 -0.0712,0.51223 -0.21446,0.69401 -0.13771,0.17627 -0.31433,0.31425 -0.52917,0.41341 0.11572,0.0495 0.22607,0.1103 0.33073,0.1819 0.10467,0.0716 0.19521,0.15939 0.27234,0.26407 0.0826,0.0991 0.1461,0.21783 0.19017,0.35553 0.0496,0.13221 0.0744,0.28349 0.0744,0.45424 0,0.23135 -0.0497,0.44058 -0.14883,0.62787 -0.0991,0.18729 -0.23939,0.34735 -0.42116,0.47956 -0.17627,0.12669 -0.391,0.22328 -0.64441,0.28938 -0.24785,0.0716 -0.52609,0.10697 -0.83457,0.10697 -0.30294,0 -0.5784,-0.0355 -0.82631,-0.10697 -0.24786,-0.0661 -0.46261,-0.16544 -0.6444,-0.29765 -0.17627,-0.1322 -0.31425,-0.29175 -0.41341,-0.47904 -0.0991,-0.1873 -0.14883,-0.39979 -0.14883,-0.63666 0,-0.31399 0.0801,-0.57287 0.23978,-0.7767 0.16527,-0.20932 0.36343,-0.36885 0.59479,-0.47903 -0.22585,-0.1102 -0.39919,-0.25316 -0.52038,-0.42944 -0.12119,-0.18179 -0.1819,-0.39978 -0.1819,-0.65319 0,-0.22033 0.0441,-0.41852 0.13229,-0.59479 0.0936,-0.1818 0.22335,-0.33306 0.38861,-0.45424 0.17075,-0.1267 0.3717,-0.22327 0.60306,-0.28939 0.23688,-0.0661 0.49577,-0.0992 0.7767,-0.0992 z m 15.96027,0 c 0.60042,0 1.07128,0.12642 1.41283,0.37982 0.34154,0.25338 0.51263,0.60335 0.51263,1.04955 0,0.28094 -0.0716,0.51223 -0.21497,0.69401 -0.13767,0.17627 -0.31385,0.31425 -0.52865,0.41341 0.11572,0.0495 0.22552,0.1103 0.33021,0.1819 0.10466,0.0716 0.19573,0.15939 0.27285,0.26407 0.0827,0.0991 0.14609,0.21783 0.19017,0.35553 0.0498,0.13221 0.0744,0.28349 0.0744,0.45424 0,0.23135 -0.0499,0.44058 -0.14883,0.62787 -0.0991,0.18729 -0.2394,0.34735 -0.42117,0.47956 -0.1763,0.12669 -0.39151,0.22328 -0.64492,0.28938 -0.24792,0.0716 -0.52605,0.10697 -0.83457,0.10697 -0.30299,0 -0.5779,-0.0355 -0.82579,-0.10697 -0.24784,-0.0661 -0.46314,-0.16544 -0.64492,-0.29765 -0.1763,-0.1322 -0.31373,-0.29175 -0.4129,-0.47904 -0.0991,-0.1873 -0.14883,-0.39979 -0.14883,-0.63666 0,-0.31399 0.0801,-0.57287 0.23978,-0.7767 0.16525,-0.20932 0.36349,-0.36885 0.5948,-0.47903 -0.22585,-0.1102 -0.39921,-0.25316 -0.52038,-0.42944 -0.12121,-0.18179 -0.18191,-0.39978 -0.18191,-0.65319 0,-0.22033 0.0443,-0.41852 0.1323,-0.59479 0.0936,-0.1818 0.22278,-0.33306 0.38809,-0.45424 0.17072,-0.1267 0.37219,-0.22327 0.60358,-0.28939 0.23685,-0.0661 0.49525,-0.0992 0.77618,-0.0992 z m 6.25905,0.0165 c 0.639,0 1.14298,0.21198 1.51205,0.63614 0.36905,0.42417 0.55397,1.04404 0.55397,1.85932 0,0.46822 -0.0577,0.87614 -0.17363,1.22318 -0.11019,0.34704 -0.26748,0.63627 -0.47129,0.86764 -0.20381,0.22583 -0.44889,0.39644 -0.73536,0.51212 -0.28093,0.11019 -0.59224,0.16536 -0.93379,0.16536 -0.41861,0 -0.75431,-0.0552 -1.00769,-0.16536 -0.2479,-0.11572 -0.37207,-0.28954 -0.37207,-0.5209 0,-0.11019 0.0249,-0.21454 0.0744,-0.31368 0.0553,-0.0991 0.11579,-0.17366 0.1819,-0.22324 0.1432,0.0661 0.29498,0.12129 0.45476,0.16537 0.15972,0.0386 0.31926,0.0579 0.47904,0.0579 0.37452,0 0.67488,-0.10489 0.90072,-0.31419 0.22586,-0.20932 0.33848,-0.50408 0.33848,-0.88418 -0.10467,0.0881 -0.24487,0.16541 -0.42117,0.23151 -0.17072,0.0606 -0.36892,0.0909 -0.59479,0.0909 -0.2479,0 -0.47692,-0.0332 -0.68626,-0.0992 -0.20381,-0.0661 -0.38267,-0.1677 -0.53692,-0.30541 -0.14873,-0.13772 -0.26685,-0.30882 -0.35502,-0.51263 -0.0826,-0.20382 -0.12402,-0.4434 -0.12402,-0.71882 0,-0.24238 0.0414,-0.46815 0.12402,-0.67748 0.0882,-0.21484 0.21178,-0.40198 0.37155,-0.56172 0.16526,-0.15975 0.36622,-0.28393 0.60307,-0.37207 0.2369,-0.0936 0.5096,-0.14004 0.81804,-0.14004 z m -34.50177,0.0579 h 0.28112 c 0.20933,0 0.37767,0.0634 0.50436,0.19017 0.1267,0.12669 0.18965,0.29452 0.18965,0.50384 v 4.37958 c -0.0605,0.0165 -0.1401,0.0327 -0.23926,0.0491 -0.0991,0.0166 -0.20953,0.0248 -0.33073,0.0248 -0.24788,0 -0.42675,-0.0409 -0.53692,-0.12351 -0.11019,-0.0827 -0.16536,-0.23993 -0.16536,-0.47129 v -3.28817 l -0.86765,0.30541 c -0.0772,-0.0495 -0.15441,-0.1186 -0.23151,-0.20671 -0.0772,-0.0936 -0.11576,-0.22006 -0.11576,-0.37982 0,-0.29746 0.18215,-0.50945 0.54571,-0.63613 z m 22.4808,0 h 0.28111 c 0.20935,0 0.37716,0.0634 0.50385,0.19017 0.12672,0.12669 0.18965,0.29452 0.18965,0.50384 v 4.37958 c -0.0607,0.0165 -0.14008,0.0327 -0.23926,0.0491 -0.0991,0.0166 -0.20952,0.0248 -0.33073,0.0248 -0.24787,0 -0.42676,-0.0409 -0.53692,-0.12351 -0.1102,-0.0827 -0.16536,-0.23993 -0.16536,-0.47129 v -3.28817 l -0.86765,0.30541 c -0.0772,-0.0495 -0.15387,-0.1186 -0.23099,-0.20671 -0.0772,-0.0936 -0.11576,-0.22006 -0.11576,-0.37982 0,-0.29746 0.18164,-0.50945 0.54519,-0.63613 z m -16.71836,0.88418 c -0.19831,0 -0.35787,0.0497 -0.47905,0.14883 -0.11572,0.0991 -0.17363,0.22833 -0.17363,0.38809 0,0.19279 0.0662,0.33907 0.19844,0.43822 0.1322,0.0991 0.30277,0.16763 0.51211,0.20619 0.19831,-0.0606 0.34959,-0.14287 0.45424,-0.24753 0.1102,-0.10467 0.16536,-0.23714 0.16536,-0.39688 0,-0.17077 -0.0607,-0.3027 -0.1819,-0.39636 -0.11572,-0.0936 -0.28075,-0.14056 -0.49557,-0.14056 z m 6.52001,0 c -0.1983,0 -0.35836,0.0497 -0.47956,0.14883 -0.11571,0.0991 -0.17311,0.22833 -0.17311,0.38809 0,0.19279 0.0658,0.33907 0.19792,0.43822 0.13219,0.0991 0.3033,0.16763 0.51263,0.20619 0.1983,-0.0606 0.34957,-0.14287 0.45423,-0.24753 0.11018,-0.10467 0.16537,-0.23714 0.16537,-0.39688 0,-0.17077 -0.0607,-0.3027 -0.1819,-0.39636 -0.11573,-0.0936 -0.28075,-0.14056 -0.49558,-0.14056 z m 15.96027,0 c -0.1983,0 -0.35782,0.0497 -0.47904,0.14883 -0.11571,0.0991 -0.17364,0.22833 -0.17364,0.38809 0,0.19279 0.0662,0.33907 0.19844,0.43822 0.1322,0.0991 0.30278,0.16763 0.51211,0.20619 0.1983,-0.0606 0.35012,-0.14287 0.45476,-0.24753 0.11019,-0.10467 0.16536,-0.23714 0.16536,-0.39688 0,-0.17077 -0.0609,-0.3027 -0.1819,-0.39636 -0.1156,-0.0936 -0.28123,-0.14056 -0.49609,-0.14056 z m 6.25905,0.0661 c -0.20928,0 -0.37162,0.0635 -0.48731,0.19017 -0.11559,0.12668 -0.17363,0.30006 -0.17363,0.52038 0,0.23135 0.0691,0.40746 0.2067,0.52865 0.13769,0.12117 0.31105,0.1819 0.52038,0.1819 0.13773,0 0.27021,-0.0303 0.39688,-0.091 0.12675,-0.0661 0.22554,-0.14562 0.29714,-0.23926 v -0.0661 c 0,-0.33051 -0.0657,-0.58388 -0.19792,-0.76016 -0.12668,-0.17627 -0.31435,-0.26458 -0.56224,-0.26458 z m -17.50385,1.51205 h 1.80145 c 0.0275,0.0495 0.0579,0.12133 0.091,0.21498 0.0331,0.0882 0.0496,0.18197 0.0496,0.28112 0,0.18176 -0.0443,0.31372 -0.13229,0.39635 -0.0826,0.0827 -0.19303,0.12403 -0.33073,0.12403 h -1.8092 c -0.033,-0.055 -0.0636,-0.12686 -0.091,-0.21498 -0.0275,-0.0882 -0.0413,-0.18146 -0.0413,-0.2806 0,-0.18178 0.0415,-0.31426 0.12403,-0.39687 0.0827,-0.0827 0.19526,-0.12403 0.33847,-0.12403 z m -11.31817,0.42168 c -0.23134,0.0716 -0.4047,0.1732 -0.52038,0.30541 -0.11019,0.1322 -0.16536,0.28123 -0.16536,0.44648 0,0.19832 0.069,0.35235 0.2067,0.46251 0.14322,0.11019 0.33036,0.16536 0.56173,0.16536 0.23685,0 0.42676,-0.0524 0.56999,-0.15709 0.14321,-0.10467 0.21497,-0.26146 0.21497,-0.47078 0,-0.18729 -0.0745,-0.34458 -0.22324,-0.47128 -0.14873,-0.1322 -0.36347,-0.22553 -0.64441,-0.28061 z m 6.52002,0 c -0.23136,0.0716 -0.40522,0.1732 -0.5209,0.30541 -0.11019,0.1322 -0.16485,0.28123 -0.16485,0.44648 0,0.19832 0.0686,0.35235 0.20619,0.46251 0.14324,0.11019 0.33088,0.16536 0.56224,0.16536 0.23688,0 0.42677,-0.0524 0.56999,-0.15709 0.14322,-0.10467 0.21498,-0.26146 0.21498,-0.47078 0,-0.18729 -0.0746,-0.34458 -0.22325,-0.47128 -0.14875,-0.1322 -0.36347,-0.22553 -0.6444,-0.28061 z m 15.96078,0 c -0.23137,0.0716 -0.4052,0.1732 -0.5209,0.30541 -0.11018,0.1322 -0.16536,0.28123 -0.16536,0.44648 0,0.19832 0.069,0.35235 0.20671,0.46251 0.1432,0.11019 0.33039,0.16536 0.56172,0.16536 0.2369,0 0.4273,-0.0524 0.5705,-0.15709 0.1432,-0.10467 0.21446,-0.26146 0.21446,-0.47078 0,-0.18729 -0.074,-0.34458 -0.22272,-0.47128 -0.14872,-0.1322 -0.36347,-0.22553 -0.64441,-0.28061 z m -25.6589,0.84285 c 0.22583,0 0.40473,0.0712 0.53692,0.21445 0.13222,0.14322 0.19844,0.31985 0.19844,0.52917 0,0.20933 -0.0662,0.38543 -0.19844,0.52865 -0.13219,0.14322 -0.31109,0.21497 -0.53692,0.21497 -0.23137,0 -0.41351,-0.0718 -0.5457,-0.21497 -0.12669,-0.14322 -0.18965,-0.31932 -0.18965,-0.52865 0,-0.20932 0.063,-0.38595 0.18965,-0.52917 0.13219,-0.14323 0.31433,-0.21445 0.5457,-0.21445 z m 6.5195,0 c 0.22584,0 0.40526,0.0712 0.53744,0.21445 0.13222,0.14322 0.19792,0.31985 0.19792,0.52917 0,0.20933 -0.0657,0.38543 -0.19792,0.52865 -0.13218,0.14322 -0.3116,0.21497 -0.53744,0.21497 -0.23136,0 -0.41297,-0.0718 -0.54518,-0.21497 -0.12668,-0.14322 -0.19017,-0.31932 -0.19017,-0.52865 0,-0.20932 0.0635,-0.38595 0.19017,-0.52917 0.13221,-0.14323 0.31382,-0.21445 0.54518,-0.21445 z m 15.96078,0 c 0.22585,0 0.40476,0.0712 0.53692,0.21445 0.13221,0.14322 0.19844,0.31985 0.19844,0.52917 0,0.20933 -0.0662,0.38543 -0.19844,0.52865 -0.13216,0.14322 -0.31107,0.21497 -0.53692,0.21497 -0.23139,0 -0.41297,-0.0718 -0.54518,-0.21497 -0.12669,-0.14322 -0.19017,-0.31932 -0.19017,-0.52865 0,-0.20932 0.0636,-0.38595 0.19017,-0.52917 0.13221,-0.14323 0.31379,-0.21445 0.54518,-0.21445 z m 6.52002,0 c 0.22587,0 0.4047,0.0712 0.53692,0.21445 0.1322,0.14322 0.19844,0.31985 0.19844,0.52917 0,0.20933 -0.0662,0.38543 -0.19844,0.52865 -0.13222,0.14322 -0.31105,0.21497 -0.53692,0.21497 -0.23138,0 -0.41298,-0.0718 -0.54519,-0.21497 -0.12668,-0.14322 -0.19016,-0.31932 -0.19016,-0.52865 0,-0.20932 0.0636,-0.38595 0.19016,-0.52917 0.13221,-0.14323 0.31381,-0.21445 0.54519,-0.21445 z" />
    <path
       id="path1857"
       style="font-style:normal;font-variant:normal;font-weight:bold;font-stretch:normal;font-size:52.6246px;line-height:1.25;font-family:Ubuntu;-inkscape-font-specification:'Ubuntu Bold';text-align:center;letter-spacing:0px;word-spacing:0px;writing-mode:lr-tb;text-anchor:middle;fill:#ffffff;fill-opacity:1;stroke:none;stroke-width:0.999999"
       d="m 139.79688,133.24023 c 0,0 -6.87537,7.77519 -11.19336,10.53125 -3.38831,2.16265 -11.19336,4.48633 -11.19336,4.48633 v 107.61328 c 0,0 6.87441,-7.80053 11.19336,-10.57421 3.38694,-2.17512 11.19336,-4.53321 11.19336,-4.53321 v -51.03125 c 1.40228,-0.40063 2.95353,-0.75222 4.65624,-1.05273 1.80292,-0.40063 3.70576,-0.60157 5.70899,-0.60157 5.00806,0 8.41392,1.50298 10.2168,4.50782 1.90306,3.00484 2.85547,8.11261 2.85547,15.32422 v 47.96093 c 0,0 6.87437,-7.80053 11.19335,-10.57421 3.38695,-2.17512 11.19141,-4.53321 11.19141,-4.53321 v -35.55664 c 0,-5.40873 -0.55057,-10.31753 -1.65234,-14.72461 -1.00162,-4.40712 -2.80404,-8.21281 -5.40821,-11.41797 -2.50405,-3.20515 -5.90987,-5.65861 -10.21679,-7.36133 -4.20681,-1.80291 -9.51548,-2.70507 -15.92578,-2.70507 -2.20354,0 -4.50627,0.25094 -6.91016,0.75195 -2.3037,0.40063 -4.20655,0.85078 -5.70898,1.35156 z M 321,133.65234 c 0,0 -7.23744,7.81691 -11.71875,10.57422 -3.56704,2.19481 -7.63765,4.4118 -11.71875,6.04297 -4.87185,1.94721 -15.10742,4.41602 -15.10742,4.41602 l 15.10742,5.92578 v 75.15429 c -0.77265,3.59781 -2.40345,7.06414 -4.53125,10.06641 -2.81409,3.97062 -10.57617,10.06641 -10.57617,10.06641 0,0 23.17471,-1.50977 34.7793,-1.50977 11.60462,0 34.78124,1.50977 34.78124,1.50977 0,0 2.40541,-7.06414 4.53321,-10.06641 2.81408,-3.97066 10.57422,-10.06641 10.57422,-10.06641 H 321 Z M 25.310547,148.73242 c 0,0 -2.406891,7.01352 -4.53125,9.99024 -2.817071,3.94737 -10.576172,9.99218 -10.576172,9.99218 0,0 28.737244,-1.51172 43.119141,-1.51172 3.627741,0 8.170708,0.0966 12.933593,0.24024 -1.842822,1.68302 -3.783794,3.31146 -5.378906,4.29297 -3.567042,2.19481 -11.71875,4.53125 -11.71875,4.53125 v 91.6914 c 0,0 7.237478,-7.81878 11.71875,-10.57617 3.567081,-2.19481 7.637616,-4.4118 11.71875,-6.04297 4.871811,-1.94721 15.107422,-4.41601 15.107422,-4.41601 L 72.595703,240.99805 V 167.6582 c 12.184252,0.44504 23.845703,1.05664 23.845703,1.05664 0,0 2.408844,-7.01543 4.533204,-9.99218 2.81707,-3.94734 10.57422,-9.99024 10.57422,-9.99024 z M 234.0918,172.39453 c -4.80775,0 -9.51565,0.90029 -14.12305,2.70313 -4.50728,1.80291 -8.51387,4.45726 -12.01953,7.96289 -3.50566,3.50566 -6.35892,7.91412 -8.5625,13.22265 -2.10338,5.20842 -3.15625,11.31688 -3.15625,18.32813 0,5.80936 0.80174,11.2185 2.4043,16.22656 1.70275,5.00803 4.2566,9.36437 7.66211,13.07031 3.50566,3.60579 7.86193,6.46104 13.07031,8.56446 5.30853,2.10338 11.51941,3.15429 18.63086,3.15429 2.80452,0 5.60762,-0.14893 8.41211,-0.44922 2.80456,-0.30047 5.40864,-0.70233 7.8125,-1.20312 2.50405,-0.40067 4.75849,-0.90097 6.76172,-1.50195 2.00318,-0.60095 3.60666,-1.20179 4.80859,-1.80274 0,0 -1.68509,-5.80005 -1.35352,-8.72461 0.47494,-4.18923 4.6875,-11.74804 4.6875,-11.74804 -2.50401,1.10177 -12.09902,4.34717 -16.10547,5.14843 -3.90629,0.70118 -7.91288,1.05078 -12.01953,1.05078 -6.4103,0 -11.51804,-1.35231 -15.32422,-4.05664 -3.80609,-2.70432 -5.34488,-6.87319 -6.46093,-10.96679 -0.60843,-2.23163 -0.72038,-7.66452 -0.2168,-13.2168 2.09703,1.61873 4.78738,3.81229 6.25977,5.55469 1.91531,2.26662 4.5332,7.66211 4.5332,7.66211 0,0 13.38355,-1.51172 20.10351,-1.51172 6.71989,0 20.10157,1.51172 20.10157,1.51172 0.0998,-1.20193 0.20062,-2.55421 0.30078,-4.05664 0.10016,-1.60256 0.15234,-3.05534 0.15234,-4.35743 0,-13.32147 -3.25708,-23.38824 -9.76758,-30.19921 -6.51046,-6.91114 -15.37374,-10.36524 -26.59179,-10.36524 z m 173.58203,0.34961 c -5.60905,0 -18.64649,3.00586 -18.64649,3.00586 0,0 -4.23594,7.60915 -7.19531,10.74219 -2.9311,3.1031 -10.2168,7.7207 -10.2168,7.7207 v 37.12695 c 0,0 4.55743,9.51473 7.96289,13.22071 3.40551,3.60582 7.46234,6.41083 12.16993,8.41406 4.80775,2.00322 10.11642,3.00391 15.92578,3.00391 5.90952,0 18.94726,-3.00391 18.94726,-3.00391 0,0 4.1291,-7.65391 7.04493,-10.81836 2.87591,-3.12106 10.0664,-7.79492 10.0664,-7.79492 l -0.15039,-37.12695 c 0,0 -4.55746,-9.46645 -7.96289,-13.07227 -3.4055,-3.60582 -7.51256,-6.40892 -12.32031,-8.41211 -4.70759,-2.00326 -9.9158,-3.00586 -15.625,-3.00586 z m 61.86133,4.09961 c 0,0 -5.87894,7.54583 -9.71875,10.28516 -2.89565,2.06577 -9.71875,4.40625 -9.71875,4.40625 2.2035,7.81254 0.30766,0.88323 2.61132,8.5957 2.40412,7.61223 4.70854,14.87402 6.91211,21.78516 2.30366,6.81097 4.50607,13.12228 6.60938,18.93164 2.10346,5.80936 4.05654,10.81663 5.85937,15.02343 0,0 7.06885,-5.44697 10.98047,-7.55273 3.54142,-1.90643 11.18164,-4.5332 11.18164,-4.5332 l 2.32813,-10.59961 c 2.30366,-7.51212 4.45775,-15.07523 6.46094,-22.6875 2.00318,7.61227 4.20544,15.17538 6.60937,22.6875 2.40378,7.51207 4.85735,15.07327 7.36133,22.68554 0,0 7.58916,-5.44489 11.73633,-7.55273 3.7384,-1.90004 11.73633,-4.5332 11.73633,-4.5332 3.66829,-10.82941 2.42609,-10.04557 6.42578,-21.86914 2.30366,-6.91114 4.60841,-14.17293 6.91211,-21.78516 2.40393,-7.71247 4.70654,-15.47452 6.91015,-23.28711 0,0 -8.40712,7.73297 -13.4043,10.36719 -4.15347,2.18952 -13.40624,4.32422 -13.40624,4.32422 -1.80749,8.12504 -0.1663,1.68211 -2.18555,10.25 -1.00169,4.50723 -2.10284,9.06448 -3.30469,13.67187 -0.60094,2.25366 -1.20179,4.46992 -1.80273,6.64844 -0.60095,2.17856 -0.93209,1.90574 -1.80274,1.89062 -0.96064,-0.0151 -1.29005,0.0994 -1.91601,-2.15429 -0.62616,-2.25362 -1.24063,-4.53224 -1.8418,-6.83594 -1.20189,-4.60743 -2.35327,-9.1144 -3.45508,-13.52148 -1.10177,-4.50728 -2.1528,-8.81523 -3.1543,-12.92188 -1.00168,-4.20677 -1.90378,-8.11293 -2.70507,-11.71875 0,0 -5.96659,7.62847 -9.875,10.36719 -2.94282,2.06207 -9.875,4.32422 -9.875,4.32422 -0.73807,3.3504 -1.80659,6.62047 -2.63672,9.94922 -1.10181,4.40708 -2.30331,8.91405 -3.60547,13.52148 -0.60095,2.3037 -1.21384,4.20415 -1.83984,6.08008 -0.62597,1.87593 -0.75503,2.90259 -1.91602,2.91015 -1.06723,0.008 -1.20164,-0.84565 -1.80274,-2.64648 -0.60094,-1.80079 -1.20178,-3.63892 -1.80273,-5.89258 -1.10177,-4.60739 -2.20288,-9.16464 -3.30469,-13.67187 -1.0015,-4.50728 -2.00417,-8.8655 -3.00586,-13.07227 -0.90141,-4.30692 -1.75339,-8.26332 -2.55468,-11.86914 z M 234.39062,190.875 c 2.60421,0 4.75823,0.45015 6.46094,1.35156 1.80291,0.9015 3.25565,2.0528 4.35742,3.45508 1.20193,1.40228 2.0539,3.00373 2.55469,4.80664 0.60102,1.80287 0.95059,3.65744 1.05078,5.56055 H 219.2168 c 0.22715,-1.89347 0.75061,-3.75768 1.35156,-5.56055 0.70114,-1.90307 1.65354,-3.55483 2.85547,-4.95703 1.20196,-1.40232 2.7049,-2.50339 4.50781,-3.30469 1.80287,-0.90141 3.95493,-1.35156 6.45898,-1.35156 z m 173.28321,1.09961 c 5.10822,0 11.71875,6.00977 11.71875,6.00977 v 32.7539 c 0,0 -6.61053,6.00977 -11.71875,6.00977 -5.10822,0 -11.86914,-6.00977 -11.86914,-6.00977 v -32.7539 c 0,0 6.76092,-6.00977 11.86914,-6.00977 z m -252.94336,70.66797 -25.95703,37.95703 25.95703,37.95703 h 130.73828 130.73828 l 25.95508,-37.95703 -25.95508,-37.95703 H 285.46875 Z M 227.52539,277.25 c 0.79113,0 1.42543,0.2502 1.9043,0.75 0.49961,0.49965 0.75,1.10268 0.75,1.81055 0,0.72869 -0.25031,1.34409 -0.75,1.84375 -0.47887,0.49965 -1.11317,0.74804 -1.9043,0.74804 -0.79113,0 -1.43585,-0.24824 -1.93555,-0.74804 -0.47882,-0.49966 -0.71875,-1.11506 -0.71875,-1.84375 0,-0.70787 0.24015,-1.3109 0.71875,-1.81055 0.4997,-0.49969 1.14442,-0.75 1.93555,-0.75 z m 91.80469,0.75 c 1.47817,0 2.57147,0.1983 3.2793,0.59375 0.7288,0.37455 1.09179,0.99865 1.09179,1.87305 0,0.39556 -0.0822,0.75019 -0.25,1.0625 -0.144,0.29178 -0.32123,0.51898 -0.52929,0.68554 -0.39553,-0.1251 -0.82318,-0.22897 -1.28126,-0.3125 -0.43736,-0.0831 -0.9379,-0.12304 -1.5,-0.12304 -0.9578,0 -1.68589,0.17534 -2.18554,0.52929 -0.49969,0.33298 -0.75,0.90672 -0.75,1.71875 v 1.18555 h 5.31054 c 0.10356,0.20787 0.20857,0.46895 0.3125,0.78125 0.12624,0.31257 0.1875,0.65647 0.1875,1.03125 0,0.66626 -0.15674,1.14411 -0.46874,1.43555 -0.29178,0.29178 -0.67743,0.4375 -1.15626,0.4375 h -3.96484 v 10.21289 c -0.20901,0.0627 -0.50015,0.11467 -0.875,0.15625 -0.37455,0.0624 -0.79019,0.0937 -1.24805,0.0937 -0.93694,0 -1.61486,-0.1461 -2.03125,-0.4375 -0.41646,-0.31257 -0.625,-0.90682 -0.625,-1.78125 v -13.27149 c 0,-1.0202 0.16959,-1.90481 0.50196,-2.65429 0.35376,-0.74952 0.83188,-1.35442 1.43554,-1.8125 0.6039,-0.47887 1.31094,-0.83155 2.12305,-1.06055 0.81184,-0.22899 1.68614,-0.3437 2.62305,-0.3437 z m 30.9414,1.9043 c 0.93695,0 1.61486,0.15637 2.03125,0.46875 0.41643,0.31256 0.62305,0.92571 0.62305,1.84179 v 11.49414 c 0,1.87378 -0.5302,3.31968 -1.5918,4.33985 -1.04118,1.02017 -2.53073,1.53125 -4.46679,1.53125 -1.1243,0 -2.0488,-0.18776 -2.77735,-0.5625 -0.72873,-0.37455 -1.09375,-1.03184 -1.09375,-1.96875 0,-0.39557 0.0527,-0.73782 0.15625,-1.0293 0.12397,-0.2914 0.25868,-0.52093 0.4043,-0.6875 0.37455,0.0832 0.71891,0.15601 1.03125,0.21875 0.3326,0.0408 0.6773,0.0625 1.03125,0.0625 1.60328,0 2.4043,-0.83245 2.4043,-2.49805 V 280.1543 c 0.22941,-0.0408 0.55236,-0.0943 0.96875,-0.15625 0.43733,-0.0624 0.86298,-0.0937 1.27929,-0.0937 z m -145.94726,0.1875 c 0.97856,0 1.74845,0.15633 2.31055,0.46875 0.56216,0.31256 0.98977,0.82143 1.28125,1.52929 0.22904,0.56213 0.46689,1.19839 0.71679,1.90625 0.24983,0.68705 0.50018,1.39432 0.75,2.12305 0.24983,0.72866 0.48975,1.45689 0.71875,2.18555 0.24983,0.7079 0.47929,1.36497 0.6875,1.96875 h 0.15625 c 0.58296,-1.83217 1.16506,-3.60334 1.74805,-5.31055 0.58292,-1.72804 1.09204,-3.17386 1.5293,-4.33984 0.29178,-0.14589 0.65649,-0.27107 1.09375,-0.375 0.45804,-0.10394 0.95869,-0.15625 1.5,-0.15625 0.93687,0 1.68588,0.13544 2.24804,0.40625 0.56213,0.27061 0.89599,0.66698 1,1.1875 0.0828,0.41646 0.17769,1.05069 0.28125,1.90429 0.10394,0.85361 0.20699,1.83212 0.31055,2.93555 0.10394,1.10343 0.20856,2.2697 0.3125,3.49805 0.10394,1.20759 0.1981,2.38421 0.28125,3.52929 0.0831,1.1243 0.15601,2.15493 0.21875,3.0918 0.0624,0.93691 0.10421,1.66507 0.125,2.18555 -0.31257,0.18746 -0.64413,0.32306 -0.99805,0.40625 -0.35376,0.10431 -0.80244,0.15625 -1.34375,0.15625 -0.68704,0 -1.27964,-0.12518 -1.77929,-0.375 -0.47883,-0.24983 -0.73964,-0.74002 -0.78125,-1.46875 -0.14552,-2.41504 -0.25052,-4.62049 -0.3125,-6.61914 -0.0404,-2.01956 -0.0939,-3.67594 -0.15625,-4.9668 h -0.15625 c -0.24983,0.87451 -0.61293,1.97804 -1.0918,3.31055 -0.458,1.33236 -1.03175,3.04956 -1.71875,5.15234 -0.24983,0.20788 -0.57127,0.37513 -0.9668,0.5 -0.39564,0.1251 -0.84402,0.1875 -1.34375,0.1875 -0.66618,0 -1.22754,-0.0833 -1.68554,-0.25 -0.43733,-0.16668 -0.72927,-0.45857 -0.875,-0.875 -0.66626,-1.93618 -1.23794,-3.53856 -1.7168,-4.80859 -0.458,-1.29079 -0.82306,-2.40501 -1.09375,-3.3418 h -0.125 c -0.0624,1.29078 -0.1143,2.47794 -0.15625,3.56055 -0.0408,1.06182 -0.083,2.10284 -0.125,3.12304 -0.0227,1.02014 -0.0506,2.05081 -0.0918,3.0918 -0.0408,1.04103 -0.0955,2.18638 -0.1582,3.43555 -0.22866,0.0831 -0.54002,0.15443 -0.93555,0.21679 -0.37455,0.0831 -0.77115,0.12696 -1.1875,0.12696 -0.81203,0 -1.44629,-0.13552 -1.9043,-0.40625 -0.45804,-0.2914 -0.6875,-0.78163 -0.6875,-1.46875 0,-0.39557 0.0142,-0.93597 0.0293,-1.62305 0.0404,-0.7079 0.0831,-1.50904 0.125,-2.4043 0.062,-0.91608 0.12476,-1.89455 0.1875,-2.93554 0.0828,-1.04104 0.15601,-2.09443 0.21875,-3.15625 0.0832,-1.08265 0.15601,-2.1426 0.21875,-3.1836 0.062,-1.06185 0.12438,-2.04224 0.1875,-2.9375 0.1663,-0.22904 0.50035,-0.47735 1,-0.74804 0.52048,-0.2914 1.23818,-0.4375 2.1543,-0.4375 z m 123.4375,0.0625 c 0.91608,0 1.57134,0.16679 1.9668,0.5 0.4165,0.31256 0.625,0.8944 0.625,1.74804 v 2.0293 h 4.31054 c 0.10318,0.20787 0.20775,0.47941 0.31055,0.8125 0.10356,0.31257 0.15625,0.64609 0.15625,1 0,0.66622 -0.15615,1.14411 -0.46875,1.43555 -0.2914,0.29178 -0.67547,0.4375 -1.1543,0.4375 h -3.15429 v 6.05859 c 0,0.58296 0.18859,1.01056 0.5625,1.28125 0.37455,0.24983 0.89417,0.37305 1.56054,0.37305 0.31181,0 0.64609,-0.0303 1,-0.0937 0.35377,-0.0831 0.65627,-0.17731 0.90625,-0.28125 0.18822,0.20787 0.34192,0.44798 0.4668,0.71875 0.12624,0.27061 0.18945,0.58358 0.18945,0.9375 0,0.72877 -0.29216,1.33175 -0.875,1.81055 -0.56216,0.45807 -1.55106,0.6875 -2.96679,0.6875 -1.74883,0 -3.11324,-0.39431 -4.0918,-1.18555 -0.97848,-0.81196 -1.4668,-2.12429 -1.4668,-3.93555 v -14.02344 c 0.2298,-0.0627 0.52948,-0.12356 0.9043,-0.18554 0.37455,-0.0831 0.7815,-0.125 1.21875,-0.125 z m 32.01172,0.0625 h 0.002 10.33594 c 0.12397,0.20787 0.23824,0.46894 0.34179,0.78125 0.10319,0.31256 0.15626,0.66494 0.15626,1.06054 0,0.68701 -0.15675,1.19813 -0.46876,1.53125 -0.29177,0.33298 -0.70678,0.49805 -1.24804,0.49805 h -6.9336 v 3.49805 h 7.2461 c 0.12397,0.20787 0.23981,0.46895 0.34375,0.78125 0.10318,0.31256 0.15625,0.66689 0.15625,1.0625 0,0.68704 -0.14493,1.1982 -0.4375,1.53125 -0.29178,0.31256 -0.70659,0.46679 -1.24805,0.46679 h -6.05859 v 3.9043 h 8.27539 c 0.12397,0.20788 0.23981,0.47937 0.34375,0.8125 0.10318,0.33336 0.15625,0.69631 0.15625,1.0918 0,0.68704 -0.15637,1.18773 -0.46875,1.5 -0.29178,0.31257 -0.69621,0.46875 -1.2168,0.46875 h -9.27539 c -0.79117,0 -1.4275,-0.22931 -1.90625,-0.6875 -0.45819,-0.47887 -0.6875,-1.11512 -0.6875,-1.90625 v -13.80274 c 0,-0.79113 0.2292,-1.41696 0.6875,-1.875 0.47834,-0.47834 1.11408,-0.71638 1.9043,-0.71679 z m -118.86914,3.43359 v 0.002 c 2.26934,0 4.01774,0.49871 5.24609,1.49805 1.24913,0.99938 1.875,2.42635 1.875,4.2793 v 9.68164 c -0.22866,0.0624 -0.53147,0.11505 -0.90625,0.15625 -0.37455,0.0627 -0.79004,0.0937 -1.24805,0.0937 -0.93683,0 -1.61489,-0.14602 -2.03125,-0.4375 -0.3956,-0.31181 -0.59179,-0.90686 -0.59179,-1.78125 v -7.58789 c 0,-0.72873 -0.21919,-1.27109 -0.65625,-1.625 -0.43741,-0.35377 -1.01939,-0.53125 -1.74805,-0.53125 -0.49969,0 -0.95865,0.0628 -1.375,0.1875 -0.41643,0.1251 -0.80234,0.28147 -1.15625,0.46875 v 11.05469 c -0.20825,0.0627 -0.49831,0.11467 -0.87305,0.15624 -0.37455,0.0624 -0.79196,0.0938 -1.25,0.0938 -0.9369,0 -1.61294,-0.14573 -2.02929,-0.4375 -0.41647,-0.31257 -0.625,-0.90483 -0.625,-1.7793 v -9.65039 c 0,-0.54131 0.11433,-0.97742 0.34375,-1.31055 0.22904,-0.33335 0.55036,-0.64602 0.96679,-0.9375 0.66618,-0.47887 1.52155,-0.86481 2.5625,-1.15625 1.06182,-0.2914 2.22614,-0.4375 3.4961,-0.4375 z m 35.10547,0 0.002,0.002 c 1.43648,0 2.56105,0.25878 3.37305,0.7793 0.83274,0.52048 1.24804,1.17758 1.24804,1.96875 0,0.37455 -0.0934,0.71895 -0.28125,1.03125 -0.16667,0.31257 -0.37502,0.58151 -0.625,0.81055 -0.37455,-0.20788 -0.82132,-0.39583 -1.34179,-0.5625 -0.49966,-0.1663 -1.06098,-0.25 -1.68555,-0.25 -1.12426,0 -2.08383,0.36468 -2.875,1.09375 -0.79117,0.70787 -1.18555,1.75935 -1.18555,3.15429 0,1.39491 0.37518,2.43593 1.125,3.12305 0.77031,0.68704 1.7364,1.0293 2.90235,1.0293 0.66621,0 1.25034,-0.081 1.75,-0.24805 0.52055,-0.18709 0.95663,-0.37526 1.31054,-0.5625 0.35377,0.27062 0.62515,0.56266 0.8125,0.875 0.20825,0.29178 0.3125,0.65458 0.3125,1.0918 0,0.79117 -0.41741,1.42738 -1.25,1.90625 -0.83274,0.47886 -1.98667,0.7168 -3.46484,0.7168 -1.24917,0 -2.39455,-0.16523 -3.43555,-0.49805 -1.02013,-0.33336 -1.89435,-0.83382 -2.62305,-1.5 -0.72869,-0.66629 -1.29197,-1.48832 -1.6875,-2.4668 -0.3956,-0.99934 -0.59374,-2.15519 -0.59374,-3.4668 0,-1.35329 0.21926,-2.52995 0.65624,-3.52929 0.43733,-0.99935 1.02978,-1.83179 1.7793,-2.49805 0.74948,-0.66618 1.62569,-1.16695 2.625,-1.5 0.99938,-0.33335 2.04887,-0.5 3.15235,-0.5 z m 25.91992,0 v 0.002 c 1.08264,0 2.06115,0.11314 2.93554,0.3418 0.89519,0.20787 1.65665,0.54192 2.28125,1 0.62453,0.458 1.1025,1.04014 1.43555,1.74805 0.35377,0.70787 0.53125,1.54227 0.53125,2.5 v 7.05859 c 0,0.54127 -0.14545,0.97742 -0.4375,1.31055 -0.27061,0.31257 -0.60424,0.58353 -1,0.8125 -0.6452,0.3956 -1.4361,0.698 -2.37305,0.90625 -0.93686,0.20787 -1.99888,0.31054 -3.18554,0.31054 -2.14439,0 -3.8511,-0.40472 -5.1211,-1.21679 -1.26999,-0.83275 -1.90625,-2.09287 -1.90625,-3.7793 0,-1.4366 0.42784,-2.52978 1.28125,-3.2793 0.85353,-0.74951 2.16586,-1.21889 3.93555,-1.40625 l 4.15234,-0.43554 v -0.34571 c 0,-0.66625 -0.26924,-1.15457 -0.81054,-1.46679 -0.54127,-0.31257 -1.32167,-0.4668 -2.3418,-0.4668 -0.79113,0 -1.57337,0.0922 -2.34375,0.2793 -0.74948,0.18708 -1.42552,0.40638 -2.0293,0.65625 -0.24982,-0.16668 -0.4689,-0.41687 -0.65625,-0.75 -0.16667,-0.35377 -0.25,-0.72944 -0.25,-1.125 0,-0.91605 0.47981,-1.57123 1.4375,-1.9668 0.60382,-0.22904 1.30063,-0.39584 2.0918,-0.5 0.81196,-0.1251 1.60274,-0.1875 2.37305,-0.1875 z m -43.40625,0.002 c 1.06182,0 2.02983,0.16485 2.90429,0.49805 0.89522,0.31257 1.65466,0.76083 2.2793,1.34375 0.64536,0.58295 1.14605,1.27984 1.5,2.0918 0.35377,0.81199 0.53125,1.69656 0.53125,2.65429 0,0.66622 -0.17733,1.16688 -0.53125,1.5 -0.35376,0.33336 -0.85464,0.55224 -1.5,0.65625 l -8.11914,1.2168 c 0.29178,0.87447 0.80057,1.50022 1.5293,1.875 0.72865,0.35377 1.57363,0.5293 2.53125,0.5293 0.87443,0 1.69649,-0.11276 2.46679,-0.3418 0.77031,-0.24983 1.39419,-0.52098 1.87305,-0.8125 0.31219,0.20788 0.57307,0.47937 0.78125,0.8125 0.20825,0.33336 0.3125,0.69623 0.3125,1.0918 0,0.47886 -0.14572,0.89597 -0.4375,1.25 -0.29178,0.35376 -0.69823,0.6565 -1.21875,0.90625 -0.49965,0.22904 -1.10264,0.3958 -1.81055,0.5 -0.687,0.1251 -1.44644,0.18555 -2.27929,0.18555 -1.22835,0 -2.3633,-0.16515 -3.4043,-0.49805 -1.04096,-0.35377 -1.93607,-0.865 -2.68555,-1.53125 -0.74951,-0.68704 -1.34403,-1.54038 -1.78125,-2.56055 -0.41646,-1.02021 -0.625,-2.21767 -0.625,-3.5918 0,-1.33243 0.20873,-2.48823 0.625,-3.46679 0.43737,-0.97848 1.01092,-1.7882 1.71875,-2.4336 0.72866,-0.64546 1.55068,-1.11473 2.4668,-1.40625 0.93687,-0.31256 1.89453,-0.46875 2.87305,-0.46875 z m 32.33203,0.0293 c 2.16525,0 3.24805,0.72828 3.24805,2.18555 0,0.35376 -0.0523,0.67723 -0.15625,0.96875 -0.10394,0.2914 -0.21865,0.54186 -0.34375,0.75 -0.47883,-0.10394 -1.06296,-0.15625 -1.75,-0.15625 -0.60378,0 -1.20677,0.0729 -1.81055,0.21875 -0.60374,0.14589 -1.13376,0.34377 -1.5918,0.59375 v 10.86719 c -0.20825,0.0624 -0.50022,0.11467 -0.875,0.15624 -0.37455,0.0627 -0.79199,0.0938 -1.25,0.0938 -0.93691,0 -1.61283,-0.1461 -2.02929,-0.4375 -0.41643,-0.31257 -0.625,-0.90483 -0.625,-1.7793 v -9.52539 c 0,-0.58299 0.14609,-1.08173 0.4375,-1.49805 0.29177,-0.4165 0.69823,-0.78148 1.21874,-1.09375 0.68705,-0.41647 1.50915,-0.73971 2.4668,-0.96875 0.97856,-0.24983 1.99877,-0.375 3.06055,-0.375 z m -63.58008,0.34375 c 0.93683,0 1.60244,0.1563 1.99805,0.46875 0.41643,0.31257 0.625,0.90479 0.625,1.7793 v 12.83594 c -0.20825,0.0624 -0.50022,0.11467 -0.875,0.15624 -0.37455,0.0624 -0.79005,0.0938 -1.24805,0.0938 -0.93687,0 -1.61291,-0.14614 -2.0293,-0.4375 -0.39556,-0.31257 -0.59375,-0.90483 -0.59375,-1.7793 v -12.83594 c 0.20826,-0.0627 0.50023,-0.12318 0.875,-0.18555 0.37455,-0.0627 0.78997,-0.0957 1.24805,-0.0957 z m 31.2793,3.1543 c -0.89526,0 -1.64427,0.28162 -2.24805,0.84375 -0.58299,0.54134 -0.9272,1.33205 -1.03125,2.37304 l 5.96484,-0.96679 c -0.0408,-0.54131 -0.28168,-1.05235 -0.71875,-1.53125 -0.43732,-0.47883 -1.09236,-0.71875 -1.96679,-0.71875 z m 45.9375,5.55859 -2.5625,0.21875 c -0.66622,0.0624 -1.20662,0.21911 -1.62305,0.46875 -0.39556,0.22904 -0.59375,0.58364 -0.59375,1.0625 0,0.49962 0.1881,0.89599 0.5625,1.1875 0.37455,0.29178 0.98819,0.43555 1.8418,0.43555 0.458,0 0.90649,-0.0395 1.34375,-0.12305 0.458,-0.10394 0.80217,-0.22949 1.03125,-0.375 z m -151.01953,2.45508 c 2.98526,1.5e-4 5.40452,2.42095 5.40429,5.40625 -1.5e-4,2.98499 -2.4193,5.40415 -5.40429,5.4043 -2.98492,-1.5e-4 -5.40614,-2.41931 -5.40625,-5.4043 -2.7e-4,-2.9853 2.42099,-5.4061 5.40625,-5.40625 z m 263.99218,0 c 2.9853,1.5e-4 5.40453,2.42095 5.4043,5.40625 -1.9e-4,2.98499 -2.41926,5.40415 -5.4043,5.4043 -2.98503,2.6e-4 -5.40602,-2.41904 -5.40625,-5.4043 -2.2e-4,-2.98556 2.42073,-5.40648 5.40625,-5.40625 z m -177.14648,8.73633 c 2.26927,0 4.04902,0.47781 5.33984,1.43554 1.29075,0.95766 1.9375,2.28038 1.9375,3.9668 0,1.06182 -0.27157,1.93601 -0.8125,2.62305 -0.52048,0.66622 -1.18808,1.18772 -2,1.5625 0.43729,0.18708 0.8544,0.41688 1.25,0.6875 0.39553,0.27061 0.73981,0.6024 1.03125,0.99804 0.31219,0.37456 0.55226,0.82331 0.71875,1.34376 0.18747,0.49969 0.28125,1.07144 0.28125,1.71679 0,0.8744 -0.18821,1.66518 -0.5625,2.37305 -0.37455,0.70787 -0.9067,1.31281 -1.59375,1.8125 -0.66625,0.47886 -1.47785,0.84392 -2.43554,1.09375 -0.93687,0.27061 -1.98847,0.4043 -3.1543,0.4043 -1.14508,0 -2.18618,-0.13403 -3.12305,-0.4043 -0.9369,-0.24983 -1.74846,-0.62531 -2.43554,-1.125 -0.66622,-0.49965 -1.18776,-1.10268 -1.5625,-1.81055 -0.37456,-0.7079 -0.56055,-1.51099 -0.56055,-2.40625 0,-1.18673 0.30029,-2.1652 0.9043,-2.93555 0.6246,-0.79116 1.37369,-1.39411 2.24804,-1.81054 -0.8536,-0.41647 -1.50879,-0.95679 -1.96679,-1.62305 -0.45805,-0.68708 -0.6875,-1.51098 -0.6875,-2.46875 0,-0.83274 0.16721,-1.58183 0.5,-2.24805 0.35376,-0.68711 0.84422,-1.25879 1.46875,-1.71679 0.64543,-0.47887 1.40482,-0.84385 2.27929,-1.09375 0.89522,-0.24983 1.87365,-0.375 2.93555,-0.375 z m 24.64258,0 c 2.26938,0 4.04906,0.47781 5.33984,1.43554 1.29075,0.95766 1.93555,2.28038 1.93555,3.9668 0,1.06182 -0.26924,1.93601 -0.81055,2.62305 -0.52048,0.66622 -1.18804,1.18772 -2,1.5625 0.43737,0.18708 0.85444,0.41688 1.25,0.6875 0.3956,0.27061 0.73778,0.6024 1.0293,0.99804 0.31219,0.37456 0.55218,0.82331 0.71875,1.34376 0.18746,0.49969 0.28125,1.07144 0.28125,1.71679 0,0.8744 -0.18784,1.66518 -0.5625,2.37305 -0.37455,0.70787 -0.90479,1.31281 -1.5918,1.8125 -0.66622,0.47886 -1.47778,0.84392 -2.43555,1.09375 -0.93679,0.27061 -1.98838,0.4043 -3.15429,0.4043 -1.14497,0 -2.1861,-0.13403 -3.12305,-0.4043 -0.93683,-0.24983 -1.74847,-0.62531 -2.43555,-1.125 -0.66621,-0.49965 -1.18772,-1.10268 -1.5625,-1.81055 -0.37455,-0.7079 -0.5625,-1.51099 -0.5625,-2.40625 0,-1.18673 0.30263,-2.1652 0.90625,-2.93555 0.62465,-0.79116 1.37362,-1.39411 2.24805,-1.81054 -0.85361,-0.41647 -1.50876,-0.95679 -1.9668,-1.62305 -0.45804,-0.68708 -0.6875,-1.51098 -0.6875,-2.46875 0,-0.83274 0.16684,-1.58183 0.5,-2.24805 0.35377,-0.68711 0.84415,-1.25879 1.46875,-1.71679 0.64536,-0.47887 1.40487,-0.84385 2.2793,-1.09375 0.89526,-0.24983 1.87376,-0.375 2.93555,-0.375 z m 60.32226,0 c 2.26931,0 4.04895,0.47781 5.33985,1.43554 1.29086,0.95766 1.9375,2.28038 1.9375,3.9668 0,1.06182 -0.27082,1.93601 -0.8125,2.62305 -0.52033,0.66622 -1.18621,1.18772 -1.99805,1.5625 0.43737,0.18708 0.85237,0.41688 1.24805,0.6875 0.39556,0.27061 0.73977,0.6024 1.03125,0.99804 0.31256,0.37456 0.55215,0.82331 0.71875,1.34376 0.18822,0.49969 0.28125,1.07144 0.28125,1.71679 0,0.8744 -0.18859,1.66518 -0.5625,2.37305 -0.37455,0.70787 -0.9048,1.31281 -1.5918,1.8125 -0.66633,0.47886 -1.47973,0.84392 -2.4375,1.09375 -0.93702,0.27061 -1.98824,0.4043 -3.1543,0.4043 -1.14516,0 -2.18418,-0.13403 -3.12109,-0.4043 -0.93672,-0.24983 -1.75046,-0.62531 -2.4375,-1.125 -0.66633,-0.49965 -1.18573,-1.10268 -1.56055,-1.81055 -0.37455,-0.7079 -0.5625,-1.51099 -0.5625,-2.40625 0,-1.18673 0.30266,-2.1652 0.90625,-2.93555 0.62457,-0.79116 1.37381,-1.39411 2.24805,-1.81054 -0.85361,-0.41647 -1.50883,-0.95679 -1.9668,-1.62305 -0.45811,-0.68708 -0.6875,-1.51098 -0.6875,-2.46875 0,-0.83274 0.1674,-1.58183 0.5,-2.24805 0.35377,-0.68711 0.84201,-1.25879 1.4668,-1.71679 0.64524,-0.47887 1.4067,-0.84385 2.28125,-1.09375 0.89518,-0.24983 1.87181,-0.375 2.93359,-0.375 z m 23.65625,0.0625 c 2.41512,0 4.31994,0.80117 5.71485,2.40429 1.39483,1.60317 2.09375,3.94597 2.09375,7.02735 0,1.76965 -0.21828,3.3114 -0.65625,4.62305 -0.41647,1.31164 -1.01095,2.40482 -1.78125,3.27929 -0.77031,0.85353 -1.69658,1.49833 -2.7793,1.93555 -1.06178,0.41646 -2.2384,0.625 -3.5293,0.625 -1.58214,0 -2.85093,-0.20872 -3.80859,-0.625 -0.93695,-0.43737 -1.40625,-1.09432 -1.40625,-1.96875 0,-0.41647 0.0942,-0.81085 0.28125,-1.18555 0.20901,-0.37455 0.43763,-0.65636 0.6875,-0.84375 0.54123,0.24983 1.11486,0.4584 1.71875,0.625 0.60367,0.14589 1.20665,0.21875 1.81055,0.21875 1.4155,0 2.55072,-0.39644 3.40429,-1.1875 0.85365,-0.79113 1.2793,-1.9052 1.2793,-3.3418 -0.3956,0.33298 -0.92547,0.62518 -1.5918,0.875 -0.64524,0.22904 -1.39436,0.34376 -2.24804,0.34376 -0.93695,0 -1.80255,-0.12556 -2.59375,-0.375 -0.77031,-0.24983 -1.44631,-0.63382 -2.0293,-1.1543 -0.56213,-0.52052 -1.00856,-1.1672 -1.3418,-1.9375 -0.31219,-0.77035 -0.46875,-1.67584 -0.46875,-2.7168 0,-0.91608 0.15634,-1.76938 0.46875,-2.56055 0.33336,-0.81199 0.80041,-1.5193 1.4043,-2.12304 0.62457,-0.60378 1.38412,-1.07312 2.2793,-1.40625 0.89537,-0.35377 1.92604,-0.5293 3.09179,-0.5293 z m -130.40039,0.21875 h 1.0625 c 0.79117,0 1.42742,0.23981 1.90625,0.71875 0.47887,0.47883 0.7168,1.11313 0.7168,1.90429 v 16.55274 c -0.22866,0.0624 -0.52952,0.12356 -0.9043,0.18555 -0.37455,0.0627 -0.79192,0.0937 -1.25,0.0937 -0.93687,0 -1.6129,-0.15442 -2.02929,-0.4668 -0.41647,-0.31257 -0.625,-0.90682 -0.625,-1.78125 v -12.42774 l -3.2793,1.1543 c -0.29178,-0.18709 -0.5836,-0.44823 -0.875,-0.78125 -0.29178,-0.35376 -0.4375,-0.83173 -0.4375,-1.43555 0,-1.12425 0.68841,-1.9255 2.0625,-2.40429 z m 84.9668,0 h 1.0625 c 0.79121,0 1.42547,0.23981 1.9043,0.71875 0.47894,0.47883 0.71679,1.11313 0.71679,1.90429 v 16.55274 c -0.22941,0.0624 -0.52944,0.12356 -0.90429,0.18555 -0.37455,0.0627 -0.79189,0.0937 -1.25,0.0937 -0.93684,0 -1.61295,-0.15442 -2.0293,-0.4668 -0.4165,-0.31257 -0.625,-0.90682 -0.625,-1.78125 v -12.42774 l -3.2793,1.1543 c -0.29178,-0.18709 -0.58157,-0.44823 -0.87304,-0.78125 -0.29178,-0.35376 -0.4375,-0.83173 -0.4375,-1.43555 0,-1.12425 0.6865,-1.9255 2.06054,-2.40429 z m -63.1875,3.34179 c -0.74952,0 -1.35258,0.1878 -1.81055,0.5625 -0.4374,0.37456 -0.65625,0.86298 -0.65625,1.4668 0,0.72866 0.25027,1.28151 0.75,1.65625 0.49966,0.37455 1.14434,0.63356 1.93555,0.7793 0.74952,-0.22904 1.32127,-0.53998 1.7168,-0.93555 0.4165,-0.3956 0.625,-0.89626 0.625,-1.5 0,-0.64543 -0.22931,-1.14406 -0.6875,-1.49805 -0.43737,-0.35376 -1.06113,-0.53125 -1.87305,-0.53125 z m 24.64258,0 c -0.74948,0 -1.35442,0.1878 -1.8125,0.5625 -0.43733,0.37456 -0.6543,0.86298 -0.6543,1.4668 0,0.72866 0.24862,1.28151 0.74805,1.65625 0.49961,0.37455 1.14633,0.63356 1.9375,0.7793 0.74948,-0.22904 1.32123,-0.53998 1.71679,-0.93555 0.41643,-0.3956 0.625,-0.89626 0.625,-1.5 0,-0.64543 -0.22938,-1.14406 -0.6875,-1.49805 -0.4374,-0.35376 -1.06109,-0.53125 -1.87304,-0.53125 z m 60.32226,0 c -0.74948,0 -1.35239,0.1878 -1.81054,0.5625 -0.43733,0.37456 -0.65625,0.86298 -0.65625,1.4668 0,0.72866 0.25034,1.28151 0.75,1.65625 0.49965,0.37455 1.14437,0.63356 1.93554,0.7793 0.74945,-0.22904 1.32326,-0.53998 1.71875,-0.93555 0.41647,-0.3956 0.625,-0.89626 0.625,-1.5 0,-0.64543 -0.23029,-1.14406 -0.6875,-1.49805 -0.43691,-0.35376 -1.06293,-0.53125 -1.875,-0.53125 z m 23.65625,0.25 c -0.79098,0 -1.40454,0.24011 -1.84179,0.71875 -0.43688,0.47879 -0.65625,1.1341 -0.65625,1.9668 0,0.87439 0.26103,1.54001 0.78125,1.99805 0.5204,0.45796 1.17562,0.6875 1.96679,0.6875 0.52056,0 1.02125,-0.11471 1.5,-0.34375 0.47906,-0.24983 0.85244,-0.55038 1.12305,-0.9043 v -0.25 c 0,-1.24917 -0.24828,-2.20679 -0.74805,-2.87305 -0.47879,-0.66621 -1.18809,-1 -2.125,-1 z m -66.15625,5.71485 h 6.8086 c 0.10393,0.18708 0.21864,0.45858 0.34375,0.8125 0.1251,0.33335 0.1875,0.68776 0.1875,1.0625 0,0.687 -0.16722,1.18574 -0.5,1.49804 -0.31219,0.31257 -0.72956,0.46876 -1.25,0.46876 h -6.83789 c -0.12473,-0.20788 -0.24019,-0.47945 -0.34375,-0.8125 -0.10394,-0.33336 -0.15625,-0.68585 -0.15625,-1.06055 0,-0.68704 0.15675,-1.18774 0.46875,-1.5 0.31256,-0.31257 0.73799,-0.46875 1.27929,-0.46875 z m -42.77734,1.59375 c -0.87436,0.27061 -1.52958,0.6546 -1.9668,1.15429 -0.41646,0.49966 -0.625,1.06294 -0.625,1.6875 0,0.74956 0.26077,1.3317 0.78125,1.74805 0.54131,0.41647 1.24858,0.625 2.12305,0.625 0.89518,0 1.61295,-0.19826 2.1543,-0.59375 0.54126,-0.3956 0.8125,-0.98816 0.8125,-1.7793 0,-0.70786 -0.2817,-1.30234 -0.84375,-1.78124 -0.56213,-0.49962 -1.37373,-0.85238 -2.43555,-1.06055 z m 24.64258,0 c -0.87443,0.27061 -1.53154,0.6546 -1.96875,1.15429 -0.41647,0.49966 -0.62305,1.06294 -0.62305,1.6875 0,0.74956 0.2592,1.3317 0.7793,1.74805 0.54138,0.41647 1.25057,0.625 2.125,0.625 0.89529,0 1.61299,-0.19826 2.15429,-0.59375 0.54131,-0.3956 0.8125,-0.98816 0.8125,-1.7793 0,-0.70786 -0.28173,-1.30234 -0.84375,-1.78124 -0.5622,-0.49962 -1.37376,-0.85238 -2.43554,-1.06055 z m 60.32422,0 c -0.87447,0.27061 -1.53146,0.6546 -1.96875,1.15429 -0.41643,0.49966 -0.625,1.06294 -0.625,1.6875 0,0.74956 0.26073,1.3317 0.78125,1.74805 0.54126,0.41647 1.24872,0.625 2.12304,0.625 0.89537,0 1.61502,-0.19826 2.15625,-0.59375 0.54123,-0.3956 0.81055,-0.98816 0.81055,-1.7793 0,-0.70786 -0.27971,-1.30234 -0.8418,-1.78124 -0.56209,-0.49962 -1.37372,-0.85238 -2.43554,-1.06055 z m -96.97852,3.18555 c 0.85353,0 1.52968,0.26916 2.0293,0.81054 0.49973,0.54131 0.75,1.20887 0.75,2 0,0.79117 -0.25027,1.45674 -0.75,1.99805 -0.49962,0.5413 -1.17577,0.8125 -2.0293,0.8125 -0.87447,0 -1.56288,-0.27124 -2.0625,-0.8125 -0.47883,-0.54131 -0.7168,-1.20688 -0.7168,-1.99805 0,-0.79113 0.2382,-1.45869 0.7168,-2 0.49962,-0.54134 1.18803,-0.81054 2.0625,-0.81054 z m 24.64063,0 c 0.85356,0 1.53167,0.26916 2.03125,0.81054 0.49972,0.54131 0.74804,1.20887 0.74804,2 0,0.79117 -0.24828,1.45674 -0.74804,1.99805 -0.49958,0.5413 -1.17769,0.8125 -2.03125,0.8125 -0.87444,0 -1.56086,-0.27124 -2.06055,-0.8125 -0.47879,-0.54131 -0.71875,-1.20688 -0.71875,-1.99805 0,-0.79113 0.24018,-1.45869 0.71875,-2 0.49969,-0.54134 1.18611,-0.81054 2.06055,-0.81054 z m 60.32421,0 c 0.85361,0 1.5298,0.26916 2.0293,0.81054 0.49969,0.54131 0.75,1.20887 0.75,2 0,0.79117 -0.25016,1.45674 -0.75,1.99805 -0.4995,0.5413 -1.17569,0.8125 -2.0293,0.8125 -0.87454,0 -1.56085,-0.27124 -2.06054,-0.8125 -0.47883,-0.54131 -0.71875,-1.20688 -0.71875,-1.99805 0,-0.79113 0.24022,-1.45869 0.71875,-2 0.49969,-0.54134 1.186,-0.81054 2.06054,-0.81054 z m 24.64258,0 c 0.85368,0 1.52957,0.26916 2.0293,0.81054 0.49965,0.54131 0.75,1.20887 0.75,2 0,0.79117 -0.25023,1.45674 -0.75,1.99805 -0.49973,0.5413 -1.17562,0.8125 -2.0293,0.8125 -0.8745,0 -1.56085,-0.27124 -2.06054,-0.8125 -0.47879,-0.54131 -0.71875,-1.20688 -0.71875,-1.99805 0,-0.79113 0.2403,-1.45869 0.71875,-2 0.49969,-0.54134 1.18604,-0.81054 2.06054,-0.81054 z"
       transform="matrix(0.26458333,0,0,0.26458333,97.530224,146.88232)" />
  </g>
</svg>
