<?xml version="1.0" encoding="UTF-8" standalone="no"?>
<svg
   xmlns:dc="http://purl.org/dc/elements/1.1/"
   xmlns:cc="http://creativecommons.org/ns#"
   xmlns:rdf="http://www.w3.org/1999/02/22-rdf-syntax-ns#"
   xmlns:svg="http://www.w3.org/2000/svg"
   xmlns="http://www.w3.org/2000/svg"
   xmlns:sodipodi="http://sodipodi.sourceforge.net/DTD/sodipodi-0.dtd"
   xmlns:inkscape="http://www.inkscape.org/namespaces/inkscape"
   width="570.93719"
   height="354.76016"
   viewBox="0 0 151.06046 93.863625"
   version="1.1"
   id="svg8"
   inkscape:version="1.0.2-2 (e86c870879, 2021-01-15)"
   sodipodi:docname="logo.svg"
   inkscape:export-filename="C:\Users\onigi\Desktop\drawing.png"
   inkscape:export-xdpi="96"
   inkscape:export-ydpi="96">
  <defs
     id="defs2">
    <filter
       inkscape:collect="always"
       style="color-interpolation-filters:sRGB"
       id="filter1142"
       x="-0.0040364544"
       width="1.0080729"
       y="-0.010823228"
       height="1.0216465">
      <feGaussianBlur
         inkscape:collect="always"
         stdDeviation="0.24498061"
         id="feGaussianBlur1144" />
    </filter>
    <filter
       inkscape:collect="always"
       style="color-interpolation-filters:sRGB"
       id="filter1146"
       x="-0.0091909449"
       width="1.0183819"
       y="-0.0043227669"
       height="1.0086455">
      <feGaussianBlur
         inkscape:collect="always"
         stdDeviation="0.56411967"
         id="feGaussianBlur1148" />
    </filter>
  </defs>
  <sodipodi:namedview
     id="base"
     pagecolor="#8d8d8d"
     bordercolor="#606060"
     borderopacity="1"
     inkscape:pageopacity="0"
     inkscape:pageshadow="2"
     inkscape:zoom="1.6725762"
     inkscape:cx="222.32956"
     inkscape:cy="239.49961"
     inkscape:document-units="px"
     inkscape:current-layer="layer1"
     showgrid="false"
     units="px"
     showborder="true"
     inkscape:showpageshadow="false"
     borderlayer="true"
     inkscape:pagecheckerboard="true"
     inkscape:window-width="1920"
     inkscape:window-height="1017"
     inkscape:window-x="-8"
     inkscape:window-y="-8"
     inkscape:window-maximized="1"
     inkscape:object-paths="true"
     inkscape:snap-page="true"
     fit-margin-top="0"
     fit-margin-left="0"
     fit-margin-right="0"
     fit-margin-bottom="0"
     inkscape:document-rotation="0"
     inkscape:snap-global="true" />
  <metadata
     id="metadata5">
    <rdf:RDF>
      <cc:Work
         rdf:about="">
        <dc:format>image/svg+xml</dc:format>
        <dc:type
           rdf:resource="http://purl.org/dc/dcmitype/StillImage" />
        <dc:title />
      </cc:Work>
    </rdf:RDF>
  </metadata>
  <g
     inkscape:label="Layer 1"
     inkscape:groupmode="layer"
     id="layer1"
     transform="translate(-97.530224,-146.88232)">
    <path
       id="artwork-shadow"
       style="opacity:0.5;fill:#000000;fill-opacity:1;stroke:none;stroke-width:0.999999px;stroke-linecap:butt;stroke-linejoin:miter;stroke-opacity:1;filter:url(#filter1146)"
       d="m 281.5625,31.416016 c 0,0 -9.53058,8.354112 -15.38477,24.646484 -5.23812,13.876536 -1.43406,26.712975 2.28711,33.158203 5.90835,10.233714 17.77682,17.730167 25.31641,24.816407 7.29135,7.29146 12.29654,15.2432 14.96484,24.15234 1.25027,4.86509 2.04254,8.2255 1.66602,12.51953 -0.4227,4.65952 -1.74634,9.07728 -4.5918,12.47266 -6.10053,7.27911 -18.55807,12.34425 -24.60547,14.36524 -4.85393,1.60097 -7.77148,2.34765 -7.77148,2.34765 0,0 3.03971,0.30343 8.48828,0.28906 6.72816,0 22.55511,-0.31942 35.83984,-8.99804 6.36805,-4.16028 11.34414,-10.15681 14.13086,-17.02149 2.5598,-6.24242 3.50034,-12.81164 3.14454,-19.27539 0,-10.93137 -6.28266,-24.55019 -15.97461,-34.24219 -5.80298,-5.151378 -14.88972,-11.587241 -19.87696,-15.24023 -7.57035,-5.461833 -17.39938,-13.991831 -18.9082,-27.775391 -1.28137,-15.03515 1.27539,-26.214843 1.27539,-26.214843 z m -39.05469,36.457031 c 0,0 1.77297,2.443366 3.2793,6.613281 1.52523,4.221997 2.48337,9.916818 0.8457,15.830078 -1.41203,5.379289 -5.59767,11.335954 -9.35547,15.093754 -6.02128,6.02139 -12.51589,11.28204 -17.1875,18.89843 -4.64216,7.94843 -5.74925,16.65927 -3.68359,24.80664 2.26484,8.86179 8.06678,16.02914 14.85156,21.04102 6.66452,4.76731 13.65053,7.31016 19.10938,8.60352 5.42672,1.28568 9.66743,1.42425 11.67969,1.42773 1.2065,-0.17537 1.80078,-0.29297 1.80078,-0.29297 0,0 -0.56632,-0.20973 -1.53516,-0.57812 -3.67979,-2.17406 -12.47885,-7.93757 -15.82422,-17.10157 -1.5253,-5.09238 -2.98996,-11.94828 -1.32617,-16.4082 0.52906,0.74646 0.7112,0.87903 1.09766,1.30664 1.19595,1.29381 2.45277,2.46521 3.72851,3.52344 2.76809,2.29599 5.65115,4.0811 8.33008,5.60742 4.00339,2.44672 7.30699,4.00704 9.75586,6.11133 2.62511,2.10036 5.95554,5.52699 6.62305,7.41211 1.41263,3.96786 -0.0156,7.1875 -0.0156,7.1875 0,0 4.09412,-1.63375 6.05078,-6.97656 0.92999,-2.54948 2.80911,-8.12598 0.54688,-12.97266 -2.24569,-4.54896 -5.87402,-8.42181 -9.67188,-11.52344 -2.37709,-2.06948 -4.7446,-3.86187 -6.62695,-5.38086 -0.88706,-0.71573 -1.70313,-1.39951 -2.41406,-2.07812 -2.58108,-2.36334 -4.53923,-5.03069 -6.13672,-7.98242 -0.38525,-0.71199 -0.4365,-0.73796 -0.80274,-2.29297 h -0.002 c 2.55965,-4.12558 5.60321,-7.38977 8.04883,-12.13867 4.73321,-9.26714 4.72483,-18.744175 1.77344,-26.568364 -3.29643,-8.560517 -9.8084,-14.088049 -14.6211,-17.123047 -4.90647,-3.094111 -8.31836,-4.044922 -8.31836,-4.044922 z M 224.50977,179.24219 c -12.45563,1.5e-4 -22.89844,6.33203 -22.89844,6.33203 l 6.30664,10.52734 10.3125,-0.0176 1.83984,1.7461 2.75781,1.74804 -12.9414,0.0234 c 1.47855,4.20257 3.79687,10.52735 3.79687,10.52735 h 79.25977 l 12.36719,-21.42188 c -60.64385,-0.61686 -64.18568,-9.46094 -80.80078,-9.46094 z m 124.4082,6.33203 c 0,0 -12.29384,1.59415 -23.88281,2.51953 l -4.62305,8.00781 h 11.80469 10.33203 c 2.4113,-4.39154 6.36914,-10.52734 6.36914,-10.52734 z m -28.53125,2.85547 c -3.03398,0.19049 -5.88869,0.31054 -8.29492,0.31054 -0.80387,0 -1.55607,-0.008 -2.3418,-0.0117 L 297.39844,210.125 h 10.46289 l 8.0957,-14.02344 z m -1.99219,11.16797 -6.07812,10.52734 h 24.37304 c 0,0 2.35678,-6.32557 3.86133,-10.52734 h -12.93359 z m -103.88281,14.38476 c 0,0 -0.78661,5.02505 -1.58594,7.42774 -0.86082,2.58742 -3.42578,7.42968 -3.42578,7.42968 0,0 29.23299,5.3772 43.22461,4.31836 26.83861,-2.03108 30.42104,-11.70766 49.23047,-13.36328 7.83606,-0.68965 36.37304,3.16992 36.37304,3.16992 0,0 -1.83129,-3.45332 -2.44531,-5.29882 -0.5701,-1.71364 -0.0176,-3.6836 -0.0176,-3.6836 h -25.77539 -14.91796 z m 81.11523,8.3457 c 0,0 -11.58121,11.33222 -18.96289,14.05469 -6.34099,2.33859 -20.22656,1.55664 -20.22656,1.55664 l 9.97656,106.67578 c 0,0 4.28879,-19.10917 9.14453,-27.51953 2.1464,-3.71773 10.85547,-11.14843 10.85547,-11.14843 z m 40.06836,3.85352 c 0,0 -13.22549,0.23882 -19.57812,1.40234 -5.01759,0.91911 -13.9668,3.89844 -13.9668,3.89844 l -4.97266,27.96485 c 0,0 8.51221,-14.29433 14.77149,-18.82032 6.46998,-4.67845 23.74609,-14.44531 23.74609,-14.44531 z m -119.86523,6.45703 c 0,0 12.39261,6.06058 19.09961,12.76758 6.707,6.707 19.45703,25.63477 19.45703,25.63477 L 249.375,237.93945 c 0,0 -9.09098,-0.18966 -14.38281,-0.98828 -5.97464,-0.90164 -19.16211,-4.3125 -19.16211,-4.3125 z m 111.28125,6.20703 -21.89844,20.14258 -2.21094,12.42578 23.625,-30.38476 z m -102.72461,8.48242 0.30469,2.23243 13.32617,18.78711 -2.71094,-9.47266 z m 77.85937,14.38868 -6.54297,6.01758 -3.01171,16.94335 7.09375,-9.125 z m -62.6914,1.64843 3.42773,11.98243 15.33008,21.60937 -2.48242,-16.38281 z"
       transform="matrix(0.26458333,0,0,0.26458333,99.171676,141.2159)" />
    <path
       id="artwork-front"
       style="fill:#ffffff;fill-opacity:1;stroke:none;stroke-width:0.999999px;stroke-linecap:butt;stroke-linejoin:miter;stroke-opacity:1"
       d="M 291.76562 0 C 291.76562 0 282.23505 8.3541123 276.38086 24.646484 C 271.14274 38.52302 274.9468 51.359459 278.66797 57.804688 C 284.57632 68.038401 296.44674 75.532904 303.98633 82.619141 C 311.27768 89.910605 316.28286 97.862344 318.95117 106.77148 C 320.20144 111.63657 320.99175 114.99893 320.61523 119.29297 C 320.19253 123.95248 318.87085 128.37025 316.02539 131.76562 C 309.92486 139.04473 297.46536 144.10792 291.41797 146.12891 C 286.56403 147.72988 283.64648 148.47852 283.64648 148.47852 C 283.64648 148.47852 286.6862 148.78194 292.13477 148.76758 C 298.86293 148.76758 314.68987 148.44816 327.97461 139.76953 C 334.34266 135.60925 339.31875 129.61273 342.10547 122.74805 C 344.66527 116.50563 345.60776 109.9364 345.25195 103.47266 C 345.25195 92.54128 338.9693 78.922463 329.27734 69.230469 C 323.47437 64.079086 314.38763 57.64127 309.40039 53.988281 C 301.83003 48.526448 292.00101 39.998403 290.49219 26.214844 C 289.21081 11.179694 291.76562 0 291.76562 0 z M 252.71094 36.457031 C 252.71094 36.457031 254.48586 38.900397 255.99219 43.070312 C 257.51742 47.292309 258.47361 52.987131 256.83594 58.900391 C 255.42391 64.279679 251.23826 70.236345 247.48047 73.994141 C 241.45919 80.015533 234.96458 85.276187 230.29297 92.892578 C 225.6508 100.841 224.54567 109.55184 226.61133 117.69922 C 228.87617 126.561 234.67811 133.7264 241.46289 138.73828 C 248.12741 143.50559 255.11342 146.0504 260.57227 147.34375 C 265.99899 148.62943 270.23969 148.76605 272.25195 148.76953 C 273.45845 148.59416 274.05078 148.47852 274.05078 148.47852 C 274.05078 148.47852 273.48447 148.26683 272.51562 147.89844 C 268.83584 145.72438 260.03678 139.96282 256.69141 130.79883 C 255.1661 125.70644 253.70145 118.85054 255.36523 114.39062 C 255.89429 115.13708 256.07839 115.2677 256.46484 115.69531 C 257.6608 116.98912 258.91762 118.16247 260.19336 119.2207 C 262.96145 121.51669 265.84256 123.29985 268.52148 124.82617 C 272.52487 127.27289 275.82847 128.83516 278.27734 130.93945 C 280.90245 133.03981 284.23289 136.46645 284.90039 138.35156 C 286.31303 142.31942 284.88672 145.53906 284.88672 145.53906 C 284.88672 145.53906 288.97889 143.90532 290.93555 138.5625 C 291.86554 136.01302 293.74466 130.43652 291.48242 125.58984 C 289.23674 121.04088 285.61036 117.16608 281.8125 114.06445 C 279.4354 111.99497 277.06595 110.20259 275.18359 108.68359 C 274.29654 107.96786 273.48046 107.28604 272.76953 106.60742 C 270.18845 104.24408 268.23226 101.57674 266.63477 98.625 C 266.24952 97.913013 266.19827 97.887042 265.83203 96.332031 L 265.83008 96.332031 C 268.38973 92.20645 271.43329 88.940307 273.87891 84.191406 C 278.61212 74.924269 278.60179 65.449189 275.65039 57.625 C 272.35396 49.064483 265.842 43.534999 261.0293 40.5 C 256.12283 37.40589 252.71094 36.457031 252.71094 36.457031 z M 234.71289 147.82617 C 222.25727 147.82632 211.81641 154.1582 211.81641 154.1582 L 218.12109 164.68555 L 228.43359 164.66602 L 230.27344 166.41406 L 233.0332 168.16211 L 220.08984 168.18359 C 221.56839 172.38616 223.88867 178.71094 223.88867 178.71094 L 303.14648 178.71094 L 315.51562 157.29102 C 254.87178 156.67416 251.328 147.83008 234.71289 147.83008 L 234.71289 147.82617 z M 359.12109 154.1582 C 359.12109 154.1582 346.82921 155.75235 335.24023 156.67773 L 330.61523 164.68555 L 342.42188 164.68555 L 352.75195 164.68555 C 355.16325 160.294 359.12109 154.1582 359.12109 154.1582 z M 330.5918 157.01367 C 327.55782 157.20416 324.70116 157.32422 322.29492 157.32422 C 321.49105 157.32422 320.7408 157.31628 319.95508 157.3125 L 307.60156 178.70703 L 318.06445 178.70703 L 326.16211 164.68555 L 330.5918 157.01367 z M 328.59766 168.18164 L 322.51953 178.70898 L 346.89453 178.70898 C 346.89453 178.70898 349.25131 172.38342 350.75586 168.18164 L 337.82227 168.18164 L 328.59766 168.18164 z M 224.71484 182.56641 C 224.71484 182.56641 223.92824 187.59146 223.12891 189.99414 C 222.26808 192.58157 219.70313 197.42383 219.70312 197.42383 C 219.70312 197.42383 248.93611 202.80102 262.92773 201.74219 C 289.76635 199.71111 293.35073 190.03453 312.16016 188.37891 C 319.99621 187.68926 348.53125 191.54688 348.53125 191.54688 C 348.53125 191.54688 346.70191 188.09355 346.08789 186.24805 C 345.51779 184.53441 346.06836 182.56641 346.06836 182.56641 L 320.29297 182.56641 L 305.375 182.56641 L 224.71484 182.56641 z M 305.83008 190.91016 C 305.83008 190.91016 294.25082 202.24433 286.86914 204.9668 C 280.52815 207.30538 266.64062 206.52344 266.64062 206.52344 L 276.61914 313.19727 C 276.61914 313.19727 280.90597 294.09004 285.76172 285.67969 C 287.90811 281.96196 296.61719 274.53125 296.61719 274.53125 L 305.83008 190.91016 z M 345.89844 194.76367 C 345.89844 194.76367 332.6749 195.00444 326.32227 196.16797 C 321.30468 197.08707 312.35547 200.06641 312.35547 200.06641 L 307.38281 228.03125 C 307.38281 228.03125 315.89307 213.73497 322.15234 209.20898 C 328.62233 204.53053 345.89844 194.76367 345.89844 194.76367 z M 226.03516 201.22266 C 226.03516 201.22266 238.42581 207.28324 245.13281 213.99023 C 251.83981 220.69723 264.5918 239.62305 264.5918 239.62305 L 259.57812 206.52344 C 259.57813 206.52344 250.48714 206.33377 245.19531 205.53516 C 239.22067 204.63351 226.03516 201.22266 226.03516 201.22266 z M 337.31641 207.42773 L 315.41602 227.57227 L 313.20703 239.99805 L 336.83008 209.61133 L 337.31641 207.42773 z M 234.58984 215.91211 L 234.89453 218.14258 L 248.2207 236.93164 L 245.51172 227.45898 L 234.58984 215.91211 z M 312.45117 230.30078 L 305.9082 236.31836 L 302.89453 253.26172 L 309.99023 244.13477 L 312.45117 230.30078 z M 249.75977 231.94922 L 253.1875 243.93164 L 268.51562 265.54102 L 266.03516 249.1582 L 249.75977 231.94922 z "
       transform="matrix(0.26458333,0,0,0.26458333,97.530224,146.88232)" />
    <path
       id="path1124"
       style="font-style:normal;font-variant:normal;font-weight:bold;font-stretch:normal;font-size:52.6246px;line-height:1.25;font-family:Ubuntu;-inkscape-font-specification:'Ubuntu Bold';text-align:center;letter-spacing:0px;word-spacing:0px;writing-mode:lr-tb;text-anchor:middle;opacity:0.5;fill:#020202;fill-opacity:1;stroke:none;stroke-width:0.264583;filter:url(#filter1142)"
       d="m 133.45981,184.25214 c 0,0 -1.81911,2.05719 -2.96158,2.78639 -0.89649,0.5722 -2.96157,1.18701 -2.96157,1.18701 v 28.47268 c 0,0 1.81885,-2.06389 2.96157,-2.79776 0.89613,-0.5755 2.96158,-1.19941 2.96158,-1.19941 v -13.50202 c 0.37102,-0.106 0.78145,-0.19902 1.23196,-0.27853 0.47702,-0.106 0.98048,-0.15917 1.51051,-0.15917 1.32504,0 2.22618,0.39767 2.70319,1.1927 0.50352,0.79503 0.75551,2.14646 0.75551,4.05453 v 12.68966 c 0,0 1.81884,-2.06389 2.96157,-2.79776 0.89613,-0.5755 2.96106,-1.19941 2.96106,-1.19941 v -9.40769 c 0,-1.43106 -0.14567,-2.72985 -0.43718,-3.89589 -0.26501,-1.16605 -0.7419,-2.17297 -1.43092,-3.021 -0.66253,-0.84803 -1.56365,-1.49718 -2.70319,-1.94769 -1.11305,-0.47702 -2.51764,-0.71572 -4.2137,-0.71572 -0.58302,0 -1.19228,0.0664 -1.82831,0.19896 -0.60952,0.106 -1.11298,0.2251 -1.5105,0.3576 z m 47.94332,0.10904 c 0,0 -1.9149,2.06822 -3.10058,2.79776 -0.94378,0.58071 -2.0208,1.16729 -3.10059,1.59887 -1.28901,0.5152 -3.99717,1.1684 -3.99717,1.1684 l 3.99717,1.56787 v 19.88457 c -0.20443,0.95192 -0.63591,1.86905 -1.19889,2.6634 -0.74456,1.05056 -2.79828,2.66341 -2.79828,2.66341 0,0 6.13164,-0.39946 9.20202,-0.39946 3.07039,0 9.20254,0.39946 9.20254,0.39946 0,0 0.63643,-1.86906 1.19941,-2.66341 0.74456,-1.05057 2.79776,-2.6634 2.79776,-2.6634 h -12.20339 z m -78.2345,3.98994 c 0,0 -0.63682,1.85566 -1.19889,2.64325 -0.74535,1.0444 -2.798274,2.64376 -2.798274,2.64376 0,0 7.603394,-0.39998 11.408604,-0.39998 0.95984,0 2.16183,0.0256 3.42201,0.0636 -0.48758,0.4453 -1.00113,0.87616 -1.42317,1.13585 -0.94378,0.58071 -3.10058,1.19889 -3.10058,1.19889 v 24.26002 c 0,0 1.91491,-2.06872 3.10058,-2.79828 0.94379,-0.58071 2.02079,-1.16729 3.10059,-1.59887 1.289,-0.5152 3.99717,-1.1684 3.99717,-1.1684 l -3.99717,-1.56787 v -19.4045 c 3.22375,0.11775 6.30917,0.27957 6.30917,0.27957 0,0 0.63734,-1.85616 1.19941,-2.64376 0.74535,-1.0444 2.79776,-2.64325 2.79776,-2.64325 z m 55.24004,6.2606 c -1.27205,0 -2.51768,0.2382 -3.73672,0.7152 -1.19255,0.47702 -2.25263,1.17932 -3.18017,2.10685 -0.92754,0.92754 -1.68246,2.09394 -2.26549,3.49849 -0.55652,1.37806 -0.83509,2.99426 -0.83509,4.84932 0,1.53706 0.21212,2.96823 0.63613,4.29327 0.45052,1.32505 1.12623,2.47766 2.02727,3.45819 0.92754,0.95403 2.08014,1.70948 3.45819,2.26601 1.40454,0.55652 3.04784,0.83458 4.92941,0.83458 0.74203,0 1.48368,-0.0394 2.2257,-0.11886 0.74204,-0.0795 1.43104,-0.18582 2.06706,-0.31833 0.66253,-0.10601 1.25902,-0.23838 1.78904,-0.39739 0.53001,-0.159 0.95426,-0.31797 1.27227,-0.47697 0,0 -0.44584,-1.5346 -0.35812,-2.30839 0.12567,-1.1084 1.24024,-3.10833 1.24024,-3.10833 -0.66252,0.29151 -3.2012,1.15019 -4.26124,1.36219 -1.03354,0.18552 -2.09362,0.27801 -3.18017,0.27801 -1.69606,0 -3.04748,-0.35779 -4.05453,-1.07331 -1.00703,-0.71552 -1.41417,-1.81854 -1.70946,-2.90163 -0.16098,-0.59046 -0.1906,-2.02791 -0.0574,-3.49695 0.55484,0.42829 1.26666,1.00867 1.65623,1.46968 0.50676,0.59971 1.19941,2.02727 1.19941,2.02727 0,0 3.54107,-0.39998 5.31906,-0.39998 1.77797,0 5.31854,0.39998 5.31854,0.39998 0.0264,-0.31802 0.0531,-0.67581 0.0796,-1.07332 0.0265,-0.42401 0.0403,-0.8084 0.0403,-1.15291 0,-3.52464 -0.86177,-6.18814 -2.58434,-7.9902 -1.72256,-1.82858 -4.06764,-2.74247 -7.03575,-2.74247 z m 45.92691,0.0925 c -1.48406,0 -4.93355,0.7953 -4.93355,0.7953 0,0 -1.12076,2.01325 -1.90376,2.8422 -0.77552,0.82103 -2.70319,2.04277 -2.70319,2.04277 v 9.82317 c 0,0 1.20582,2.51744 2.10685,3.49798 0.90104,0.95404 1.97441,1.6962 3.21996,2.22622 1.27205,0.53002 2.67663,0.79479 4.21369,0.79479 1.56356,0 5.01313,-0.79479 5.01313,-0.79479 0,0 1.09249,-2.0251 1.86397,-2.86236 0.76092,-0.82578 2.66341,-2.0624 2.66341,-2.0624 l -0.0398,-9.82317 c 0,0 -1.20582,-2.50467 -2.10684,-3.45871 -0.90104,-0.95404 -1.9877,-1.69569 -3.25975,-2.2257 -1.24555,-0.53003 -2.62356,-0.7953 -4.13412,-0.7953 z m 16.36748,1.08468 c 0,0 -1.55547,1.99651 -2.57142,2.72129 -0.76614,0.54657 -2.57142,1.16582 -2.57142,1.16582 0.58301,2.06706 0.0814,0.23369 0.69091,2.27428 0.63609,2.01407 1.2458,3.93541 1.82883,5.76399 0.60951,1.80207 1.19223,3.47193 1.74873,5.00899 0.55654,1.53706 1.0733,2.8619 1.5503,3.97495 0,0 1.8703,-1.44118 2.90525,-1.99832 0.937,-0.50441 2.95847,-1.19941 2.95847,-1.19941 l 0.61599,-2.80448 c 0.60951,-1.98759 1.17944,-3.98866 1.70945,-6.00274 0.53001,2.01408 1.11269,4.01515 1.74873,6.00274 0.636,1.98756 1.28518,3.98813 1.94769,6.00221 0,0 2.00796,-1.44063 3.10523,-1.99832 0.98912,-0.50272 3.10524,-1.19941 3.10524,-1.19941 0.97057,-2.86529 0.6419,-2.65789 1.70016,-5.78621 0.60951,-1.82858 1.2193,-3.74992 1.82882,-5.76399 0.63604,-2.04059 1.24528,-4.0943 1.82831,-6.16139 0,0 -2.22438,2.04602 -3.54655,2.74299 -1.09894,0.57931 -3.54707,1.14412 -3.54707,1.14412 -0.47823,2.14975 -0.044,0.44506 -0.57826,2.71198 -0.26503,1.19253 -0.55637,2.39831 -0.87436,3.61735 -0.159,0.59628 -0.31798,1.18266 -0.47698,1.75906 -0.159,0.57641 -0.24661,0.50423 -0.47697,0.50023 -0.25417,-0.004 -0.34133,0.0263 -0.50694,-0.56999 -0.16568,-0.59627 -0.32825,-1.19916 -0.48731,-1.80868 -0.318,-1.21905 -0.62264,-2.41152 -0.91416,-3.57756 -0.29151,-1.19255 -0.5696,-2.33236 -0.83458,-3.41891 -0.26502,-1.11304 -0.5037,-2.14655 -0.71571,-3.10059 0,0 -1.57866,2.01837 -2.61276,2.74299 -0.77862,0.54559 -2.61276,1.14412 -2.61276,1.14412 -0.19528,0.88646 -0.478,1.75166 -0.69764,2.63239 -0.29152,1.16604 -0.60941,2.35851 -0.95394,3.57756 -0.159,0.60952 -0.32116,1.11235 -0.48679,1.60869 -0.16562,0.49634 -0.19977,0.76798 -0.50695,0.76998 -0.28237,0.002 -0.31793,-0.22375 -0.47698,-0.70022 -0.15899,-0.47646 -0.31797,-0.96279 -0.47697,-1.55907 -0.29151,-1.21904 -0.58284,-2.42482 -0.87436,-3.61735 -0.26498,-1.19255 -0.53027,-2.34567 -0.7953,-3.45871 -0.2385,-1.13954 -0.46392,-2.18634 -0.67593,-3.14038 z m -62.21533,3.71244 c 0.68904,0 1.25895,0.1191 1.70946,0.3576 0.47702,0.23852 0.86139,0.54314 1.1529,0.91416 0.31801,0.37102 0.54343,0.79473 0.67593,1.27175 0.15902,0.47701 0.25151,0.9677 0.27802,1.47123 h -7.83105 c 0.0601,-0.50098 0.1986,-0.99422 0.35761,-1.47123 0.18551,-0.50352 0.43749,-0.94055 0.7555,-1.31154 0.31802,-0.37103 0.71568,-0.66236 1.1927,-0.87437 0.47701,-0.2385 1.0464,-0.3576 1.70893,-0.3576 z m 45.84785,0.29094 c 1.35155,0 3.10059,1.59008 3.10059,1.59008 v 8.66614 c 0,0 -1.74904,1.59008 -3.10059,1.59008 -1.35155,0 -3.14037,-1.59008 -3.14037,-1.59008 v -8.66614 c 0,0 1.78882,-1.59008 3.14037,-1.59008 z m -66.92459,18.69757 -6.8678,10.04279 6.8678,10.0428 h 34.59117 34.59117 l 6.86728,-10.0428 -6.86728,-10.04279 h -34.59117 z m 19.26032,3.86487 c 0.20932,0 0.37714,0.0662 0.50385,0.19844 0.13218,0.1322 0.19843,0.29175 0.19843,0.47904 0,0.1928 -0.0662,0.35563 -0.19843,0.48783 -0.12671,0.1322 -0.29453,0.19792 -0.50385,0.19792 -0.20932,0 -0.3799,-0.0657 -0.51211,-0.19792 -0.12669,-0.1322 -0.19017,-0.29503 -0.19017,-0.48783 0,-0.18729 0.0635,-0.34684 0.19017,-0.47904 0.13221,-0.13221 0.30279,-0.19844 0.51211,-0.19844 z m 24.28999,0.19844 c 0.3911,0 0.68037,0.0525 0.86765,0.1571 0.19283,0.0991 0.28887,0.26422 0.28887,0.49558 0,0.10466 -0.0217,0.19848 -0.0662,0.28112 -0.0381,0.0772 -0.085,0.13731 -0.14004,0.18138 -0.10465,-0.0331 -0.2178,-0.0606 -0.339,-0.0827 -0.11572,-0.022 -0.24815,-0.0326 -0.39687,-0.0326 -0.25342,0 -0.44606,0.0464 -0.57826,0.14004 -0.13221,0.0881 -0.19844,0.23991 -0.19844,0.45476 v 0.31367 h 1.40508 c 0.0274,0.055 0.0552,0.12408 0.0827,0.20671 0.0334,0.0827 0.0496,0.17369 0.0496,0.27285 0,0.17628 -0.0415,0.30271 -0.12402,0.37982 -0.0772,0.0772 -0.17924,0.11576 -0.30593,0.11576 h -1.04903 v 2.70216 c -0.0553,0.0166 -0.13233,0.0303 -0.23151,0.0413 -0.0991,0.0165 -0.20907,0.0248 -0.33021,0.0248 -0.2479,0 -0.42726,-0.0387 -0.53743,-0.11575 -0.11019,-0.0827 -0.16537,-0.23993 -0.16537,-0.47129 v -3.51142 c 0,-0.26992 0.0449,-0.50398 0.13281,-0.70228 0.0936,-0.19831 0.2201,-0.35835 0.37982,-0.47955 0.15978,-0.1267 0.34685,-0.22002 0.56172,-0.28061 0.2148,-0.0606 0.44613,-0.0909 0.69402,-0.0909 z m 8.18658,0.50385 c 0.2479,0 0.42726,0.0414 0.53743,0.12402 0.11018,0.0827 0.16485,0.24493 0.16485,0.48731 v 3.04116 c 0,0.49577 -0.14028,0.87833 -0.42116,1.14825 -0.27548,0.26992 -0.66959,0.40514 -1.18184,0.40514 -0.29747,0 -0.54208,-0.0497 -0.73484,-0.14883 -0.19281,-0.0991 -0.28939,-0.273 -0.28939,-0.52089 0,-0.10467 0.0139,-0.19522 0.0413,-0.27234 0.0328,-0.0771 0.0685,-0.13783 0.10697,-0.1819 0.0991,0.022 0.19022,0.0413 0.27286,0.0579 0.088,0.0108 0.1792,0.0165 0.27285,0.0165 0.4242,0 0.63613,-0.22025 0.63613,-0.66094 v -3.42925 c 0.0607,-0.0108 0.14615,-0.0249 0.25632,-0.0413 0.11571,-0.0165 0.22833,-0.0248 0.33848,-0.0248 z m -38.61521,0.0496 c 0.25891,0 0.46261,0.0414 0.61133,0.12402 0.14874,0.0827 0.26188,0.21734 0.339,0.40463 0.0606,0.14873 0.12353,0.31707 0.18965,0.50436 0.0661,0.18178 0.13234,0.36891 0.19844,0.56172 0.0661,0.19279 0.12957,0.38547 0.19016,0.57826 0.0661,0.1873 0.12682,0.36115 0.18191,0.5209 h 0.0413 c 0.15424,-0.48476 0.30825,-0.95338 0.4625,-1.40508 0.15423,-0.45721 0.28894,-0.83975 0.40463,-1.14825 0.0772,-0.0386 0.1737,-0.0717 0.28939,-0.0992 0.12119,-0.0275 0.25365,-0.0413 0.39687,-0.0413 0.24788,0 0.44606,0.0358 0.5948,0.10748 0.14873,0.0716 0.23706,0.17648 0.26458,0.3142 0.0219,0.11019 0.047,0.27799 0.0744,0.50384 0.0275,0.22585 0.0548,0.48475 0.0822,0.7767 0.0275,0.29195 0.0552,0.60052 0.0827,0.92552 0.0275,0.31951 0.0524,0.63083 0.0744,0.9338 0.022,0.29747 0.0413,0.57015 0.0579,0.81803 0.0165,0.24789 0.0276,0.44055 0.0331,0.57826 -0.0827,0.0496 -0.17043,0.0855 -0.26407,0.10749 -0.0936,0.0276 -0.21231,0.0413 -0.35553,0.0413 -0.18178,0 -0.33858,-0.0331 -0.47078,-0.0992 -0.12669,-0.0661 -0.19569,-0.19579 -0.2067,-0.3886 -0.0385,-0.63898 -0.0663,-1.22251 -0.0827,-1.75132 -0.0107,-0.53434 -0.0249,-0.97259 -0.0413,-1.31413 h -0.0413 c -0.0661,0.23138 -0.16217,0.52336 -0.28887,0.87592 -0.12118,0.35252 -0.27298,0.80686 -0.45475,1.36322 -0.0661,0.055 -0.15115,0.0992 -0.2558,0.13229 -0.10468,0.0331 -0.22331,0.0496 -0.35553,0.0496 -0.17626,0 -0.32479,-0.022 -0.44597,-0.0661 -0.11571,-0.0441 -0.19295,-0.12133 -0.23151,-0.23152 -0.17628,-0.51228 -0.32754,-0.93624 -0.45424,-1.27227 -0.12118,-0.34152 -0.21776,-0.63632 -0.28938,-0.88418 h -0.0331 c -0.0165,0.34152 -0.0302,0.65562 -0.0413,0.94206 -0.0108,0.28094 -0.022,0.55638 -0.0331,0.8263 -0.006,0.26992 -0.0134,0.54261 -0.0243,0.81804 -0.0108,0.27544 -0.0253,0.57848 -0.0419,0.90899 -0.0605,0.022 -0.14288,0.0409 -0.24753,0.0574 -0.0991,0.022 -0.20403,0.0336 -0.31419,0.0336 -0.21485,0 -0.38266,-0.0358 -0.50385,-0.10748 -0.12119,-0.0771 -0.1819,-0.20681 -0.1819,-0.38861 0,-0.10466 0.004,-0.24764 0.008,-0.42943 0.0107,-0.1873 0.022,-0.39927 0.0331,-0.63614 0.0164,-0.24238 0.033,-0.50127 0.0496,-0.7767 0.0219,-0.27544 0.0413,-0.55415 0.0579,-0.83509 0.022,-0.28645 0.0413,-0.56689 0.0579,-0.84232 0.0164,-0.28095 0.0329,-0.54035 0.0496,-0.77722 0.044,-0.0606 0.13239,-0.1263 0.26458,-0.19792 0.13771,-0.0771 0.32761,-0.11575 0.57,-0.11575 z m 32.6595,0.0165 c 0.24238,0 0.41575,0.0441 0.52038,0.1323 0.1102,0.0827 0.16537,0.23664 0.16537,0.4625 v 0.53692 h 1.1405 c 0.0273,0.055 0.055,0.12684 0.0822,0.21497 0.0274,0.0827 0.0413,0.17095 0.0413,0.26458 0,0.17628 -0.0413,0.30272 -0.12402,0.37983 -0.0771,0.0772 -0.17872,0.11575 -0.30541,0.11575 h -0.83457 v 1.603 c 0,0.15425 0.0499,0.26738 0.14883,0.339 0.0991,0.0661 0.23658,0.0987 0.41289,0.0987 0.0825,0 0.17094,-0.008 0.26458,-0.0248 0.0936,-0.022 0.17364,-0.0469 0.23978,-0.0744 0.0498,0.055 0.0905,0.11852 0.12351,0.19016 0.0334,0.0716 0.0501,0.15441 0.0501,0.24805 0,0.19282 -0.0773,0.35236 -0.23151,0.47904 -0.14873,0.1212 -0.41038,0.1819 -0.78496,0.1819 -0.46271,0 -0.82371,-0.10432 -1.08262,-0.31367 -0.25889,-0.21483 -0.38809,-0.56205 -0.38809,-1.04128 v -3.71037 c 0.0608,-0.0166 0.14009,-0.0327 0.23926,-0.0491 0.0991,-0.022 0.20677,-0.0331 0.32246,-0.0331 z m 8.46977,0.0165 h 5.1e-4 2.73472 c 0.0328,0.055 0.063,0.12407 0.0904,0.20671 0.0273,0.0827 0.0413,0.17593 0.0413,0.2806 0,0.18177 -0.0415,0.317 -0.12403,0.40514 -0.0772,0.0881 -0.187,0.13178 -0.33021,0.13178 h -1.83451 v 0.92552 h 1.91719 c 0.0328,0.055 0.0634,0.12408 0.0909,0.20671 0.0273,0.0827 0.0413,0.17645 0.0413,0.28112 0,0.18178 -0.0384,0.31702 -0.11576,0.40514 -0.0772,0.0827 -0.18695,0.12351 -0.33021,0.12351 h -1.60301 v 1.03301 h 2.18954 c 0.0328,0.055 0.0634,0.12683 0.091,0.21497 0.0273,0.0882 0.0413,0.18423 0.0413,0.28887 0,0.18178 -0.0414,0.31426 -0.12403,0.39688 -0.0772,0.0827 -0.1842,0.12402 -0.32194,0.12402 h -2.45412 c -0.20933,0 -0.37769,-0.0607 -0.50436,-0.1819 -0.12123,-0.1267 -0.1819,-0.29504 -0.1819,-0.50436 v -3.65197 c 0,-0.20932 0.0606,-0.37491 0.1819,-0.4961 0.12656,-0.12656 0.29477,-0.18954 0.50385,-0.18965 z m -31.45079,0.90847 v 5.2e-4 c 0.60043,0 1.06302,0.13195 1.38802,0.39636 0.3305,0.26442 0.4961,0.64197 0.4961,1.13223 v 2.5616 c -0.0605,0.0165 -0.14062,0.0304 -0.23978,0.0413 -0.0991,0.0166 -0.20903,0.0248 -0.33021,0.0248 -0.24787,0 -0.42728,-0.0386 -0.53744,-0.11575 -0.10467,-0.0825 -0.15658,-0.23994 -0.15658,-0.47129 v -2.00763 c 0,-0.19281 -0.058,-0.33631 -0.17363,-0.42995 -0.11573,-0.0936 -0.26971,-0.14056 -0.4625,-0.14056 -0.13221,0 -0.25365,0.0166 -0.36381,0.0496 -0.11018,0.0331 -0.21228,0.0745 -0.30592,0.12403 v 2.92488 c -0.0551,0.0166 -0.13185,0.0303 -0.231,0.0413 -0.0991,0.0165 -0.20954,0.0248 -0.33072,0.0248 -0.24789,0 -0.42676,-0.0386 -0.53692,-0.11576 -0.11019,-0.0827 -0.16537,-0.2394 -0.16537,-0.47077 v -2.55333 c 0,-0.14322 0.0302,-0.25861 0.091,-0.34675 0.0606,-0.0882 0.14562,-0.17093 0.2558,-0.24805 0.17626,-0.1267 0.40258,-0.22881 0.678,-0.30592 0.28094,-0.0771 0.589,-0.11576 0.92501,-0.11576 z m 9.28832,0 5.1e-4,5.2e-4 c 0.38007,0 0.67762,0.0685 0.89246,0.20619 0.22033,0.13771 0.33021,0.31157 0.33021,0.5209 0,0.0991 -0.0247,0.19022 -0.0744,0.27285 -0.0441,0.0827 -0.0992,0.15385 -0.16536,0.21446 -0.0991,-0.055 -0.21731,-0.10473 -0.35502,-0.14883 -0.1322,-0.044 -0.28071,-0.0661 -0.44596,-0.0661 -0.29747,0 -0.55135,0.0965 -0.76068,0.28939 -0.20933,0.18729 -0.31368,0.46549 -0.31368,0.83457 0,0.36907 0.0993,0.64451 0.29766,0.82631 0.20381,0.18178 0.45942,0.27233 0.76791,0.27233 0.17627,0 0.33082,-0.0214 0.46302,-0.0656 0.13773,-0.0495 0.25311,-0.0993 0.34675,-0.14882 0.0936,0.0716 0.1654,0.14887 0.21497,0.23151 0.0551,0.0772 0.0827,0.17319 0.0827,0.28887 0,0.20933 -0.11043,0.37766 -0.33072,0.50436 -0.22033,0.1267 -0.52564,0.18965 -0.91674,0.18965 -0.33051,0 -0.63356,-0.0437 -0.90899,-0.13177 -0.26991,-0.0882 -0.50122,-0.22062 -0.69402,-0.39688 -0.1928,-0.17629 -0.34183,-0.39378 -0.44648,-0.65267 -0.10467,-0.26441 -0.1571,-0.57023 -0.1571,-0.91726 0,-0.35806 0.058,-0.66938 0.17363,-0.93379 0.11571,-0.26441 0.27247,-0.48466 0.47078,-0.66094 0.1983,-0.17626 0.43013,-0.30876 0.69453,-0.39688 0.26442,-0.0882 0.5421,-0.13229 0.83406,-0.13229 z m 6.85798,0 v 5.2e-4 c 0.28645,0 0.54534,0.0299 0.77669,0.0904 0.23685,0.055 0.43832,0.14338 0.60358,0.26459 0.16524,0.12117 0.29171,0.2752 0.37983,0.4625 0.0936,0.18729 0.14055,0.40806 0.14055,0.66146 v 1.86758 c 0,0.14321 -0.0385,0.25861 -0.11575,0.34675 -0.0716,0.0827 -0.15987,0.1544 -0.26458,0.21498 -0.17071,0.10467 -0.37997,0.18468 -0.62787,0.23978 -0.24788,0.055 -0.52887,0.0822 -0.84284,0.0822 -0.56737,0 -1.01894,-0.10708 -1.35496,-0.32194 -0.33602,-0.22033 -0.50436,-0.55374 -0.50436,-0.99994 0,-0.3801 0.1132,-0.66934 0.33899,-0.86765 0.22583,-0.19831 0.57305,-0.3225 1.04128,-0.37207 l 1.09864,-0.11524 v -0.0915 c 0,-0.17628 -0.0712,-0.30548 -0.21445,-0.38808 -0.14321,-0.0827 -0.34969,-0.12351 -0.6196,-0.12351 -0.20932,0 -0.41629,0.0244 -0.62012,0.0739 -0.1983,0.0495 -0.37717,0.10752 -0.53692,0.17363 -0.0661,-0.0441 -0.12406,-0.1103 -0.17363,-0.19844 -0.0441,-0.0936 -0.0661,-0.193 -0.0661,-0.29766 0,-0.24237 0.12695,-0.41572 0.38034,-0.52038 0.15976,-0.0606 0.34413,-0.10473 0.55346,-0.13229 0.21483,-0.0331 0.42406,-0.0496 0.62787,-0.0496 z m -11.48457,5.2e-4 c 0.28094,0 0.53706,0.0436 0.76842,0.13177 0.23686,0.0827 0.4378,0.20131 0.60307,0.35554 0.17075,0.15424 0.30322,0.33862 0.39687,0.55345 0.0936,0.21484 0.14056,0.44888 0.14056,0.70228 0,0.17627 -0.0469,0.30874 -0.14056,0.39688 -0.0936,0.0882 -0.22612,0.14611 -0.39687,0.17363 l -2.14819,0.32195 c 0.0772,0.23137 0.21182,0.39693 0.40463,0.49609 0.19278,0.0936 0.41635,0.14004 0.66972,0.14004 0.23136,0 0.44887,-0.0298 0.65267,-0.0904 0.20382,-0.0661 0.36888,-0.13784 0.49558,-0.21497 0.0826,0.055 0.15163,0.12683 0.20671,0.21497 0.0551,0.0882 0.0827,0.18421 0.0827,0.28887 0,0.1267 -0.0385,0.23706 -0.11575,0.33073 -0.0772,0.0936 -0.18475,0.1737 -0.32247,0.23978 -0.13219,0.0606 -0.29174,0.10472 -0.47904,0.13229 -0.18177,0.0331 -0.3827,0.0491 -0.60306,0.0491 -0.325,0 -0.62529,-0.0437 -0.90072,-0.13177 -0.27542,-0.0936 -0.51225,-0.22887 -0.71055,-0.40514 -0.19831,-0.18178 -0.35561,-0.40756 -0.47129,-0.67748 -0.11019,-0.26993 -0.16537,-0.58676 -0.16537,-0.95033 0,-0.35254 0.0552,-0.65835 0.16537,-0.91726 0.11572,-0.25889 0.26747,-0.47313 0.45475,-0.64389 0.19279,-0.17078 0.41029,-0.29494 0.65268,-0.37207 0.24788,-0.0827 0.50126,-0.12402 0.76016,-0.12402 z m 8.55451,0.008 c 0.57289,0 0.85938,0.19269 0.85938,0.57826 0,0.0936 -0.0138,0.17918 -0.0413,0.25631 -0.0275,0.0771 -0.0578,0.14337 -0.0909,0.19844 -0.12669,-0.0275 -0.28124,-0.0413 -0.46302,-0.0413 -0.15975,0 -0.31929,0.0193 -0.47904,0.0579 -0.15974,0.0386 -0.29998,0.0909 -0.42116,0.1571 v 2.87527 c -0.0551,0.0165 -0.13235,0.0303 -0.23152,0.0413 -0.0991,0.0166 -0.20954,0.0248 -0.33072,0.0248 -0.2479,0 -0.42673,-0.0387 -0.53692,-0.11576 -0.11018,-0.0827 -0.16537,-0.2394 -0.16537,-0.47077 v -2.52026 c 0,-0.15425 0.0387,-0.28621 0.11576,-0.39636 0.0772,-0.1102 0.18474,-0.20677 0.32246,-0.28939 0.18178,-0.11019 0.39929,-0.19571 0.65267,-0.25631 0.25891,-0.0661 0.52884,-0.0992 0.80977,-0.0992 z m -16.82223,0.0909 c 0.24787,0 0.42398,0.0414 0.52865,0.12402 0.11018,0.0827 0.16537,0.2394 0.16537,0.47078 v 3.39617 c -0.0551,0.0165 -0.13235,0.0303 -0.23151,0.0413 -0.0991,0.0165 -0.20904,0.0248 -0.33021,0.0248 -0.24789,0 -0.42675,-0.0387 -0.53692,-0.11576 -0.10466,-0.0827 -0.1571,-0.2394 -0.1571,-0.47077 v -3.39618 c 0.0551,-0.0166 0.13235,-0.0326 0.23151,-0.0491 0.0991,-0.0166 0.20901,-0.0253 0.33021,-0.0253 z m 8.27598,0.83458 c -0.23687,0 -0.43504,0.0745 -0.59479,0.22324 -0.15425,0.14323 -0.24532,0.35244 -0.27285,0.62786 l 1.57819,-0.25579 c -0.0108,-0.14322 -0.0745,-0.27844 -0.19017,-0.40515 -0.1157,-0.12669 -0.28902,-0.19016 -0.52038,-0.19016 z m 12.1543,1.47071 -0.67799,0.0579 c -0.17627,0.0165 -0.31925,0.058 -0.42944,0.12403 -0.10465,0.0606 -0.15709,0.15442 -0.15709,0.28112 0,0.13219 0.0498,0.23706 0.14883,0.31419 0.0991,0.0772 0.26146,0.11524 0.48731,0.11524 0.12118,0 0.23984,-0.0105 0.35553,-0.0326 0.12118,-0.0275 0.21224,-0.0607 0.27285,-0.0992 z m -39.95725,0.64957 c 0.78985,4e-5 1.42995,0.64054 1.42989,1.4304 -4e-5,0.78978 -0.64011,1.42985 -1.42989,1.42989 -0.78976,-4e-5 -1.43037,-0.64011 -1.4304,-1.42989 -7e-5,-0.78986 0.64055,-1.43036 1.4304,-1.4304 z m 69.84793,0 c 0.78986,4e-5 1.42995,0.64054 1.42989,1.4304 -5e-5,0.78978 -0.6401,1.42985 -1.42989,1.42989 -0.78979,7e-5 -1.43034,-0.64004 -1.4304,-1.42989 -6e-5,-0.78993 0.64048,-1.43046 1.4304,-1.4304 z m -46.87,2.31149 c 0.60041,0 1.0713,0.12642 1.41283,0.37982 0.34151,0.25338 0.51263,0.60335 0.51263,1.04955 0,0.28094 -0.0718,0.51223 -0.21498,0.69401 -0.13771,0.17627 -0.31434,0.31425 -0.52916,0.41341 0.1157,0.0495 0.22606,0.1103 0.33073,0.1819 0.10465,0.0716 0.19574,0.15939 0.27285,0.26407 0.0826,0.0991 0.14612,0.21783 0.19017,0.35553 0.0496,0.13221 0.0744,0.28349 0.0744,0.45424 0,0.23135 -0.0498,0.44058 -0.14883,0.62787 -0.0991,0.18729 -0.23989,0.34735 -0.42168,0.47956 -0.17627,0.12669 -0.39101,0.22328 -0.6444,0.28938 -0.24788,0.0716 -0.52611,0.10697 -0.83457,0.10697 -0.30297,0 -0.57843,-0.0355 -0.82631,-0.10697 -0.24789,-0.0661 -0.46261,-0.16544 -0.6444,-0.29765 -0.17628,-0.1322 -0.31427,-0.29175 -0.41342,-0.47904 -0.0991,-0.1873 -0.14831,-0.39979 -0.14831,-0.63666 0,-0.31399 0.0795,-0.57287 0.23926,-0.7767 0.16526,-0.20932 0.36346,-0.36885 0.5948,-0.47903 -0.22585,-0.1102 -0.3992,-0.25316 -0.52038,-0.42944 -0.12119,-0.18179 -0.1819,-0.39978 -0.1819,-0.65319 0,-0.22033 0.0442,-0.41852 0.13229,-0.59479 0.0936,-0.1818 0.22337,-0.33306 0.38861,-0.45424 0.17077,-0.1267 0.37169,-0.22327 0.60306,-0.28939 0.23686,-0.0661 0.49573,-0.0992 0.7767,-0.0992 z m 6.52001,0 c 0.60044,0 1.07132,0.12642 1.41283,0.37982 0.34152,0.25338 0.51212,0.60335 0.51212,1.04955 0,0.28094 -0.0712,0.51223 -0.21446,0.69401 -0.13771,0.17627 -0.31433,0.31425 -0.52917,0.41341 0.11572,0.0495 0.22607,0.1103 0.33073,0.1819 0.10467,0.0716 0.19521,0.15939 0.27234,0.26407 0.0826,0.0991 0.1461,0.21783 0.19017,0.35553 0.0496,0.13221 0.0744,0.28349 0.0744,0.45424 0,0.23135 -0.0497,0.44058 -0.14883,0.62787 -0.0991,0.18729 -0.23939,0.34735 -0.42116,0.47956 -0.17627,0.12669 -0.391,0.22328 -0.64441,0.28938 -0.24785,0.0716 -0.52609,0.10697 -0.83457,0.10697 -0.30294,0 -0.5784,-0.0355 -0.82631,-0.10697 -0.24786,-0.0661 -0.46261,-0.16544 -0.6444,-0.29765 -0.17627,-0.1322 -0.31425,-0.29175 -0.41341,-0.47904 -0.0991,-0.1873 -0.14883,-0.39979 -0.14883,-0.63666 0,-0.31399 0.0801,-0.57287 0.23978,-0.7767 0.16527,-0.20932 0.36343,-0.36885 0.59479,-0.47903 -0.22585,-0.1102 -0.39919,-0.25316 -0.52038,-0.42944 -0.12119,-0.18179 -0.1819,-0.39978 -0.1819,-0.65319 0,-0.22033 0.0441,-0.41852 0.13229,-0.59479 0.0936,-0.1818 0.22335,-0.33306 0.38861,-0.45424 0.17075,-0.1267 0.3717,-0.22327 0.60306,-0.28939 0.23688,-0.0661 0.49577,-0.0992 0.7767,-0.0992 z m 15.96027,0 c 0.60042,0 1.07128,0.12642 1.41283,0.37982 0.34154,0.25338 0.51263,0.60335 0.51263,1.04955 0,0.28094 -0.0716,0.51223 -0.21497,0.69401 -0.13767,0.17627 -0.31385,0.31425 -0.52865,0.41341 0.11572,0.0495 0.22552,0.1103 0.33021,0.1819 0.10466,0.0716 0.19573,0.15939 0.27285,0.26407 0.0827,0.0991 0.14609,0.21783 0.19017,0.35553 0.0498,0.13221 0.0744,0.28349 0.0744,0.45424 0,0.23135 -0.0499,0.44058 -0.14883,0.62787 -0.0991,0.18729 -0.2394,0.34735 -0.42117,0.47956 -0.1763,0.12669 -0.39151,0.22328 -0.64492,0.28938 -0.24792,0.0716 -0.52605,0.10697 -0.83457,0.10697 -0.30299,0 -0.5779,-0.0355 -0.82579,-0.10697 -0.24784,-0.0661 -0.46314,-0.16544 -0.64492,-0.29765 -0.1763,-0.1322 -0.31373,-0.29175 -0.4129,-0.47904 -0.0991,-0.1873 -0.14883,-0.39979 -0.14883,-0.63666 0,-0.31399 0.0801,-0.57287 0.23978,-0.7767 0.16525,-0.20932 0.36349,-0.36885 0.5948,-0.47903 -0.22585,-0.1102 -0.39921,-0.25316 -0.52038,-0.42944 -0.12121,-0.18179 -0.18191,-0.39978 -0.18191,-0.65319 0,-0.22033 0.0443,-0.41852 0.1323,-0.59479 0.0936,-0.1818 0.22278,-0.33306 0.38809,-0.45424 0.17072,-0.1267 0.37219,-0.22327 0.60358,-0.28939 0.23685,-0.0661 0.49525,-0.0992 0.77618,-0.0992 z m 6.25905,0.0165 c 0.639,0 1.14298,0.21198 1.51205,0.63614 0.36905,0.42417 0.55397,1.04404 0.55397,1.85932 0,0.46822 -0.0577,0.87614 -0.17363,1.22318 -0.11019,0.34704 -0.26748,0.63627 -0.47129,0.86764 -0.20381,0.22583 -0.44889,0.39644 -0.73536,0.51212 -0.28093,0.11019 -0.59224,0.16536 -0.93379,0.16536 -0.41861,0 -0.75431,-0.0552 -1.00769,-0.16536 -0.2479,-0.11572 -0.37207,-0.28954 -0.37207,-0.5209 0,-0.11019 0.0249,-0.21454 0.0744,-0.31368 0.0553,-0.0991 0.11579,-0.17366 0.1819,-0.22324 0.1432,0.0661 0.29498,0.12129 0.45476,0.16537 0.15972,0.0386 0.31926,0.0579 0.47904,0.0579 0.37452,0 0.67488,-0.10489 0.90072,-0.31419 0.22586,-0.20932 0.33848,-0.50408 0.33848,-0.88418 -0.10467,0.0881 -0.24487,0.16541 -0.42117,0.23151 -0.17072,0.0606 -0.36892,0.0909 -0.59479,0.0909 -0.2479,0 -0.47692,-0.0332 -0.68626,-0.0992 -0.20381,-0.0661 -0.38267,-0.1677 -0.53692,-0.30541 -0.14873,-0.13772 -0.26685,-0.30882 -0.35502,-0.51263 -0.0826,-0.20382 -0.12402,-0.4434 -0.12402,-0.71882 0,-0.24238 0.0414,-0.46815 0.12402,-0.67748 0.0882,-0.21484 0.21178,-0.40198 0.37155,-0.56172 0.16526,-0.15975 0.36622,-0.28393 0.60307,-0.37207 0.2369,-0.0936 0.5096,-0.14004 0.81804,-0.14004 z m -34.50177,0.0579 h 0.28112 c 0.20933,0 0.37767,0.0634 0.50436,0.19017 0.1267,0.12669 0.18965,0.29452 0.18965,0.50384 v 4.37958 c -0.0605,0.0165 -0.1401,0.0327 -0.23926,0.0491 -0.0991,0.0166 -0.20953,0.0248 -0.33073,0.0248 -0.24788,0 -0.42675,-0.0409 -0.53692,-0.12351 -0.11019,-0.0827 -0.16536,-0.23993 -0.16536,-0.47129 v -3.28817 l -0.86765,0.30541 c -0.0772,-0.0495 -0.15441,-0.1186 -0.23151,-0.20671 -0.0772,-0.0936 -0.11576,-0.22006 -0.11576,-0.37982 0,-0.29746 0.18215,-0.50945 0.54571,-0.63613 z m 22.4808,0 h 0.28111 c 0.20935,0 0.37716,0.0634 0.50385,0.19017 0.12672,0.12669 0.18965,0.29452 0.18965,0.50384 v 4.37958 c -0.0607,0.0165 -0.14008,0.0327 -0.23926,0.0491 -0.0991,0.0166 -0.20952,0.0248 -0.33073,0.0248 -0.24787,0 -0.42676,-0.0409 -0.53692,-0.12351 -0.1102,-0.0827 -0.16536,-0.23993 -0.16536,-0.47129 v -3.28817 l -0.86765,0.30541 c -0.0772,-0.0495 -0.15387,-0.1186 -0.23099,-0.20671 -0.0772,-0.0936 -0.11576,-0.22006 -0.11576,-0.37982 0,-0.29746 0.18164,-0.50945 0.54519,-0.63613 z m -16.71836,0.88418 c -0.19831,0 -0.35787,0.0497 -0.47905,0.14883 -0.11572,0.0991 -0.17363,0.22833 -0.17363,0.38809 0,0.19279 0.0662,0.33907 0.19844,0.43822 0.1322,0.0991 0.30277,0.16763 0.51211,0.20619 0.19831,-0.0606 0.34959,-0.14287 0.45424,-0.24753 0.1102,-0.10467 0.16536,-0.23714 0.16536,-0.39688 0,-0.17077 -0.0607,-0.3027 -0.1819,-0.39636 -0.11572,-0.0936 -0.28075,-0.14056 -0.49557,-0.14056 z m 6.52001,0 c -0.1983,0 -0.35836,0.0497 -0.47956,0.14883 -0.11571,0.0991 -0.17311,0.22833 -0.17311,0.38809 0,0.19279 0.0658,0.33907 0.19792,0.43822 0.13219,0.0991 0.3033,0.16763 0.51263,0.20619 0.1983,-0.0606 0.34957,-0.14287 0.45423,-0.24753 0.11018,-0.10467 0.16537,-0.23714 0.16537,-0.39688 0,-0.17077 -0.0607,-0.3027 -0.1819,-0.39636 -0.11573,-0.0936 -0.28075,-0.14056 -0.49558,-0.14056 z m 15.96027,0 c -0.1983,0 -0.35782,0.0497 -0.47904,0.14883 -0.11571,0.0991 -0.17364,0.22833 -0.17364,0.38809 0,0.19279 0.0662,0.33907 0.19844,0.43822 0.1322,0.0991 0.30278,0.16763 0.51211,0.20619 0.1983,-0.0606 0.35012,-0.14287 0.45476,-0.24753 0.11019,-0.10467 0.16536,-0.23714 0.16536,-0.39688 0,-0.17077 -0.0609,-0.3027 -0.1819,-0.39636 -0.1156,-0.0936 -0.28123,-0.14056 -0.49609,-0.14056 z m 6.25905,0.0661 c -0.20928,0 -0.37162,0.0635 -0.48731,0.19017 -0.11559,0.12668 -0.17363,0.30006 -0.17363,0.52038 0,0.23135 0.0691,0.40746 0.2067,0.52865 0.13769,0.12117 0.31105,0.1819 0.52038,0.1819 0.13773,0 0.27021,-0.0303 0.39688,-0.091 0.12675,-0.0661 0.22554,-0.14562 0.29714,-0.23926 v -0.0661 c 0,-0.33051 -0.0657,-0.58388 -0.19792,-0.76016 -0.12668,-0.17627 -0.31435,-0.26458 -0.56224,-0.26458 z m -17.50385,1.51205 h 1.80145 c 0.0275,0.0495 0.0579,0.12133 0.091,0.21498 0.0331,0.0882 0.0496,0.18197 0.0496,0.28112 0,0.18176 -0.0443,0.31372 -0.13229,0.39635 -0.0826,0.0827 -0.19303,0.12403 -0.33073,0.12403 h -1.8092 c -0.033,-0.055 -0.0636,-0.12686 -0.091,-0.21498 -0.0275,-0.0882 -0.0413,-0.18146 -0.0413,-0.2806 0,-0.18178 0.0415,-0.31426 0.12403,-0.39687 0.0827,-0.0827 0.19526,-0.12403 0.33847,-0.12403 z m -11.31817,0.42168 c -0.23134,0.0716 -0.4047,0.1732 -0.52038,0.30541 -0.11019,0.1322 -0.16536,0.28123 -0.16536,0.44648 0,0.19832 0.069,0.35235 0.2067,0.46251 0.14322,0.11019 0.33036,0.16536 0.56173,0.16536 0.23685,0 0.42676,-0.0524 0.56999,-0.15709 0.14321,-0.10467 0.21497,-0.26146 0.21497,-0.47078 0,-0.18729 -0.0745,-0.34458 -0.22324,-0.47128 -0.14873,-0.1322 -0.36347,-0.22553 -0.64441,-0.28061 z m 6.52002,0 c -0.23136,0.0716 -0.40522,0.1732 -0.5209,0.30541 -0.11019,0.1322 -0.16485,0.28123 -0.16485,0.44648 0,0.19832 0.0686,0.35235 0.20619,0.46251 0.14324,0.11019 0.33088,0.16536 0.56224,0.16536 0.23688,0 0.42677,-0.0524 0.56999,-0.15709 0.14322,-0.10467 0.21498,-0.26146 0.21498,-0.47078 0,-0.18729 -0.0746,-0.34458 -0.22325,-0.47128 -0.14875,-0.1322 -0.36347,-0.22553 -0.6444,-0.28061 z m 15.96078,0 c -0.23137,0.0716 -0.4052,0.1732 -0.5209,0.30541 -0.11018,0.1322 -0.16536,0.28123 -0.16536,0.44648 0,0.19832 0.069,0.35235 0.20671,0.46251 0.1432,0.11019 0.33039,0.16536 0.56172,0.16536 0.2369,0 0.4273,-0.0524 0.5705,-0.15709 0.1432,-0.10467 0.21446,-0.26146 0.21446,-0.47078 0,-0.18729 -0.074,-0.34458 -0.22272,-0.47128 -0.14872,-0.1322 -0.36347,-0.22553 -0.64441,-0.28061 z m -25.6589,0.84285 c 0.22583,0 0.40473,0.0712 0.53692,0.21445 0.13222,0.14322 0.19844,0.31985 0.19844,0.52917 0,0.20933 -0.0662,0.38543 -0.19844,0.52865 -0.13219,0.14322 -0.31109,0.21497 -0.53692,0.21497 -0.23137,0 -0.41351,-0.0718 -0.5457,-0.21497 -0.12669,-0.14322 -0.18965,-0.31932 -0.18965,-0.52865 0,-0.20932 0.063,-0.38595 0.18965,-0.52917 0.13219,-0.14323 0.31433,-0.21445 0.5457,-0.21445 z m 6.5195,0 c 0.22584,0 0.40526,0.0712 0.53744,0.21445 0.13222,0.14322 0.19792,0.31985 0.19792,0.52917 0,0.20933 -0.0657,0.38543 -0.19792,0.52865 -0.13218,0.14322 -0.3116,0.21497 -0.53744,0.21497 -0.23136,0 -0.41297,-0.0718 -0.54518,-0.21497 -0.12668,-0.14322 -0.19017,-0.31932 -0.19017,-0.52865 0,-0.20932 0.0635,-0.38595 0.19017,-0.52917 0.13221,-0.14323 0.31382,-0.21445 0.54518,-0.21445 z m 15.96078,0 c 0.22585,0 0.40476,0.0712 0.53692,0.21445 0.13221,0.14322 0.19844,0.31985 0.19844,0.52917 0,0.20933 -0.0662,0.38543 -0.19844,0.52865 -0.13216,0.14322 -0.31107,0.21497 -0.53692,0.21497 -0.23139,0 -0.41297,-0.0718 -0.54518,-0.21497 -0.12669,-0.14322 -0.19017,-0.31932 -0.19017,-0.52865 0,-0.20932 0.0636,-0.38595 0.19017,-0.52917 0.13221,-0.14323 0.31379,-0.21445 0.54518,-0.21445 z m 6.52002,0 c 0.22587,0 0.4047,0.0712 0.53692,0.21445 0.1322,0.14322 0.19844,0.31985 0.19844,0.52917 0,0.20933 -0.0662,0.38543 -0.19844,0.52865 -0.13222,0.14322 -0.31105,0.21497 -0.53692,0.21497 -0.23138,0 -0.41298,-0.0718 -0.54519,-0.21497 -0.12668,-0.14322 -0.19016,-0.31932 -0.19016,-0.52865 0,-0.20932 0.0636,-0.38595 0.19016,-0.52917 0.13221,-0.14323 0.31381,-0.21445 0.54519,-0.21445 z" />
    <path
       id="path1857"
       style="font-style:normal;font-variant:normal;font-weight:bold;font-stretch:normal;font-size:52.6246px;line-height:1.25;font-family:Ubuntu;-inkscape-font-specification:'Ubuntu Bold';text-align:center;letter-spacing:0px;word-spacing:0px;writing-mode:lr-tb;text-anchor:middle;fill:#ffffff;fill-opacity:1;stroke:none;stroke-width:0.999999"
       d="M 139.79688 133.24023 C 139.79688 133.24023 132.92151 141.01542 128.60352 143.77148 C 125.21521 145.93413 117.41016 148.25781 117.41016 148.25781 L 117.41016 255.87109 C 117.41016 255.87109 124.28457 248.07056 128.60352 245.29688 C 131.99046 243.12176 139.79688 240.76367 139.79688 240.76367 L 139.79688 189.73242 C 141.19916 189.33179 142.75041 188.9802 144.45312 188.67969 C 146.25604 188.27906 148.15888 188.07812 150.16211 188.07812 C 155.17017 188.07812 158.57603 189.5811 160.37891 192.58594 C 162.28197 195.59078 163.23438 200.69855 163.23438 207.91016 L 163.23438 255.87109 C 163.23438 255.87109 170.10875 248.07056 174.42773 245.29688 C 177.81468 243.12176 185.61914 240.76367 185.61914 240.76367 L 185.61914 205.20703 C 185.61914 199.7983 185.06857 194.8895 183.9668 190.48242 C 182.96518 186.0753 181.16276 182.26961 178.55859 179.06445 C 176.05454 175.8593 172.64872 173.40584 168.3418 171.70312 C 164.13499 169.90021 158.82632 168.99805 152.41602 168.99805 C 150.21248 168.99805 147.90975 169.24899 145.50586 169.75 C 143.20216 170.15063 141.29931 170.60078 139.79688 171.10156 L 139.79688 133.24023 z M 321 133.65234 C 321 133.65234 313.76256 141.46925 309.28125 144.22656 C 305.71421 146.42137 301.6436 148.63836 297.5625 150.26953 C 292.69065 152.21674 282.45508 154.68555 282.45508 154.68555 L 297.5625 160.61133 L 297.5625 235.76562 C 296.78985 239.36343 295.15905 242.82976 293.03125 245.83203 C 290.21716 249.80265 282.45508 255.89844 282.45508 255.89844 C 282.45508 255.89844 305.62979 254.38867 317.23438 254.38867 C 328.839 254.38867 352.01562 255.89844 352.01562 255.89844 C 352.01562 255.89844 354.42103 248.8343 356.54883 245.83203 C 359.36291 241.86137 367.12305 235.76562 367.12305 235.76562 L 321 235.76562 L 321 133.65234 z M 25.310547 148.73242 C 25.310547 148.73242 22.903656 155.74594 20.779297 158.72266 C 17.962226 162.67003 10.203125 168.71484 10.203125 168.71484 C 10.203125 168.71484 38.940369 167.20312 53.322266 167.20312 C 56.950007 167.20312 61.492974 167.29974 66.255859 167.44336 C 64.413037 169.12638 62.472065 170.75482 60.876953 171.73633 C 57.309911 173.93114 49.158203 176.26758 49.158203 176.26758 L 49.158203 267.95898 C 49.158203 267.95898 56.395681 260.1402 60.876953 257.38281 C 64.444034 255.188 68.514569 252.97101 72.595703 251.33984 C 77.467514 249.39263 87.703125 246.92383 87.703125 246.92383 L 72.595703 240.99805 L 72.595703 167.6582 C 84.779955 168.10324 96.441406 168.71484 96.441406 168.71484 C 96.441406 168.71484 98.85025 161.69941 100.97461 158.72266 C 103.79168 154.77532 111.54883 148.73242 111.54883 148.73242 L 25.310547 148.73242 z M 234.0918 172.39453 C 229.28405 172.39453 224.57615 173.29482 219.96875 175.09766 C 215.46147 176.90057 211.45488 179.55492 207.94922 183.06055 C 204.44356 186.56621 201.5903 190.97467 199.38672 196.2832 C 197.28334 201.49162 196.23047 207.60008 196.23047 214.61133 C 196.23047 220.42069 197.03221 225.82983 198.63477 230.83789 C 200.33752 235.84592 202.89137 240.20226 206.29688 243.9082 C 209.80254 247.51399 214.15881 250.36924 219.36719 252.47266 C 224.67572 254.57604 230.8866 255.62695 237.99805 255.62695 C 240.80257 255.62695 243.60567 255.47802 246.41016 255.17773 C 249.21472 254.87726 251.8188 254.4754 254.22266 253.97461 C 256.72671 253.57394 258.98115 253.07364 260.98438 252.47266 C 262.98756 251.87171 264.59104 251.27087 265.79297 250.66992 C 265.79297 250.66992 264.10788 244.86987 264.43945 241.94531 C 264.91439 237.75608 269.12695 230.19727 269.12695 230.19727 C 266.62294 231.29904 257.02793 234.54444 253.02148 235.3457 C 249.11519 236.04688 245.1086 236.39648 241.00195 236.39648 C 234.59165 236.39648 229.48391 235.04417 225.67773 232.33984 C 221.87164 229.63552 220.33285 225.46665 219.2168 221.37305 C 218.60837 219.14142 218.49642 213.70853 219 208.15625 C 221.09703 209.77498 223.78738 211.96854 225.25977 213.71094 C 227.17508 215.97756 229.79297 221.37305 229.79297 221.37305 C 229.79297 221.37305 243.17652 219.86133 249.89648 219.86133 C 256.61637 219.86133 269.99805 221.37305 269.99805 221.37305 C 270.09783 220.17112 270.19867 218.81884 270.29883 217.31641 C 270.39899 215.71385 270.45117 214.26107 270.45117 212.95898 C 270.45117 199.63751 267.19409 189.57074 260.68359 182.75977 C 254.17313 175.84863 245.30985 172.39453 234.0918 172.39453 z M 407.67383 172.74414 C 402.06478 172.74414 389.02734 175.75 389.02734 175.75 C 389.02734 175.75 384.7914 183.35915 381.83203 186.49219 C 378.90093 189.59529 371.61523 194.21289 371.61523 194.21289 L 371.61523 231.33984 C 371.61523 231.33984 376.17266 240.85457 379.57812 244.56055 C 382.98363 248.16637 387.04046 250.97138 391.74805 252.97461 C 396.5558 254.97783 401.86447 255.97852 407.67383 255.97852 C 413.58335 255.97852 426.62109 252.97461 426.62109 252.97461 C 426.62109 252.97461 430.75019 245.3207 433.66602 242.15625 C 436.54193 239.03519 443.73242 234.36133 443.73242 234.36133 L 443.58203 197.23438 C 443.58203 197.23438 439.02457 187.76793 435.61914 184.16211 C 432.21364 180.55629 428.10658 177.75319 423.29883 175.75 C 418.59124 173.74674 413.38303 172.74414 407.67383 172.74414 z M 469.53516 176.84375 C 469.53516 176.84375 463.65622 184.38958 459.81641 187.12891 C 456.92076 189.19468 450.09766 191.53516 450.09766 191.53516 C 452.30116 199.3477 450.40532 192.41839 452.70898 200.13086 C 455.1131 207.74309 457.41752 215.00488 459.62109 221.91602 C 461.92475 228.72699 464.12716 235.0383 466.23047 240.84766 C 468.33393 246.65702 470.28701 251.66429 472.08984 255.87109 C 472.08984 255.87109 479.15869 250.42412 483.07031 248.31836 C 486.61173 246.41193 494.25195 243.78516 494.25195 243.78516 L 496.58008 233.18555 C 498.88374 225.67343 501.03783 218.11032 503.04102 210.49805 C 505.0442 218.11032 507.24646 225.67343 509.65039 233.18555 C 512.05417 240.69762 514.50774 248.25882 517.01172 255.87109 C 517.01172 255.87109 524.60088 250.4262 528.74805 248.31836 C 532.48645 246.41832 540.48438 243.78516 540.48438 243.78516 C 544.15267 232.95575 542.91047 233.73959 546.91016 221.91602 C 549.21382 215.00488 551.51857 207.74309 553.82227 200.13086 C 556.2262 192.41839 558.52881 184.65634 560.73242 176.84375 C 560.73242 176.84375 552.3253 184.57672 547.32812 187.21094 C 543.17465 189.40046 533.92188 191.53516 533.92188 191.53516 C 532.11439 199.6602 533.75558 193.21727 531.73633 201.78516 C 530.73464 206.29239 529.63349 210.84964 528.43164 215.45703 C 527.8307 217.71069 527.22985 219.92695 526.62891 222.10547 C 526.02796 224.28403 525.69682 224.01121 524.82617 223.99609 C 523.86553 223.98098 523.53612 224.09553 522.91016 221.8418 C 522.284 219.58818 521.66953 217.30956 521.06836 215.00586 C 519.86647 210.39843 518.71509 205.89146 517.61328 201.48438 C 516.51151 196.9771 515.46048 192.66915 514.45898 188.5625 C 513.4573 184.35573 512.5552 180.44957 511.75391 176.84375 C 511.75391 176.84375 505.78732 184.47222 501.87891 187.21094 C 498.93609 189.27301 492.00391 191.53516 492.00391 191.53516 C 491.26584 194.88556 490.19732 198.15563 489.36719 201.48438 C 488.26538 205.89146 487.06388 210.39843 485.76172 215.00586 C 485.16077 217.30956 484.54788 219.21001 483.92188 221.08594 C 483.29591 222.96187 483.16685 223.98853 482.00586 223.99609 C 480.93863 224.00365 480.80422 223.15044 480.20312 221.34961 C 479.60218 219.54882 479.00134 217.71069 478.40039 215.45703 C 477.29862 210.84964 476.19751 206.29239 475.0957 201.78516 C 474.0942 197.27788 473.09153 192.91966 472.08984 188.71289 C 471.18843 184.40597 470.33645 180.44957 469.53516 176.84375 z M 234.39062 190.875 C 236.99483 190.875 239.14885 191.32515 240.85156 192.22656 C 242.65447 193.12806 244.10721 194.27936 245.20898 195.68164 C 246.41091 197.08392 247.26288 198.68537 247.76367 200.48828 C 248.36469 202.29115 248.71426 204.14572 248.81445 206.04883 L 219.2168 206.04883 C 219.44395 204.15536 219.96741 202.29115 220.56836 200.48828 C 221.2695 198.58521 222.2219 196.93345 223.42383 195.53125 C 224.62579 194.12893 226.12873 193.02786 227.93164 192.22656 C 229.73451 191.32515 231.88657 190.875 234.39062 190.875 z M 407.67383 191.97461 C 412.78205 191.97461 419.39258 197.98438 419.39258 197.98438 L 419.39258 230.73828 C 419.39258 230.73828 412.78205 236.74805 407.67383 236.74805 C 402.56561 236.74805 395.80469 230.73828 395.80469 230.73828 L 395.80469 197.98438 C 395.80469 197.98438 402.56561 191.97461 407.67383 191.97461 z M 154.73047 262.64258 L 128.77344 300.59961 L 154.73047 338.55664 L 285.46875 338.55664 L 416.20703 338.55664 L 442.16211 300.59961 L 416.20703 262.64258 L 285.46875 262.64258 L 154.73047 262.64258 z M 227.52539 277.25 C 228.31652 277.25 228.95082 277.5002 229.42969 278 C 229.9293 278.49965 230.17969 279.10268 230.17969 279.81055 C 230.17969 280.53924 229.92938 281.15464 229.42969 281.6543 C 228.95082 282.15395 228.31652 282.40234 227.52539 282.40234 C 226.73426 282.40234 226.08954 282.1541 225.58984 281.6543 C 225.11102 281.15464 224.87109 280.53924 224.87109 279.81055 C 224.87109 279.10268 225.11124 278.49965 225.58984 278 C 226.08954 277.50031 226.73426 277.25 227.52539 277.25 z M 319.33008 278 C 320.80825 278 321.90155 278.1983 322.60938 278.59375 C 323.33818 278.9683 323.70117 279.5924 323.70117 280.4668 C 323.70117 280.86236 323.61898 281.21699 323.45117 281.5293 C 323.30717 281.82108 323.12994 282.04828 322.92188 282.21484 C 322.52635 282.08974 322.0987 281.98587 321.64062 281.90234 C 321.20326 281.81919 320.70272 281.7793 320.14062 281.7793 C 319.18282 281.7793 318.45473 281.95464 317.95508 282.30859 C 317.45539 282.64157 317.20508 283.21531 317.20508 284.02734 L 317.20508 285.21289 L 322.51562 285.21289 C 322.61918 285.42076 322.72419 285.68184 322.82812 285.99414 C 322.95436 286.30671 323.01562 286.65061 323.01562 287.02539 C 323.01562 287.69165 322.85888 288.1695 322.54688 288.46094 C 322.2551 288.75272 321.86945 288.89844 321.39062 288.89844 L 317.42578 288.89844 L 317.42578 299.11133 C 317.21677 299.17407 316.92563 299.226 316.55078 299.26758 C 316.17623 299.32994 315.76059 299.36133 315.30273 299.36133 C 314.36579 299.36133 313.68787 299.21523 313.27148 298.92383 C 312.85502 298.61126 312.64648 298.01701 312.64648 297.14258 L 312.64648 283.87109 C 312.64648 282.85089 312.81607 281.96628 313.14844 281.2168 C 313.5022 280.46728 313.98032 279.86238 314.58398 279.4043 C 315.18788 278.92543 315.89492 278.57275 316.70703 278.34375 C 317.51887 278.11471 318.39317 278 319.33008 278 z M 350.27148 279.9043 C 351.20843 279.9043 351.88634 280.06067 352.30273 280.37305 C 352.71916 280.68561 352.92578 281.29876 352.92578 282.21484 L 352.92578 293.70898 C 352.92578 295.58276 352.39558 297.02866 351.33398 298.04883 C 350.2928 299.069 348.80325 299.58008 346.86719 299.58008 C 345.74289 299.58008 344.81839 299.39232 344.08984 299.01758 C 343.36111 298.64303 342.99609 297.98574 342.99609 297.04883 C 342.99609 296.65326 343.04878 296.31101 343.15234 296.01953 C 343.27631 295.72813 343.41102 295.4986 343.55664 295.33203 C 343.93119 295.41518 344.27555 295.48804 344.58789 295.55078 C 344.92049 295.5916 345.26519 295.61328 345.61914 295.61328 C 347.22242 295.61328 348.02344 294.78083 348.02344 293.11523 L 348.02344 280.1543 C 348.25285 280.11348 348.5758 280.06003 348.99219 279.99805 C 349.42952 279.93568 349.85517 279.9043 350.27148 279.9043 z M 204.32422 280.0918 C 205.30278 280.0918 206.07267 280.24813 206.63477 280.56055 C 207.19693 280.87311 207.62454 281.38198 207.91602 282.08984 C 208.14506 282.65197 208.38291 283.28823 208.63281 283.99609 C 208.88264 284.68314 209.13299 285.39041 209.38281 286.11914 C 209.63264 286.8478 209.87256 287.57603 210.10156 288.30469 C 210.35139 289.01259 210.58085 289.66966 210.78906 290.27344 L 210.94531 290.27344 C 211.52827 288.44127 212.11037 286.6701 212.69336 284.96289 C 213.27628 283.23485 213.7854 281.78903 214.22266 280.62305 C 214.51444 280.47716 214.87915 280.35198 215.31641 280.24805 C 215.77445 280.14411 216.2751 280.0918 216.81641 280.0918 C 217.75328 280.0918 218.50229 280.22724 219.06445 280.49805 C 219.62658 280.76866 219.96044 281.16503 220.06445 281.68555 C 220.14722 282.10201 220.24214 282.73624 220.3457 283.58984 C 220.44964 284.44345 220.55269 285.42196 220.65625 286.52539 C 220.76019 287.62882 220.86481 288.79509 220.96875 290.02344 C 221.07269 291.23103 221.16685 292.40765 221.25 293.55273 C 221.33315 294.67703 221.40601 295.70766 221.46875 296.64453 C 221.53111 297.58144 221.57296 298.3096 221.59375 298.83008 C 221.28118 299.01754 220.94962 299.15314 220.5957 299.23633 C 220.24194 299.34064 219.79326 299.39258 219.25195 299.39258 C 218.56491 299.39258 217.97231 299.2674 217.47266 299.01758 C 216.99383 298.76775 216.73302 298.27756 216.69141 297.54883 C 216.54589 295.13379 216.44089 292.92834 216.37891 290.92969 C 216.33847 288.91013 216.28502 287.25375 216.22266 285.96289 L 216.06641 285.96289 C 215.81658 286.8374 215.45348 287.94093 214.97461 289.27344 C 214.51661 290.6058 213.94286 292.323 213.25586 294.42578 C 213.00603 294.63366 212.68459 294.80091 212.28906 294.92578 C 211.89342 295.05088 211.44504 295.11328 210.94531 295.11328 C 210.27913 295.11328 209.71777 295.02996 209.25977 294.86328 C 208.82244 294.6966 208.5305 294.40471 208.38477 293.98828 C 207.71851 292.0521 207.14683 290.44972 206.66797 289.17969 C 206.20997 287.8889 205.84491 286.77468 205.57422 285.83789 L 205.44922 285.83789 C 205.38686 287.12867 205.33492 288.31583 205.29297 289.39844 C 205.25215 290.46026 205.20992 291.50128 205.16797 292.52148 C 205.14529 293.54162 205.11737 294.57229 205.07617 295.61328 C 205.03535 296.65431 204.98071 297.79966 204.91797 299.04883 C 204.68931 299.13198 204.37795 299.20326 203.98242 299.26562 C 203.60787 299.34877 203.21127 299.39258 202.79492 299.39258 C 201.98289 299.39258 201.34863 299.25706 200.89062 298.98633 C 200.43258 298.69493 200.20312 298.2047 200.20312 297.51758 C 200.20312 297.12201 200.2173 296.58161 200.23242 295.89453 C 200.27286 295.18663 200.31547 294.38549 200.35742 293.49023 C 200.41941 292.57415 200.48218 291.59568 200.54492 290.55469 C 200.62769 289.51365 200.70093 288.46026 200.76367 287.39844 C 200.84682 286.31579 200.91968 285.25584 200.98242 284.21484 C 201.04441 283.15299 201.1068 282.1726 201.16992 281.27734 C 201.33622 281.0483 201.67027 280.79999 202.16992 280.5293 C 202.6904 280.2379 203.4081 280.0918 204.32422 280.0918 z M 327.76172 280.1543 C 328.6778 280.1543 329.33306 280.32109 329.72852 280.6543 C 330.14502 280.96686 330.35352 281.5487 330.35352 282.40234 L 330.35352 284.43164 L 334.66406 284.43164 C 334.76724 284.63951 334.87181 284.91105 334.97461 285.24414 C 335.07817 285.55671 335.13086 285.89023 335.13086 286.24414 C 335.13086 286.91036 334.97471 287.38825 334.66211 287.67969 C 334.37071 287.97147 333.98664 288.11719 333.50781 288.11719 L 330.35352 288.11719 L 330.35352 294.17578 C 330.35352 294.75874 330.54211 295.18634 330.91602 295.45703 C 331.29057 295.70686 331.81019 295.83008 332.47656 295.83008 C 332.78837 295.83008 333.12265 295.79982 333.47656 295.73633 C 333.83033 295.65318 334.13283 295.55902 334.38281 295.45508 C 334.57103 295.66295 334.72473 295.90306 334.84961 296.17383 C 334.97585 296.44444 335.03906 296.75741 335.03906 297.11133 C 335.03906 297.8401 334.7469 298.44308 334.16406 298.92188 C 333.6019 299.37995 332.613 299.60938 331.19727 299.60938 C 329.44844 299.60938 328.08403 299.21507 327.10547 298.42383 C 326.12699 297.61187 325.63867 296.29954 325.63867 294.48828 L 325.63867 280.46484 C 325.86847 280.4021 326.16815 280.34128 326.54297 280.2793 C 326.91752 280.19615 327.32447 280.1543 327.76172 280.1543 z M 359.77344 280.2168 L 359.77539 280.2168 L 370.11133 280.2168 C 370.2353 280.42467 370.34957 280.68574 370.45312 280.99805 C 370.55631 281.31061 370.60938 281.66299 370.60938 282.05859 C 370.60938 282.7456 370.45263 283.25672 370.14062 283.58984 C 369.84885 283.92282 369.43384 284.08789 368.89258 284.08789 L 361.95898 284.08789 L 361.95898 287.58594 L 369.20508 287.58594 C 369.32905 287.79381 369.44489 288.05489 369.54883 288.36719 C 369.65201 288.67975 369.70508 289.03408 369.70508 289.42969 C 369.70508 290.11673 369.56015 290.62789 369.26758 290.96094 C 368.9758 291.2735 368.56099 291.42773 368.01953 291.42773 L 361.96094 291.42773 L 361.96094 295.33203 L 370.23633 295.33203 C 370.3603 295.53991 370.47614 295.8114 370.58008 296.14453 C 370.68326 296.47789 370.73633 296.84084 370.73633 297.23633 C 370.73633 297.92337 370.57996 298.42406 370.26758 298.73633 C 369.9758 299.0489 369.57137 299.20508 369.05078 299.20508 L 359.77539 299.20508 C 358.98422 299.20508 358.34789 298.97577 357.86914 298.51758 C 357.41095 298.03871 357.18164 297.40246 357.18164 296.61133 L 357.18164 282.80859 C 357.18164 282.01746 357.41084 281.39163 357.86914 280.93359 C 358.34748 280.45525 358.98322 280.21721 359.77344 280.2168 z M 240.9043 283.65039 L 240.9043 283.65234 C 243.17364 283.65234 244.92204 284.15105 246.15039 285.15039 C 247.39952 286.14977 248.02539 287.57674 248.02539 289.42969 L 248.02539 299.11133 C 247.79673 299.17369 247.49392 299.22638 247.11914 299.26758 C 246.74459 299.33032 246.3291 299.36133 245.87109 299.36133 C 244.93426 299.36133 244.2562 299.21531 243.83984 298.92383 C 243.44424 298.61202 243.24805 298.01697 243.24805 297.14258 L 243.24805 289.55469 C 243.24805 288.82596 243.02886 288.2836 242.5918 287.92969 C 242.15439 287.57592 241.57241 287.39844 240.84375 287.39844 C 240.34406 287.39844 239.8851 287.46121 239.46875 287.58594 C 239.05232 287.71104 238.66641 287.86741 238.3125 288.05469 L 238.3125 299.10938 C 238.10425 299.17212 237.81419 299.22405 237.43945 299.26562 C 237.0649 299.32799 236.64749 299.35938 236.18945 299.35938 C 235.25255 299.35938 234.57651 299.21365 234.16016 298.92188 C 233.74369 298.60931 233.53516 298.01705 233.53516 297.14258 L 233.53516 287.49219 C 233.53516 286.95088 233.64949 286.51477 233.87891 286.18164 C 234.10795 285.84829 234.42927 285.53562 234.8457 285.24414 C 235.51188 284.76527 236.36725 284.37933 237.4082 284.08789 C 238.47002 283.79649 239.63434 283.65039 240.9043 283.65039 z M 276.00977 283.65039 L 276.01172 283.65234 C 277.4482 283.65234 278.57277 283.91112 279.38477 284.43164 C 280.21751 284.95212 280.63281 285.60922 280.63281 286.40039 C 280.63281 286.77494 280.53941 287.11934 280.35156 287.43164 C 280.18489 287.74421 279.97654 288.01315 279.72656 288.24219 C 279.35201 288.03431 278.90524 287.84636 278.38477 287.67969 C 277.88511 287.51339 277.32379 287.42969 276.69922 287.42969 C 275.57496 287.42969 274.61539 287.79437 273.82422 288.52344 C 273.03305 289.23131 272.63867 290.28279 272.63867 291.67773 C 272.63867 293.07264 273.01385 294.11366 273.76367 294.80078 C 274.53398 295.48782 275.50007 295.83008 276.66602 295.83008 C 277.33223 295.83008 277.91636 295.74909 278.41602 295.58203 C 278.93657 295.39494 279.37265 295.20677 279.72656 295.01953 C 280.08033 295.29015 280.35171 295.58219 280.53906 295.89453 C 280.74731 296.18631 280.85156 296.54911 280.85156 296.98633 C 280.85156 297.7775 280.43415 298.41371 279.60156 298.89258 C 278.76882 299.37144 277.61489 299.60938 276.13672 299.60938 C 274.88755 299.60938 273.74217 299.44415 272.70117 299.11133 C 271.68104 298.77797 270.80682 298.27751 270.07812 297.61133 C 269.34943 296.94504 268.78615 296.12301 268.39062 295.14453 C 267.99502 294.14519 267.79688 292.98934 267.79688 291.67773 C 267.79688 290.32444 268.01614 289.14778 268.45312 288.14844 C 268.89045 287.14909 269.4829 286.31665 270.23242 285.65039 C 270.9819 284.98421 271.85811 284.48344 272.85742 284.15039 C 273.8568 283.81704 274.90629 283.65039 276.00977 283.65039 z M 301.92969 283.65039 L 301.92969 283.65234 C 303.01233 283.65234 303.99084 283.76548 304.86523 283.99414 C 305.76042 284.20201 306.52188 284.53606 307.14648 284.99414 C 307.77101 285.45214 308.24898 286.03428 308.58203 286.74219 C 308.9358 287.45006 309.11328 288.28446 309.11328 289.24219 L 309.11328 296.30078 C 309.11328 296.84205 308.96783 297.2782 308.67578 297.61133 C 308.40517 297.9239 308.07154 298.19486 307.67578 298.42383 C 307.03058 298.81943 306.23968 299.12183 305.30273 299.33008 C 304.36587 299.53795 303.30385 299.64062 302.11719 299.64062 C 299.9728 299.64062 298.26609 299.2359 296.99609 298.42383 C 295.7261 297.59108 295.08984 296.33096 295.08984 294.64453 C 295.08984 293.20793 295.51768 292.11475 296.37109 291.36523 C 297.22462 290.61572 298.53695 290.14634 300.30664 289.95898 L 304.45898 289.52344 L 304.45898 289.17773 C 304.45898 288.51148 304.18974 288.02316 303.64844 287.71094 C 303.10717 287.39837 302.32677 287.24414 301.30664 287.24414 C 300.51551 287.24414 299.73327 287.33635 298.96289 287.52344 C 298.21341 287.71052 297.53737 287.92982 296.93359 288.17969 C 296.68377 288.01301 296.46469 287.76282 296.27734 287.42969 C 296.11067 287.07592 296.02734 286.70025 296.02734 286.30469 C 296.02734 285.38864 296.50715 284.73346 297.46484 284.33789 C 298.06866 284.10885 298.76547 283.94205 299.55664 283.83789 C 300.3686 283.71279 301.15938 283.65039 301.92969 283.65039 z M 258.52344 283.65234 C 259.58526 283.65234 260.55327 283.81719 261.42773 284.15039 C 262.32295 284.46296 263.08239 284.91122 263.70703 285.49414 C 264.35239 286.07709 264.85308 286.77398 265.20703 287.58594 C 265.5608 288.39793 265.73828 289.2825 265.73828 290.24023 C 265.73828 290.90645 265.56095 291.40711 265.20703 291.74023 C 264.85327 292.07359 264.35239 292.29247 263.70703 292.39648 L 255.58789 293.61328 C 255.87967 294.48775 256.38846 295.1135 257.11719 295.48828 C 257.84584 295.84205 258.69082 296.01758 259.64844 296.01758 C 260.52287 296.01758 261.34493 295.90482 262.11523 295.67578 C 262.88554 295.42595 263.50942 295.1548 263.98828 294.86328 C 264.30047 295.07116 264.56135 295.34265 264.76953 295.67578 C 264.97778 296.00914 265.08203 296.37201 265.08203 296.76758 C 265.08203 297.24644 264.93631 297.66355 264.64453 298.01758 C 264.35275 298.37134 263.9463 298.67408 263.42578 298.92383 C 262.92613 299.15287 262.32314 299.31963 261.61523 299.42383 C 260.92823 299.54893 260.16879 299.60938 259.33594 299.60938 C 258.10759 299.60938 256.97264 299.44423 255.93164 299.11133 C 254.89068 298.75756 253.99557 298.24633 253.24609 297.58008 C 252.49658 296.89304 251.90206 296.0397 251.46484 295.01953 C 251.04838 293.99932 250.83984 292.80186 250.83984 291.42773 C 250.83984 290.0953 251.04857 288.9395 251.46484 287.96094 C 251.90221 286.98246 252.47576 286.17274 253.18359 285.52734 C 253.91225 284.88188 254.73427 284.41261 255.65039 284.12109 C 256.58726 283.80853 257.54492 283.65234 258.52344 283.65234 z M 290.85547 283.68164 C 293.02072 283.68164 294.10352 284.40992 294.10352 285.86719 C 294.10352 286.22095 294.0512 286.54442 293.94727 286.83594 C 293.84333 287.12734 293.72862 287.3778 293.60352 287.58594 C 293.12469 287.482 292.54056 287.42969 291.85352 287.42969 C 291.24974 287.42969 290.64675 287.50255 290.04297 287.64844 C 289.43923 287.79433 288.90921 287.99221 288.45117 288.24219 L 288.45117 299.10938 C 288.24292 299.17174 287.95095 299.22405 287.57617 299.26562 C 287.20162 299.32837 286.78418 299.35938 286.32617 299.35938 C 285.38926 299.35938 284.71334 299.21328 284.29688 298.92188 C 283.88045 298.60931 283.67188 298.01705 283.67188 297.14258 L 283.67188 287.61719 C 283.67188 287.0342 283.81797 286.53546 284.10938 286.11914 C 284.40115 285.70264 284.80761 285.33766 285.32812 285.02539 C 286.01517 284.60892 286.83727 284.28568 287.79492 284.05664 C 288.77348 283.80681 289.79369 283.68164 290.85547 283.68164 z M 227.27539 284.02539 C 228.21222 284.02539 228.87783 284.18169 229.27344 284.49414 C 229.68987 284.80671 229.89844 285.39893 229.89844 286.27344 L 229.89844 299.10938 C 229.69019 299.17174 229.39822 299.22405 229.02344 299.26562 C 228.64889 299.32799 228.23339 299.35938 227.77539 299.35938 C 226.83852 299.35938 226.16248 299.21324 225.74609 298.92188 C 225.35053 298.60931 225.15234 298.01705 225.15234 297.14258 L 225.15234 284.30664 C 225.3606 284.2439 225.65257 284.18346 226.02734 284.12109 C 226.40189 284.05835 226.81731 284.02539 227.27539 284.02539 z M 258.55469 287.17969 C 257.65943 287.17969 256.91042 287.46131 256.30664 288.02344 C 255.72365 288.56478 255.37944 289.35549 255.27539 290.39648 L 261.24023 289.42969 C 261.19942 288.88838 260.95855 288.37734 260.52148 287.89844 C 260.08416 287.41961 259.42912 287.17969 258.55469 287.17969 z M 304.49219 292.73828 L 301.92969 292.95703 C 301.26347 293.01939 300.72307 293.17614 300.30664 293.42578 C 299.91108 293.65482 299.71289 294.00942 299.71289 294.48828 C 299.71289 294.9879 299.90099 295.38427 300.27539 295.67578 C 300.64994 295.96756 301.26358 296.11133 302.11719 296.11133 C 302.57519 296.11133 303.02368 296.07181 303.46094 295.98828 C 303.91894 295.88434 304.26311 295.75879 304.49219 295.61328 L 304.49219 292.73828 z M 153.47266 295.19336 C 156.45792 295.19351 158.87718 297.61431 158.87695 300.59961 C 158.8768 303.5846 156.45765 306.00376 153.47266 306.00391 C 150.48774 306.00376 148.06652 303.5846 148.06641 300.59961 C 148.06614 297.61431 150.4874 295.19351 153.47266 295.19336 z M 417.46484 295.19336 C 420.45014 295.19351 422.86937 297.61431 422.86914 300.59961 C 422.86895 303.5846 420.44988 306.00376 417.46484 306.00391 C 414.47981 306.00417 412.05882 303.58487 412.05859 300.59961 C 412.05837 297.61405 414.47932 295.19313 417.46484 295.19336 z M 240.31836 303.92969 C 242.58763 303.92969 244.36738 304.4075 245.6582 305.36523 C 246.94895 306.32289 247.5957 307.64561 247.5957 309.33203 C 247.5957 310.39385 247.32413 311.26804 246.7832 311.95508 C 246.26272 312.6213 245.59512 313.1428 244.7832 313.51758 C 245.22049 313.70466 245.6376 313.93446 246.0332 314.20508 C 246.42873 314.47569 246.77301 314.80748 247.06445 315.20312 C 247.37664 315.57768 247.61671 316.02643 247.7832 316.54688 C 247.97067 317.04657 248.06445 317.61832 248.06445 318.26367 C 248.06445 319.13807 247.87624 319.92885 247.50195 320.63672 C 247.1274 321.34459 246.59525 321.94953 245.9082 322.44922 C 245.24195 322.92808 244.43035 323.29314 243.47266 323.54297 C 242.53579 323.81358 241.48419 323.94727 240.31836 323.94727 C 239.17328 323.94727 238.13218 323.81324 237.19531 323.54297 C 236.25841 323.29314 235.44685 322.91766 234.75977 322.41797 C 234.09355 321.91832 233.57201 321.31529 233.19727 320.60742 C 232.82271 319.89952 232.63672 319.09643 232.63672 318.20117 C 232.63672 317.01444 232.93701 316.03597 233.54102 315.26562 C 234.16562 314.47446 234.91471 313.87151 235.78906 313.45508 C 234.93546 313.03861 234.28027 312.49829 233.82227 311.83203 C 233.36422 311.14495 233.13477 310.32105 233.13477 309.36328 C 233.13477 308.53054 233.30198 307.78145 233.63477 307.11523 C 233.98853 306.42812 234.47899 305.85644 235.10352 305.39844 C 235.74895 304.91957 236.50834 304.55459 237.38281 304.30469 C 238.27803 304.05486 239.25646 303.92969 240.31836 303.92969 z M 264.96094 303.92969 C 267.23032 303.92969 269.01 304.4075 270.30078 305.36523 C 271.59153 306.32289 272.23633 307.64561 272.23633 309.33203 C 272.23633 310.39385 271.96709 311.26804 271.42578 311.95508 C 270.9053 312.6213 270.23774 313.1428 269.42578 313.51758 C 269.86315 313.70466 270.28022 313.93446 270.67578 314.20508 C 271.07138 314.47569 271.41356 314.80748 271.70508 315.20312 C 272.01727 315.57768 272.25726 316.02643 272.42383 316.54688 C 272.61129 317.04657 272.70508 317.61832 272.70508 318.26367 C 272.70508 319.13807 272.51724 319.92885 272.14258 320.63672 C 271.76803 321.34459 271.23779 321.94953 270.55078 322.44922 C 269.88456 322.92808 269.073 323.29314 268.11523 323.54297 C 267.17844 323.81358 266.12685 323.94727 264.96094 323.94727 C 263.81597 323.94727 262.77484 323.81324 261.83789 323.54297 C 260.90106 323.29314 260.08942 322.91766 259.40234 322.41797 C 258.73613 321.91832 258.21462 321.31529 257.83984 320.60742 C 257.46529 319.89952 257.27734 319.09643 257.27734 318.20117 C 257.27734 317.01444 257.57997 316.03597 258.18359 315.26562 C 258.80824 314.47446 259.55721 313.87151 260.43164 313.45508 C 259.57803 313.03861 258.92288 312.49829 258.46484 311.83203 C 258.0068 311.14495 257.77734 310.32105 257.77734 309.36328 C 257.77734 308.53054 257.94418 307.78145 258.27734 307.11523 C 258.63111 306.42812 259.12149 305.85644 259.74609 305.39844 C 260.39145 304.91957 261.15096 304.55459 262.02539 304.30469 C 262.92065 304.05486 263.89915 303.92969 264.96094 303.92969 z M 325.2832 303.92969 C 327.55251 303.92969 329.33215 304.4075 330.62305 305.36523 C 331.91391 306.32289 332.56055 307.64561 332.56055 309.33203 C 332.56055 310.39385 332.28973 311.26804 331.74805 311.95508 C 331.22772 312.6213 330.56184 313.1428 329.75 313.51758 C 330.18737 313.70466 330.60237 313.93446 330.99805 314.20508 C 331.39361 314.47569 331.73782 314.80748 332.0293 315.20312 C 332.34186 315.57768 332.58145 316.02643 332.74805 316.54688 C 332.93627 317.04657 333.0293 317.61832 333.0293 318.26367 C 333.0293 319.13807 332.84071 319.92885 332.4668 320.63672 C 332.09225 321.34459 331.562 321.94953 330.875 322.44922 C 330.20867 322.92808 329.39527 323.29314 328.4375 323.54297 C 327.50048 323.81358 326.44926 323.94727 325.2832 323.94727 C 324.13804 323.94727 323.09902 323.81324 322.16211 323.54297 C 321.22539 323.29314 320.41165 322.91766 319.72461 322.41797 C 319.05828 321.91832 318.53888 321.31529 318.16406 320.60742 C 317.78951 319.89952 317.60156 319.09643 317.60156 318.20117 C 317.60156 317.01444 317.90422 316.03597 318.50781 315.26562 C 319.13238 314.47446 319.88162 313.87151 320.75586 313.45508 C 319.90225 313.03861 319.24703 312.49829 318.78906 311.83203 C 318.33095 311.14495 318.10156 310.32105 318.10156 309.36328 C 318.10156 308.53054 318.26896 307.78145 318.60156 307.11523 C 318.95533 306.42812 319.44357 305.85644 320.06836 305.39844 C 320.7136 304.91957 321.47506 304.55459 322.34961 304.30469 C 323.24479 304.05486 324.22142 303.92969 325.2832 303.92969 z M 348.93945 303.99219 C 351.35457 303.99219 353.25939 304.79336 354.6543 306.39648 C 356.04913 307.99965 356.74805 310.34245 356.74805 313.42383 C 356.74805 315.19348 356.52977 316.73523 356.0918 318.04688 C 355.67533 319.35852 355.08085 320.4517 354.31055 321.32617 C 353.54024 322.1797 352.61397 322.8245 351.53125 323.26172 C 350.46947 323.67818 349.29285 323.88672 348.00195 323.88672 C 346.41981 323.88672 345.15102 323.678 344.19336 323.26172 C 343.25641 322.82435 342.78711 322.1674 342.78711 321.29297 C 342.78711 320.8765 342.88127 320.48212 343.06836 320.10742 C 343.27737 319.73287 343.50599 319.45106 343.75586 319.26367 C 344.29709 319.5135 344.87072 319.72207 345.47461 319.88867 C 346.07828 320.03456 346.68126 320.10742 347.28516 320.10742 C 348.70066 320.10742 349.83588 319.71098 350.68945 318.91992 C 351.5431 318.12879 351.96875 317.01472 351.96875 315.57812 C 351.57315 315.9111 351.04328 316.2033 350.37695 316.45312 C 349.73171 316.68216 348.98259 316.79688 348.12891 316.79688 C 347.19196 316.79688 346.32636 316.67132 345.53516 316.42188 C 344.76485 316.17205 344.08885 315.78806 343.50586 315.26758 C 342.94373 314.74706 342.4973 314.10038 342.16406 313.33008 C 341.85187 312.55973 341.69531 311.65424 341.69531 310.61328 C 341.69531 309.6972 341.85165 308.8439 342.16406 308.05273 C 342.49742 307.24074 342.96447 306.53343 343.56836 305.92969 C 344.19293 305.32591 344.95248 304.85657 345.84766 304.52344 C 346.74303 304.16967 347.7737 303.99414 348.93945 303.99414 L 348.93945 303.99219 z M 218.53906 304.21094 L 219.60156 304.21094 C 220.39273 304.21094 221.02898 304.45075 221.50781 304.92969 C 221.98668 305.40852 222.22461 306.04282 222.22461 306.83398 L 222.22461 323.38672 C 221.99595 323.44908 221.69509 323.51028 221.32031 323.57227 C 220.94576 323.63501 220.52839 323.66602 220.07031 323.66602 C 219.13344 323.66602 218.45741 323.5116 218.04102 323.19922 C 217.62455 322.88665 217.41602 322.2924 217.41602 321.41797 L 217.41602 308.99023 L 214.13672 310.14453 C 213.84494 309.95744 213.55312 309.6963 213.26172 309.36328 C 212.96994 309.00952 212.82422 308.53155 212.82422 307.92773 C 212.82422 306.80348 213.51263 306.00223 214.88672 305.52344 L 218.53906 304.21094 z M 303.50586 304.21094 L 304.56836 304.21094 C 305.35957 304.21094 305.99383 304.45075 306.47266 304.92969 C 306.9516 305.40852 307.18945 306.04282 307.18945 306.83398 L 307.18945 323.38672 C 306.96004 323.44908 306.66001 323.51028 306.28516 323.57227 C 305.91061 323.63501 305.49327 323.66602 305.03516 323.66602 C 304.09832 323.66602 303.42221 323.5116 303.00586 323.19922 C 302.58936 322.88665 302.38086 322.2924 302.38086 321.41797 L 302.38086 308.99023 L 299.10156 310.14453 C 298.80978 309.95744 298.51999 309.6963 298.22852 309.36328 C 297.93674 309.00952 297.79102 308.53155 297.79102 307.92773 C 297.79102 306.80348 298.47752 306.00223 299.85156 305.52344 L 303.50586 304.21094 z M 240.31836 307.55273 C 239.56884 307.55273 238.96578 307.74053 238.50781 308.11523 C 238.07041 308.48979 237.85156 308.97821 237.85156 309.58203 C 237.85156 310.31069 238.10183 310.86354 238.60156 311.23828 C 239.10122 311.61283 239.7459 311.87184 240.53711 312.01758 C 241.28663 311.78854 241.85838 311.4776 242.25391 311.08203 C 242.67041 310.68643 242.87891 310.18577 242.87891 309.58203 C 242.87891 308.9366 242.6496 308.43797 242.19141 308.08398 C 241.75404 307.73022 241.13028 307.55273 240.31836 307.55273 z M 264.96094 307.55273 C 264.21146 307.55273 263.60652 307.74053 263.14844 308.11523 C 262.71111 308.48979 262.49414 308.97821 262.49414 309.58203 C 262.49414 310.31069 262.74276 310.86354 263.24219 311.23828 C 263.7418 311.61283 264.38852 311.87184 265.17969 312.01758 C 265.92917 311.78854 266.50092 311.4776 266.89648 311.08203 C 267.31291 310.68643 267.52148 310.18577 267.52148 309.58203 C 267.52148 308.9366 267.2921 308.43797 266.83398 308.08398 C 266.39658 307.73022 265.77289 307.55273 264.96094 307.55273 z M 325.2832 307.55273 C 324.53372 307.55273 323.93081 307.74053 323.47266 308.11523 C 323.03533 308.48979 322.81641 308.97821 322.81641 309.58203 C 322.81641 310.31069 323.06675 310.86354 323.56641 311.23828 C 324.06606 311.61283 324.71078 311.87184 325.50195 312.01758 C 326.2514 311.78854 326.82521 311.4776 327.2207 311.08203 C 327.63717 310.68643 327.8457 310.18577 327.8457 309.58203 C 327.8457 308.9366 327.61541 308.43797 327.1582 308.08398 C 326.72129 307.73022 326.09527 307.55273 325.2832 307.55273 z M 348.93945 307.80273 C 348.14847 307.80273 347.53491 308.04284 347.09766 308.52148 C 346.66078 309.00027 346.44141 309.65558 346.44141 310.48828 C 346.44141 311.36267 346.70244 312.02829 347.22266 312.48633 C 347.74306 312.94429 348.39828 313.17383 349.18945 313.17383 C 349.71001 313.17383 350.2107 313.05912 350.68945 312.83008 C 351.16851 312.58025 351.54189 312.2797 351.8125 311.92578 L 351.8125 311.67578 C 351.8125 310.42661 351.56422 309.46899 351.06445 308.80273 C 350.58566 308.13652 349.87636 307.80273 348.93945 307.80273 z M 282.7832 313.51758 L 289.5918 313.51758 C 289.69573 313.70466 289.81044 313.97616 289.93555 314.33008 C 290.06065 314.66343 290.12305 315.01784 290.12305 315.39258 C 290.12305 316.07958 289.95583 316.57832 289.62305 316.89062 C 289.31086 317.20319 288.89349 317.35938 288.37305 317.35938 L 281.53516 317.35938 C 281.41043 317.1515 281.29497 316.87993 281.19141 316.54688 C 281.08747 316.21352 281.03516 315.86103 281.03516 315.48633 C 281.03516 314.79929 281.19191 314.29859 281.50391 313.98633 C 281.81647 313.67376 282.2419 313.51758 282.7832 313.51758 z M 240.00586 315.11133 C 239.1315 315.38194 238.47628 315.76593 238.03906 316.26562 C 237.6226 316.76528 237.41406 317.32856 237.41406 317.95312 C 237.41406 318.70268 237.67483 319.28482 238.19531 319.70117 C 238.73662 320.11764 239.44389 320.32617 240.31836 320.32617 C 241.21354 320.32617 241.93131 320.12791 242.47266 319.73242 C 243.01392 319.33682 243.28516 318.74426 243.28516 317.95312 C 243.28516 317.24526 243.00346 316.65078 242.44141 316.17188 C 241.87928 315.67226 241.06768 315.3195 240.00586 315.11133 z M 264.64844 315.11133 C 263.77401 315.38194 263.1169 315.76593 262.67969 316.26562 C 262.26322 316.76528 262.05664 317.32856 262.05664 317.95312 C 262.05664 318.70268 262.31584 319.28482 262.83594 319.70117 C 263.37732 320.11764 264.08651 320.32617 264.96094 320.32617 C 265.85623 320.32617 266.57393 320.12791 267.11523 319.73242 C 267.65654 319.33682 267.92773 318.74426 267.92773 317.95312 C 267.92773 317.24526 267.646 316.65078 267.08398 316.17188 C 266.52178 315.67226 265.71022 315.3195 264.64844 315.11133 z M 324.97266 315.11133 C 324.09819 315.38194 323.4412 315.76593 323.00391 316.26562 C 322.58748 316.76528 322.37891 317.32856 322.37891 317.95312 C 322.37891 318.70268 322.63964 319.28482 323.16016 319.70117 C 323.70142 320.11764 324.40888 320.32617 325.2832 320.32617 C 326.17857 320.32617 326.89822 320.12791 327.43945 319.73242 C 327.98068 319.33682 328.25 318.74426 328.25 317.95312 C 328.25 317.24526 327.97029 316.65078 327.4082 316.17188 C 326.84611 315.67226 326.03448 315.3195 324.97266 315.11133 z M 227.99414 318.29688 C 228.84767 318.29688 229.52382 318.56604 230.02344 319.10742 C 230.52317 319.64873 230.77344 320.31629 230.77344 321.10742 C 230.77344 321.89859 230.52317 322.56416 230.02344 323.10547 C 229.52382 323.64677 228.84767 323.91797 227.99414 323.91797 C 227.11967 323.91797 226.43126 323.64673 225.93164 323.10547 C 225.45281 322.56416 225.21484 321.89859 225.21484 321.10742 C 225.21484 320.31629 225.45304 319.64873 225.93164 319.10742 C 226.43126 318.56608 227.11967 318.29688 227.99414 318.29688 z M 252.63477 318.29688 C 253.48833 318.29688 254.16644 318.56604 254.66602 319.10742 C 255.16574 319.64873 255.41406 320.31629 255.41406 321.10742 C 255.41406 321.89859 255.16578 322.56416 254.66602 323.10547 C 254.16644 323.64677 253.48833 323.91797 252.63477 323.91797 C 251.76033 323.91797 251.07391 323.64673 250.57422 323.10547 C 250.09543 322.56416 249.85547 321.89859 249.85547 321.10742 C 249.85547 320.31629 250.09565 319.64873 250.57422 319.10742 C 251.07391 318.56608 251.76033 318.29688 252.63477 318.29688 z M 312.95898 318.29688 C 313.81259 318.29688 314.48878 318.56604 314.98828 319.10742 C 315.48797 319.64873 315.73828 320.31629 315.73828 321.10742 C 315.73828 321.89859 315.48812 322.56416 314.98828 323.10547 C 314.48878 323.64677 313.81259 323.91797 312.95898 323.91797 C 312.08444 323.91797 311.39813 323.64673 310.89844 323.10547 C 310.41961 322.56416 310.17969 321.89859 310.17969 321.10742 C 310.17969 320.31629 310.41991 319.64873 310.89844 319.10742 C 311.39813 318.56608 312.08444 318.29688 312.95898 318.29688 z M 337.60156 318.29688 C 338.45524 318.29688 339.13113 318.56604 339.63086 319.10742 C 340.13051 319.64873 340.38086 320.31629 340.38086 321.10742 C 340.38086 321.89859 340.13063 322.56416 339.63086 323.10547 C 339.13113 323.64677 338.45524 323.91797 337.60156 323.91797 C 336.72706 323.91797 336.04071 323.64673 335.54102 323.10547 C 335.06223 322.56416 334.82227 321.89859 334.82227 321.10742 C 334.82227 320.31629 335.06257 319.64873 335.54102 319.10742 C 336.04071 318.56608 336.72706 318.29688 337.60156 318.29688 z "
       transform="matrix(0.26458333,0,0,0.26458333,97.530224,146.88232)" />
  </g>
</svg>
