<?xml version="1.0" encoding="UTF-8" standalone="no"?>
<svg
   xmlns:dc="http://purl.org/dc/elements/1.1/"
   xmlns:cc="http://creativecommons.org/ns#"
   xmlns:rdf="http://www.w3.org/1999/02/22-rdf-syntax-ns#"
   xmlns:svg="http://www.w3.org/2000/svg"
   xmlns="http://www.w3.org/2000/svg"
   xmlns:sodipodi="http://sodipodi.sourceforge.net/DTD/sodipodi-0.dtd"
   xmlns:inkscape="http://www.inkscape.org/namespaces/inkscape"
   width="145.66101mm"
   height="52.888199mm"
   viewBox="0 0 145.66101 52.888199"
   version="1.1"
   id="svg8"
   inkscape:version="1.0.2-2 (e86c870879, 2021-01-15)"
   sodipodi:docname="wordmark.svg">
  <defs
     id="defs2" />
  <sodipodi:namedview
     id="base"
     pagecolor="#ffffff"
     bordercolor="#666666"
     borderopacity="1.0"
     inkscape:pageopacity="0.0"
     inkscape:pageshadow="2"
     inkscape:zoom="1.18269"
     inkscape:cx="169.81911"
     inkscape:cy="186.49798"
     inkscape:document-units="mm"
     inkscape:current-layer="layer1"
     showgrid="false"
     fit-margin-top="0"
     fit-margin-left="0"
     fit-margin-right="0"
     fit-margin-bottom="0"
     inkscape:window-width="1920"
     inkscape:window-height="1017"
     inkscape:window-x="-8"
     inkscape:window-y="-8"
     inkscape:window-maximized="1"
     inkscape:pagecheckerboard="true"
     inkscape:document-rotation="0"
     borderlayer="true"
     inkscape:showpageshadow="false" />
  <metadata
     id="metadata5">
    <rdf:RDF>
      <cc:Work
         rdf:about="">
        <dc:format>image/svg+xml</dc:format>
        <dc:type
           rdf:resource="http://purl.org/dc/dcmitype/StillImage" />
        <dc:title></dc:title>
      </cc:Work>
    </rdf:RDF>
  </metadata>
  <g
     inkscape:label="Layer 1"
     inkscape:groupmode="layer"
     id="layer1"
     transform="translate(-38.980982,-170.53416)">
    <g
       id="g886"
       transform="translate(-6.1289062e-6,10.47422)"
       style="fill:#000000;fill-opacity:0.5">
      <path
         sodipodi:nodetypes="cscsccccccccccccc"
         inkscape:connector-curvature="0"
         id="path874"
         d="m 42.978204,166.27536 c 0,0 -0.637096,1.85589 -1.199166,2.64348 -0.745352,1.04441 -2.798051,2.64347 -2.798051,2.64347 0,0 7.603629,-0.39973 11.408845,-0.39973 0.959839,0 2.161663,0.0256 3.421835,0.0636 -0.487574,0.4453 -1.00119,0.87585 -1.423224,1.13554 -0.943782,0.58071 -3.100573,1.19916 -3.100573,1.19916 v 24.25966 c 0,0 1.914896,-2.0685 3.100573,-2.79806 0.943782,-0.58071 2.020778,-1.1673 3.100578,-1.59888 1.289001,-0.5152 3.997207,-1.16832 3.997207,-1.16832 l -3.997207,-1.56805 V 171.2828 c 3.223744,0.11775 6.309272,0.27949 6.309272,0.27949 0,0 0.637096,-1.85588 1.199165,-2.64348 0.745348,-1.0444 2.798042,-2.64347 2.798042,-2.64347 z"
         style="font-style:normal;font-variant:normal;font-weight:bold;font-stretch:normal;font-size:52.6246px;line-height:1.25;font-family:Ubuntu;-inkscape-font-specification:'Ubuntu Bold';text-align:center;letter-spacing:0px;word-spacing:0px;writing-mode:lr-tb;text-anchor:middle;fill:#000000;fill-opacity:0.5;stroke:none;stroke-width:0.264583" />
      <path
         sodipodi:nodetypes="ccacccscccscacscscccac"
         d="m 67.34616,194.62267 v -28.4727 c 0,0 2.065001,-0.61504 2.961488,-1.18724 1.14247,-0.72921 2.961482,-2.78612 2.961482,-2.78612 v 10.01737 c 0.397522,-0.1325 0.901041,-0.25176 1.510562,-0.35776 0.636025,-0.13251 1.245546,-0.19876 1.82857,-0.19876 1.696059,0 3.100619,0.23851 4.213664,0.71553 1.139544,0.45051 2.040575,1.09979 2.703102,1.94782 0.689026,0.84803 1.166037,1.85507 1.431048,3.02112 0.291509,1.16604 0.437266,2.46459 0.437266,3.89565 v 9.40787 c 0,0 -2.065354,0.62366 -2.961487,1.19916 -1.142723,0.73387 -2.961482,2.79806 -2.961482,2.79806 V 181.9331 c 0,-1.90807 -0.251765,-3.25962 -0.755284,-4.05465 -0.477011,-0.79503 -1.378052,-1.19255 -2.703102,-1.19255 -0.530017,0 -1.033536,0.053 -1.510552,0.15901 -0.450518,0.0795 -0.861286,0.17226 -1.232305,0.27826 v 13.50228 c 0,0 -2.065354,0.62366 -2.961482,1.19916 -1.142723,0.73387 -2.961488,2.79806 -2.961488,2.79806 z"
         style="font-style:normal;font-variant:normal;font-weight:bold;font-stretch:normal;font-size:52.6246px;line-height:1.25;font-family:Ubuntu;-inkscape-font-specification:'Ubuntu Bold';text-align:center;letter-spacing:0px;word-spacing:0px;writing-mode:lr-tb;text-anchor:middle;fill:#000000;fill-opacity:0.5;stroke:none;stroke-width:0.264583"
         id="path876"
         inkscape:connector-curvature="0" />
      <path
         sodipodi:nodetypes="scccscccsccccaccscsscccscccccacaccscs"
         inkscape:connector-curvature="0"
         id="path878"
         d="m 98.21822,172.53591 c -1.272049,0 -2.517798,0.23851 -3.736841,0.71552 -1.19255,0.47702 -2.25267,1.1792 -3.180209,2.10673 -0.927538,0.92754 -1.682585,2.0938 -2.265608,3.49835 -0.556525,1.37806 -0.834965,2.99429 -0.834965,4.84936 0,1.53706 0.212263,2.96844 0.636277,4.29349 0.450518,1.32504 1.12606,2.4776 2.027101,3.45813 0.927534,0.95403 2.08047,1.70947 3.458532,2.266 1.40455,0.55652 3.04741,0.83458 4.928981,0.83458 0.742032,0 1.484162,-0.0396 2.226182,-0.11906 0.74204,-0.0795 1.4309,-0.18563 2.06692,-0.31813 0.66253,-0.10601 1.25897,-0.23838 1.78899,-0.39739 0.53001,-0.159 0.95415,-0.31801 1.27216,-0.47701 0,0 -0.44604,-1.53481 -0.35831,-2.3086 0.12566,-1.1084 1.24056,-3.10805 1.24056,-3.10805 -0.66252,0.29151 -3.2011,1.15005 -4.26114,1.36205 -1.03354,0.18552 -2.09366,0.27794 -3.18021,0.27794 -1.696061,0 -3.047554,-0.35756 -4.054597,-1.07308 -1.007033,-0.71552 -1.414067,-1.81879 -1.709351,-2.90189 -0.181368,-0.66522 -0.197616,-2.40516 0,-4.05459 0.06005,-0.50098 0.198556,-0.99384 0.357555,-1.47085 0.185516,-0.50352 0.437326,-0.94097 0.755334,-1.31197 0.318017,-0.37103 0.715519,-0.6624 1.192535,-0.87441 0.47701,-0.2385 1.046823,-0.35755 1.709355,-0.35755 0.689026,0 1.258839,0.11905 1.709349,0.35755 0.47702,0.23852 0.8612,0.5432 1.15271,0.91422 0.31801,0.37102 0.54359,0.79514 0.67609,1.27216 0.15902,0.47701 0.25142,0.96732 0.27793,1.47085 h -8.630309 c 0,0 1.722694,1.22774 2.398332,2.02729 0.506753,0.5997 1.19916,2.0273 1.19916,2.0273 0,0 3.540967,-0.39972 5.318957,-0.39972 1.77797,0 5.31894,0.39972 5.31894,0.39972 0.0264,-0.31801 0.0531,-0.67595 0.0796,-1.07347 0.0265,-0.42401 0.0398,-0.8082 0.0398,-1.15271 0,-3.52464 -0.86157,-6.18807 -2.58414,-7.99014 -1.72256,-1.82857 -4.06761,-2.74262 -7.03572,-2.74262 z"
         style="font-style:normal;font-variant:normal;font-weight:bold;font-stretch:normal;font-size:52.6246px;line-height:1.25;font-family:Ubuntu;-inkscape-font-specification:'Ubuntu Bold';text-align:center;letter-spacing:0px;word-spacing:0px;writing-mode:lr-tb;text-anchor:middle;fill:#000000;fill-opacity:0.5;stroke:none;stroke-width:0.264583" />
      <path
         sodipodi:nodetypes="csscccscsccccc"
         inkscape:connector-curvature="0"
         id="path880"
         d="m 121.21268,162.28531 c 0,0 -1.9149,2.0685 -3.10057,2.79804 -0.94379,0.58071 -2.02078,1.16731 -3.10057,1.59889 -1.28901,0.5152 -3.99722,1.16832 -3.99722,1.16832 l 3.99722,1.56806 v 19.88457 c -0.20443,0.95192 -0.63619,1.86903 -1.19917,2.66338 -0.74456,1.05056 -2.79805,2.66337 -2.79805,2.66337 0,0 6.13181,-0.39971 9.20219,-0.39971 3.07039,0 9.20257,0.39971 9.20257,0.39971 0,0 0.63618,-1.86902 1.19916,-2.66337 0.74456,-1.05057 2.79805,-2.66338 2.79805,-2.66338 h -12.20361 z"
         style="font-style:normal;font-variant:normal;font-weight:bold;font-stretch:normal;font-size:52.6246px;line-height:1.25;font-family:Ubuntu;-inkscape-font-specification:'Ubuntu Bold';text-align:center;letter-spacing:0px;word-spacing:0px;writing-mode:lr-tb;text-anchor:middle;fill:#000000;fill-opacity:0.5;stroke:none;stroke-width:0.264583" />
      <path
         sodipodi:nodetypes="cacsccccacscscccsccscc"
         d="m 153.68538,188.93117 c 0,0 -1.90243,1.23689 -2.66335,2.06267 -0.77148,0.83726 -1.86391,2.86211 -1.86391,2.86211 0,0 -3.44954,0.79503 -5.0131,0.79503 -1.53706,0 -2.94161,-0.26501 -4.21366,-0.79503 -1.24555,-0.53002 -2.31884,-1.27204 -3.21988,-2.22608 -0.90103,-0.98054 -2.10683,-3.49814 -2.10683,-3.49814 v -9.82303 c 0,0 1.92758,-1.22177 2.7031,-2.0428 0.783,-0.82895 1.90367,-2.84223 1.90367,-2.84223 0,0 3.44954,-0.79503 4.9336,-0.79503 1.51056,0 2.88861,0.26501 4.13416,0.79503 1.27205,0.53002 2.35858,1.27205 3.25962,2.22609 0.90102,0.95404 2.10685,3.45838 2.10685,3.45838 z m -6.43974,-9.62427 c 0,0 -1.74907,-1.59006 -3.10062,-1.59006 -1.35155,0 -3.14037,1.59006 -3.14037,1.59006 v 8.66582 c 0,0 1.78882,1.59007 3.14037,1.59007 1.35155,0 3.10062,-1.59007 3.10062,-1.59007 z"
         style="font-style:normal;font-variant:normal;font-weight:bold;font-stretch:normal;font-size:52.6246px;line-height:1.25;font-family:Ubuntu;-inkscape-font-specification:'Ubuntu Bold';text-align:center;letter-spacing:0px;word-spacing:0px;writing-mode:lr-tb;text-anchor:middle;fill:#000000;fill-opacity:0.5;stroke:none;stroke-width:0.264583"
         id="path882"
         inkscape:connector-curvature="0" />
      <path
         sodipodi:nodetypes="cccacccccaccccsascccaccccsascccaccccacsc"
         d="m 169.37743,182.6177 c -0.53001,2.01408 -1.0998,4.01491 -1.70931,6.00249 l -0.61563,2.8047 c 0,0 -2.0217,0.69475 -2.95871,1.19916 -1.03495,0.55715 -2.90518,1.99862 -2.90518,1.99862 -0.477,-1.11305 -0.99377,-2.4381 -1.55031,-3.97516 -0.5565,-1.53706 -1.13953,-3.20662 -1.74904,-5.00869 -0.58303,-1.82857 -1.19254,-3.74989 -1.82863,-5.76396 -0.60949,-2.04059 -0.10765,-0.20747 -0.69066,-2.27454 0,0 1.80531,-0.61923 2.57145,-1.1658 1.01595,-0.72478 2.57142,-2.72116 2.57142,-2.72116 0.21201,0.95404 0.43727,2.00084 0.67577,3.14038 0.26503,1.11304 0.53006,2.26583 0.79504,3.45838 0.29152,1.19254 0.58303,2.39834 0.87454,3.61738 0.159,0.59628 0.318,1.08268 0.477,1.55914 0.15905,0.47647 0.19468,0.70231 0.47705,0.70008 0.30718,-0.002 0.34119,-0.2733 0.50681,-0.76964 0.16562,-0.49634 0.32795,-0.99931 0.48695,-1.60883 0.34453,-1.21905 0.66253,-2.41159 0.95405,-3.57763 0.21964,-0.88073 0.50216,-1.74584 0.69745,-2.6323 0,0 1.83414,-0.59845 2.61276,-1.14404 1.0341,-0.72462 2.61276,-2.74292 2.61276,-2.74292 0.21201,0.95404 0.45051,1.98758 0.71554,3.10062 0.26498,1.08655 0.54326,2.22609 0.83477,3.41864 0.29152,1.16604 0.59627,2.35858 0.91427,3.57763 0.15905,0.60952 0.32133,1.21242 0.487,1.80869 0.16562,0.59628 0.25265,0.56537 0.50682,0.56978 0.23036,0.004 0.31799,0.0762 0.47699,-0.50021 0.159,-0.5764 0.31805,-1.16273 0.47705,-1.75901 0.31799,-1.21904 0.60951,-2.42484 0.87454,-3.61738 0.53421,-2.26692 0.0999,-0.56205 0.57813,-2.7118 0,0 2.448,-0.56473 3.54694,-1.14404 1.32217,-0.69697 3.54694,-2.74292 3.54694,-2.74292 -0.58303,2.06708 -1.19254,4.12091 -1.82858,6.1615 -0.60952,2.01407 -1.21903,3.93539 -1.82854,5.76396 -1.05825,3.12832 -0.72995,2.92079 -1.70052,5.78607 0,0 -2.1159,0.69645 -3.10502,1.19917 -1.09727,0.5577 -3.10502,1.99861 -3.10502,1.99861 -0.66252,-2.01408 -1.31181,-4.01491 -1.94781,-6.00248 -0.63604,-1.98758 -1.21907,-3.98841 -1.74908,-6.00249 z"
         style="font-style:normal;font-variant:normal;font-weight:bold;font-stretch:normal;font-size:52.6246px;line-height:1.25;font-family:Ubuntu;-inkscape-font-specification:'Ubuntu Bold';text-align:center;letter-spacing:0px;word-spacing:0px;writing-mode:lr-tb;text-anchor:middle;fill:#000000;fill-opacity:0.5;stroke:none;stroke-width:0.264583"
         id="path884"
         inkscape:connector-curvature="0" />
    </g>
    <g
       id="g978"
       transform="translate(-6.1289062e-6,8.3575529)">
      <path
         sodipodi:nodetypes="cscsccccccccccccc"
         inkscape:connector-curvature="0"
         id="path1857"
         d="m 42.978204,166.27536 c 0,0 -0.637096,1.85589 -1.199166,2.64348 -0.745352,1.04441 -2.798051,2.64347 -2.798051,2.64347 0,0 7.603629,-0.39973 11.408845,-0.39973 0.959839,0 2.161663,0.0256 3.421835,0.0636 -0.487574,0.4453 -1.00119,0.87585 -1.423224,1.13554 -0.943782,0.58071 -3.100573,1.19916 -3.100573,1.19916 v 24.25966 c 0,0 1.914896,-2.0685 3.100573,-2.79806 0.943782,-0.58071 2.020778,-1.1673 3.100578,-1.59888 1.289001,-0.5152 3.997207,-1.16832 3.997207,-1.16832 l -3.997207,-1.56805 V 171.2828 c 3.223744,0.11775 6.309272,0.27949 6.309272,0.27949 0,0 0.637096,-1.85588 1.199165,-2.64348 0.745348,-1.0444 2.798042,-2.64347 2.798042,-2.64347 z"
         style="font-style:normal;font-variant:normal;font-weight:bold;font-stretch:normal;font-size:52.6246px;line-height:1.25;font-family:Ubuntu;-inkscape-font-specification:'Ubuntu Bold';text-align:center;letter-spacing:0px;word-spacing:0px;writing-mode:lr-tb;text-anchor:middle;fill:#ffffff;fill-opacity:1;stroke:none;stroke-width:0.264583" />
      <path
         sodipodi:nodetypes="ccacccscccscacscscccac"
         d="m 67.34616,194.62267 v -28.4727 c 0,0 2.065001,-0.61504 2.961488,-1.18724 1.14247,-0.72921 2.961482,-2.78612 2.961482,-2.78612 v 10.01737 c 0.397522,-0.1325 0.901041,-0.25176 1.510562,-0.35776 0.636025,-0.13251 1.245546,-0.19876 1.82857,-0.19876 1.696059,0 3.100619,0.23851 4.213664,0.71553 1.139544,0.45051 2.040575,1.09979 2.703102,1.94782 0.689026,0.84803 1.166037,1.85507 1.431048,3.02112 0.291509,1.16604 0.437266,2.46459 0.437266,3.89565 v 9.40787 c 0,0 -2.065354,0.62366 -2.961487,1.19916 -1.142723,0.73387 -2.961482,2.79806 -2.961482,2.79806 V 181.9331 c 0,-1.90807 -0.251765,-3.25962 -0.755284,-4.05465 -0.477011,-0.79503 -1.378052,-1.19255 -2.703102,-1.19255 -0.530017,0 -1.033536,0.053 -1.510552,0.15901 -0.450518,0.0795 -0.861286,0.17226 -1.232305,0.27826 v 13.50228 c 0,0 -2.065354,0.62366 -2.961482,1.19916 -1.142723,0.73387 -2.961488,2.79806 -2.961488,2.79806 z"
         style="font-style:normal;font-variant:normal;font-weight:bold;font-stretch:normal;font-size:52.6246px;line-height:1.25;font-family:Ubuntu;-inkscape-font-specification:'Ubuntu Bold';text-align:center;letter-spacing:0px;word-spacing:0px;writing-mode:lr-tb;text-anchor:middle;fill:#ffffff;fill-opacity:1;stroke:none;stroke-width:0.264583"
         id="path1859"
         inkscape:connector-curvature="0" />
      <path
         sodipodi:nodetypes="scccscccsccccaccscsscccscccccacaccscs"
         inkscape:connector-curvature="0"
         id="path1861"
         d="m 98.21822,172.53591 c -1.272049,0 -2.517798,0.23851 -3.736841,0.71552 -1.19255,0.47702 -2.25267,1.1792 -3.180209,2.10673 -0.927538,0.92754 -1.682585,2.0938 -2.265608,3.49835 -0.556525,1.37806 -0.834965,2.99429 -0.834965,4.84936 0,1.53706 0.212263,2.96844 0.636277,4.29349 0.450518,1.32504 1.12606,2.4776 2.027101,3.45813 0.927534,0.95403 2.08047,1.70947 3.458532,2.266 1.40455,0.55652 3.04741,0.83458 4.928981,0.83458 0.742032,0 1.484162,-0.0396 2.226182,-0.11906 0.74204,-0.0795 1.4309,-0.18563 2.06692,-0.31813 0.66253,-0.10601 1.25897,-0.23838 1.78899,-0.39739 0.53001,-0.159 0.95415,-0.31801 1.27216,-0.47701 0,0 -0.44604,-1.53481 -0.35831,-2.3086 0.12566,-1.1084 1.24056,-3.10805 1.24056,-3.10805 -0.66252,0.29151 -3.2011,1.15005 -4.26114,1.36205 -1.03354,0.18552 -2.09366,0.27794 -3.18021,0.27794 -1.696061,0 -3.047554,-0.35756 -4.054597,-1.07308 -1.007033,-0.71552 -1.414067,-1.81879 -1.709351,-2.90189 -0.181368,-0.66522 -0.197616,-2.40516 0,-4.05459 0.06005,-0.50098 0.198556,-0.99384 0.357555,-1.47085 0.185516,-0.50352 0.437326,-0.94097 0.755334,-1.31197 0.318017,-0.37103 0.715519,-0.6624 1.192535,-0.87441 0.47701,-0.2385 1.046823,-0.35755 1.709355,-0.35755 0.689026,0 1.258839,0.11905 1.709349,0.35755 0.47702,0.23852 0.8612,0.5432 1.15271,0.91422 0.31801,0.37102 0.54359,0.79514 0.67609,1.27216 0.15902,0.47701 0.25142,0.96732 0.27793,1.47085 h -8.630309 c 0,0 1.722694,1.22774 2.398332,2.02729 0.506753,0.5997 1.19916,2.0273 1.19916,2.0273 0,0 3.540967,-0.39972 5.318957,-0.39972 1.77797,0 5.31894,0.39972 5.31894,0.39972 0.0264,-0.31801 0.0531,-0.67595 0.0796,-1.07347 0.0265,-0.42401 0.0398,-0.8082 0.0398,-1.15271 0,-3.52464 -0.86157,-6.18807 -2.58414,-7.99014 -1.72256,-1.82857 -4.06761,-2.74262 -7.03572,-2.74262 z"
         style="font-style:normal;font-variant:normal;font-weight:bold;font-stretch:normal;font-size:52.6246px;line-height:1.25;font-family:Ubuntu;-inkscape-font-specification:'Ubuntu Bold';text-align:center;letter-spacing:0px;word-spacing:0px;writing-mode:lr-tb;text-anchor:middle;fill:#ffffff;fill-opacity:1;stroke:none;stroke-width:0.264583" />
      <path
         sodipodi:nodetypes="csscccscsccccc"
         inkscape:connector-curvature="0"
         id="path1863"
         d="m 121.21268,162.28531 c 0,0 -1.9149,2.0685 -3.10057,2.79804 -0.94379,0.58071 -2.02078,1.16731 -3.10057,1.59889 -1.28901,0.5152 -3.99722,1.16832 -3.99722,1.16832 l 3.99722,1.56806 v 19.88457 c -0.20443,0.95192 -0.63619,1.86903 -1.19917,2.66338 -0.74456,1.05056 -2.79805,2.66337 -2.79805,2.66337 0,0 6.13181,-0.39971 9.20219,-0.39971 3.07039,0 9.20257,0.39971 9.20257,0.39971 0,0 0.63618,-1.86902 1.19916,-2.66337 0.74456,-1.05057 2.79805,-2.66338 2.79805,-2.66338 h -12.20361 z"
         style="font-style:normal;font-variant:normal;font-weight:bold;font-stretch:normal;font-size:52.6246px;line-height:1.25;font-family:Ubuntu;-inkscape-font-specification:'Ubuntu Bold';text-align:center;letter-spacing:0px;word-spacing:0px;writing-mode:lr-tb;text-anchor:middle;fill:#ffffff;fill-opacity:1;stroke:none;stroke-width:0.264583" />
      <path
         sodipodi:nodetypes="cacsccccacscscccsccscc"
         d="m 153.68538,188.93117 c 0,0 -1.90243,1.23689 -2.66335,2.06267 -0.77148,0.83726 -1.86391,2.86211 -1.86391,2.86211 0,0 -3.44954,0.79503 -5.0131,0.79503 -1.53706,0 -2.94161,-0.26501 -4.21366,-0.79503 -1.24555,-0.53002 -2.31884,-1.27204 -3.21988,-2.22608 -0.90103,-0.98054 -2.10683,-3.49814 -2.10683,-3.49814 v -9.82303 c 0,0 1.92758,-1.22177 2.7031,-2.0428 0.783,-0.82895 1.90367,-2.84223 1.90367,-2.84223 0,0 3.44954,-0.79503 4.9336,-0.79503 1.51056,0 2.88861,0.26501 4.13416,0.79503 1.27205,0.53002 2.35858,1.27205 3.25962,2.22609 0.90102,0.95404 2.10685,3.45838 2.10685,3.45838 z m -6.43974,-9.62427 c 0,0 -1.74907,-1.59006 -3.10062,-1.59006 -1.35155,0 -3.14037,1.59006 -3.14037,1.59006 v 8.66582 c 0,0 1.78882,1.59007 3.14037,1.59007 1.35155,0 3.10062,-1.59007 3.10062,-1.59007 z"
         style="font-style:normal;font-variant:normal;font-weight:bold;font-stretch:normal;font-size:52.6246px;line-height:1.25;font-family:Ubuntu;-inkscape-font-specification:'Ubuntu Bold';text-align:center;letter-spacing:0px;word-spacing:0px;writing-mode:lr-tb;text-anchor:middle;fill:#ffffff;fill-opacity:1;stroke:none;stroke-width:0.264583"
         id="path1865"
         inkscape:connector-curvature="0" />
      <path
         sodipodi:nodetypes="cccacccccaccccsascccaccccsascccaccccacsc"
         d="m 169.37743,182.6177 c -0.53001,2.01408 -1.0998,4.01491 -1.70931,6.00249 l -0.61563,2.8047 c 0,0 -2.0217,0.69475 -2.95871,1.19916 -1.03495,0.55715 -2.90518,1.99862 -2.90518,1.99862 -0.477,-1.11305 -0.99377,-2.4381 -1.55031,-3.97516 -0.5565,-1.53706 -1.13953,-3.20662 -1.74904,-5.00869 -0.58303,-1.82857 -1.19254,-3.74989 -1.82863,-5.76396 -0.60949,-2.04059 -0.10765,-0.20747 -0.69066,-2.27454 0,0 1.80531,-0.61923 2.57145,-1.1658 1.01595,-0.72478 2.57142,-2.72116 2.57142,-2.72116 0.21201,0.95404 0.43727,2.00084 0.67577,3.14038 0.26503,1.11304 0.53006,2.26583 0.79504,3.45838 0.29152,1.19254 0.58303,2.39834 0.87454,3.61738 0.159,0.59628 0.318,1.08268 0.477,1.55914 0.15905,0.47647 0.19468,0.70231 0.47705,0.70008 0.30718,-0.002 0.34119,-0.2733 0.50681,-0.76964 0.16562,-0.49634 0.32795,-0.99931 0.48695,-1.60883 0.34453,-1.21905 0.66253,-2.41159 0.95405,-3.57763 0.21964,-0.88073 0.50216,-1.74584 0.69745,-2.6323 0,0 1.83414,-0.59845 2.61276,-1.14404 1.0341,-0.72462 2.61276,-2.74292 2.61276,-2.74292 0.21201,0.95404 0.45051,1.98758 0.71554,3.10062 0.26498,1.08655 0.54326,2.22609 0.83477,3.41864 0.29152,1.16604 0.59627,2.35858 0.91427,3.57763 0.15905,0.60952 0.32133,1.21242 0.487,1.80869 0.16562,0.59628 0.25265,0.56537 0.50682,0.56978 0.23036,0.004 0.31799,0.0762 0.47699,-0.50021 0.159,-0.5764 0.31805,-1.16273 0.47705,-1.75901 0.31799,-1.21904 0.60951,-2.42484 0.87454,-3.61738 0.53421,-2.26692 0.0999,-0.56205 0.57813,-2.7118 0,0 2.448,-0.56473 3.54694,-1.14404 1.32217,-0.69697 3.54694,-2.74292 3.54694,-2.74292 -0.58303,2.06708 -1.19254,4.12091 -1.82858,6.1615 -0.60952,2.01407 -1.21903,3.93539 -1.82854,5.76396 -1.05825,3.12832 -0.72995,2.92079 -1.70052,5.78607 0,0 -2.1159,0.69645 -3.10502,1.19917 -1.09727,0.5577 -3.10502,1.99861 -3.10502,1.99861 -0.66252,-2.01408 -1.31181,-4.01491 -1.94781,-6.00248 -0.63604,-1.98758 -1.21907,-3.98841 -1.74908,-6.00249 z"
         style="font-style:normal;font-variant:normal;font-weight:bold;font-stretch:normal;font-size:52.6246px;line-height:1.25;font-family:Ubuntu;-inkscape-font-specification:'Ubuntu Bold';text-align:center;letter-spacing:0px;word-spacing:0px;writing-mode:lr-tb;text-anchor:middle;fill:#ffffff;fill-opacity:1;stroke:none;stroke-width:0.264583"
         id="path1867"
         inkscape:connector-curvature="0" />
    </g>
    <path
       inkscape:connector-curvature="0"
       id="path959"
       d="m 83.02449,206.70726 -5.715115,8.35755 5.715115,8.35755 h 28.787 28.787 l 5.71511,-8.35755 -5.71511,-8.35755 h -28.787 z m 16.028571,3.21634 c 0.1742,0 0.314,0.055 0.419437,0.16506 0.11002,0.11001 0.16505,0.24294 0.16505,0.3988 0,0.16045 -0.055,0.29578 -0.16505,0.40579 -0.105437,0.11002 -0.245237,0.16506 -0.419437,0.16506 -0.174197,0 -0.316247,-0.055 -0.426267,-0.16506 -0.10544,-0.11001 -0.15822,-0.24534 -0.15822,-0.40579 0,-0.15586 0.0528,-0.28879 0.15822,-0.3988 0.11002,-0.11003 0.25207,-0.16506 0.426267,-0.16506 z m 20.214249,0.16506 c 0.32548,0 0.56605,0.0437 0.72191,0.13076 0.16047,0.0825 0.24078,0.21993 0.24078,0.41246 0,0.0871 -0.0182,0.16516 -0.0551,0.23392 -0.0318,0.0642 -0.071,0.11457 -0.1168,0.15124 -0.0871,-0.0275 -0.18114,-0.0506 -0.28201,-0.0689 -0.0963,-0.0183 -0.20631,-0.0274 -0.33008,-0.0274 -0.2109,0 -0.37132,0.039 -0.48134,0.11697 -0.11003,0.0733 -0.16506,0.19938 -0.16506,0.37818 v 0.26121 h 1.16898 c 0.0228,0.0458 0.046,0.10326 0.0689,0.17203 0.0278,0.0688 0.0414,0.14426 0.0414,0.22678 0,0.1467 -0.0344,0.25227 -0.10315,0.31644 -0.0642,0.0642 -0.14914,0.0962 -0.25457,0.0962 h -0.87318 v 2.24861 c -0.046,0.0137 -0.11012,0.0251 -0.19266,0.0343 -0.0825,0.0137 -0.17416,0.0206 -0.27498,0.0206 -0.20631,0 -0.35525,-0.032 -0.44693,-0.0962 -0.0917,-0.0688 -0.13757,-0.19945 -0.13757,-0.39199 v -2.92243 c 0,-0.22463 0.0369,-0.41946 0.11013,-0.58449 0.0779,-0.16503 0.18336,-0.29795 0.31628,-0.39881 0.13297,-0.10544 0.28873,-0.18334 0.46754,-0.23376 0.17876,-0.0504 0.37137,-0.0757 0.57767,-0.0757 z m 6.81309,0.41943 c 0.2063,0 0.35524,0.0344 0.44692,0.10315 0.0917,0.0688 0.13757,0.2041 0.13757,0.4058 v 2.53045 c 0,0.41258 -0.11695,0.73122 -0.3507,0.95584 -0.22925,0.22463 -0.557,0.33692 -0.9833,0.33692 -0.24755,0 -0.45153,-0.0413 -0.61194,-0.12379 -0.16046,-0.0825 -0.24077,-0.22695 -0.24077,-0.43324 0,-0.0871 0.0116,-0.16276 0.0344,-0.22694 0.0273,-0.0642 0.0573,-0.11457 0.0893,-0.15124 0.0825,0.0183 0.15814,0.0343 0.22692,0.0481 0.0733,0.009 0.149,0.0138 0.22693,0.0138 0.35302,0 0.52946,-0.18331 0.52946,-0.55005 v -2.85372 c 0.0505,-0.009 0.12144,-0.0207 0.21312,-0.0344 0.0963,-0.0137 0.19034,-0.0206 0.28201,-0.0206 z m -32.135852,0.0412 c 0.215462,0 0.385013,0.0344 0.508785,0.10316 0.123773,0.0688 0.217827,0.18105 0.282008,0.33691 0.05044,0.12378 0.103056,0.26375 0.158069,0.41961 0.05501,0.15128 0.11003,0.30707 0.165043,0.46753 0.05501,0.16044 0.107796,0.32088 0.158225,0.48132 0.05501,0.15587 0.105396,0.30031 0.151241,0.43325 h 0.03442 c 0.128357,-0.40341 0.256647,-0.79307 0.385003,-1.16897 0.128362,-0.38049 0.240651,-0.69912 0.33692,-0.95585 0.06417,-0.0321 0.144473,-0.0596 0.240747,-0.0825 0.100852,-0.0229 0.210908,-0.0344 0.330096,-0.0344 0.206284,0 0.371206,0.0299 0.494978,0.0895 0.123772,0.0596 0.197207,0.14661 0.220111,0.26122 0.01835,0.0917 0.03897,0.23149 0.0619,0.41944 0.0229,0.18795 0.04579,0.40342 0.06871,0.64638 0.02289,0.24296 0.04579,0.49969 0.06872,0.77016 0.02289,0.26589 0.04357,0.52486 0.06189,0.77699 0.01835,0.24755 0.03447,0.47453 0.04827,0.68082 0.01375,0.20629 0.0229,0.36673 0.02744,0.48133 -0.06876,0.0413 -0.142028,0.071 -0.219955,0.0893 -0.07793,0.0229 -0.176622,0.0345 -0.295815,0.0345 -0.151276,0 -0.281806,-0.0275 -0.391826,-0.0825 -0.105437,-0.055 -0.16288,-0.16282 -0.172028,-0.32327 -0.03209,-0.53176 -0.05496,-1.01757 -0.06872,-1.45764 -0.0091,-0.44467 -0.02067,-0.80922 -0.03442,-1.09345 h -0.03427 c -0.05501,0.19255 -0.135305,0.43552 -0.240747,0.72892 -0.100847,0.29336 -0.226904,0.67153 -0.37818,1.13453 -0.05501,0.0458 -0.126031,0.0826 -0.213132,0.11013 -0.0871,0.0275 -0.185638,0.0412 -0.295658,0.0412 -0.146692,0 -0.2705,-0.0184 -0.371352,-0.0551 -0.09627,-0.0367 -0.160414,-0.10082 -0.192502,-0.19251 -0.146697,-0.42632 -0.272743,-0.77935 -0.37818,-1.05899 -0.100852,-0.28421 -0.181145,-0.52945 -0.240747,-0.73572 h -0.02744 c -0.01375,0.28421 -0.02527,0.54543 -0.03442,0.7838 -0.0092,0.2338 -0.01824,0.46302 -0.02744,0.68765 -0.0045,0.22462 -0.01147,0.4516 -0.02062,0.68081 -0.0091,0.22922 -0.02067,0.48131 -0.03442,0.75636 -0.05044,0.0183 -0.119208,0.0344 -0.206304,0.0481 -0.08252,0.0183 -0.169536,0.0276 -0.26122,0.0276 -0.178785,0 -0.318584,-0.0298 -0.419441,-0.0893 -0.100847,-0.0642 -0.151397,-0.17199 -0.151397,-0.32328 0,-0.0871 0.0025,-0.20625 0.007,-0.35754 0.0092,-0.15587 0.01824,-0.3323 0.02744,-0.52942 0.01375,-0.20171 0.02749,-0.41716 0.04124,-0.64637 0.01835,-0.22922 0.03432,-0.46083 0.04806,-0.69463 0.01835,-0.23838 0.03447,-0.47208 0.04827,-0.70129 0.01375,-0.2338 0.02749,-0.44926 0.04124,-0.64638 0.03669,-0.0504 0.109935,-0.10545 0.219955,-0.16505 0.114604,-0.0642 0.27281,-0.0963 0.474514,-0.0963 z m 27.179402,0.0138 c 0.2017,0 0.34614,0.0366 0.43322,0.10998 0.0917,0.0688 0.13762,0.19721 0.13762,0.38517 v 0.44689 h 0.94884 c 0.0227,0.0458 0.046,0.10535 0.0687,0.17869 0.0228,0.0688 0.0344,0.14219 0.0344,0.22012 0,0.14669 -0.0344,0.25211 -0.1032,0.31628 -0.0641,0.0642 -0.14894,0.0963 -0.25437,0.0963 h -0.69447 v 1.33402 c 0,0.12836 0.0415,0.22225 0.12378,0.28185 0.0825,0.055 0.19705,0.0825 0.34377,0.0825 0.0687,0 0.14217,-0.007 0.2201,-0.0206 0.0779,-0.0183 0.14429,-0.039 0.19933,-0.0619 0.0414,0.0458 0.0756,0.0986 0.10315,0.15822 0.0278,0.0596 0.0414,0.12837 0.0414,0.2063 0,0.16046 -0.0641,0.29339 -0.1925,0.39881 -0.12378,0.10086 -0.34165,0.15125 -0.65338,0.15125 -0.38507,0 -0.68532,-0.087 -0.90078,-0.26122 -0.21545,-0.17878 -0.3231,-0.46768 -0.3231,-0.86649 v -3.08749 c 0.0505,-0.0137 0.1168,-0.0275 0.19933,-0.0412 0.0825,-0.0183 0.17194,-0.0274 0.26822,-0.0274 z m 7.0486,0.0138 h 2.27606 c 0.0273,0.0458 0.0526,0.10311 0.0755,0.17187 0.0227,0.0688 0.0344,0.14667 0.0344,0.23377 0,0.15127 -0.0344,0.26357 -0.10315,0.33692 -0.0642,0.0733 -0.15581,0.10997 -0.27499,0.10997 h -1.52655 v 0.77016 h 1.59524 c 0.0273,0.0458 0.0528,0.10328 0.0757,0.17204 0.0227,0.0688 0.0344,0.14682 0.0344,0.23392 0,0.15128 -0.0318,0.26357 -0.0962,0.33691 -0.0642,0.0688 -0.15582,0.103 -0.27504,0.103 h -1.334 v 0.85951 h 1.82216 c 0.0273,0.0458 0.0528,0.10551 0.0757,0.17886 0.0228,0.0733 0.0344,0.1535 0.0344,0.24058 0,0.15128 -0.0344,0.26134 -0.10315,0.33009 -0.0642,0.0688 -0.15344,0.10332 -0.26807,0.10332 h -2.04226 c -0.17421,0 -0.31401,-0.0505 -0.41943,-0.1514 -0.10088,-0.10544 -0.15142,-0.2454 -0.15142,-0.41959 v -3.03925 c 0,-0.17419 0.0505,-0.31177 0.15142,-0.41262 0.10542,-0.10542 0.24522,-0.15806 0.41943,-0.15806 z m -26.1734,0.75636 c 0.49967,0 0.8847,0.11005 1.15517,0.33009 0.27505,0.22005 0.41262,0.53405 0.41262,0.94204 v 2.13165 c -0.0504,0.0137 -0.11682,0.0253 -0.19933,0.0344 -0.0825,0.0138 -0.17417,0.0206 -0.27503,0.0206 -0.20628,0 -0.35537,-0.0321 -0.44705,-0.0963 -0.0871,-0.0688 -0.13061,-0.19945 -0.13061,-0.39198 v -1.67094 c 0,-0.16045 -0.0482,-0.27962 -0.14442,-0.35755 -0.0963,-0.0779 -0.22456,-0.11696 -0.385,-0.11696 -0.11002,0 -0.21096,0.0137 -0.30264,0.0412 -0.0917,0.0275 -0.17646,0.0619 -0.25439,0.10315 v 2.43429 c -0.0458,0.0137 -0.10999,0.0251 -0.1925,0.0343 -0.0825,0.0137 -0.17433,0.0206 -0.27519,0.0206 -0.20628,0 -0.35521,-0.032 -0.44689,-0.0962 -0.0917,-0.0688 -0.1376,-0.19944 -0.1376,-0.39198 v -2.12482 c 0,-0.11918 0.0253,-0.21532 0.0757,-0.28867 0.0504,-0.0734 0.12144,-0.14213 0.21313,-0.20631 0.14669,-0.10544 0.33464,-0.19022 0.56385,-0.25439 0.2338,-0.0642 0.49053,-0.0963 0.77017,-0.0963 z m 3.87939,0 c 0.2338,0 0.44702,0.0366 0.63956,0.10998 0.19712,0.0688 0.36443,0.1673 0.50196,0.29565 0.14211,0.12836 0.25216,0.28192 0.33009,0.4607 0.0779,0.17879 0.1168,0.37362 0.1168,0.5845 0,0.14669 -0.0389,0.25674 -0.1168,0.33009 -0.0779,0.0733 -0.18798,0.12151 -0.33009,0.14441 l -1.7879,0.2682 c 0.0642,0.19254 0.17647,0.3301 0.33692,0.41262 0.16044,0.0779 0.34616,0.1168 0.55703,0.1168 0.19253,0 0.37361,-0.025 0.54322,-0.0754 0.16961,-0.055 0.30718,-0.11483 0.41262,-0.17901 0.0688,0.0458 0.12603,0.10566 0.17187,0.17901 0.0458,0.0734 0.0687,0.15333 0.0687,0.24043 0,0.10544 -0.032,0.19724 -0.0962,0.27519 -0.0642,0.0779 -0.15359,0.14432 -0.2682,0.19931 -0.11002,0.0504 -0.24294,0.0872 -0.39881,0.11015 -0.15127,0.0275 -0.31859,0.0411 -0.50196,0.0411 -0.27047,0 -0.52032,-0.0365 -0.74953,-0.10983 -0.22921,-0.0779 -0.42628,-0.19022 -0.59131,-0.33692 -0.16503,-0.15127 -0.29572,-0.33938 -0.39199,-0.56401 -0.0917,-0.22463 -0.13759,-0.48824 -0.13759,-0.7908 0,-0.29338 0.0459,-0.54788 0.13759,-0.76334 0.0963,-0.21545 0.22232,-0.39397 0.37818,-0.53608 0.16045,-0.14212 0.34152,-0.24544 0.54323,-0.30962 0.20629,-0.0688 0.41711,-0.10316 0.63257,-0.10316 z m 3.8505,0 c 0.31631,0 0.56393,0.0573 0.74272,0.17187 0.18337,0.1146 0.27502,0.25905 0.27502,0.43325 0,0.0825 -0.0206,0.15818 -0.0619,0.22694 -0.0367,0.0688 -0.0826,0.12827 -0.13759,0.1787 -0.0825,-0.0458 -0.18106,-0.0871 -0.29566,-0.1238 -0.11002,-0.0366 -0.23367,-0.0549 -0.3712,-0.0549 -0.24754,0 -0.45853,0.0801 -0.63273,0.24059 -0.1742,0.15586 -0.26121,0.38732 -0.26121,0.69446 0,0.30714 0.0825,0.53651 0.24757,0.6878 0.16961,0.15128 0.38268,0.22678 0.63939,0.22678 0.14669,0 0.27514,-0.0181 0.38516,-0.0548 0.11461,-0.0412 0.21075,-0.0827 0.28868,-0.12394 0.0779,0.0596 0.1376,0.12389 0.17885,0.19266 0.0458,0.0642 0.0687,0.14416 0.0687,0.24043 0,0.1742 -0.0917,0.31431 -0.27503,0.41975 -0.18336,0.10544 -0.4377,0.15791 -0.76318,0.15791 -0.27505,0 -0.52731,-0.0365 -0.75652,-0.10982 -0.22462,-0.0734 -0.41705,-0.18341 -0.5775,-0.33009 -0.16045,-0.14671 -0.28425,-0.32794 -0.37135,-0.54339 -0.0871,-0.22004 -0.13061,-0.47454 -0.13061,-0.76334 0,-0.29797 0.0482,-0.55679 0.14441,-0.77683 0.0963,-0.22004 0.2268,-0.40351 0.39183,-0.55021 0.16503,-0.14668 0.35762,-0.25675 0.57766,-0.33009 0.22005,-0.0734 0.4515,-0.10998 0.69446,-0.10998 z m 5.70713,0 c 0.23838,0 0.45369,0.0251 0.64622,0.0755 0.1971,0.0458 0.36459,0.11926 0.50211,0.22012 0.13752,0.10085 0.24295,0.22913 0.31628,0.385 0.0779,0.15586 0.1168,0.33933 0.1168,0.55021 v 1.55414 c 0,0.11918 -0.0318,0.21548 -0.0961,0.28883 -0.0596,0.0688 -0.13302,0.12827 -0.22015,0.17869 -0.14207,0.0871 -0.31628,0.15364 -0.52258,0.19949 -0.20629,0.0458 -0.43999,0.0687 -0.70129,0.0687 -0.47217,0 -0.84808,-0.0894 -1.12771,-0.2682 -0.27964,-0.18336 -0.4196,-0.46073 -0.4196,-0.83205 0,-0.31632 0.094,-0.5569 0.28201,-0.72193 0.18795,-0.16503 0.47667,-0.26836 0.86633,-0.30961 l 0.91458,-0.0962 v -0.0757 c 0,-0.1467 -0.0595,-0.2542 -0.17869,-0.32296 -0.11918,-0.0688 -0.29115,-0.10314 -0.51577,-0.10314 -0.1742,0 -0.34615,0.0205 -0.51577,0.0617 -0.16503,0.0412 -0.31396,0.0894 -0.4469,0.14442 -0.055,-0.0367 -0.10316,-0.0917 -0.14441,-0.16505 -0.0367,-0.0779 -0.0551,-0.16047 -0.0551,-0.24757 0,-0.2017 0.10541,-0.34599 0.31628,-0.43309 0.13295,-0.0504 0.28666,-0.0872 0.46087,-0.11014 0.17878,-0.0275 0.35298,-0.0412 0.52259,-0.0412 z m -2.43856,0.007 c 0.47676,0 0.71509,0.16046 0.71509,0.48133 0,0.0779 -0.0114,0.14896 -0.0343,0.21314 -0.0229,0.0642 -0.0482,0.11921 -0.0757,0.16504 -0.10543,-0.0229 -0.23388,-0.0343 -0.38516,-0.0343 -0.13294,0 -0.26587,0.016 -0.39881,0.0481 -0.13294,0.0321 -0.24972,0.0756 -0.35057,0.13061 v 2.39302 c -0.0458,0.0137 -0.11014,0.0251 -0.19266,0.0343 -0.0825,0.0137 -0.17417,0.0206 -0.27502,0.0206 -0.20629,0 -0.35521,-0.032 -0.4469,-0.0962 -0.0917,-0.0688 -0.13759,-0.19944 -0.13759,-0.39198 v -2.0972 c 0,-0.12836 0.0321,-0.23842 0.0963,-0.33009 0.0642,-0.0917 0.15359,-0.17199 0.2682,-0.24075 0.15128,-0.0917 0.33236,-0.16271 0.54323,-0.21314 0.21546,-0.055 0.44004,-0.0825 0.67383,-0.0825 z m -13.999459,0.0757 c 0.20628,0 0.35297,0.0344 0.44007,0.10316 0.0917,0.0688 0.137437,0.19928 0.137437,0.39183 v 2.82626 c -0.0458,0.0137 -0.109987,0.0251 -0.192507,0.0343 -0.0825,0.0137 -0.17417,0.0206 -0.27502,0.0206 -0.206287,0 -0.355207,-0.032 -0.446897,-0.0962 -0.0871,-0.0688 -0.13077,-0.19945 -0.13077,-0.39199 v -2.82595 c 0.0458,-0.0138 0.11015,-0.0275 0.19266,-0.0412 0.0825,-0.0138 0.17417,-0.0208 0.275027,-0.0208 z m 6.887369,0.69446 c -0.19712,0 -0.36219,0.0619 -0.49513,0.18569 -0.12837,0.11919 -0.20403,0.29338 -0.22694,0.52259 l 1.31339,-0.21313 c -0.009,-0.11919 -0.062,-0.23148 -0.15823,-0.33692 -0.0963,-0.10543 -0.24055,-0.15823 -0.43309,-0.15823 z m 10.11451,1.22405 -0.56386,0.0481 c -0.14669,0.0137 -0.26602,0.0482 -0.35771,0.10315 -0.0871,0.0504 -0.13061,0.12833 -0.13061,0.23377 0,0.11001 0.0413,0.19719 0.12379,0.26138 0.0825,0.0642 0.21784,0.0962 0.40579,0.0962 0.10085,0 0.19939,-0.009 0.29566,-0.0275 0.10085,-0.0229 0.17651,-0.0504 0.22694,-0.0825 z m -33.252469,0.54021 c 0.657312,3e-5 1.190134,0.53309 1.190084,1.1904 -4.1e-5,0.65725 -0.532832,1.19005 -1.190084,1.19008 -0.657251,-3e-5 -1.190053,-0.53283 -1.190083,-1.19008 -6.1e-5,-0.65731 0.532766,-1.19037 1.190083,-1.1904 z m 58.127839,0 c 0.65732,3e-5 1.19016,0.53309 1.19011,1.1904 -5e-5,0.65725 -0.53284,1.19005 -1.19011,1.19008 -0.65727,6e-5 -1.19017,-0.53277 -1.19022,-1.19008 -5e-5,-0.65737 0.53285,-1.19045 1.19022,-1.1904 z m -39.00543,1.92375 c 0.49967,0 0.89158,0.10541 1.1758,0.31629 0.28421,0.21086 0.42642,0.50199 0.42642,0.87331 0,0.2338 -0.0597,0.42639 -0.17885,0.57767 -0.11461,0.14669 -0.26129,0.26122 -0.44007,0.34374 0.0963,0.0412 0.18792,0.0918 0.27502,0.15139 0.0871,0.0596 0.16276,0.13286 0.22694,0.21997 0.0688,0.0825 0.12155,0.18105 0.15822,0.29565 0.0412,0.11002 0.0619,0.23608 0.0619,0.37817 0,0.19254 -0.0413,0.36674 -0.12379,0.5226 -0.0825,0.15586 -0.19945,0.28879 -0.35072,0.39881 -0.1467,0.10544 -0.32553,0.18574 -0.5364,0.24075 -0.20629,0.0596 -0.43776,0.0893 -0.69447,0.0893 -0.25213,0 -0.48135,-0.0298 -0.68764,-0.0893 -0.20629,-0.055 -0.38513,-0.13755 -0.5364,-0.24757 -0.1467,-0.11002 -0.26123,-0.24295 -0.34375,-0.39881 -0.0825,-0.15587 -0.12378,-0.3323 -0.12378,-0.52942 0,-0.2613 0.0665,-0.47676 0.19948,-0.64638 0.13753,-0.1742 0.30245,-0.30712 0.49498,-0.39881 -0.18795,-0.0917 -0.33223,-0.21085 -0.43308,-0.35755 -0.10085,-0.15128 -0.1514,-0.33251 -0.1514,-0.54339 0,-0.18336 0.0368,-0.34828 0.11014,-0.49497 0.0779,-0.15129 0.18558,-0.27733 0.3231,-0.37818 0.14211,-0.10544 0.30943,-0.18573 0.50197,-0.24075 0.19712,-0.055 0.41258,-0.0825 0.64638,-0.0825 z m 5.42591,0 c 0.49968,0 0.89158,0.10541 1.1758,0.31629 0.28421,0.21086 0.42626,0.50199 0.42626,0.87331 0,0.2338 -0.0595,0.42639 -0.17869,0.57767 -0.11461,0.14669 -0.26129,0.26122 -0.44007,0.34374 0.0963,0.0412 0.18792,0.0918 0.27502,0.15139 0.0871,0.0596 0.16276,0.13286 0.22694,0.21997 0.0688,0.0825 0.12139,0.18105 0.15806,0.29565 0.0412,0.11002 0.0619,0.23608 0.0619,0.37817 0,0.19254 -0.0412,0.36674 -0.12378,0.5226 -0.0825,0.15586 -0.19944,0.28879 -0.35072,0.39881 -0.14669,0.10544 -0.32537,0.18574 -0.53624,0.24075 -0.20629,0.0596 -0.43776,0.0893 -0.69447,0.0893 -0.25213,0 -0.48135,-0.0298 -0.68764,-0.0893 -0.20629,-0.055 -0.38512,-0.13755 -0.53641,-0.24757 -0.14669,-0.11002 -0.26138,-0.24295 -0.34389,-0.39881 -0.0825,-0.15587 -0.12363,-0.3323 -0.12363,-0.52942 0,-0.2613 0.0664,-0.47676 0.19932,-0.64638 0.13753,-0.1742 0.30261,-0.30712 0.49514,-0.39881 -0.18795,-0.0917 -0.33239,-0.21085 -0.43324,-0.35755 -0.10086,-0.15128 -0.15124,-0.33251 -0.15124,-0.54339 0,-0.18336 0.0366,-0.34828 0.10998,-0.49497 0.0779,-0.15129 0.18574,-0.27733 0.32326,-0.37818 0.14211,-0.10544 0.30943,-0.18573 0.50197,-0.24075 0.19712,-0.055 0.41258,-0.0825 0.64638,-0.0825 z m 13.28244,0 c 0.49969,0 0.89157,0.10541 1.17581,0.31629 0.28423,0.21086 0.4264,0.50199 0.4264,0.87331 0,0.2338 -0.0596,0.42639 -0.17886,0.57767 -0.11457,0.14669 -0.26129,0.26122 -0.44005,0.34374 0.0963,0.0412 0.18791,0.0918 0.27504,0.15139 0.0871,0.0596 0.16274,0.13286 0.22692,0.21997 0.0688,0.0825 0.12155,0.18105 0.15824,0.29565 0.0415,0.11002 0.0619,0.23608 0.0619,0.37817 0,0.19254 -0.0415,0.36674 -0.12378,0.5226 -0.0825,0.15586 -0.19943,0.28879 -0.35069,0.39881 -0.14672,0.10544 -0.32553,0.18574 -0.53643,0.24075 -0.20631,0.0596 -0.43773,0.0893 -0.69447,0.0893 -0.25215,0 -0.48135,-0.0298 -0.68765,-0.0893 -0.20625,-0.055 -0.38511,-0.13755 -0.53638,-0.24757 -0.14672,-0.11002 -0.26124,-0.24295 -0.34377,-0.39881 -0.0825,-0.15587 -0.12377,-0.3323 -0.12377,-0.52942 0,-0.2613 0.0666,-0.47676 0.19948,-0.64638 0.13752,-0.1742 0.30248,-0.30712 0.49498,-0.39881 -0.18795,-0.0917 -0.33224,-0.21085 -0.43307,-0.35755 -0.10088,-0.15128 -0.15142,-0.33251 -0.15142,-0.54339 0,-0.18336 0.0369,-0.34828 0.11018,-0.49497 0.0779,-0.15129 0.18553,-0.27733 0.3231,-0.37818 0.14207,-0.10544 0.3094,-0.18573 0.50196,-0.24075 0.19711,-0.055 0.41256,-0.0825 0.64636,-0.0825 z m 5.20864,0.0139 c 0.53178,0 0.95121,0.17643 1.25834,0.52941 0.30713,0.35299 0.46088,0.86869 0.46088,1.54716 0,0.38965 -0.048,0.72892 -0.14445,1.01773 -0.0917,0.2888 -0.22237,0.52954 -0.39198,0.72208 -0.16962,0.18794 -0.37354,0.33 -0.61194,0.42627 -0.2338,0.0917 -0.49292,0.13759 -0.77715,0.13759 -0.34838,0 -0.62801,-0.0459 -0.83886,-0.13759 -0.20631,-0.0963 -0.30946,-0.24071 -0.30946,-0.43325 0,-0.0917 0.0207,-0.17871 0.0619,-0.26122 0.046,-0.0825 0.0964,-0.14442 0.15142,-0.18568 0.11917,0.055 0.24522,0.10076 0.37819,0.13744 0.13292,0.0321 0.26584,0.0483 0.39881,0.0483 0.31168,0 0.56155,-0.0872 0.74951,-0.26138 0.18795,-0.1742 0.28186,-0.4194 0.28186,-0.73572 -0.0871,0.0734 -0.20403,0.13749 -0.35075,0.1925 -0.14207,0.0504 -0.30698,0.0757 -0.49494,0.0757 -0.2063,0 -0.39664,-0.0275 -0.57085,-0.0825 -0.16961,-0.055 -0.31855,-0.13979 -0.44692,-0.25439 -0.12377,-0.11461 -0.22228,-0.25682 -0.29566,-0.42643 -0.0687,-0.16962 -0.10315,-0.36893 -0.10315,-0.59813 0,-0.20171 0.0344,-0.38966 0.10315,-0.56386 0.0734,-0.17879 0.17654,-0.33474 0.30951,-0.46768 0.13752,-0.13294 0.3048,-0.23612 0.50191,-0.30947 0.19716,-0.0779 0.42398,-0.1168 0.68067,-0.1168 z m -28.478475,0.0479 c 0.174196,0 0.314004,0.0529 0.419441,0.15838 0.105436,0.10543 0.158063,0.24508 0.158063,0.41928 v 3.64452 c -0.05044,0.0137 -0.116808,0.0275 -0.199324,0.0412 -0.08252,0.0138 -0.174333,0.0206 -0.275185,0.0206 -0.206289,0 -0.355215,-0.0344 -0.446894,-0.10315 -0.09168,-0.0688 -0.13759,-0.1993 -0.13759,-0.39183 v -2.73676 l -0.721922,0.25439 c -0.06418,-0.0412 -0.128326,-0.0987 -0.192502,-0.17202 -0.06418,-0.0779 -0.09633,-0.18334 -0.09633,-0.31629 0,-0.24755 0.151327,-0.42399 0.453879,-0.52941 l 0.804444,-0.28884 z m 18.708365,0 c 0.1742,0 0.31399,0.0529 0.41942,0.15838 0.10547,0.10543 0.15809,0.24508 0.15809,0.41928 v 3.64452 c -0.0505,0.0137 -0.1168,0.0275 -0.19933,0.0412 -0.0825,0.0138 -0.17432,0.0206 -0.27519,0.0206 -0.20628,0 -0.35521,-0.0344 -0.44689,-0.10315 -0.0917,-0.0688 -0.1376,-0.1993 -0.1376,-0.39183 v -2.73676 l -0.72191,0.25439 c -0.0642,-0.0412 -0.12832,-0.0987 -0.19251,-0.17202 -0.0642,-0.0779 -0.0963,-0.18334 -0.0963,-0.31629 0,-0.24755 0.15132,-0.42399 0.45387,-0.52941 l 0.80445,-0.28884 z m -14.14688,0.73589 c -0.16503,0 -0.29796,0.0413 -0.39881,0.12378 -0.0963,0.0825 -0.14442,0.19032 -0.14442,0.32327 0,0.16044 0.055,0.28186 0.16505,0.36437 0.11002,0.0825 0.25206,0.13978 0.42627,0.17187 0.16503,-0.0504 0.29107,-0.11905 0.37817,-0.20615 0.0917,-0.0871 0.1376,-0.19715 0.1376,-0.33009 0,-0.14211 -0.0504,-0.25216 -0.15125,-0.3301 -0.0963,-0.0779 -0.23383,-0.11695 -0.41261,-0.11695 z m 5.42591,0 c -0.16504,0 -0.29812,0.0413 -0.39897,0.12378 -0.0963,0.0825 -0.14426,0.19032 -0.14426,0.32327 0,0.16044 0.0549,0.28186 0.16489,0.36437 0.11002,0.0825 0.25222,0.13978 0.42643,0.17187 0.16502,-0.0504 0.29107,-0.11905 0.37818,-0.20615 0.0917,-0.0871 0.13759,-0.19715 0.13759,-0.33009 0,-0.14211 -0.0506,-0.25216 -0.1514,-0.3301 -0.0963,-0.0779 -0.23368,-0.11695 -0.41246,-0.11695 z m 13.28244,0 c -0.16502,0 -0.29794,0.0413 -0.39881,0.12378 -0.0963,0.0825 -0.1444,0.19032 -0.1444,0.32327 0,0.16044 0.055,0.28186 0.16502,0.36437 0.11002,0.0825 0.25209,0.13978 0.4263,0.17187 0.16501,-0.0504 0.29106,-0.11905 0.37814,-0.20615 0.0917,-0.0871 0.13762,-0.19715 0.13762,-0.33009 0,-0.14211 -0.0505,-0.25216 -0.15127,-0.3301 -0.0962,-0.0779 -0.23379,-0.11695 -0.4126,-0.11695 z m 5.20864,0.0551 c -0.17416,0 -0.30935,0.0528 -0.40563,0.15823 -0.0962,0.10542 -0.1444,0.24973 -0.1444,0.43308 0,0.19253 0.0573,0.33923 0.17189,0.44008 0.11457,0.10084 0.25902,0.15139 0.43323,0.15139 0.11462,0 0.22465,-0.0253 0.33008,-0.0757 0.10547,-0.055 0.188,-0.12139 0.24759,-0.19932 v -0.0551 c 0,-0.27505 -0.055,-0.48587 -0.16506,-0.63257 -0.10543,-0.14669 -0.2614,-0.22012 -0.4677,-0.22012 z m -14.56678,1.25833 h 1.49907 c 0.0229,0.0412 0.0482,0.10092 0.0757,0.17885 0.0275,0.0734 0.0412,0.15125 0.0412,0.23376 0,0.15127 -0.0368,0.26133 -0.11014,0.33009 -0.0688,0.0688 -0.16042,0.10316 -0.27502,0.10316 h -1.5059 c -0.0275,-0.0458 -0.0526,-0.10551 -0.0755,-0.17885 -0.0229,-0.0733 -0.0344,-0.15126 -0.0344,-0.23376 0,-0.15128 0.0344,-0.26134 0.10315,-0.3301 0.0688,-0.0688 0.16266,-0.10315 0.28185,-0.10315 z m -9.41893,0.35072 c -0.19253,0.0596 -0.33698,0.14438 -0.43325,0.2544 -0.0917,0.11002 -0.13759,0.23383 -0.13759,0.37135 0,0.16504 0.0574,0.29333 0.17203,0.38501 0.11919,0.0917 0.27499,0.13758 0.46753,0.13758 0.19712,0 0.35532,-0.0435 0.47451,-0.13061 0.11918,-0.0871 0.17869,-0.21778 0.17869,-0.39198 0,-0.15586 -0.0619,-0.28655 -0.18567,-0.39199 -0.12378,-0.11001 -0.30245,-0.18792 -0.53625,-0.23376 z m 5.42575,0 c -0.19254,0.0596 -0.33697,0.14438 -0.43324,0.2544 -0.0917,0.11002 -0.13744,0.23383 -0.13744,0.37135 0,0.16504 0.0573,0.29333 0.17187,0.38501 0.11919,0.0917 0.27515,0.13758 0.46769,0.13758 0.19712,0 0.35516,-0.0435 0.47435,-0.13061 0.11919,-0.0871 0.17885,-0.21778 0.17885,-0.39198 0,-0.15586 -0.0619,-0.28655 -0.18567,-0.39199 -0.12378,-0.11001 -0.30262,-0.18792 -0.53641,-0.23376 z m 13.28263,0 c -0.19255,0.0596 -0.337,0.14438 -0.43328,0.2544 -0.0917,0.11002 -0.13757,0.23383 -0.13757,0.37135 0,0.16504 0.0574,0.29333 0.17204,0.38501 0.11918,0.0917 0.27499,0.13758 0.4675,0.13758 0.19715,0 0.35534,-0.0435 0.47452,-0.13061 0.11917,-0.0871 0.17871,-0.21778 0.17871,-0.39198 0,-0.15586 -0.0619,-0.28655 -0.18569,-0.39199 -0.12377,-0.11001 -0.30243,-0.18792 -0.53623,-0.23376 z m -21.353419,0.70145 c 0.18796,0 0.336877,0.0595 0.446897,0.17869 0.11002,0.1192 0.16505,0.26588 0.16505,0.44008 0,0.1742 -0.055,0.32088 -0.16505,0.44007 -0.11002,0.11919 -0.258937,0.17885 -0.446897,0.17885 -0.19253,0 -0.343857,-0.0597 -0.453877,-0.17885 -0.10544,-0.11919 -0.15806,-0.26587 -0.15806,-0.44007 0,-0.1742 0.0526,-0.32088 0.15806,-0.44008 0.11002,-0.11918 0.261347,-0.17869 0.453877,-0.17869 z m 5.425759,0 c 0.18795,0 0.33704,0.0595 0.44705,0.17869 0.11003,0.1192 0.16505,0.26588 0.16505,0.44008 0,0.1742 -0.055,0.32088 -0.16505,0.44007 -0.11001,0.11919 -0.2591,0.17885 -0.44705,0.17885 -0.19254,0 -0.3437,-0.0597 -0.45372,-0.17885 -0.10543,-0.11919 -0.15822,-0.26587 -0.15822,-0.44007 0,-0.1742 0.0528,-0.32088 0.15822,-0.44008 0.11002,-0.11918 0.26118,-0.17869 0.45372,-0.17869 z m 13.28261,0 c 0.18795,0 0.3369,0.0595 0.44687,0.17869 0.11003,0.1192 0.16506,0.26588 0.16506,0.44008 0,0.1742 -0.055,0.32088 -0.16506,0.44007 -0.10997,0.11919 -0.25892,0.17885 -0.44687,0.17885 -0.19256,0 -0.34388,-0.0597 -0.4539,-0.17885 -0.10543,-0.11919 -0.15804,-0.26587 -0.15804,-0.44007 0,-0.1742 0.0526,-0.32088 0.15804,-0.44008 0.11002,-0.11918 0.26134,-0.17869 0.4539,-0.17869 z m 5.42576,0 c 0.18796,0 0.337,0.0595 0.44702,0.17869 0.11003,0.1192 0.16507,0.26588 0.16507,0.44008 0,0.1742 -0.055,0.32088 -0.16507,0.44007 -0.11002,0.11919 -0.25906,0.17885 -0.44702,0.17885 -0.19256,0 -0.34372,-0.0597 -0.45375,-0.17885 -0.10542,-0.11919 -0.15819,-0.26587 -0.15819,-0.44007 0,-0.1742 0.0528,-0.32088 0.15819,-0.44008 0.11003,-0.11918 0.26119,-0.17869 0.45375,-0.17869 z"
       style="vector-effect:none;fill:#000000;fill-opacity:0.5;stroke:none;stroke-width:5.29168;stroke-linecap:round;stroke-linejoin:round;stroke-miterlimit:4;stroke-dasharray:none;stroke-dashoffset:9.99938;stroke-opacity:1;paint-order:normal"
       sodipodi:nodetypes="cccccccccscscscscsccscccscscccscscccscsscccccscsscscscccssccsscccccccccccscccccccccsccccccccscccccccsccscscccccccccccscccscscscscccscscscccccccscsccccscsccccscsscsscccccsccscsscsccccscsscccccccccsccccsccsscccscccscccccscscccscscscccscscccscccsccscsscccscscccscscccscccccsscsscccscsscccccccsccscsccccsccccscccscscccccccccscscscscccccscccscccscccscccsscscccccscccscccscccscccsscscccccscccscccscccscccsccscccscscccssccscccscccccccscsscscccscccccscsscscccscccscscccscsscscccscsscscccscsscscsccscssccscsccscsccscscsccccscscsccccscscsccscscscscsscscscscsscscscscsscscscscs" />
    <path
       inkscape:connector-curvature="0"
       id="path1873"
       d="m 83.02449,205.64892 -5.715115,8.35755 5.715115,8.35755 h 28.787 28.787 l 5.71511,-8.35755 -5.71511,-8.35755 h -28.787 z m 16.028572,3.21634 c 0.174196,0 0.313999,0.055 0.419441,0.16506 0.11002,0.11001 0.165043,0.24294 0.165043,0.3988 0,0.16045 -0.05502,0.29578 -0.165043,0.40579 -0.105442,0.11002 -0.245245,0.16506 -0.419441,0.16506 -0.174201,0 -0.316244,-0.055 -0.426269,-0.16506 -0.105436,-0.11001 -0.15822,-0.24534 -0.15822,-0.40579 0,-0.15586 0.05278,-0.28879 0.15822,-0.3988 0.110025,-0.11003 0.252068,-0.16506 0.426269,-0.16506 z m 20.214248,0.16506 c 0.32548,0 0.56605,0.0437 0.72191,0.13076 0.16047,0.0825 0.24078,0.21993 0.24078,0.41246 0,0.0871 -0.0182,0.16516 -0.0551,0.23392 -0.0318,0.0642 -0.071,0.11457 -0.1168,0.15124 -0.0871,-0.0275 -0.18114,-0.0506 -0.28201,-0.0689 -0.0963,-0.0183 -0.20631,-0.0274 -0.33008,-0.0274 -0.2109,0 -0.37132,0.039 -0.48134,0.11697 -0.11003,0.0733 -0.16506,0.19938 -0.16506,0.37818 v 0.26121 h 1.16898 c 0.0228,0.0458 0.046,0.10326 0.0689,0.17203 0.0278,0.0688 0.0414,0.14426 0.0414,0.22678 0,0.1467 -0.0344,0.25227 -0.10315,0.31644 -0.0642,0.0642 -0.14914,0.0962 -0.25457,0.0962 h -0.87318 v 2.24861 c -0.046,0.0137 -0.11012,0.0251 -0.19266,0.0343 -0.0825,0.0137 -0.17416,0.0206 -0.27498,0.0206 -0.20631,0 -0.35525,-0.032 -0.44693,-0.0962 -0.0917,-0.0688 -0.13757,-0.19945 -0.13757,-0.39199 v -2.92243 c 0,-0.22463 0.0369,-0.41946 0.11013,-0.58449 0.0779,-0.16503 0.18336,-0.29795 0.31628,-0.39881 0.13297,-0.10544 0.28873,-0.18334 0.46754,-0.23376 0.17876,-0.0504 0.37137,-0.0757 0.57767,-0.0757 z m 6.81309,0.41943 c 0.2063,0 0.35524,0.0344 0.44692,0.10315 0.0917,0.0688 0.13757,0.2041 0.13757,0.4058 v 2.53045 c 0,0.41258 -0.11695,0.73122 -0.3507,0.95584 -0.22925,0.22463 -0.557,0.33692 -0.9833,0.33692 -0.24755,0 -0.45153,-0.0413 -0.61194,-0.12379 -0.16046,-0.0825 -0.24077,-0.22695 -0.24077,-0.43324 0,-0.0871 0.0116,-0.16276 0.0344,-0.22694 0.0273,-0.0642 0.0573,-0.11457 0.0893,-0.15124 0.0825,0.0183 0.15814,0.0343 0.22692,0.0481 0.0733,0.009 0.149,0.0138 0.22693,0.0138 0.35302,0 0.52946,-0.18331 0.52946,-0.55005 v -2.85372 c 0.0505,-0.009 0.12144,-0.0207 0.21312,-0.0344 0.0963,-0.0137 0.19034,-0.0206 0.28201,-0.0206 z m -32.135852,0.0412 c 0.215462,0 0.385013,0.0344 0.508785,0.10316 0.123773,0.0688 0.217827,0.18105 0.282008,0.33691 0.05044,0.12378 0.103056,0.26375 0.158069,0.41961 0.05501,0.15128 0.11003,0.30707 0.165043,0.46753 0.05501,0.16044 0.107796,0.32088 0.158225,0.48132 0.05501,0.15587 0.105396,0.30031 0.151241,0.43325 h 0.03442 c 0.128357,-0.40341 0.256647,-0.79307 0.385003,-1.16897 0.128362,-0.38049 0.240651,-0.69912 0.33692,-0.95585 0.06417,-0.0321 0.144473,-0.0596 0.240747,-0.0825 0.100852,-0.0229 0.210908,-0.0344 0.330096,-0.0344 0.206284,0 0.371206,0.0299 0.494978,0.0895 0.123772,0.0596 0.197207,0.14661 0.220111,0.26122 0.01835,0.0917 0.03897,0.23149 0.0619,0.41944 0.0229,0.18795 0.04579,0.40342 0.06871,0.64638 0.02289,0.24296 0.04579,0.49969 0.06872,0.77016 0.02289,0.26589 0.04357,0.52486 0.06189,0.77699 0.01835,0.24755 0.03447,0.47453 0.04827,0.68082 0.01375,0.20629 0.0229,0.36673 0.02744,0.48133 -0.06876,0.0413 -0.142028,0.071 -0.219955,0.0893 -0.07793,0.0229 -0.176622,0.0345 -0.295815,0.0345 -0.151276,0 -0.281806,-0.0275 -0.391826,-0.0825 -0.105437,-0.055 -0.16288,-0.16282 -0.172028,-0.32327 -0.03209,-0.53176 -0.05496,-1.01757 -0.06872,-1.45764 -0.0091,-0.44467 -0.02067,-0.80922 -0.03442,-1.09345 h -0.03427 c -0.05501,0.19255 -0.135305,0.43552 -0.240747,0.72892 -0.100847,0.29336 -0.226904,0.67153 -0.37818,1.13453 -0.05501,0.0458 -0.126031,0.0826 -0.213132,0.11013 -0.0871,0.0275 -0.185638,0.0412 -0.295658,0.0412 -0.146692,0 -0.2705,-0.0184 -0.371352,-0.0551 -0.09627,-0.0367 -0.160414,-0.10082 -0.192502,-0.19251 -0.146697,-0.42632 -0.272743,-0.77935 -0.37818,-1.05899 -0.100852,-0.28421 -0.181145,-0.52945 -0.240747,-0.73572 h -0.02744 c -0.01375,0.28421 -0.02527,0.54543 -0.03442,0.7838 -0.0092,0.2338 -0.01824,0.46302 -0.02744,0.68765 -0.0045,0.22462 -0.01147,0.4516 -0.02062,0.68081 -0.0091,0.22922 -0.02067,0.48131 -0.03442,0.75636 -0.05044,0.0183 -0.119208,0.0344 -0.206304,0.0481 -0.08252,0.0183 -0.169536,0.0276 -0.26122,0.0276 -0.178785,0 -0.318584,-0.0298 -0.419441,-0.0893 -0.100847,-0.0642 -0.151397,-0.17199 -0.151397,-0.32328 0,-0.0871 0.0025,-0.20625 0.007,-0.35754 0.0092,-0.15587 0.01824,-0.3323 0.02744,-0.52942 0.01375,-0.20171 0.02749,-0.41716 0.04124,-0.64637 0.01835,-0.22922 0.03432,-0.46083 0.04806,-0.69463 0.01835,-0.23838 0.03447,-0.47208 0.04827,-0.70129 0.01375,-0.2338 0.02749,-0.44926 0.04124,-0.64638 0.03669,-0.0504 0.109935,-0.10545 0.219955,-0.16505 0.114604,-0.0642 0.27281,-0.0963 0.474514,-0.0963 z m 27.179402,0.0138 c 0.2017,0 0.34614,0.0366 0.43322,0.10998 0.0917,0.0688 0.13762,0.19721 0.13762,0.38517 v 0.44689 h 0.94884 c 0.0227,0.0458 0.046,0.10535 0.0687,0.17869 0.0228,0.0688 0.0344,0.14219 0.0344,0.22012 0,0.14669 -0.0344,0.25211 -0.1032,0.31628 -0.0641,0.0642 -0.14894,0.0963 -0.25437,0.0963 h -0.69447 v 1.33402 c 0,0.12836 0.0415,0.22225 0.12378,0.28185 0.0825,0.055 0.19705,0.0825 0.34377,0.0825 0.0687,0 0.14217,-0.007 0.2201,-0.0206 0.0779,-0.0183 0.14429,-0.039 0.19933,-0.0619 0.0414,0.0458 0.0756,0.0986 0.10315,0.15822 0.0278,0.0596 0.0414,0.12837 0.0414,0.2063 0,0.16046 -0.0641,0.29339 -0.1925,0.39881 -0.12378,0.10086 -0.34165,0.15125 -0.65338,0.15125 -0.38507,0 -0.68532,-0.087 -0.90078,-0.26122 -0.21545,-0.17878 -0.3231,-0.46768 -0.3231,-0.86649 v -3.08749 c 0.0505,-0.0137 0.1168,-0.0275 0.19933,-0.0412 0.0825,-0.0183 0.17194,-0.0274 0.26822,-0.0274 z m 7.0486,0.0138 h 2.27606 c 0.0273,0.0458 0.0526,0.10311 0.0755,0.17187 0.0227,0.0688 0.0344,0.14667 0.0344,0.23377 0,0.15127 -0.0344,0.26357 -0.10315,0.33692 -0.0642,0.0733 -0.15581,0.10997 -0.27499,0.10997 h -1.52655 v 0.77016 h 1.59524 c 0.0273,0.0458 0.0528,0.10328 0.0757,0.17204 0.0227,0.0688 0.0344,0.14682 0.0344,0.23392 0,0.15128 -0.0318,0.26357 -0.0962,0.33691 -0.0642,0.0688 -0.15582,0.103 -0.27504,0.103 h -1.334 v 0.85951 h 1.82216 c 0.0273,0.0458 0.0528,0.10551 0.0757,0.17886 0.0228,0.0733 0.0344,0.1535 0.0344,0.24058 0,0.15128 -0.0344,0.26134 -0.10315,0.33009 -0.0642,0.0688 -0.15344,0.10332 -0.26807,0.10332 h -2.04226 c -0.17421,0 -0.31401,-0.0505 -0.41943,-0.1514 -0.10088,-0.10544 -0.15142,-0.2454 -0.15142,-0.41959 v -3.03925 c 0,-0.17419 0.0505,-0.31177 0.15142,-0.41262 0.10542,-0.10542 0.24522,-0.15806 0.41943,-0.15806 z m -26.1734,0.75636 c 0.49967,0 0.8847,0.11005 1.15517,0.33009 0.27505,0.22005 0.41262,0.53405 0.41262,0.94204 v 2.13165 c -0.0504,0.0137 -0.11682,0.0253 -0.19933,0.0344 -0.0825,0.0138 -0.17417,0.0206 -0.27503,0.0206 -0.20628,0 -0.35537,-0.0321 -0.44705,-0.0963 -0.0871,-0.0688 -0.13061,-0.19945 -0.13061,-0.39198 v -1.67094 c 0,-0.16045 -0.0482,-0.27962 -0.14442,-0.35755 -0.0963,-0.0779 -0.22456,-0.11696 -0.385,-0.11696 -0.11002,0 -0.21096,0.0137 -0.30264,0.0412 -0.0917,0.0275 -0.17646,0.0619 -0.25439,0.10315 v 2.43429 c -0.0458,0.0137 -0.10999,0.0251 -0.1925,0.0343 -0.0825,0.0137 -0.17433,0.0206 -0.27519,0.0206 -0.20628,0 -0.35521,-0.032 -0.44689,-0.0962 -0.0917,-0.0688 -0.1376,-0.19944 -0.1376,-0.39198 v -2.12482 c 0,-0.11918 0.0253,-0.21532 0.0757,-0.28867 0.0504,-0.0734 0.12144,-0.14213 0.21313,-0.20631 0.14669,-0.10544 0.33464,-0.19022 0.56385,-0.25439 0.2338,-0.0642 0.49053,-0.0963 0.77017,-0.0963 z m 3.87939,0 c 0.2338,0 0.44702,0.0366 0.63956,0.10998 0.19712,0.0688 0.36443,0.1673 0.50196,0.29565 0.14211,0.12836 0.25216,0.28192 0.33009,0.4607 0.0779,0.17879 0.1168,0.37362 0.1168,0.5845 0,0.14669 -0.0389,0.25674 -0.1168,0.33009 -0.0779,0.0733 -0.18798,0.12151 -0.33009,0.14441 l -1.7879,0.2682 c 0.0642,0.19254 0.17647,0.3301 0.33692,0.41262 0.16044,0.0779 0.34616,0.1168 0.55703,0.1168 0.19253,0 0.37361,-0.025 0.54322,-0.0754 0.16961,-0.055 0.30718,-0.11483 0.41262,-0.17901 0.0688,0.0458 0.12603,0.10566 0.17187,0.17901 0.0458,0.0734 0.0687,0.15333 0.0687,0.24043 0,0.10544 -0.032,0.19724 -0.0962,0.27519 -0.0642,0.0779 -0.15359,0.14432 -0.2682,0.19931 -0.11002,0.0504 -0.24294,0.0872 -0.39881,0.11015 -0.15127,0.0275 -0.31859,0.0411 -0.50196,0.0411 -0.27047,0 -0.52032,-0.0365 -0.74953,-0.10983 -0.22921,-0.0779 -0.42628,-0.19022 -0.59131,-0.33692 -0.16503,-0.15127 -0.29572,-0.33938 -0.39199,-0.56401 -0.0917,-0.22463 -0.13759,-0.48824 -0.13759,-0.7908 0,-0.29338 0.0459,-0.54788 0.13759,-0.76334 0.0963,-0.21545 0.22232,-0.39397 0.37818,-0.53608 0.16045,-0.14212 0.34152,-0.24544 0.54323,-0.30962 0.20629,-0.0688 0.41711,-0.10316 0.63257,-0.10316 z m 3.8505,0 c 0.31631,0 0.56393,0.0573 0.74272,0.17187 0.18337,0.1146 0.27502,0.25905 0.27502,0.43325 0,0.0825 -0.0206,0.15818 -0.0619,0.22694 -0.0367,0.0688 -0.0826,0.12827 -0.13759,0.1787 -0.0825,-0.0458 -0.18106,-0.0871 -0.29566,-0.1238 -0.11002,-0.0366 -0.23367,-0.0549 -0.3712,-0.0549 -0.24754,0 -0.45853,0.0801 -0.63273,0.24059 -0.1742,0.15586 -0.26121,0.38732 -0.26121,0.69446 0,0.30714 0.0825,0.53651 0.24757,0.6878 0.16961,0.15128 0.38268,0.22678 0.63939,0.22678 0.14669,0 0.27514,-0.0181 0.38516,-0.0548 0.11461,-0.0412 0.21075,-0.0827 0.28868,-0.12394 0.0779,0.0596 0.1376,0.12389 0.17885,0.19266 0.0458,0.0642 0.0687,0.14416 0.0687,0.24043 0,0.1742 -0.0917,0.31431 -0.27503,0.41975 -0.18336,0.10544 -0.4377,0.15791 -0.76318,0.15791 -0.27505,0 -0.52731,-0.0365 -0.75652,-0.10982 -0.22462,-0.0734 -0.41705,-0.18341 -0.5775,-0.33009 -0.16045,-0.14671 -0.28425,-0.32794 -0.37135,-0.54339 -0.0871,-0.22004 -0.13061,-0.47454 -0.13061,-0.76334 0,-0.29797 0.0482,-0.55679 0.14441,-0.77683 0.0963,-0.22004 0.2268,-0.40351 0.39183,-0.55021 0.16503,-0.14668 0.35762,-0.25675 0.57766,-0.33009 0.22005,-0.0734 0.4515,-0.10998 0.69446,-0.10998 z m 5.70713,0 c 0.23838,0 0.45369,0.0251 0.64622,0.0755 0.1971,0.0458 0.36459,0.11926 0.50211,0.22012 0.13752,0.10085 0.24295,0.22913 0.31628,0.385 0.0779,0.15586 0.1168,0.33933 0.1168,0.55021 v 1.55414 c 0,0.11918 -0.0318,0.21548 -0.0961,0.28883 -0.0596,0.0688 -0.13302,0.12827 -0.22015,0.17869 -0.14207,0.0871 -0.31628,0.15364 -0.52258,0.19949 -0.20629,0.0458 -0.43999,0.0687 -0.70129,0.0687 -0.47217,0 -0.84808,-0.0894 -1.12771,-0.2682 -0.27964,-0.18336 -0.4196,-0.46073 -0.4196,-0.83205 0,-0.31632 0.094,-0.5569 0.28201,-0.72193 0.18795,-0.16503 0.47667,-0.26836 0.86633,-0.30961 l 0.91458,-0.0962 v -0.0757 c 0,-0.1467 -0.0595,-0.2542 -0.17869,-0.32296 -0.11918,-0.0688 -0.29115,-0.10314 -0.51577,-0.10314 -0.1742,0 -0.34615,0.0205 -0.51577,0.0617 -0.16503,0.0412 -0.31396,0.0894 -0.4469,0.14442 -0.055,-0.0367 -0.10316,-0.0917 -0.14441,-0.16505 -0.0367,-0.0779 -0.0551,-0.16047 -0.0551,-0.24757 0,-0.2017 0.10541,-0.34599 0.31628,-0.43309 0.13295,-0.0504 0.28666,-0.0872 0.46087,-0.11014 0.17878,-0.0275 0.35298,-0.0412 0.52259,-0.0412 z m -2.43856,0.007 c 0.47676,0 0.71509,0.16046 0.71509,0.48133 0,0.0779 -0.0114,0.14896 -0.0343,0.21314 -0.0229,0.0642 -0.0482,0.11921 -0.0757,0.16504 -0.10543,-0.0229 -0.23388,-0.0343 -0.38516,-0.0343 -0.13294,0 -0.26587,0.016 -0.39881,0.0481 -0.13294,0.0321 -0.24972,0.0756 -0.35057,0.13061 v 2.39302 c -0.0458,0.0137 -0.11014,0.0251 -0.19266,0.0343 -0.0825,0.0137 -0.17417,0.0206 -0.27502,0.0206 -0.20629,0 -0.35521,-0.032 -0.4469,-0.0962 -0.0917,-0.0688 -0.13759,-0.19944 -0.13759,-0.39198 v -2.0972 c 0,-0.12836 0.0321,-0.23842 0.0963,-0.33009 0.0642,-0.0917 0.15359,-0.17199 0.2682,-0.24075 0.15128,-0.0917 0.33236,-0.16271 0.54323,-0.21314 0.21546,-0.055 0.44004,-0.0825 0.67383,-0.0825 z m -13.99946,0.0757 c 0.206284,0 0.352971,0.0344 0.440072,0.10316 0.09168,0.0688 0.137433,0.19928 0.137433,0.39183 v 2.82626 c -0.04584,0.0137 -0.109985,0.0251 -0.192502,0.0343 -0.08252,0.0137 -0.17417,0.0206 -0.275023,0.0206 -0.206289,0 -0.355209,-0.032 -0.446899,-0.0962 -0.08709,-0.0688 -0.130767,-0.19945 -0.130767,-0.39199 v -2.82595 c 0.04584,-0.0138 0.110147,-0.0275 0.192663,-0.0412 0.08252,-0.0138 0.174171,-0.0208 0.275023,-0.0208 z m 6.88737,0.69446 c -0.19712,0 -0.36219,0.0619 -0.49513,0.18569 -0.12837,0.11919 -0.20403,0.29338 -0.22694,0.52259 l 1.31339,-0.21313 c -0.009,-0.11919 -0.062,-0.23148 -0.15823,-0.33692 -0.0963,-0.10543 -0.24055,-0.15823 -0.43309,-0.15823 z m 10.11451,1.22405 -0.56386,0.0481 c -0.14669,0.0137 -0.26602,0.0482 -0.35771,0.10315 -0.0871,0.0504 -0.13061,0.12833 -0.13061,0.23377 0,0.11001 0.0413,0.19719 0.12379,0.26138 0.0825,0.0642 0.21784,0.0962 0.40579,0.0962 0.10085,0 0.19939,-0.009 0.29566,-0.0275 0.10085,-0.0229 0.17651,-0.0504 0.22694,-0.0825 z m -33.252469,0.54021 c 0.657312,3e-5 1.190134,0.53309 1.190084,1.1904 -4.1e-5,0.65725 -0.532832,1.19005 -1.190084,1.19008 -0.657251,-3e-5 -1.190053,-0.53283 -1.190083,-1.19008 -6.1e-5,-0.65731 0.532766,-1.19037 1.190083,-1.1904 z m 58.127839,0 c 0.65732,3e-5 1.19016,0.53309 1.19011,1.1904 -5e-5,0.65725 -0.53284,1.19005 -1.19011,1.19008 -0.65727,6e-5 -1.19017,-0.53277 -1.19022,-1.19008 -5e-5,-0.65737 0.53285,-1.19045 1.19022,-1.1904 z m -39.00543,1.92375 c 0.49967,0 0.89158,0.10541 1.1758,0.31629 0.28421,0.21086 0.42642,0.50199 0.42642,0.87331 0,0.2338 -0.0597,0.42639 -0.17885,0.57767 -0.11461,0.14669 -0.26129,0.26122 -0.44007,0.34374 0.0963,0.0412 0.18792,0.0918 0.27502,0.15139 0.0871,0.0596 0.16276,0.13286 0.22694,0.21997 0.0688,0.0825 0.12155,0.18105 0.15822,0.29565 0.0412,0.11002 0.0619,0.23608 0.0619,0.37817 0,0.19254 -0.0413,0.36674 -0.12379,0.5226 -0.0825,0.15586 -0.19945,0.28879 -0.35072,0.39881 -0.1467,0.10544 -0.32553,0.18574 -0.5364,0.24075 -0.20629,0.0596 -0.43776,0.0893 -0.69447,0.0893 -0.25213,0 -0.48135,-0.0298 -0.68764,-0.0893 -0.20629,-0.055 -0.38513,-0.13755 -0.5364,-0.24757 -0.1467,-0.11002 -0.26123,-0.24295 -0.34375,-0.39881 -0.0825,-0.15587 -0.12378,-0.3323 -0.12378,-0.52942 0,-0.2613 0.0665,-0.47676 0.19948,-0.64638 0.13753,-0.1742 0.30245,-0.30712 0.49498,-0.39881 -0.18795,-0.0917 -0.33223,-0.21085 -0.43308,-0.35755 -0.10085,-0.15128 -0.1514,-0.33251 -0.1514,-0.54339 0,-0.18336 0.0368,-0.34828 0.11014,-0.49497 0.0779,-0.15129 0.18558,-0.27733 0.3231,-0.37818 0.14211,-0.10544 0.30943,-0.18573 0.50197,-0.24075 0.19712,-0.055 0.41258,-0.0825 0.64638,-0.0825 z m 5.42591,0 c 0.49968,0 0.89158,0.10541 1.1758,0.31629 0.28421,0.21086 0.42626,0.50199 0.42626,0.87331 0,0.2338 -0.0595,0.42639 -0.17869,0.57767 -0.11461,0.14669 -0.26129,0.26122 -0.44007,0.34374 0.0963,0.0412 0.18792,0.0918 0.27502,0.15139 0.0871,0.0596 0.16276,0.13286 0.22694,0.21997 0.0688,0.0825 0.12139,0.18105 0.15806,0.29565 0.0412,0.11002 0.0619,0.23608 0.0619,0.37817 0,0.19254 -0.0412,0.36674 -0.12378,0.5226 -0.0825,0.15586 -0.19944,0.28879 -0.35072,0.39881 -0.14669,0.10544 -0.32537,0.18574 -0.53624,0.24075 -0.20629,0.0596 -0.43776,0.0893 -0.69447,0.0893 -0.25213,0 -0.48135,-0.0298 -0.68764,-0.0893 -0.20629,-0.055 -0.38512,-0.13755 -0.53641,-0.24757 -0.14669,-0.11002 -0.26138,-0.24295 -0.34389,-0.39881 -0.0825,-0.15587 -0.12363,-0.3323 -0.12363,-0.52942 0,-0.2613 0.0664,-0.47676 0.19932,-0.64638 0.13753,-0.1742 0.30261,-0.30712 0.49514,-0.39881 -0.18795,-0.0917 -0.33239,-0.21085 -0.43324,-0.35755 -0.10086,-0.15128 -0.15124,-0.33251 -0.15124,-0.54339 0,-0.18336 0.0366,-0.34828 0.10998,-0.49497 0.0779,-0.15129 0.18574,-0.27733 0.32326,-0.37818 0.14211,-0.10544 0.30943,-0.18573 0.50197,-0.24075 0.19712,-0.055 0.41258,-0.0825 0.64638,-0.0825 z m 13.28244,0 c 0.49969,0 0.89157,0.10541 1.17581,0.31629 0.28423,0.21086 0.4264,0.50199 0.4264,0.87331 0,0.2338 -0.0596,0.42639 -0.17886,0.57767 -0.11457,0.14669 -0.26129,0.26122 -0.44005,0.34374 0.0963,0.0412 0.18791,0.0918 0.27504,0.15139 0.0871,0.0596 0.16274,0.13286 0.22692,0.21997 0.0688,0.0825 0.12155,0.18105 0.15824,0.29565 0.0415,0.11002 0.0619,0.23608 0.0619,0.37817 0,0.19254 -0.0415,0.36674 -0.12378,0.5226 -0.0825,0.15586 -0.19943,0.28879 -0.35069,0.39881 -0.14672,0.10544 -0.32553,0.18574 -0.53643,0.24075 -0.20631,0.0596 -0.43773,0.0893 -0.69447,0.0893 -0.25215,0 -0.48135,-0.0298 -0.68765,-0.0893 -0.20625,-0.055 -0.38511,-0.13755 -0.53638,-0.24757 -0.14672,-0.11002 -0.26124,-0.24295 -0.34377,-0.39881 -0.0825,-0.15587 -0.12377,-0.3323 -0.12377,-0.52942 0,-0.2613 0.0666,-0.47676 0.19948,-0.64638 0.13752,-0.1742 0.30248,-0.30712 0.49498,-0.39881 -0.18795,-0.0917 -0.33224,-0.21085 -0.43307,-0.35755 -0.10088,-0.15128 -0.15142,-0.33251 -0.15142,-0.54339 0,-0.18336 0.0369,-0.34828 0.11018,-0.49497 0.0779,-0.15129 0.18553,-0.27733 0.3231,-0.37818 0.14207,-0.10544 0.3094,-0.18573 0.50196,-0.24075 0.19711,-0.055 0.41256,-0.0825 0.64636,-0.0825 z m 5.20864,0.0139 c 0.53178,0 0.95121,0.17643 1.25834,0.52941 0.30713,0.35299 0.46088,0.86869 0.46088,1.54716 0,0.38965 -0.048,0.72892 -0.14445,1.01773 -0.0917,0.2888 -0.22237,0.52954 -0.39198,0.72208 -0.16962,0.18794 -0.37354,0.33 -0.61194,0.42627 -0.2338,0.0917 -0.49292,0.13759 -0.77715,0.13759 -0.34838,0 -0.62801,-0.0459 -0.83886,-0.13759 -0.20631,-0.0963 -0.30946,-0.24071 -0.30946,-0.43325 0,-0.0917 0.0207,-0.17871 0.0619,-0.26122 0.046,-0.0825 0.0964,-0.14442 0.15142,-0.18568 0.11917,0.055 0.24522,0.10076 0.37819,0.13744 0.13292,0.0321 0.26584,0.0483 0.39881,0.0483 0.31168,0 0.56155,-0.0872 0.74951,-0.26138 0.18795,-0.1742 0.28186,-0.4194 0.28186,-0.73572 -0.0871,0.0734 -0.20403,0.13749 -0.35075,0.1925 -0.14207,0.0504 -0.30698,0.0757 -0.49494,0.0757 -0.2063,0 -0.39664,-0.0275 -0.57085,-0.0825 -0.16961,-0.055 -0.31855,-0.13979 -0.44692,-0.25439 -0.12377,-0.11461 -0.22228,-0.25682 -0.29566,-0.42643 -0.0687,-0.16962 -0.10315,-0.36893 -0.10315,-0.59813 0,-0.20171 0.0344,-0.38966 0.10315,-0.56386 0.0734,-0.17879 0.17654,-0.33474 0.30951,-0.46768 0.13752,-0.13294 0.3048,-0.23612 0.50191,-0.30947 0.19716,-0.0779 0.42398,-0.1168 0.68067,-0.1168 z m -28.478475,0.0479 c 0.174196,0 0.314004,0.0529 0.419441,0.15838 0.105436,0.10543 0.158063,0.24508 0.158063,0.41928 v 3.64452 c -0.05044,0.0137 -0.116808,0.0275 -0.199324,0.0412 -0.08252,0.0138 -0.174333,0.0206 -0.275185,0.0206 -0.206289,0 -0.355215,-0.0344 -0.446894,-0.10315 -0.09168,-0.0688 -0.13759,-0.1993 -0.13759,-0.39183 v -2.73676 l -0.721922,0.25439 c -0.06418,-0.0412 -0.128326,-0.0987 -0.192502,-0.17202 -0.06418,-0.0779 -0.09633,-0.18334 -0.09633,-0.31629 0,-0.24755 0.151327,-0.42399 0.453879,-0.52941 l 0.804444,-0.28884 z m 18.708365,0 c 0.1742,0 0.31399,0.0529 0.41942,0.15838 0.10547,0.10543 0.15809,0.24508 0.15809,0.41928 v 3.64452 c -0.0505,0.0137 -0.1168,0.0275 -0.19933,0.0412 -0.0825,0.0138 -0.17432,0.0206 -0.27519,0.0206 -0.20628,0 -0.35521,-0.0344 -0.44689,-0.10315 -0.0917,-0.0688 -0.1376,-0.1993 -0.1376,-0.39183 v -2.73676 l -0.72191,0.25439 c -0.0642,-0.0412 -0.12832,-0.0987 -0.19251,-0.17202 -0.0642,-0.0779 -0.0963,-0.18334 -0.0963,-0.31629 0,-0.24755 0.15132,-0.42399 0.45387,-0.52941 l 0.80445,-0.28884 z m -14.14688,0.73589 c -0.16503,0 -0.29796,0.0413 -0.39881,0.12378 -0.0963,0.0825 -0.14442,0.19032 -0.14442,0.32327 0,0.16044 0.055,0.28186 0.16505,0.36437 0.11002,0.0825 0.25206,0.13978 0.42627,0.17187 0.16503,-0.0504 0.29107,-0.11905 0.37817,-0.20615 0.0917,-0.0871 0.1376,-0.19715 0.1376,-0.33009 0,-0.14211 -0.0504,-0.25216 -0.15125,-0.3301 -0.0963,-0.0779 -0.23383,-0.11695 -0.41261,-0.11695 z m 5.42591,0 c -0.16504,0 -0.29812,0.0413 -0.39897,0.12378 -0.0963,0.0825 -0.14426,0.19032 -0.14426,0.32327 0,0.16044 0.0549,0.28186 0.16489,0.36437 0.11002,0.0825 0.25222,0.13978 0.42643,0.17187 0.16502,-0.0504 0.29107,-0.11905 0.37818,-0.20615 0.0917,-0.0871 0.13759,-0.19715 0.13759,-0.33009 0,-0.14211 -0.0506,-0.25216 -0.1514,-0.3301 -0.0963,-0.0779 -0.23368,-0.11695 -0.41246,-0.11695 z m 13.28244,0 c -0.16502,0 -0.29794,0.0413 -0.39881,0.12378 -0.0963,0.0825 -0.1444,0.19032 -0.1444,0.32327 0,0.16044 0.055,0.28186 0.16502,0.36437 0.11002,0.0825 0.25209,0.13978 0.4263,0.17187 0.16501,-0.0504 0.29106,-0.11905 0.37814,-0.20615 0.0917,-0.0871 0.13762,-0.19715 0.13762,-0.33009 0,-0.14211 -0.0505,-0.25216 -0.15127,-0.3301 -0.0962,-0.0779 -0.23379,-0.11695 -0.4126,-0.11695 z m 5.20864,0.0551 c -0.17416,0 -0.30935,0.0528 -0.40563,0.15823 -0.0962,0.10542 -0.1444,0.24973 -0.1444,0.43308 0,0.19253 0.0573,0.33923 0.17189,0.44008 0.11457,0.10084 0.25902,0.15139 0.43323,0.15139 0.11462,0 0.22465,-0.0253 0.33008,-0.0757 0.10547,-0.055 0.188,-0.12139 0.24759,-0.19932 v -0.0551 c 0,-0.27505 -0.055,-0.48587 -0.16506,-0.63257 -0.10543,-0.14669 -0.2614,-0.22012 -0.4677,-0.22012 z m -14.56678,1.25833 h 1.49907 c 0.0229,0.0412 0.0482,0.10092 0.0757,0.17885 0.0275,0.0734 0.0412,0.15125 0.0412,0.23376 0,0.15127 -0.0368,0.26133 -0.11014,0.33009 -0.0688,0.0688 -0.16042,0.10316 -0.27502,0.10316 h -1.5059 c -0.0275,-0.0458 -0.0526,-0.10551 -0.0755,-0.17885 -0.0229,-0.0733 -0.0344,-0.15126 -0.0344,-0.23376 0,-0.15128 0.0344,-0.26134 0.10315,-0.3301 0.0688,-0.0688 0.16266,-0.10315 0.28185,-0.10315 z m -9.41893,0.35072 c -0.19253,0.0596 -0.33698,0.14438 -0.43325,0.2544 -0.0917,0.11002 -0.13759,0.23383 -0.13759,0.37135 0,0.16504 0.0574,0.29333 0.17203,0.38501 0.11919,0.0917 0.27499,0.13758 0.46753,0.13758 0.19712,0 0.35532,-0.0435 0.47451,-0.13061 0.11918,-0.0871 0.17869,-0.21778 0.17869,-0.39198 0,-0.15586 -0.0619,-0.28655 -0.18567,-0.39199 -0.12378,-0.11001 -0.30245,-0.18792 -0.53625,-0.23376 z m 5.42575,0 c -0.19254,0.0596 -0.33697,0.14438 -0.43324,0.2544 -0.0917,0.11002 -0.13744,0.23383 -0.13744,0.37135 0,0.16504 0.0573,0.29333 0.17187,0.38501 0.11919,0.0917 0.27515,0.13758 0.46769,0.13758 0.19712,0 0.35516,-0.0435 0.47435,-0.13061 0.11919,-0.0871 0.17885,-0.21778 0.17885,-0.39198 0,-0.15586 -0.0619,-0.28655 -0.18567,-0.39199 -0.12378,-0.11001 -0.30262,-0.18792 -0.53641,-0.23376 z m 13.28263,0 c -0.19255,0.0596 -0.337,0.14438 -0.43328,0.2544 -0.0917,0.11002 -0.13757,0.23383 -0.13757,0.37135 0,0.16504 0.0574,0.29333 0.17204,0.38501 0.11918,0.0917 0.27499,0.13758 0.4675,0.13758 0.19715,0 0.35534,-0.0435 0.47452,-0.13061 0.11917,-0.0871 0.17871,-0.21778 0.17871,-0.39198 0,-0.15586 -0.0619,-0.28655 -0.18569,-0.39199 -0.12377,-0.11001 -0.30243,-0.18792 -0.53623,-0.23376 z m -21.353416,0.70145 c 0.187953,0 0.336879,0.0595 0.446894,0.17869 0.110025,0.1192 0.165048,0.26588 0.165048,0.44008 0,0.1742 -0.05502,0.32088 -0.165048,0.44007 -0.110015,0.11919 -0.258941,0.17885 -0.446894,0.17885 -0.192537,0 -0.343859,-0.0597 -0.453879,-0.17885 -0.105436,-0.11919 -0.158063,-0.26587 -0.158063,-0.44007 0,-0.1742 0.05263,-0.32088 0.158063,-0.44008 0.11002,-0.11918 0.261342,-0.17869 0.453879,-0.17869 z m 5.425756,0 c 0.18795,0 0.33704,0.0595 0.44705,0.17869 0.11003,0.1192 0.16505,0.26588 0.16505,0.44008 0,0.1742 -0.055,0.32088 -0.16505,0.44007 -0.11001,0.11919 -0.2591,0.17885 -0.44705,0.17885 -0.19254,0 -0.3437,-0.0597 -0.45372,-0.17885 -0.10543,-0.11919 -0.15822,-0.26587 -0.15822,-0.44007 0,-0.1742 0.0528,-0.32088 0.15822,-0.44008 0.11002,-0.11918 0.26118,-0.17869 0.45372,-0.17869 z m 13.28261,0 c 0.18795,0 0.3369,0.0595 0.44687,0.17869 0.11003,0.1192 0.16506,0.26588 0.16506,0.44008 0,0.1742 -0.055,0.32088 -0.16506,0.44007 -0.10997,0.11919 -0.25892,0.17885 -0.44687,0.17885 -0.19256,0 -0.34388,-0.0597 -0.4539,-0.17885 -0.10543,-0.11919 -0.15804,-0.26587 -0.15804,-0.44007 0,-0.1742 0.0526,-0.32088 0.15804,-0.44008 0.11002,-0.11918 0.26134,-0.17869 0.4539,-0.17869 z m 5.42576,0 c 0.18796,0 0.337,0.0595 0.44702,0.17869 0.11003,0.1192 0.16507,0.26588 0.16507,0.44008 0,0.1742 -0.055,0.32088 -0.16507,0.44007 -0.11002,0.11919 -0.25906,0.17885 -0.44702,0.17885 -0.19256,0 -0.34372,-0.0597 -0.45375,-0.17885 -0.10542,-0.11919 -0.15819,-0.26587 -0.15819,-0.44007 0,-0.1742 0.0528,-0.32088 0.15819,-0.44008 0.11003,-0.11918 0.26119,-0.17869 0.45375,-0.17869 z"
       style="vector-effect:none;fill:#ffffff;fill-opacity:1;stroke:none;stroke-width:5.29168;stroke-linecap:round;stroke-linejoin:round;stroke-miterlimit:4;stroke-dasharray:none;stroke-dashoffset:9.99938;stroke-opacity:1;paint-order:normal"
       sodipodi:nodetypes="cccccccccscscscscsccscccscscccscscccscsscccccscsscscscccssccsscccccccccccscccccccccsccccccccscccccccsccscscccccccccccscccscscscscccscscscccccccscsccccscsccccscsscsscccccsccscsscsccccscsscccccccccsccccsccsscccscccscccccscscccscscscccscscccscccsccscsscccscscccscscccscccccsscsscccscsscccccccsccscsccccsccccscccscscccccccccscscscscccccscccscccscccscccsscscccccscccscccscccscccsscscccccscccscccscccscccsccscccscscccssccscccscccccccscsscscccscccccscsscscccscccscscccscsscscccscsscscccscsscscsccscssccscsccscsccscscsccccscscsccccscscsccscscscscsscscscscsscscscscsscscscscs" />
  </g>
</svg>
