<?xml version="1.0" encoding="UTF-8" standalone="no"?>
<!-- Created with Inkscape (http://www.inkscape.org/) -->

<svg
   xmlns:dc="http://purl.org/dc/elements/1.1/"
   xmlns:cc="http://creativecommons.org/ns#"
   xmlns:rdf="http://www.w3.org/1999/02/22-rdf-syntax-ns#"
   xmlns:svg="http://www.w3.org/2000/svg"
   xmlns="http://www.w3.org/2000/svg"
   xmlns:sodipodi="http://sodipodi.sourceforge.net/DTD/sodipodi-0.dtd"
   xmlns:inkscape="http://www.inkscape.org/namespaces/inkscape"
   width="32"
   height="32"
   viewBox="0 0 8.4666667 8.4666667"
   version="1.1"
   id="svg8"
   inkscape:version="0.92.4 (5da689c313, 2019-01-14)"
   sodipodi:docname="favicon.svg">
  <defs
     id="defs2">
    <filter
       id="filter2131"
       inkscape:label="Drop Shadow"
       style="color-interpolation-filters:sRGB;">
      <feFlood
         id="feFlood2121"
         result="flood"
         flood-color="rgb(0,0,0)"
         flood-opacity="0.498039" />
      <feComposite
         id="feComposite2123"
         result="composite1"
         operator="in"
         in2="SourceGraphic"
         in="flood" />
      <feGaussianBlur
         id="feGaussianBlur2125"
         result="blur"
         stdDeviation="5"
         in="composite1" />
      <feOffset
         id="feOffset2127"
         result="offset"
         dy="0"
         dx="0" />
      <feComposite
         id="feComposite2129"
         result="composite2"
         operator="over"
         in2="offset"
         in="SourceGraphic" />
    </filter>
    <filter
       id="filter2143"
       inkscape:label="Drop Shadow"
       style="color-interpolation-filters:sRGB;">
      <feFlood
         id="feFlood2133"
         result="flood"
         flood-color="rgb(0,0,0)"
         flood-opacity="0.498039" />
      <feComposite
         id="feComposite2135"
         result="composite1"
         operator="in"
         in2="SourceGraphic"
         in="flood" />
      <feGaussianBlur
         id="feGaussianBlur2137"
         result="blur"
         stdDeviation="5"
         in="composite1" />
      <feOffset
         id="feOffset2139"
         result="offset"
         dy="0"
         dx="0" />
      <feComposite
         id="feComposite2141"
         result="composite2"
         operator="over"
         in2="offset"
         in="SourceGraphic" />
    </filter>
  </defs>
  <sodipodi:namedview
     id="base"
     pagecolor="#ffffff"
     bordercolor="#666666"
     borderopacity="1.0"
     inkscape:pageopacity="0.0"
     inkscape:pageshadow="2"
     inkscape:zoom="11.2"
     inkscape:cx="13.679218"
     inkscape:cy="12.863392"
     inkscape:document-units="px"
     inkscape:current-layer="canvas"
     showgrid="false"
     inkscape:pagecheckerboard="true"
     borderlayer="true"
     showborder="true"
     inkscape:showpageshadow="false"
     units="px"
     inkscape:window-width="1920"
     inkscape:window-height="1017"
     inkscape:window-x="-8"
     inkscape:window-y="-8"
     inkscape:window-maximized="1" />
  <metadata
     id="metadata5">
    <rdf:RDF>
      <cc:Work
         rdf:about="">
        <dc:format>image/svg+xml</dc:format>
        <dc:type
           rdf:resource="http://purl.org/dc/dcmitype/StillImage" />
        <dc:title />
      </cc:Work>
    </rdf:RDF>
  </metadata>
  <style>
      path {
         fill: #353535;
      }

      @media (prefers-color-scheme: dark) {
         path {
            fill: #ffffff;
         }
      }
  </style>
  <g
     inkscape:label="Layer 1"
     inkscape:groupmode="layer"
     id="canvas"
     transform="translate(0,-288.53333)">
    <g
       id="favicon">
      <path
         sodipodi:nodetypes="ccccccccccccccccccsccccccccccccccsccccccc"
         inkscape:connector-curvature="0"
         id="path4508"
         d="m 2.1046805,294.73304 c -0.522377,0 -0.9602933,0.26553 -0.9602933,0.26553 l 0.2644655,0.44152 0.4325099,-8.3e-4 0.077121,0.0733 0.11572,0.0733 -0.5427757,8.3e-4 c 0.062009,0.17626 0.1592821,0.44151 0.1592821,0.44151 h 3.3240225 l 0.5186978,-0.89838 c -2.5433457,-0.0258 -2.6919294,-0.39676 -3.3887502,-0.39676 z m 5.217599,0.26553 c 0,0 -0.5155904,0.0669 -1.001621,0.10566 l -0.193907,0.33586 h 0.4950993 0.4332664 c 0.1011278,-0.18417 0.2671623,-0.44152 0.2671623,-0.44152 z m -1.1965591,0.11975 c -0.1272423,0.008 -0.2469987,0.013 -0.3479139,0.013 -0.033714,0 -0.065212,-3.1e-4 -0.098163,-4.3e-4 l -0.5180636,0.89731 h 0.438819 l 0.3395454,-0.58811 z m -0.083607,0.46837 -0.254907,0.44151 h 1.0222453 c 0,0 0.09884,-0.2653 0.1619393,-0.44151 H 6.4289752 Z m -4.3567382,0.60329 c 0,0 -0.03299,0.21078 -0.066513,0.31155 -0.036103,0.10851 -0.1436553,0.31158 -0.1436553,0.31158 0,0 1.2259905,0.2255 1.8127859,0.1811 1.1255854,-0.0852 1.2758687,-0.49103 2.0647179,-0.56047 0.3286367,-0.0289 1.5253956,0.13291 1.5253956,0.13291 0,0 -0.076735,-0.14483 -0.1024862,-0.22223 -0.023909,-0.0719 -8.309e-4,-0.15444 -8.309e-4,-0.15444 H 5.693803 5.0681767 Z"
         style="fill-opacity:1;stroke:none;stroke-width:0.26458323px;stroke-linecap:butt;stroke-linejoin:miter;stroke-opacity:1" />
      <path
         id="path4510"
         d="m 4.4974476,288.53333 c 0,0 -0.3997231,0.35037 -0.6452417,1.03365 -0.2196818,0.58197 -0.060118,1.12032 0.095944,1.39063 0.247791,0.4292 0.7455766,0.74354 1.0617799,1.04073 0.3057914,0.30579 0.5156984,0.63929 0.6276043,1.01293 0.052435,0.20403 0.085598,0.34501 0.069807,0.5251 -0.017728,0.19542 -0.07317,0.38069 -0.1925061,0.52308 -0.2558499,0.30529 -0.7783675,0.51765 -1.0319893,0.60241 -0.2035698,0.0671 -0.3259122,0.0985 -0.3259122,0.0985 0,0 0.1274855,0.0127 0.3559938,0.0121 0.2821729,0 0.9459298,-0.0134 1.5030802,-0.37738 0.2670692,-0.17448 0.4757774,-0.42596 0.5926507,-0.71386 0.1073546,-0.2618 0.146829,-0.53731 0.1319064,-0.80839 0,-0.45845 -0.263482,-1.02965 -0.6699538,-1.43613 -0.2433709,-0.21605 -0.6244582,-0.48596 -0.8336177,-0.63916 -0.3174927,-0.22907 -0.7297361,-0.58675 -0.7930146,-1.16482 -0.05374,-0.63056 0.053469,-1.09943 0.053469,-1.09943 z"
         style="fill-opacity:1;stroke:none;stroke-width:0.26458329px;stroke-linecap:butt;stroke-linejoin:miter;stroke-opacity:1"
         inkscape:connector-curvature="0"
         sodipodi:nodetypes="ccscccacccscccccc" />
      <path
         sodipodi:nodetypes="cccccccccccccacc"
         inkscape:connector-curvature="0"
         id="path4512"
         d="m 3.4096861,292.57339 c -0.2904773,-0.0274 -0.4641965,0.46669 -0.438842,0.75735 0.022188,0.0313 0.029846,0.0368 0.046053,0.0548 0.050157,0.0543 0.1028786,0.10345 0.1563828,0.14783 0.1160904,0.0963 0.2369531,0.1711 0.349305,0.2351 0.1678984,0.10262 0.3064437,0.1681 0.4091473,0.25635 0.1100938,0.0881 0.2497981,0.23179 0.277792,0.31085 0.059244,0.16641 -6.908e-4,0.30148 -6.908e-4,0.30148 0,0 0.1716616,-0.0686 0.2537224,-0.29259 0.039002,-0.10692 0.1178364,-0.34082 0.022961,-0.54409 -0.094183,-0.19078 -0.2463159,-0.35325 -0.4055938,-0.48333 -0.099693,-0.0868 -0.1990492,-0.16197 -0.2779931,-0.22567 -0.037201,-0.03 -0.071392,-0.0587 -0.1012085,-0.0871 -0.1082472,-0.0991 -0.1903579,-0.21098 -0.2573549,-0.33477 -0.016157,-0.0298 -0.018295,-0.0309 -0.033653,-0.0962 z"
         style="fill-opacity:1;stroke:none;stroke-width:0.26458329px;stroke-linecap:butt;stroke-linejoin:miter;stroke-opacity:1" />
      <path
         sodipodi:nodetypes="cccscccccccccacccc"
         inkscape:connector-curvature="0"
         id="path4514"
         d="m 2.8595053,290.06232 c 0,0 0.074408,0.10244 0.137582,0.27733 0.063966,0.17706 0.104128,0.41591 0.035445,0.6639 -0.059219,0.22561 -0.2347749,0.47538 -0.3923728,0.63299 -0.2525272,0.25253 -0.524926,0.4732 -0.7208483,0.79262 -0.194689,0.33335 -0.2410478,0.69865 -0.1544165,1.04034 0.094986,0.37165 0.3382913,0.67222 0.6228374,0.88242 0.2795035,0.19993 0.5725043,0.30662 0.801444,0.36087 0.2275903,0.0539 0.4054241,0.0597 0.4898174,0.0598 0.050599,-0.007 0.075507,-0.0122 0.075507,-0.0122 0,0 -0.023774,-0.009 -0.064407,-0.0243 -0.154326,-0.0912 -0.5233512,-0.33287 -0.6636525,-0.7172 -0.06397,-0.21357 -0.1253734,-0.50111 -0.055596,-0.68816 0.1047904,-0.2723 0.2850127,-0.50943 0.438842,-0.75735 0.1073493,-0.17302 0.234986,-0.30994 0.3375537,-0.50911 0.1985065,-0.38866 0.1981205,-0.78608 0.074343,-1.11422 -0.138249,-0.35902 -0.4113547,-0.59087 -0.6131937,-0.71816 -0.2057725,-0.12976 -0.3488836,-0.16957 -0.3488836,-0.16957 z"
         style="fill-opacity:1;stroke:none;stroke-width:0.26458329px;stroke-linecap:butt;stroke-linejoin:miter;stroke-opacity:1" />
    </g>
  </g>
</svg>
