<?xml version="1.0" encoding="UTF-8" standalone="no"?>
<svg
   xmlns:dc="http://purl.org/dc/elements/1.1/"
   xmlns:cc="http://creativecommons.org/ns#"
   xmlns:rdf="http://www.w3.org/1999/02/22-rdf-syntax-ns#"
   xmlns:svg="http://www.w3.org/2000/svg"
   xmlns="http://www.w3.org/2000/svg"
   xmlns:sodipodi="http://sodipodi.sourceforge.net/DTD/sodipodi-0.dtd"
   xmlns:inkscape="http://www.inkscape.org/namespaces/inkscape"
   width="556.75146"
   height="215.53865"
   viewBox="0 0 147.30715 57.027934"
   version="1.1"
   id="svg8"
   inkscape:version="1.0.2-2 (e86c870879, 2021-01-15)"
   sodipodi:docname="logo.svg"
   inkscape:export-filename="C:\Users\onigi\Desktop\drawing.png"
   inkscape:export-xdpi="96"
   inkscape:export-ydpi="96">
  <defs
     id="defs2">
    <filter
       inkscape:collect="always"
       style="color-interpolation-filters:sRGB"
       id="filter965"
       x="-0.0081592465"
       width="1.0163185"
       y="-0.022672483"
       height="1.045345">
      <feGaussianBlur
         inkscape:collect="always"
         stdDeviation="0.49520122"
         id="feGaussianBlur967" />
    </filter>
  </defs>
  <sodipodi:namedview
     id="base"
     pagecolor="#8d8d8d"
     bordercolor="#606060"
     borderopacity="1"
     inkscape:pageopacity="0"
     inkscape:pageshadow="2"
     inkscape:zoom="0.99911116"
     inkscape:cx="173.0997"
     inkscape:cy="232.51902"
     inkscape:document-units="px"
     inkscape:current-layer="layer1"
     showgrid="false"
     units="px"
     showborder="true"
     inkscape:showpageshadow="false"
     borderlayer="true"
     inkscape:pagecheckerboard="true"
     inkscape:window-width="1920"
     inkscape:window-height="1017"
     inkscape:window-x="-8"
     inkscape:window-y="-8"
     inkscape:window-maximized="1"
     inkscape:object-paths="true"
     inkscape:snap-page="true"
     fit-margin-top="0"
     fit-margin-left="0"
     fit-margin-right="0"
     fit-margin-bottom="0"
     inkscape:document-rotation="0"
     inkscape:snap-global="true" />
  <metadata
     id="metadata5">
    <rdf:RDF>
      <cc:Work
         rdf:about="">
        <dc:format>image/svg+xml</dc:format>
        <dc:type
           rdf:resource="http://purl.org/dc/dcmitype/StillImage" />
        <dc:title />
      </cc:Work>
    </rdf:RDF>
  </metadata>
  <g
     inkscape:label="Layer 1"
     inkscape:groupmode="layer"
     id="layer1"
     transform="translate(-98.583513,-182.13546)">
    <g
       id="g851"
       style="fill:#000000;filter:url(#filter965);opacity:0.5"
       transform="translate(0,2.1166665)">
      <path
         id="path847"
         style="font-style:normal;font-variant:normal;font-weight:bold;font-stretch:normal;font-size:52.6246px;line-height:1.25;font-family:Ubuntu;-inkscape-font-specification:'Ubuntu Bold';text-align:center;letter-spacing:0px;word-spacing:0px;writing-mode:lr-tb;text-anchor:middle;fill:#000000;fill-opacity:1;stroke:none;stroke-width:0.999999"
         d="m 135.81641,0 c 0,0 -6.87537,7.7751899 -11.19336,10.53125 -3.38831,2.16265 -11.19336,4.486328 -11.19336,4.486328 V 122.63086 c 0,0 6.87441,-7.80054 11.19336,-10.57422 3.38694,-2.17512 11.19336,-4.5332 11.19336,-4.5332 V 56.492188 c 1.40228,-0.400631 2.95354,-0.752225 4.65625,-1.052735 1.80292,-0.40063 3.70575,-0.601562 5.70898,-0.601562 5.00806,0 8.41392,1.502972 10.2168,4.507812 1.90306,3.00484 2.85547,8.112609 2.85547,15.324219 v 47.960938 c 0,0 6.87438,-7.80054 11.19336,-10.57422 3.38695,-2.17512 11.1914,-4.5332 11.1914,-4.5332 V 71.966797 c 0,-5.40873 -0.55057,-10.317529 -1.65234,-14.724609 -1.00162,-4.407121 -2.80403,-8.212809 -5.40821,-11.417969 -2.50405,-3.20515 -5.90987,-5.658608 -10.21679,-7.361328 -4.20681,-1.80291 -9.51548,-2.705079 -15.92578,-2.705079 -2.20354,0 -4.50627,0.250944 -6.91016,0.751954 -2.3037,0.40063 -4.20655,0.850782 -5.70898,1.351562 z m 181.20312,0.41210938 c 0,0 -7.23744,7.81690872 -11.71875,10.57421862 -3.56704,2.19481 -7.63765,4.411799 -11.71875,6.042969 -4.87185,1.94721 -15.10742,4.416015 -15.10742,4.416015 l 15.10742,5.925782 v 75.154296 c -0.77265,3.59781 -2.40345,7.06414 -4.53125,10.06641 -2.81409,3.97062 -10.57617,10.0664 -10.57617,10.0664 0,0 23.17471,-1.50976 34.7793,-1.50976 11.60462,0 34.78125,1.50976 34.78125,1.50976 0,0 2.4054,-7.06413 4.5332,-10.0664 2.81408,-3.97066 10.57422,-10.06641 10.57422,-10.06641 H 317.01953 Z M 21.330078,15.492188 c 0,0 -2.406891,7.013514 -4.53125,9.990234 -2.817071,3.94737 -10.5761717,9.992187 -10.5761718,9.992187 0,0 28.7372438,-1.511718 43.1191408,-1.511718 3.627741,0 8.170709,0.09659 12.933594,0.240234 -1.842822,1.68302 -3.783795,3.311459 -5.378907,4.292969 -3.567042,2.19481 -11.71875,4.53125 -11.71875,4.53125 v 91.691406 c 0,0 7.237478,-7.81878 11.71875,-10.57617 3.567081,-2.19481 7.637616,-4.4118 11.71875,-6.04297 4.871811,-1.94721 15.107422,-4.41602 15.107422,-4.41602 L 68.615234,107.75781 V 34.417969 c 12.184253,0.44504 23.845703,1.05664 23.845704,1.05664 0,0 2.408843,-7.015437 4.533203,-9.992187 2.81707,-3.94734 10.574219,-9.990234 10.574219,-9.990234 z M 230.11133,39.154297 c -4.80775,0 -9.51565,0.900285 -14.12305,2.703125 -4.50728,1.80291 -8.51387,4.45726 -12.01953,7.96289 -3.50566,3.505661 -6.35892,7.914127 -8.5625,13.222657 -2.10338,5.20842 -3.15625,11.316875 -3.15625,18.328125 0,5.80936 0.80174,11.218502 2.4043,16.226562 1.70275,5.008034 4.2566,9.364374 7.66211,13.070314 3.50566,3.60579 7.86193,6.46103 13.07031,8.56445 5.30853,2.10338 11.51941,3.1543 18.63086,3.1543 2.80452,0 5.60762,-0.14893 8.41211,-0.44922 2.80456,-0.30047 5.40864,-0.70233 7.8125,-1.20312 2.50405,-0.40068 4.75849,-0.90098 6.76172,-1.50196 2.00318,-0.60095 3.60666,-1.20178 4.80859,-1.80273 0,0 -1.68509,-5.80005 -1.35352,-8.72461 0.47494,-4.18923 4.6875,-11.748049 4.6875,-11.748049 -2.50401,1.10177 -12.09901,4.347179 -16.10546,5.148439 -3.90629,0.70118 -7.91289,1.05078 -12.01954,1.05078 -6.4103,0 -11.51803,-1.35231 -15.32421,-4.056641 -3.80609,-2.70432 -5.34489,-6.873196 -6.46094,-10.966797 -0.60843,-2.23163 -0.72038,-7.664516 -0.2168,-13.216796 2.09703,1.61873 4.78738,3.812287 6.25977,5.554687 1.91531,2.26662 4.5332,7.662109 4.5332,7.662109 0,0 13.38356,-1.511718 20.10352,-1.511718 6.71989,0 20.10156,1.511718 20.10156,1.511718 0.0998,-1.20193 0.20062,-2.55421 0.30078,-4.05664 0.10016,-1.60256 0.15234,-3.055332 0.15234,-4.357422 0,-13.32147 -3.25707,-23.388249 -9.76758,-30.199219 -6.51046,-6.91114 -15.37374,-10.365234 -26.59179,-10.365234 z m 173.58203,0.349609 c -5.60905,0 -18.64648,3.00586 -18.64648,3.00586 0,0 -4.23595,7.609147 -7.19532,10.742187 -2.9311,3.1031 -10.21679,7.720703 -10.21679,7.720703 v 37.126953 c 0,0 4.55743,9.514721 7.96289,13.220701 3.40551,3.60582 7.46233,6.41083 12.16992,8.41407 4.80775,2.00322 10.11642,3.0039 15.92578,3.0039 5.90952,0 18.94726,-3.0039 18.94726,-3.0039 0,0 4.1291,-7.65391 7.04493,-10.81836 2.87591,-3.12106 10.0664,-7.79493 10.0664,-7.79493 l -0.15039,-37.126949 c 0,0 -4.55746,-9.466446 -7.96289,-13.072266 -3.4055,-3.60582 -7.51256,-6.408919 -12.32031,-8.412109 -4.70759,-2.00326 -9.9158,-3.00586 -15.625,-3.00586 z m 61.86133,4.09961 c 0,0 -5.87894,7.545826 -9.71875,10.285156 -2.89565,2.06577 -9.71875,4.40625 -9.71875,4.40625 2.2035,7.81254 0.30767,0.883233 2.61133,8.595703 2.40412,7.61223 4.70853,14.874016 6.9121,21.785156 2.30367,6.81097 4.50607,13.122279 6.60938,18.931639 2.10346,5.80936 4.05654,10.81664 5.85938,15.02344 0,0 7.06884,-5.44697 10.98046,-7.55274 3.54142,-1.90643 11.18164,-4.5332 11.18164,-4.5332 l 2.32813,-10.599608 c 2.30366,-7.51212 4.45775,-15.075229 6.46094,-22.6875 2.00318,7.612271 4.20544,15.17538 6.60937,22.6875 2.40378,7.512068 4.85735,15.073278 7.36133,22.685548 0,0 7.58916,-5.44489 11.73633,-7.55274 3.7384,-1.90004 11.73633,-4.5332 11.73633,-4.5332 3.66829,-10.829408 2.42609,-10.04557 6.42578,-21.869139 2.30366,-6.91114 4.60841,-14.172926 6.91211,-21.785156 2.40393,-7.71247 4.70654,-15.474519 6.91015,-23.287109 0,0 -8.40711,7.732967 -13.40429,10.367187 -4.15347,2.18952 -13.40625,4.324219 -13.40625,4.324219 -1.80749,8.12504 -0.1663,1.68211 -2.18555,10.25 -1.00169,4.50723 -2.10284,9.064485 -3.30469,13.671875 -0.60094,2.25366 -1.20179,4.469917 -1.80273,6.648437 -0.60095,2.17856 -0.93209,1.905745 -1.80274,1.890625 -0.96064,-0.0151 -1.29005,0.09939 -1.91601,-2.154297 -0.62616,-2.25362 -1.24063,-4.532237 -1.8418,-6.835937 -1.20189,-4.60743 -2.35327,-9.114404 -3.45508,-13.521484 -1.10177,-4.50728 -2.15279,-8.815225 -3.15429,-12.921875 -1.00168,-4.20677 -1.90379,-8.11293 -2.70508,-11.71875 0,0 -5.96659,7.628467 -9.875,10.367187 -2.94282,2.06207 -9.875,4.324219 -9.875,4.324219 -0.73807,3.3504 -1.80659,6.620469 -2.63672,9.949219 -1.10181,4.40708 -2.30331,8.914054 -3.60547,13.521484 -0.60095,2.3037 -1.21384,4.204148 -1.83984,6.080078 -0.62597,1.87593 -0.75503,2.902596 -1.91602,2.910156 -1.06723,0.008 -1.20163,-0.845654 -1.80273,-2.646484 -0.60094,-1.80079 -1.20179,-3.638918 -1.80274,-5.892578 -1.10177,-4.60739 -2.20288,-9.164645 -3.30469,-13.671875 -1.0015,-4.50728 -2.00416,-8.865496 -3.00585,-13.072266 -0.90142,-4.30692 -1.7534,-8.26332 -2.55469,-11.86914 z m -235.14453,14.03125 c 2.60421,0 4.75822,0.450152 6.46093,1.351562 1.80291,0.9015 3.25566,2.052798 4.35743,3.455078 1.20193,1.40228 2.05389,3.003731 2.55468,4.806641 0.60102,1.80287 0.95059,3.657437 1.05078,5.560547 h -29.59765 c 0.22715,-1.89347 0.75061,-3.757677 1.35156,-5.560547 0.70114,-1.90307 1.65354,-3.554831 2.85547,-4.957031 1.20196,-1.40232 2.7049,-2.503388 4.50781,-3.304688 1.80287,-0.90141 3.95494,-1.351562 6.45899,-1.351562 z m 173.2832,1.099609 c 5.10822,0 11.71875,6.009766 11.71875,6.009766 v 32.753906 c 0,0 -6.61053,6.009763 -11.71875,6.009763 -5.10822,0 -11.86914,-6.009763 -11.86914,-6.009763 V 64.744141 c 0,0 6.76092,-6.009766 11.86914,-6.009766 z"
         transform="matrix(0.26458332,0,0,0.26458332,98.583513,182.13546)" />
      <path
         id="path849"
         style="font-style:normal;font-variant:normal;font-weight:bold;font-stretch:normal;font-size:52.6246px;line-height:1.25;font-family:Ubuntu;-inkscape-font-specification:'Ubuntu Bold';text-align:center;letter-spacing:0px;word-spacing:0px;writing-mode:lr-tb;text-anchor:middle;fill:#000000;fill-opacity:1;stroke:none;stroke-width:0.264582"
         d="m 146.82456,219.32097 -5.20895,7.61706 5.20895,7.61705 h 26.236 26.236 l 5.20855,-7.61705 -5.20855,-7.61706 h -26.236 z m 14.60816,2.93136 c 0.15877,0 0.28606,0.0502 0.38216,0.15051 0.10023,0.10022 0.1505,0.22127 0.1505,0.36332 0,0.14623 -0.0502,0.26973 -0.1505,0.36999 -0.0961,0.10023 -0.22339,0.15012 -0.38216,0.15012 -0.15876,0 -0.28812,-0.0498 -0.38841,-0.15012 -0.096,-0.10022 -0.14423,-0.22376 -0.14423,-0.36999 0,-0.14205 0.0482,-0.26306 0.14423,-0.36332 0.10023,-0.10034 0.22965,-0.15051 0.38841,-0.15051 z m 18.42298,0.15051 c 0.29663,0 0.51603,0.0398 0.65808,0.11915 0.14624,0.0751 0.2191,0.2004 0.2191,0.37587 0,0.0793 -0.0164,0.15054 -0.0502,0.21322 -0.0289,0.0586 -0.0645,0.10419 -0.10618,0.13756 -0.0793,-0.0251 -0.16519,-0.046 -0.25712,-0.0628 -0.0877,-0.0167 -0.18821,-0.0246 -0.30101,-0.0246 -0.19221,0 -0.33832,0.0352 -0.43858,0.10617 -0.10022,0.0669 -0.15051,0.18196 -0.15051,0.34492 v 0.23791 h 1.0657 c 0.0208,0.0418 0.0419,0.0942 0.0628,0.15677 0.0253,0.0628 0.0377,0.13174 0.0377,0.20695 0,0.13371 -0.0315,0.2296 -0.094,0.28809 -0.0586,0.0586 -0.13594,0.0877 -0.23204,0.0877 h -0.79564 v 2.04947 c -0.0419,0.0126 -0.10034,0.0226 -0.17558,0.0309 -0.0751,0.0125 -0.15859,0.0188 -0.25047,0.0188 -0.18802,0 -0.32406,-0.0294 -0.40762,-0.0877 -0.0835,-0.0628 -0.12541,-0.18197 -0.12541,-0.35746 v -2.66326 c 0,-0.20474 0.0341,-0.38225 0.10069,-0.53266 0.0709,-0.1504 0.16694,-0.27179 0.28809,-0.36372 0.12118,-0.0961 0.26307,-0.16687 0.42604,-0.21283 0.16292,-0.046 0.33836,-0.0686 0.52638,-0.0686 z m 6.20919,0.38213 c 0.18803,0 0.32407,0.0314 0.40763,0.094 0.0835,0.0628 0.12503,0.18577 0.12503,0.36961 v 2.3066 c 0,0.37602 -0.1064,0.66618 -0.31944,0.8709 -0.20894,0.20472 -0.50786,0.30729 -0.89637,0.30729 -0.22563,0 -0.41116,-0.0377 -0.55735,-0.11283 -0.14624,-0.0751 -0.21949,-0.20706 -0.21949,-0.39507 0,-0.0793 0.0105,-0.14808 0.0313,-0.20656 0.0249,-0.0585 0.0519,-0.10455 0.0811,-0.13797 0.0751,0.0167 0.14427,0.0313 0.20695,0.0439 0.0667,0.008 0.13591,0.0125 0.20693,0.0125 0.32176,0 0.48249,-0.16706 0.48249,-0.50131 v -2.60094 c 0.0461,-0.008 0.11084,-0.0188 0.1944,-0.0314 0.0877,-0.0125 0.17319,-0.0188 0.25672,-0.0188 z m -29.28807,0.0377 c 0.19637,0 0.35086,0.0314 0.46366,0.094 0.11283,0.0628 0.19863,0.16484 0.25712,0.30689 0.046,0.11282 0.0937,0.24048 0.14385,0.38253 0.0502,0.13788 0.10034,0.27981 0.1505,0.42605 0.0502,0.14622 0.0982,0.29236 0.14425,0.43859 0.0502,0.14206 0.0961,0.27391 0.13795,0.39508 h 0.0313 c 0.11699,-0.36768 0.2338,-0.72311 0.35079,-1.0657 0.11699,-0.34677 0.21914,-0.63692 0.3069,-0.8709 0.0586,-0.0293 0.13174,-0.0544 0.21949,-0.0753 0.0919,-0.0209 0.19239,-0.0313 0.30101,-0.0313 0.188,0 0.33831,0.0272 0.45113,0.0816 0.11282,0.0543 0.17979,0.13385 0.20067,0.2383 0.0166,0.0835 0.0357,0.21086 0.0565,0.38215 0.0209,0.17129 0.0415,0.36765 0.0623,0.58909 0.0209,0.22143 0.0419,0.45547 0.0628,0.70198 0.0209,0.24232 0.0398,0.47845 0.0565,0.70824 0.0167,0.22562 0.0313,0.43245 0.0439,0.62045 0.0125,0.18802 0.0209,0.33414 0.0251,0.43859 -0.0628,0.0376 -0.12927,0.0649 -0.20029,0.0816 -0.0709,0.0209 -0.16102,0.0313 -0.26964,0.0313 -0.13788,0 -0.2568,-0.0251 -0.35707,-0.0753 -0.0961,-0.0502 -0.14843,-0.1485 -0.15678,-0.29475 -0.0292,-0.48464 -0.0503,-0.92721 -0.0628,-1.3283 -0.008,-0.40528 -0.0188,-0.73768 -0.0313,-0.99672 h -0.0313 c -0.0502,0.17549 -0.123,0.39695 -0.2191,0.66435 -0.0919,0.26737 -0.20705,0.61197 -0.34492,1.03395 -0.0502,0.0418 -0.1147,0.0753 -0.194,0.10034 -0.0793,0.0251 -0.16939,0.0376 -0.26967,0.0376 -0.13369,0 -0.24634,-0.0167 -0.33824,-0.0502 -0.0877,-0.0335 -0.14635,-0.0921 -0.1756,-0.17559 -0.1337,-0.38856 -0.24841,-0.71011 -0.34452,-0.96498 -0.0919,-0.25902 -0.16517,-0.48262 -0.21949,-0.67061 h -0.0251 c -0.0125,0.25903 -0.0229,0.49727 -0.0313,0.71452 -0.008,0.21308 -0.0167,0.42199 -0.0251,0.62672 -0.005,0.20472 -0.0105,0.41155 -0.0184,0.62044 -0.008,0.20891 -0.0191,0.43876 -0.0317,0.68944 -0.0459,0.0167 -0.10839,0.031 -0.18774,0.0435 -0.0751,0.0167 -0.15476,0.0254 -0.23831,0.0254 -0.16295,0 -0.29023,-0.0272 -0.38215,-0.0815 -0.0919,-0.0585 -0.13795,-0.15686 -0.13795,-0.29475 0,-0.0793 0.003,-0.18782 0.006,-0.32571 0.008,-0.14205 0.0167,-0.30283 0.0251,-0.48249 0.0125,-0.18383 0.0251,-0.3802 0.0376,-0.58908 0.0166,-0.20892 0.0313,-0.4203 0.0439,-0.63338 0.0167,-0.21728 0.0313,-0.42998 0.0439,-0.63888 0.0125,-0.21309 0.025,-0.40983 0.0376,-0.58948 0.0334,-0.046 0.10046,-0.0958 0.20067,-0.15012 0.10443,-0.0585 0.24847,-0.0879 0.43232,-0.0879 z m 24.77091,0.0121 v 4e-4 c 0.18384,0 0.31533,0.0335 0.3947,0.10034 0.0835,0.0628 0.12541,0.17948 0.12541,0.35078 v 0.40724 h 0.86502 c 0.0208,0.0418 0.0418,0.0962 0.0623,0.16305 0.0208,0.0628 0.0313,0.12966 0.0313,0.20068 0,0.13369 -0.0313,0.2296 -0.094,0.28807 -0.0584,0.0586 -0.13555,0.0877 -0.23163,0.0877 h -0.633 v 1.21582 c 0,0.11698 0.0378,0.20279 0.11282,0.25711 0.0751,0.0502 0.17944,0.0749 0.31316,0.0749 0.0625,0 0.12966,-0.006 0.20068,-0.0188 0.0709,-0.0167 0.13171,-0.0356 0.18186,-0.0565 0.0378,0.0418 0.0686,0.0899 0.0937,0.14423 0.0253,0.0542 0.038,0.11709 0.038,0.18813 0,0.14624 -0.0587,0.26725 -0.17558,0.36332 -0.11283,0.0919 -0.31127,0.13797 -0.59537,0.13797 -0.35095,0 -0.62475,-0.0791 -0.82113,-0.2379 -0.19635,-0.16295 -0.29435,-0.4263 -0.29435,-0.78977 v -2.81417 c 0.0461,-0.0126 0.10629,-0.0248 0.18147,-0.0372 0.0751,-0.0167 0.15683,-0.0254 0.24457,-0.0254 z m 6.42358,0.0125 h 4e-4 4e-4 2.07416 c 0.0249,0.0418 0.0478,0.0942 0.0686,0.15677 0.0207,0.0628 0.0313,0.13344 0.0313,0.21283 0,0.13786 -0.0315,0.24043 -0.094,0.30729 -0.0586,0.0668 -0.14184,0.1 -0.25045,0.1 h -1.3914 v 0.70198 h 1.45411 c 0.0248,0.0418 0.0477,0.094 0.0686,0.15676 0.0208,0.0628 0.0314,0.13384 0.0314,0.21323 0,0.13787 -0.0292,0.24045 -0.0877,0.30728 -0.0586,0.0628 -0.14181,0.0937 -0.25047,0.0937 h -1.2158 v 0.78351 h 1.66066 c 0.0249,0.0418 0.0481,0.0961 0.069,0.16305 0.0208,0.0668 0.0313,0.13973 0.0313,0.21909 0,0.13788 -0.0314,0.23836 -0.094,0.30101 -0.0586,0.0628 -0.13972,0.094 -0.24419,0.094 h -1.86135 c -0.15877,0 -0.28646,-0.0461 -0.38253,-0.13797 -0.0919,-0.0961 -0.13797,-0.22378 -0.13797,-0.38254 v -2.76986 c 0,-0.15877 0.046,-0.28435 0.13797,-0.37627 0.096,-0.096 0.22357,-0.14377 0.38215,-0.14385 z m -23.85376,0.68903 v 3.9e-4 c 0.45541,0 0.80627,0.10011 1.05277,0.30063 0.25067,0.20055 0.37626,0.48691 0.37626,0.85875 v 1.94287 c -0.0459,0.0125 -0.10664,0.0231 -0.18186,0.0314 -0.0751,0.0126 -0.15854,0.0188 -0.25045,0.0188 -0.188,0 -0.32407,-0.0293 -0.40762,-0.0877 -0.0793,-0.0625 -0.11875,-0.18198 -0.11875,-0.35746 v -1.5227 c 0,-0.14624 -0.044,-0.25507 -0.13171,-0.32609 -0.0877,-0.0711 -0.20456,-0.10664 -0.35078,-0.10664 -0.10034,0 -0.19239,0.0126 -0.27594,0.0376 -0.0835,0.0251 -0.16101,0.0565 -0.23203,0.094 v 2.2184 c -0.0418,0.0126 -0.1,0.023 -0.1752,0.0313 -0.0751,0.0125 -0.15892,0.0188 -0.25084,0.0188 -0.18801,0 -0.32368,-0.0293 -0.40723,-0.0877 -0.0835,-0.0628 -0.12542,-0.1816 -0.12542,-0.35708 v -1.9366 c 0,-0.10862 0.0229,-0.19614 0.069,-0.26298 0.046,-0.0669 0.11049,-0.12964 0.194,-0.18813 0.13369,-0.0961 0.30534,-0.17356 0.51424,-0.23205 0.21307,-0.0584 0.44673,-0.0877 0.70158,-0.0877 z m 12.24632,0 v 3.9e-4 c 0.21726,0 0.41363,0.0226 0.5891,0.0686 0.17963,0.0418 0.33244,0.10875 0.45778,0.20067 0.12534,0.0919 0.22124,0.20875 0.28809,0.3508 0.0709,0.14206 0.10664,0.30949 0.10664,0.50168 v 1.4165 c 0,0.10862 -0.0292,0.19614 -0.0879,0.263 -0.0543,0.0628 -0.12125,0.11709 -0.20067,0.16304 -0.12948,0.0793 -0.28819,0.14007 -0.47622,0.18186 -0.188,0.0418 -0.40112,0.0623 -0.63925,0.0623 -0.43034,0 -0.77284,-0.0812 -1.02769,-0.24419 -0.25486,-0.16712 -0.38253,-0.41999 -0.38253,-0.75842 0,-0.28829 0.0859,-0.50766 0.25711,-0.65807 0.17128,-0.15041 0.43463,-0.2446 0.78977,-0.2822 l 0.83327,-0.087 v -0.0698 c 0,-0.1337 -0.054,-0.2317 -0.16266,-0.29435 -0.10862,-0.0628 -0.26522,-0.0937 -0.46994,-0.0937 -0.15876,0 -0.31573,0.0185 -0.47032,0.056 -0.15042,0.0376 -0.28608,0.0816 -0.40723,0.13169 -0.0502,-0.0335 -0.0942,-0.0836 -0.13171,-0.1505 -0.0335,-0.071 -0.0502,-0.14638 -0.0502,-0.22576 0,-0.18383 0.0963,-0.31531 0.28847,-0.39468 0.12118,-0.046 0.26101,-0.0795 0.41978,-0.10034 0.16295,-0.0251 0.32162,-0.0376 0.47621,-0.0376 z m -8.71058,3.9e-4 c 0.21308,0 0.40733,0.0335 0.58282,0.10034 0.17965,0.0628 0.33205,0.15229 0.45739,0.26926 0.12951,0.11698 0.23,0.25723 0.30103,0.42018 0.0709,0.16293 0.10664,0.34044 0.10664,0.53264 0,0.13369 -0.0356,0.23376 -0.10664,0.30063 -0.0711,0.0669 -0.17152,0.11119 -0.30103,0.13207 l -1.62931,0.2438 c 0.0586,0.17548 0.16066,0.30105 0.30689,0.37626 0.14623,0.0709 0.3158,0.10665 0.50797,0.10665 0.17547,0 0.34044,-0.0226 0.49502,-0.0686 0.15458,-0.0502 0.27979,-0.10454 0.37588,-0.16305 0.0627,0.0418 0.11504,0.0961 0.15678,0.16305 0.0418,0.0669 0.0628,0.13971 0.0628,0.21909 0,0.0961 -0.0293,0.1798 -0.0879,0.25084 -0.0586,0.0711 -0.14012,0.13175 -0.24457,0.18188 -0.10023,0.046 -0.22128,0.0795 -0.36334,0.10034 -0.13786,0.0251 -0.29027,0.0372 -0.4574,0.0372 -0.2465,0 -0.47425,-0.0331 -0.68316,-0.1 -0.2089,-0.0709 -0.38852,-0.17358 -0.53892,-0.30728 -0.15041,-0.13788 -0.26972,-0.30912 -0.35746,-0.51385 -0.0835,-0.20473 -0.12542,-0.44502 -0.12542,-0.72079 0,-0.26738 0.0419,-0.49932 0.12542,-0.6957 0.0877,-0.19635 0.20287,-0.35884 0.34492,-0.48836 0.14622,-0.12953 0.31118,-0.22369 0.49502,-0.2822 0.18801,-0.0628 0.38019,-0.094 0.57656,-0.094 z m 3.50908,0 h 3.9e-4 c 0.28827,0 0.51395,0.0519 0.6769,0.15639 0.1671,0.10443 0.25044,0.23632 0.25044,0.39509 0,0.0751 -0.0188,0.14427 -0.0565,0.20694 -0.0335,0.0628 -0.0753,0.11709 -0.12543,0.16305 -0.0751,-0.0418 -0.16481,-0.0798 -0.26926,-0.11329 -0.10022,-0.0334 -0.21292,-0.0497 -0.33825,-0.0497 -0.22561,0 -0.41818,0.0732 -0.57695,0.2195 -0.15876,0.14204 -0.2379,0.35306 -0.2379,0.63299 0,0.27992 0.0753,0.48883 0.22575,0.62672 0.15459,0.13787 0.34845,0.20655 0.58243,0.20655 0.13369,0 0.25091,-0.0162 0.35119,-0.0497 0.10442,-0.0376 0.19196,-0.0753 0.26299,-0.11283 0.0709,0.0544 0.12545,0.11295 0.16306,0.1756 0.0418,0.0586 0.0628,0.13135 0.0628,0.21909 0,0.15877 -0.0838,0.28643 -0.25085,0.38253 -0.16712,0.0961 -0.39868,0.14385 -0.69531,0.14385 -0.25067,0 -0.48054,-0.0331 -0.68943,-0.1 -0.20472,-0.0669 -0.38015,-0.16732 -0.52638,-0.30101 -0.14623,-0.13372 -0.25928,-0.29867 -0.33864,-0.49503 -0.0793,-0.20054 -0.11915,-0.43249 -0.11915,-0.6957 0,-0.27157 0.044,-0.5077 0.13169,-0.70824 0.0877,-0.20055 0.20664,-0.3676 0.35706,-0.5013 0.1504,-0.13368 0.32624,-0.23418 0.52677,-0.30101 0.20055,-0.0668 0.41116,-0.10034 0.6326,-0.10034 z m 2.97916,0.006 c 0.43453,0 0.65181,0.14615 0.65181,0.4386 0,0.0709 -0.0105,0.1359 -0.0313,0.1944 -0.0209,0.0585 -0.0439,0.10874 -0.069,0.15051 -0.096,-0.0209 -0.21331,-0.0314 -0.35118,-0.0314 -0.12116,0 -0.24216,0.0146 -0.36333,0.0439 -0.12116,0.0293 -0.22752,0.069 -0.31944,0.11915 v 2.18078 c -0.0418,0.0125 -0.10034,0.023 -0.17559,0.0313 -0.0751,0.0126 -0.15894,0.0188 -0.25084,0.0188 -0.18801,0 -0.32366,-0.0294 -0.40723,-0.0879 -0.0835,-0.0628 -0.12542,-0.18155 -0.12542,-0.35705 v -1.91151 c 0,-0.11699 0.0293,-0.21709 0.0877,-0.30063 0.0586,-0.0835 0.14012,-0.15682 0.24458,-0.21948 0.13787,-0.0835 0.30285,-0.14844 0.49503,-0.19441 0.19637,-0.0502 0.4011,-0.0753 0.61416,-0.0753 z m -12.75896,0.0691 c 0.188,0 0.32157,0.0314 0.40095,0.094 0.0835,0.0628 0.12543,0.18157 0.12543,0.35706 v 2.57585 c -0.0418,0.0125 -0.10034,0.023 -0.1756,0.0313 -0.0751,0.0125 -0.15854,0.0188 -0.25045,0.0188 -0.188,0 -0.32367,-0.0294 -0.40724,-0.0877 -0.0793,-0.0628 -0.11913,-0.18157 -0.11913,-0.35707 v -2.57585 c 0.0418,-0.0126 0.10034,-0.0247 0.17558,-0.0372 0.0751,-0.0126 0.15853,-0.0192 0.25046,-0.0192 z m 6.27699,0.63299 c -0.17965,0 -0.32997,0.0565 -0.45113,0.16932 -0.117,0.10863 -0.18607,0.26731 -0.20695,0.47621 l 1.19701,-0.19402 c -0.008,-0.10862 -0.0565,-0.21117 -0.14424,-0.30727 -0.0877,-0.0961 -0.21921,-0.14424 -0.39469,-0.14424 z m 9.21854,1.11548 -0.51423,0.0439 c -0.1337,0.0125 -0.24213,0.044 -0.32571,0.094 -0.0793,0.046 -0.11915,0.11712 -0.11915,0.21321 0,0.10023 0.0378,0.1798 0.11294,0.2383 0.0751,0.0586 0.19831,0.0874 0.36961,0.0874 0.0919,0 0.18191,-0.008 0.26965,-0.0247 0.0919,-0.0209 0.16097,-0.0461 0.20694,-0.0753 z m -30.30596,0.49267 c 0.59907,3e-5 1.08456,0.48582 1.08451,1.08491 -2e-5,0.599 -0.48548,1.08447 -1.08451,1.0845 -0.599,-3e-5 -1.08488,-0.4855 -1.0849,-1.0845 -6e-5,-0.59909 0.48583,-1.08488 1.0849,-1.08491 z m 52.97682,0 c 0.5991,3e-5 1.08457,0.48582 1.08453,1.08491 -4e-5,0.599 -0.4855,1.08447 -1.08453,1.0845 -0.59902,5e-5 -1.08484,-0.48543 -1.08489,-1.0845 -5e-5,-0.59913 0.48578,-1.08495 1.08489,-1.08491 z m -35.54899,1.75317 c 0.45538,0 0.81254,0.0959 1.07158,0.28808 0.25902,0.19218 0.38881,0.45761 0.38881,0.79604 0,0.21309 -0.0545,0.38851 -0.16305,0.52638 -0.10443,0.1337 -0.23842,0.23835 -0.40136,0.31356 0.0877,0.0376 0.17147,0.0837 0.25084,0.13796 0.0793,0.0543 0.14847,0.12089 0.20695,0.20028 0.0627,0.0751 0.11084,0.16522 0.14424,0.26966 0.0377,0.10034 0.0565,0.21501 0.0565,0.34452 0,0.17547 -0.0378,0.33417 -0.11295,0.47622 -0.0751,0.14204 -0.18195,0.26344 -0.31983,0.36372 -0.13369,0.0961 -0.29656,0.16935 -0.48875,0.21949 -0.18801,0.0543 -0.39903,0.0811 -0.63299,0.0811 -0.22979,0 -0.43872,-0.0269 -0.62672,-0.0811 -0.18802,-0.0502 -0.35088,-0.12548 -0.48875,-0.22576 -0.1337,-0.10023 -0.23836,-0.22128 -0.31355,-0.36333 -0.0751,-0.14206 -0.11248,-0.30322 -0.11248,-0.48289 0,-0.23814 0.0603,-0.43449 0.18148,-0.58908 0.12534,-0.15877 0.27567,-0.27977 0.45112,-0.36334 -0.1713,-0.0835 -0.30277,-0.192 -0.39469,-0.3257 -0.0919,-0.13788 -0.13795,-0.30322 -0.13795,-0.49542 0,-0.16711 0.0335,-0.31744 0.10034,-0.45113 0.0709,-0.13789 0.16942,-0.25261 0.29474,-0.34452 0.12952,-0.0961 0.28191,-0.16934 0.4574,-0.21949 0.17965,-0.0502 0.376,-0.0752 0.5891,-0.0752 z m 4.94517,0 c 0.45541,0 0.81255,0.0959 1.07158,0.28808 0.25902,0.19218 0.38841,0.45761 0.38841,0.79604 0,0.21309 -0.054,0.38851 -0.16265,0.52638 -0.10443,0.1337 -0.23842,0.23835 -0.40136,0.31356 0.0877,0.0376 0.17147,0.0837 0.25086,0.13796 0.0793,0.0543 0.14803,0.12089 0.20655,0.20028 0.0626,0.0751 0.11084,0.16522 0.14423,0.26966 0.0376,0.10034 0.0565,0.21501 0.0565,0.34452 0,0.17547 -0.0377,0.33417 -0.11282,0.47622 -0.0751,0.14204 -0.18157,0.26344 -0.31944,0.36372 -0.1337,0.0961 -0.29655,0.16935 -0.48875,0.21949 -0.188,0.0543 -0.39903,0.0811 -0.633,0.0811 -0.22977,0 -0.43869,-0.0269 -0.62671,-0.0811 -0.188,-0.0502 -0.35089,-0.12548 -0.48877,-0.22576 -0.13369,-0.10023 -0.23833,-0.22128 -0.31355,-0.36333 -0.0751,-0.14206 -0.11294,-0.30322 -0.11294,-0.48289 0,-0.23814 0.0608,-0.43449 0.18186,-0.58908 0.12536,-0.15877 0.27566,-0.27977 0.45114,-0.36334 -0.1713,-0.0835 -0.30277,-0.192 -0.39469,-0.3257 -0.0919,-0.13788 -0.13797,-0.30322 -0.13797,-0.49542 0,-0.16711 0.0335,-0.31744 0.10034,-0.45113 0.0709,-0.13789 0.16939,-0.25261 0.29474,-0.34452 0.1295,-0.0961 0.28193,-0.16934 0.45741,-0.21949 0.17964,-0.0502 0.37601,-0.0752 0.58908,-0.0752 z m 12.10521,0 c 0.45541,0 0.81253,0.0959 1.07158,0.28808 0.25904,0.19218 0.38881,0.45761 0.38881,0.79604 0,0.21309 -0.0544,0.38851 -0.16305,0.52638 -0.10443,0.1337 -0.23804,0.23835 -0.40096,0.31356 0.0877,0.0376 0.17105,0.0837 0.25046,0.13796 0.0793,0.0543 0.14844,0.12089 0.20693,0.20028 0.0628,0.0751 0.11084,0.16522 0.14425,0.26966 0.0378,0.10034 0.0565,0.21501 0.0565,0.34452 0,0.17547 -0.0378,0.33417 -0.11283,0.47622 -0.0751,0.14204 -0.18157,0.26344 -0.31943,0.36372 -0.13371,0.0961 -0.29695,0.16935 -0.48915,0.21949 -0.18803,0.0543 -0.39898,0.0811 -0.63299,0.0811 -0.2298,0 -0.43831,-0.0269 -0.62632,-0.0811 -0.18799,-0.0502 -0.35128,-0.12548 -0.48915,-0.22576 -0.13371,-0.10023 -0.23795,-0.22128 -0.31317,-0.36333 -0.0751,-0.14206 -0.11283,-0.30322 -0.11283,-0.48289 0,-0.23814 0.0608,-0.43449 0.18187,-0.58908 0.12533,-0.15877 0.27569,-0.27977 0.45112,-0.36334 -0.1713,-0.0835 -0.30278,-0.192 -0.39469,-0.3257 -0.0919,-0.13788 -0.13795,-0.30322 -0.13795,-0.49542 0,-0.16711 0.0336,-0.31744 0.10034,-0.45113 0.071,-0.13789 0.16897,-0.25261 0.29435,-0.34452 0.12948,-0.0961 0.28229,-0.16934 0.45779,-0.21949 0.17964,-0.0502 0.37563,-0.0752 0.5887,-0.0752 z m 4.74724,0.0125 c 0.48466,0 0.8669,0.16077 1.14683,0.48248 0.27991,0.32172 0.42016,0.79186 0.42016,1.41022 0,0.35512 -0.0439,0.66451 -0.13169,0.92773 -0.0835,0.26322 -0.20287,0.48259 -0.35745,0.65807 -0.15458,0.17129 -0.34046,0.30069 -0.55774,0.38842 -0.21308,0.0835 -0.44919,0.12543 -0.70825,0.12543 -0.31749,0 -0.57212,-0.0419 -0.76429,-0.12543 -0.18802,-0.0877 -0.2822,-0.2196 -0.2822,-0.39508 0,-0.0835 0.0189,-0.16271 0.0565,-0.23791 0.0419,-0.0751 0.0879,-0.13172 0.13797,-0.16932 0.10862,0.0502 0.22372,0.0919 0.34491,0.12542 0.12115,0.0293 0.24214,0.0439 0.36333,0.0439 0.28404,0 0.51187,-0.0796 0.68316,-0.2383 0.17131,-0.15876 0.25672,-0.38233 0.25672,-0.67062 -0.0793,0.0669 -0.18572,0.12546 -0.31943,0.17559 -0.12948,0.046 -0.27982,0.0691 -0.45113,0.0691 -0.18802,0 -0.36173,-0.0252 -0.5205,-0.0753 -0.15459,-0.0502 -0.29024,-0.12717 -0.40723,-0.23162 -0.11283,-0.10443 -0.2024,-0.23424 -0.26927,-0.38881 -0.0626,-0.15461 -0.094,-0.33631 -0.094,-0.5452 0,-0.18384 0.0314,-0.35508 0.094,-0.51384 0.0669,-0.16295 0.16063,-0.30489 0.28181,-0.42604 0.12533,-0.12117 0.27776,-0.21536 0.4574,-0.2822 0.17968,-0.0709 0.38651,-0.10618 0.62044,-0.10618 z m -26.1682,0.0439 h 0.21322 c 0.15876,0 0.28644,0.0481 0.38254,0.14424 0.0961,0.096 0.14383,0.22337 0.14383,0.38214 v 3.32173 c -0.0459,0.0125 -0.10629,0.0248 -0.18146,0.0372 -0.0751,0.0126 -0.15891,0.0188 -0.25084,0.0188 -0.18801,0 -0.32367,-0.031 -0.40723,-0.0937 -0.0835,-0.0628 -0.12543,-0.18198 -0.12543,-0.35746 v -2.49395 l -0.65807,0.23164 c -0.0586,-0.0376 -0.11712,-0.09 -0.1756,-0.15676 -0.0586,-0.0711 -0.0877,-0.16692 -0.0877,-0.2881 0,-0.2256 0.13813,-0.38639 0.4139,-0.48248 z m 17.05078,0 h 0.21322 c 0.15877,0 0.28606,0.0481 0.38214,0.14424 0.0961,0.096 0.14385,0.22337 0.14385,0.38214 v 3.32173 c -0.0461,0.0125 -0.10629,0.0248 -0.18148,0.0372 -0.0751,0.0126 -0.1589,0.0188 -0.25084,0.0188 -0.188,0 -0.32367,-0.031 -0.40722,-0.0937 -0.0835,-0.0628 -0.12544,-0.18198 -0.12544,-0.35746 v -2.49395 l -0.65806,0.23164 c -0.0586,-0.0376 -0.11672,-0.09 -0.17521,-0.15676 -0.0586,-0.0711 -0.0877,-0.16692 -0.0877,-0.2881 0,-0.2256 0.13776,-0.38639 0.4135,-0.48248 z m -12.6802,0.67062 c -0.15041,0 -0.27144,0.0377 -0.36333,0.11282 -0.0877,0.0751 -0.13169,0.17318 -0.13169,0.29436 0,0.14623 0.0502,0.25717 0.1505,0.33236 0.10022,0.0751 0.22964,0.12714 0.38842,0.1564 0.15041,-0.046 0.26514,-0.1084 0.34451,-0.18775 0.0835,-0.0793 0.12543,-0.17985 0.12543,-0.30101 0,-0.12952 -0.046,-0.22959 -0.13796,-0.30062 -0.0877,-0.0709 -0.21294,-0.10665 -0.37588,-0.10665 z m 4.94517,0 c -0.15041,0 -0.2718,0.0377 -0.36373,0.11282 -0.0877,0.0751 -0.1313,0.17318 -0.1313,0.29436 0,0.14623 0.0499,0.25717 0.15011,0.33236 0.10023,0.0751 0.23004,0.12714 0.38881,0.1564 0.15041,-0.046 0.26515,-0.1084 0.34452,-0.18775 0.0835,-0.0793 0.12543,-0.17985 0.12543,-0.30101 0,-0.12952 -0.0461,-0.22959 -0.13797,-0.30062 -0.0877,-0.0709 -0.21292,-0.10665 -0.37587,-0.10665 z m 12.10521,0 c -0.15039,0 -0.27139,0.0377 -0.36333,0.11282 -0.0877,0.0751 -0.13169,0.17318 -0.13169,0.29436 0,0.14623 0.0502,0.25717 0.1505,0.33236 0.10023,0.0751 0.22965,0.12714 0.38842,0.1564 0.1504,-0.046 0.26555,-0.1084 0.34491,-0.18775 0.0835,-0.0793 0.12543,-0.17985 0.12543,-0.30101 0,-0.12952 -0.0462,-0.22959 -0.13797,-0.30062 -0.0876,-0.0709 -0.21331,-0.10665 -0.37627,-0.10665 z m 4.74724,0.0502 c -0.15874,0 -0.28186,0.0482 -0.3696,0.14424 -0.0877,0.0961 -0.13169,0.22759 -0.13169,0.39468 0,0.17548 0.0524,0.30905 0.15677,0.40097 0.10443,0.0919 0.23592,0.13795 0.39469,0.13795 0.10443,0 0.20494,-0.023 0.30101,-0.069 0.0961,-0.0502 0.17107,-0.11049 0.22537,-0.18147 v -0.0502 c 0,-0.25067 -0.0498,-0.44285 -0.15011,-0.57655 -0.096,-0.13368 -0.23843,-0.20068 -0.42644,-0.20068 z m -13.27595,1.14683 h 1.36631 c 0.0209,0.0376 0.0439,0.0921 0.069,0.16306 0.0251,0.0668 0.0376,0.13801 0.0376,0.21321 0,0.13786 -0.0335,0.23796 -0.10035,0.30061 -0.0626,0.0628 -0.1464,0.0941 -0.25084,0.0941 h -1.3722 c -0.025,-0.0418 -0.0482,-0.0963 -0.069,-0.16306 -0.0209,-0.0668 -0.0313,-0.13763 -0.0313,-0.21283 0,-0.13786 0.0315,-0.23834 0.094,-0.30101 0.0628,-0.0628 0.1481,-0.094 0.25674,-0.094 z m -8.58438,0.31982 c -0.17546,0.0543 -0.30695,0.13137 -0.39468,0.23165 -0.0835,0.10022 -0.12543,0.21331 -0.12543,0.33864 0,0.15042 0.0524,0.26724 0.15678,0.3508 0.10862,0.0835 0.25056,0.12541 0.42604,0.12541 0.17964,0 0.32367,-0.0398 0.43232,-0.11915 0.10862,-0.0793 0.16304,-0.1983 0.16304,-0.35706 0,-0.14205 -0.0565,-0.26134 -0.16932,-0.35745 -0.11283,-0.10022 -0.27567,-0.17107 -0.48875,-0.21284 z m 4.94517,0 c -0.17548,0.0543 -0.30735,0.13137 -0.39509,0.23165 -0.0835,0.10022 -0.12503,0.21331 -0.12503,0.33864 0,0.15042 0.052,0.26724 0.15639,0.3508 0.10863,0.0835 0.25096,0.12541 0.42644,0.12541 0.17967,0 0.32368,-0.0398 0.43232,-0.11915 0.10862,-0.0793 0.16304,-0.1983 0.16304,-0.35706 0,-0.14205 -0.0565,-0.26134 -0.16932,-0.35745 -0.11283,-0.10022 -0.27568,-0.17107 -0.48875,-0.21284 z m 12.1056,0 c -0.17549,0.0543 -0.30732,0.13137 -0.39507,0.23165 -0.0835,0.10022 -0.12543,0.21331 -0.12543,0.33864 0,0.15042 0.0523,0.26724 0.15678,0.3508 0.10862,0.0835 0.25058,0.12541 0.42604,0.12541 0.17968,0 0.3241,-0.0398 0.43271,-0.11915 0.10863,-0.0793 0.16265,-0.1983 0.16265,-0.35706 0,-0.14205 -0.0561,-0.26134 -0.16892,-0.35745 -0.11283,-0.10022 -0.27567,-0.17107 -0.48876,-0.21284 z m -19.46123,0.63928 c 0.17128,0 0.30697,0.054 0.40722,0.16264 0.10022,0.10863 0.15051,0.2426 0.15051,0.40136 0,0.15877 -0.0502,0.29234 -0.15051,0.40096 -0.10022,0.10863 -0.23594,0.16305 -0.40722,0.16305 -0.17548,0 -0.31363,-0.0545 -0.41389,-0.16305 -0.0961,-0.10862 -0.14385,-0.24219 -0.14385,-0.40096 0,-0.15876 0.0478,-0.29272 0.14385,-0.40136 0.10022,-0.10862 0.23841,-0.16264 0.41389,-0.16264 z m 4.94477,0 c 0.17129,0 0.30736,0.054 0.40762,0.16264 0.10022,0.10863 0.15012,0.2426 0.15012,0.40136 0,0.15877 -0.0498,0.29234 -0.15012,0.40096 -0.10022,0.10863 -0.23633,0.16305 -0.40762,0.16305 -0.17546,0 -0.31322,-0.0545 -0.41349,-0.16305 -0.096,-0.10862 -0.14424,-0.24219 -0.14424,-0.40096 0,-0.15876 0.0482,-0.29272 0.14424,-0.40136 0.10022,-0.10862 0.23803,-0.16264 0.41349,-0.16264 z m 12.10561,0 c 0.1713,0 0.30699,0.054 0.40723,0.16264 0.10023,0.10863 0.1505,0.2426 0.1505,0.40136 0,0.15877 -0.0502,0.29234 -0.1505,0.40096 -0.10022,0.10863 -0.23593,0.16305 -0.40723,0.16305 -0.1755,0 -0.31322,-0.0545 -0.4135,-0.16305 -0.0961,-0.10862 -0.14424,-0.24219 -0.14424,-0.40096 0,-0.15876 0.0482,-0.29272 0.14424,-0.40136 0.10023,-0.10862 0.238,-0.16264 0.4135,-0.16264 z m 4.94517,0 c 0.17132,0 0.30695,0.054 0.40723,0.16264 0.10023,0.10863 0.1505,0.2426 0.1505,0.40136 0,0.15877 -0.0502,0.29234 -0.1505,0.40096 -0.10022,0.10863 -0.23591,0.16305 -0.40723,0.16305 -0.17549,0 -0.31323,-0.0545 -0.4135,-0.16305 -0.096,-0.10862 -0.14423,-0.24219 -0.14423,-0.40096 0,-0.15876 0.0482,-0.29272 0.14423,-0.40136 0.10023,-0.10862 0.23801,-0.16264 0.4135,-0.16264 z" />
    </g>
    <g
       id="g845">
      <path
         id="path1857"
         style="font-style:normal;font-variant:normal;font-weight:bold;font-stretch:normal;font-size:52.6246px;line-height:1.25;font-family:Ubuntu;-inkscape-font-specification:'Ubuntu Bold';text-align:center;letter-spacing:0px;word-spacing:0px;writing-mode:lr-tb;text-anchor:middle;fill:#ffffff;fill-opacity:1;stroke:none;stroke-width:0.999999"
         d="M 135.81641 0 C 135.81641 0 128.94104 7.7751899 124.62305 10.53125 C 121.23474 12.6939 113.42969 15.017578 113.42969 15.017578 L 113.42969 122.63086 C 113.42969 122.63086 120.3041 114.83032 124.62305 112.05664 C 128.00999 109.88152 135.81641 107.52344 135.81641 107.52344 L 135.81641 56.492188 C 137.21869 56.091557 138.76995 55.739963 140.47266 55.439453 C 142.27558 55.038823 144.17841 54.837891 146.18164 54.837891 C 151.1897 54.837891 154.59556 56.340863 156.39844 59.345703 C 158.3015 62.350543 159.25391 67.458312 159.25391 74.669922 L 159.25391 122.63086 C 159.25391 122.63086 166.12829 114.83032 170.44727 112.05664 C 173.83422 109.88152 181.63867 107.52344 181.63867 107.52344 L 181.63867 71.966797 C 181.63867 66.558067 181.0881 61.649268 179.98633 57.242188 C 178.98471 52.835067 177.1823 49.029379 174.57812 45.824219 C 172.07407 42.619069 168.66825 40.165611 164.36133 38.462891 C 160.15452 36.659981 154.84585 35.757812 148.43555 35.757812 C 146.23201 35.757812 143.92928 36.008756 141.52539 36.509766 C 139.22169 36.910396 137.31884 37.360548 135.81641 37.861328 L 135.81641 0 z M 317.01953 0.41210938 C 317.01953 0.41210938 309.78209 8.2290181 305.30078 10.986328 C 301.73374 13.181138 297.66313 15.398127 293.58203 17.029297 C 288.71018 18.976507 278.47461 21.445312 278.47461 21.445312 L 293.58203 27.371094 L 293.58203 102.52539 C 292.80938 106.1232 291.17858 109.58953 289.05078 112.5918 C 286.23669 116.56242 278.47461 122.6582 278.47461 122.6582 C 278.47461 122.6582 301.64932 121.14844 313.25391 121.14844 C 324.85853 121.14844 348.03516 122.6582 348.03516 122.6582 C 348.03516 122.6582 350.44056 115.59407 352.56836 112.5918 C 355.38244 108.62114 363.14258 102.52539 363.14258 102.52539 L 317.01953 102.52539 L 317.01953 0.41210938 z M 21.330078 15.492188 C 21.330078 15.492188 18.923187 22.505702 16.798828 25.482422 C 13.981757 29.429792 6.2226563 35.474609 6.2226562 35.474609 C 6.2226562 35.474609 34.9599 33.962891 49.341797 33.962891 C 52.969538 33.962891 57.512506 34.059485 62.275391 34.203125 C 60.432569 35.886145 58.491596 37.514584 56.896484 38.496094 C 53.329442 40.690904 45.177734 43.027344 45.177734 43.027344 L 45.177734 134.71875 C 45.177734 134.71875 52.415212 126.89997 56.896484 124.14258 C 60.463565 121.94777 64.5341 119.73078 68.615234 118.09961 C 73.487045 116.1524 83.722656 113.68359 83.722656 113.68359 L 68.615234 107.75781 L 68.615234 34.417969 C 80.799487 34.863009 92.460937 35.474609 92.460938 35.474609 C 92.460938 35.474609 94.869781 28.459172 96.994141 25.482422 C 99.811211 21.535082 107.56836 15.492188 107.56836 15.492188 L 21.330078 15.492188 z M 230.11133 39.154297 C 225.30358 39.154297 220.59568 40.054582 215.98828 41.857422 C 211.481 43.660332 207.47441 46.314682 203.96875 49.820312 C 200.46309 53.325973 197.60983 57.734439 195.40625 63.042969 C 193.30287 68.251389 192.25 74.359844 192.25 81.371094 C 192.25 87.180454 193.05174 92.589596 194.6543 97.597656 C 196.35705 102.60569 198.9109 106.96203 202.31641 110.66797 C 205.82207 114.27376 210.17834 117.129 215.38672 119.23242 C 220.69525 121.3358 226.90613 122.38672 234.01758 122.38672 C 236.8221 122.38672 239.6252 122.23779 242.42969 121.9375 C 245.23425 121.63703 247.83833 121.23517 250.24219 120.73438 C 252.74624 120.3337 255.00068 119.8334 257.00391 119.23242 C 259.00709 118.63147 260.61057 118.03064 261.8125 117.42969 C 261.8125 117.42969 260.12741 111.62964 260.45898 108.70508 C 260.93392 104.51585 265.14648 96.957031 265.14648 96.957031 C 262.64247 98.058801 253.04747 101.30421 249.04102 102.10547 C 245.13473 102.80665 241.12813 103.15625 237.02148 103.15625 C 230.61118 103.15625 225.50345 101.80394 221.69727 99.099609 C 217.89118 96.395289 216.35238 92.226413 215.23633 88.132812 C 214.6279 85.901182 214.51595 80.468296 215.01953 74.916016 C 217.11656 76.534746 219.80691 78.728303 221.2793 80.470703 C 223.19461 82.737323 225.8125 88.132812 225.8125 88.132812 C 225.8125 88.132812 239.19606 86.621094 245.91602 86.621094 C 252.63591 86.621094 266.01758 88.132812 266.01758 88.132812 C 266.11738 86.930882 266.2182 85.578602 266.31836 84.076172 C 266.41852 82.473612 266.4707 81.02084 266.4707 79.71875 C 266.4707 66.39728 263.21363 56.330501 256.70312 49.519531 C 250.19266 42.608391 241.32938 39.154297 230.11133 39.154297 z M 403.69336 39.503906 C 398.08431 39.503906 385.04688 42.509766 385.04688 42.509766 C 385.04688 42.509766 380.81093 50.118913 377.85156 53.251953 C 374.92046 56.355053 367.63477 60.972656 367.63477 60.972656 L 367.63477 98.099609 C 367.63477 98.099609 372.1922 107.61433 375.59766 111.32031 C 379.00317 114.92613 383.05999 117.73114 387.76758 119.73438 C 392.57533 121.7376 397.884 122.73828 403.69336 122.73828 C 409.60288 122.73828 422.64062 119.73438 422.64062 119.73438 C 422.64062 119.73438 426.76972 112.08047 429.68555 108.91602 C 432.56146 105.79496 439.75195 101.12109 439.75195 101.12109 L 439.60156 63.994141 C 439.60156 63.994141 435.0441 54.527695 431.63867 50.921875 C 428.23317 47.316055 424.12611 44.512956 419.31836 42.509766 C 414.61077 40.506506 409.40256 39.503906 403.69336 39.503906 z M 465.55469 43.603516 C 465.55469 43.603516 459.67575 51.149342 455.83594 53.888672 C 452.94029 55.954442 446.11719 58.294922 446.11719 58.294922 C 448.32069 66.107462 446.42486 59.178155 448.72852 66.890625 C 451.13264 74.502855 453.43705 81.764641 455.64062 88.675781 C 457.94429 95.486751 460.14669 101.79806 462.25 107.60742 C 464.35346 113.41678 466.30654 118.42406 468.10938 122.63086 C 468.10938 122.63086 475.17822 117.18389 479.08984 115.07812 C 482.63126 113.17169 490.27148 110.54492 490.27148 110.54492 L 492.59961 99.945312 C 494.90327 92.433192 497.05736 84.870083 499.06055 77.257812 C 501.06373 84.870083 503.26599 92.433192 505.66992 99.945312 C 508.0737 107.45738 510.52727 115.01859 513.03125 122.63086 C 513.03125 122.63086 520.62041 117.18597 524.76758 115.07812 C 528.50598 113.17808 536.50391 110.54492 536.50391 110.54492 C 540.1722 99.715512 538.93 100.49935 542.92969 88.675781 C 545.23335 81.764641 547.5381 74.502855 549.8418 66.890625 C 552.24573 59.178155 554.54834 51.416106 556.75195 43.603516 C 556.75195 43.603516 548.34484 51.336483 543.34766 53.970703 C 539.19419 56.160223 529.94141 58.294922 529.94141 58.294922 C 528.13392 66.419962 529.77511 59.977032 527.75586 68.544922 C 526.75417 73.052152 525.65302 77.609407 524.45117 82.216797 C 523.85023 84.470457 523.24938 86.686714 522.64844 88.865234 C 522.04749 91.043794 521.71635 90.770979 520.8457 90.755859 C 519.88506 90.740759 519.55565 90.855253 518.92969 88.601562 C 518.30353 86.347942 517.68906 84.069325 517.08789 81.765625 C 515.886 77.158195 514.73462 72.651221 513.63281 68.244141 C 512.53104 63.736861 511.48002 59.428916 510.47852 55.322266 C 509.47684 51.115496 508.57473 47.209336 507.77344 43.603516 C 507.77344 43.603516 501.80685 51.231983 497.89844 53.970703 C 494.95562 56.032773 488.02344 58.294922 488.02344 58.294922 C 487.28537 61.645322 486.21685 64.915391 485.38672 68.244141 C 484.28491 72.651221 483.08341 77.158195 481.78125 81.765625 C 481.1803 84.069325 480.56741 85.969773 479.94141 87.845703 C 479.31544 89.721633 479.18638 90.748299 478.02539 90.755859 C 476.95816 90.763859 476.82376 89.910205 476.22266 88.109375 C 475.62172 86.308585 475.02087 84.470457 474.41992 82.216797 C 473.31815 77.609407 472.21704 73.052152 471.11523 68.544922 C 470.11373 64.037642 469.11107 59.679426 468.10938 55.472656 C 467.20796 51.165736 466.35598 47.209336 465.55469 43.603516 z M 230.41016 57.634766 C 233.01437 57.634766 235.16838 58.084918 236.87109 58.986328 C 238.674 59.887828 240.12675 61.039126 241.22852 62.441406 C 242.43045 63.843686 243.28241 65.445137 243.7832 67.248047 C 244.38422 69.050917 244.73379 70.905484 244.83398 72.808594 L 215.23633 72.808594 C 215.46348 70.915124 215.98694 69.050917 216.58789 67.248047 C 217.28903 65.344977 218.24143 63.693216 219.44336 62.291016 C 220.64532 60.888696 222.14826 59.787628 223.95117 58.986328 C 225.75404 58.084918 227.90611 57.634766 230.41016 57.634766 z M 403.69336 58.734375 C 408.80158 58.734375 415.41211 64.744141 415.41211 64.744141 L 415.41211 97.498047 C 415.41211 97.498047 408.80158 103.50781 403.69336 103.50781 C 398.58514 103.50781 391.82422 97.498047 391.82422 97.498047 L 391.82422 64.744141 C 391.82422 64.744141 398.58514 58.734375 403.69336 58.734375 z "
         transform="matrix(0.26458332,0,0,0.26458332,98.583513,182.13546)" />
      <path
         id="path834"
         style="font-style:normal;font-variant:normal;font-weight:bold;font-stretch:normal;font-size:52.6246px;line-height:1.25;font-family:Ubuntu;-inkscape-font-specification:'Ubuntu Bold';text-align:center;letter-spacing:0px;word-spacing:0px;writing-mode:lr-tb;text-anchor:middle;fill:#ffffff;fill-opacity:1;stroke:none;stroke-width:0.264582"
         d="m 146.82456,219.32097 -5.20895,7.61706 5.20895,7.61705 h 26.236 26.236 l 5.20855,-7.61705 -5.20855,-7.61706 h -26.236 z m 14.60816,2.93136 c 0.15877,0 0.28606,0.0502 0.38216,0.15051 0.10023,0.10022 0.1505,0.22127 0.1505,0.36332 0,0.14623 -0.0502,0.26973 -0.1505,0.36999 -0.0961,0.10023 -0.22339,0.15012 -0.38216,0.15012 -0.15876,0 -0.28812,-0.0498 -0.38841,-0.15012 -0.096,-0.10022 -0.14423,-0.22376 -0.14423,-0.36999 0,-0.14205 0.0482,-0.26306 0.14423,-0.36332 0.10023,-0.10034 0.22965,-0.15051 0.38841,-0.15051 z m 18.42298,0.15051 c 0.29663,0 0.51603,0.0398 0.65808,0.11915 0.14624,0.0751 0.2191,0.2004 0.2191,0.37587 0,0.0793 -0.0164,0.15054 -0.0502,0.21322 -0.0289,0.0586 -0.0645,0.10419 -0.10618,0.13756 -0.0793,-0.0251 -0.16519,-0.046 -0.25712,-0.0628 -0.0877,-0.0167 -0.18821,-0.0246 -0.30101,-0.0246 -0.19221,0 -0.33832,0.0352 -0.43858,0.10617 -0.10022,0.0669 -0.15051,0.18196 -0.15051,0.34492 v 0.23791 h 1.0657 c 0.0208,0.0418 0.0419,0.0942 0.0628,0.15677 0.0253,0.0628 0.0377,0.13174 0.0377,0.20695 0,0.13371 -0.0315,0.2296 -0.094,0.28809 -0.0586,0.0586 -0.13594,0.0877 -0.23204,0.0877 h -0.79564 v 2.04947 c -0.0419,0.0126 -0.10034,0.0226 -0.17558,0.0309 -0.0751,0.0125 -0.15859,0.0188 -0.25047,0.0188 -0.18802,0 -0.32406,-0.0294 -0.40762,-0.0877 -0.0835,-0.0628 -0.12541,-0.18197 -0.12541,-0.35746 v -2.66326 c 0,-0.20474 0.0341,-0.38225 0.10069,-0.53266 0.0709,-0.1504 0.16694,-0.27179 0.28809,-0.36372 0.12118,-0.0961 0.26307,-0.16687 0.42604,-0.21283 0.16292,-0.046 0.33836,-0.0686 0.52638,-0.0686 z m 6.20919,0.38213 c 0.18803,0 0.32407,0.0314 0.40763,0.094 0.0835,0.0628 0.12503,0.18577 0.12503,0.36961 v 2.3066 c 0,0.37602 -0.1064,0.66618 -0.31944,0.8709 -0.20894,0.20472 -0.50786,0.30729 -0.89637,0.30729 -0.22563,0 -0.41116,-0.0377 -0.55735,-0.11283 -0.14624,-0.0751 -0.21949,-0.20706 -0.21949,-0.39507 0,-0.0793 0.0105,-0.14808 0.0313,-0.20656 0.0249,-0.0585 0.0519,-0.10455 0.0811,-0.13797 0.0751,0.0167 0.14427,0.0313 0.20695,0.0439 0.0667,0.008 0.13591,0.0125 0.20693,0.0125 0.32176,0 0.48249,-0.16706 0.48249,-0.50131 v -2.60094 c 0.0461,-0.008 0.11084,-0.0188 0.1944,-0.0314 0.0877,-0.0125 0.17319,-0.0188 0.25672,-0.0188 z m -29.28807,0.0377 c 0.19637,0 0.35086,0.0314 0.46366,0.094 0.11283,0.0628 0.19863,0.16484 0.25712,0.30689 0.046,0.11282 0.0937,0.24048 0.14385,0.38253 0.0502,0.13788 0.10034,0.27981 0.1505,0.42605 0.0502,0.14622 0.0982,0.29236 0.14425,0.43859 0.0502,0.14206 0.0961,0.27391 0.13795,0.39508 h 0.0313 c 0.11699,-0.36768 0.2338,-0.72311 0.35079,-1.0657 0.11699,-0.34677 0.21914,-0.63692 0.3069,-0.8709 0.0586,-0.0293 0.13174,-0.0544 0.21949,-0.0753 0.0919,-0.0209 0.19239,-0.0313 0.30101,-0.0313 0.188,0 0.33831,0.0272 0.45113,0.0816 0.11282,0.0543 0.17979,0.13385 0.20067,0.2383 0.0166,0.0835 0.0357,0.21086 0.0565,0.38215 0.0209,0.17129 0.0415,0.36765 0.0623,0.58909 0.0209,0.22143 0.0419,0.45547 0.0628,0.70198 0.0209,0.24232 0.0398,0.47845 0.0565,0.70824 0.0167,0.22562 0.0313,0.43245 0.0439,0.62045 0.0125,0.18802 0.0209,0.33414 0.0251,0.43859 -0.0628,0.0376 -0.12927,0.0649 -0.20029,0.0816 -0.0709,0.0209 -0.16102,0.0313 -0.26964,0.0313 -0.13788,0 -0.2568,-0.0251 -0.35707,-0.0753 -0.0961,-0.0502 -0.14843,-0.1485 -0.15678,-0.29475 -0.0292,-0.48464 -0.0503,-0.92721 -0.0628,-1.3283 -0.008,-0.40528 -0.0188,-0.73768 -0.0313,-0.99672 h -0.0313 c -0.0502,0.17549 -0.123,0.39695 -0.2191,0.66435 -0.0919,0.26737 -0.20705,0.61197 -0.34492,1.03395 -0.0502,0.0418 -0.1147,0.0753 -0.194,0.10034 -0.0793,0.0251 -0.16939,0.0376 -0.26967,0.0376 -0.13369,0 -0.24634,-0.0167 -0.33824,-0.0502 -0.0877,-0.0335 -0.14635,-0.0921 -0.1756,-0.17559 -0.1337,-0.38856 -0.24841,-0.71011 -0.34452,-0.96498 -0.0919,-0.25902 -0.16517,-0.48262 -0.21949,-0.67061 h -0.0251 c -0.0125,0.25903 -0.0229,0.49727 -0.0313,0.71452 -0.008,0.21308 -0.0167,0.42199 -0.0251,0.62672 -0.005,0.20472 -0.0105,0.41155 -0.0184,0.62044 -0.008,0.20891 -0.0191,0.43876 -0.0317,0.68944 -0.0459,0.0167 -0.10839,0.031 -0.18774,0.0435 -0.0751,0.0167 -0.15476,0.0254 -0.23831,0.0254 -0.16295,0 -0.29023,-0.0272 -0.38215,-0.0815 -0.0919,-0.0585 -0.13795,-0.15686 -0.13795,-0.29475 0,-0.0793 0.003,-0.18782 0.006,-0.32571 0.008,-0.14205 0.0167,-0.30283 0.0251,-0.48249 0.0125,-0.18383 0.0251,-0.3802 0.0376,-0.58908 0.0166,-0.20892 0.0313,-0.4203 0.0439,-0.63338 0.0167,-0.21728 0.0313,-0.42998 0.0439,-0.63888 0.0125,-0.21309 0.025,-0.40983 0.0376,-0.58948 0.0334,-0.046 0.10046,-0.0958 0.20067,-0.15012 0.10443,-0.0585 0.24847,-0.0879 0.43232,-0.0879 z m 24.77091,0.0121 v 4e-4 c 0.18384,0 0.31533,0.0335 0.3947,0.10034 0.0835,0.0628 0.12541,0.17948 0.12541,0.35078 v 0.40724 h 0.86502 c 0.0208,0.0418 0.0418,0.0962 0.0623,0.16305 0.0208,0.0628 0.0313,0.12966 0.0313,0.20068 0,0.13369 -0.0313,0.2296 -0.094,0.28807 -0.0584,0.0586 -0.13555,0.0877 -0.23163,0.0877 h -0.633 v 1.21582 c 0,0.11698 0.0378,0.20279 0.11282,0.25711 0.0751,0.0502 0.17944,0.0749 0.31316,0.0749 0.0625,0 0.12966,-0.006 0.20068,-0.0188 0.0709,-0.0167 0.13171,-0.0356 0.18186,-0.0565 0.0378,0.0418 0.0686,0.0899 0.0937,0.14423 0.0253,0.0542 0.038,0.11709 0.038,0.18813 0,0.14624 -0.0587,0.26725 -0.17558,0.36332 -0.11283,0.0919 -0.31127,0.13797 -0.59537,0.13797 -0.35095,0 -0.62475,-0.0791 -0.82113,-0.2379 -0.19635,-0.16295 -0.29435,-0.4263 -0.29435,-0.78977 v -2.81417 c 0.0461,-0.0126 0.10629,-0.0248 0.18147,-0.0372 0.0751,-0.0167 0.15683,-0.0254 0.24457,-0.0254 z m 6.42358,0.0125 h 4e-4 4e-4 2.07416 c 0.0249,0.0418 0.0478,0.0942 0.0686,0.15677 0.0207,0.0628 0.0313,0.13344 0.0313,0.21283 0,0.13786 -0.0315,0.24043 -0.094,0.30729 -0.0586,0.0668 -0.14184,0.1 -0.25045,0.1 h -1.3914 v 0.70198 h 1.45411 c 0.0248,0.0418 0.0477,0.094 0.0686,0.15676 0.0208,0.0628 0.0314,0.13384 0.0314,0.21323 0,0.13787 -0.0292,0.24045 -0.0877,0.30728 -0.0586,0.0628 -0.14181,0.0937 -0.25047,0.0937 h -1.2158 v 0.78351 h 1.66066 c 0.0249,0.0418 0.0481,0.0961 0.069,0.16305 0.0208,0.0668 0.0313,0.13973 0.0313,0.21909 0,0.13788 -0.0314,0.23836 -0.094,0.30101 -0.0586,0.0628 -0.13972,0.094 -0.24419,0.094 h -1.86135 c -0.15877,0 -0.28646,-0.0461 -0.38253,-0.13797 -0.0919,-0.0961 -0.13797,-0.22378 -0.13797,-0.38254 v -2.76986 c 0,-0.15877 0.046,-0.28435 0.13797,-0.37627 0.096,-0.096 0.22357,-0.14377 0.38215,-0.14385 z m -23.85376,0.68903 v 3.9e-4 c 0.45541,0 0.80627,0.10011 1.05277,0.30063 0.25067,0.20055 0.37626,0.48691 0.37626,0.85875 v 1.94287 c -0.0459,0.0125 -0.10664,0.0231 -0.18186,0.0314 -0.0751,0.0126 -0.15854,0.0188 -0.25045,0.0188 -0.188,0 -0.32407,-0.0293 -0.40762,-0.0877 -0.0793,-0.0625 -0.11875,-0.18198 -0.11875,-0.35746 v -1.5227 c 0,-0.14624 -0.044,-0.25507 -0.13171,-0.32609 -0.0877,-0.0711 -0.20456,-0.10664 -0.35078,-0.10664 -0.10034,0 -0.19239,0.0126 -0.27594,0.0376 -0.0835,0.0251 -0.16101,0.0565 -0.23203,0.094 v 2.2184 c -0.0418,0.0126 -0.1,0.023 -0.1752,0.0313 -0.0751,0.0125 -0.15892,0.0188 -0.25084,0.0188 -0.18801,0 -0.32368,-0.0293 -0.40723,-0.0877 -0.0835,-0.0628 -0.12542,-0.1816 -0.12542,-0.35708 v -1.9366 c 0,-0.10862 0.0229,-0.19614 0.069,-0.26298 0.046,-0.0669 0.11049,-0.12964 0.194,-0.18813 0.13369,-0.0961 0.30534,-0.17356 0.51424,-0.23205 0.21307,-0.0584 0.44673,-0.0877 0.70158,-0.0877 z m 12.24632,0 v 3.9e-4 c 0.21726,0 0.41363,0.0226 0.5891,0.0686 0.17963,0.0418 0.33244,0.10875 0.45778,0.20067 0.12534,0.0919 0.22124,0.20875 0.28809,0.3508 0.0709,0.14206 0.10664,0.30949 0.10664,0.50168 v 1.4165 c 0,0.10862 -0.0292,0.19614 -0.0879,0.263 -0.0543,0.0628 -0.12125,0.11709 -0.20067,0.16304 -0.12948,0.0793 -0.28819,0.14007 -0.47622,0.18186 -0.188,0.0418 -0.40112,0.0623 -0.63925,0.0623 -0.43034,0 -0.77284,-0.0812 -1.02769,-0.24419 -0.25486,-0.16712 -0.38253,-0.41999 -0.38253,-0.75842 0,-0.28829 0.0859,-0.50766 0.25711,-0.65807 0.17128,-0.15041 0.43463,-0.2446 0.78977,-0.2822 l 0.83327,-0.087 v -0.0698 c 0,-0.1337 -0.054,-0.2317 -0.16266,-0.29435 -0.10862,-0.0628 -0.26522,-0.0937 -0.46994,-0.0937 -0.15876,0 -0.31573,0.0185 -0.47032,0.056 -0.15042,0.0376 -0.28608,0.0816 -0.40723,0.13169 -0.0502,-0.0335 -0.0942,-0.0836 -0.13171,-0.1505 -0.0335,-0.071 -0.0502,-0.14638 -0.0502,-0.22576 0,-0.18383 0.0963,-0.31531 0.28847,-0.39468 0.12118,-0.046 0.26101,-0.0795 0.41978,-0.10034 0.16295,-0.0251 0.32162,-0.0376 0.47621,-0.0376 z m -8.71058,3.9e-4 c 0.21308,0 0.40733,0.0335 0.58282,0.10034 0.17965,0.0628 0.33205,0.15229 0.45739,0.26926 0.12951,0.11698 0.23,0.25723 0.30103,0.42018 0.0709,0.16293 0.10664,0.34044 0.10664,0.53264 0,0.13369 -0.0356,0.23376 -0.10664,0.30063 -0.0711,0.0669 -0.17152,0.11119 -0.30103,0.13207 l -1.62931,0.2438 c 0.0586,0.17548 0.16066,0.30105 0.30689,0.37626 0.14623,0.0709 0.3158,0.10665 0.50797,0.10665 0.17547,0 0.34044,-0.0226 0.49502,-0.0686 0.15458,-0.0502 0.27979,-0.10454 0.37588,-0.16305 0.0627,0.0418 0.11504,0.0961 0.15678,0.16305 0.0418,0.0669 0.0628,0.13971 0.0628,0.21909 0,0.0961 -0.0293,0.1798 -0.0879,0.25084 -0.0586,0.0711 -0.14012,0.13175 -0.24457,0.18188 -0.10023,0.046 -0.22128,0.0795 -0.36334,0.10034 -0.13786,0.0251 -0.29027,0.0372 -0.4574,0.0372 -0.2465,0 -0.47425,-0.0331 -0.68316,-0.1 -0.2089,-0.0709 -0.38852,-0.17358 -0.53892,-0.30728 -0.15041,-0.13788 -0.26972,-0.30912 -0.35746,-0.51385 -0.0835,-0.20473 -0.12542,-0.44502 -0.12542,-0.72079 0,-0.26738 0.0419,-0.49932 0.12542,-0.6957 0.0877,-0.19635 0.20287,-0.35884 0.34492,-0.48836 0.14622,-0.12953 0.31118,-0.22369 0.49502,-0.2822 0.18801,-0.0628 0.38019,-0.094 0.57656,-0.094 z m 3.50908,0 h 3.9e-4 c 0.28827,0 0.51395,0.0519 0.6769,0.15639 0.1671,0.10443 0.25044,0.23632 0.25044,0.39509 0,0.0751 -0.0188,0.14427 -0.0565,0.20694 -0.0335,0.0628 -0.0753,0.11709 -0.12543,0.16305 -0.0751,-0.0418 -0.16481,-0.0798 -0.26926,-0.11329 -0.10022,-0.0334 -0.21292,-0.0497 -0.33825,-0.0497 -0.22561,0 -0.41818,0.0732 -0.57695,0.2195 -0.15876,0.14204 -0.2379,0.35306 -0.2379,0.63299 0,0.27992 0.0753,0.48883 0.22575,0.62672 0.15459,0.13787 0.34845,0.20655 0.58243,0.20655 0.13369,0 0.25091,-0.0162 0.35119,-0.0497 0.10442,-0.0376 0.19196,-0.0753 0.26299,-0.11283 0.0709,0.0544 0.12545,0.11295 0.16306,0.1756 0.0418,0.0586 0.0628,0.13135 0.0628,0.21909 0,0.15877 -0.0838,0.28643 -0.25085,0.38253 -0.16712,0.0961 -0.39868,0.14385 -0.69531,0.14385 -0.25067,0 -0.48054,-0.0331 -0.68943,-0.1 -0.20472,-0.0669 -0.38015,-0.16732 -0.52638,-0.30101 -0.14623,-0.13372 -0.25928,-0.29867 -0.33864,-0.49503 -0.0793,-0.20054 -0.11915,-0.43249 -0.11915,-0.6957 0,-0.27157 0.044,-0.5077 0.13169,-0.70824 0.0877,-0.20055 0.20664,-0.3676 0.35706,-0.5013 0.1504,-0.13368 0.32624,-0.23418 0.52677,-0.30101 0.20055,-0.0668 0.41116,-0.10034 0.6326,-0.10034 z m 2.97916,0.006 c 0.43453,0 0.65181,0.14615 0.65181,0.4386 0,0.0709 -0.0105,0.1359 -0.0313,0.1944 -0.0209,0.0585 -0.0439,0.10874 -0.069,0.15051 -0.096,-0.0209 -0.21331,-0.0314 -0.35118,-0.0314 -0.12116,0 -0.24216,0.0146 -0.36333,0.0439 -0.12116,0.0293 -0.22752,0.069 -0.31944,0.11915 v 2.18078 c -0.0418,0.0125 -0.10034,0.023 -0.17559,0.0313 -0.0751,0.0126 -0.15894,0.0188 -0.25084,0.0188 -0.18801,0 -0.32366,-0.0294 -0.40723,-0.0879 -0.0835,-0.0628 -0.12542,-0.18155 -0.12542,-0.35705 v -1.91151 c 0,-0.11699 0.0293,-0.21709 0.0877,-0.30063 0.0586,-0.0835 0.14012,-0.15682 0.24458,-0.21948 0.13787,-0.0835 0.30285,-0.14844 0.49503,-0.19441 0.19637,-0.0502 0.4011,-0.0753 0.61416,-0.0753 z m -12.75896,0.0691 c 0.188,0 0.32157,0.0314 0.40095,0.094 0.0835,0.0628 0.12543,0.18157 0.12543,0.35706 v 2.57585 c -0.0418,0.0125 -0.10034,0.023 -0.1756,0.0313 -0.0751,0.0125 -0.15854,0.0188 -0.25045,0.0188 -0.188,0 -0.32367,-0.0294 -0.40724,-0.0877 -0.0793,-0.0628 -0.11913,-0.18157 -0.11913,-0.35707 v -2.57585 c 0.0418,-0.0126 0.10034,-0.0247 0.17558,-0.0372 0.0751,-0.0126 0.15853,-0.0192 0.25046,-0.0192 z m 6.27699,0.63299 c -0.17965,0 -0.32997,0.0565 -0.45113,0.16932 -0.117,0.10863 -0.18607,0.26731 -0.20695,0.47621 l 1.19701,-0.19402 c -0.008,-0.10862 -0.0565,-0.21117 -0.14424,-0.30727 -0.0877,-0.0961 -0.21921,-0.14424 -0.39469,-0.14424 z m 9.21854,1.11548 -0.51423,0.0439 c -0.1337,0.0125 -0.24213,0.044 -0.32571,0.094 -0.0793,0.046 -0.11915,0.11712 -0.11915,0.21321 0,0.10023 0.0378,0.1798 0.11294,0.2383 0.0751,0.0586 0.19831,0.0874 0.36961,0.0874 0.0919,0 0.18191,-0.008 0.26965,-0.0247 0.0919,-0.0209 0.16097,-0.0461 0.20694,-0.0753 z m -30.30596,0.49267 c 0.59907,3e-5 1.08456,0.48582 1.08451,1.08491 -2e-5,0.599 -0.48548,1.08447 -1.08451,1.0845 -0.599,-3e-5 -1.08488,-0.4855 -1.0849,-1.0845 -6e-5,-0.59909 0.48583,-1.08488 1.0849,-1.08491 z m 52.97682,0 c 0.5991,3e-5 1.08457,0.48582 1.08453,1.08491 -4e-5,0.599 -0.4855,1.08447 -1.08453,1.0845 -0.59902,5e-5 -1.08484,-0.48543 -1.08489,-1.0845 -5e-5,-0.59913 0.48578,-1.08495 1.08489,-1.08491 z m -35.54899,1.75317 c 0.45538,0 0.81254,0.0959 1.07158,0.28808 0.25902,0.19218 0.38881,0.45761 0.38881,0.79604 0,0.21309 -0.0545,0.38851 -0.16305,0.52638 -0.10443,0.1337 -0.23842,0.23835 -0.40136,0.31356 0.0877,0.0376 0.17147,0.0837 0.25084,0.13796 0.0793,0.0543 0.14847,0.12089 0.20695,0.20028 0.0627,0.0751 0.11084,0.16522 0.14424,0.26966 0.0377,0.10034 0.0565,0.21501 0.0565,0.34452 0,0.17547 -0.0378,0.33417 -0.11295,0.47622 -0.0751,0.14204 -0.18195,0.26344 -0.31983,0.36372 -0.13369,0.0961 -0.29656,0.16935 -0.48875,0.21949 -0.18801,0.0543 -0.39903,0.0811 -0.63299,0.0811 -0.22979,0 -0.43872,-0.0269 -0.62672,-0.0811 -0.18802,-0.0502 -0.35088,-0.12548 -0.48875,-0.22576 -0.1337,-0.10023 -0.23836,-0.22128 -0.31355,-0.36333 -0.0751,-0.14206 -0.11248,-0.30322 -0.11248,-0.48289 0,-0.23814 0.0603,-0.43449 0.18148,-0.58908 0.12534,-0.15877 0.27567,-0.27977 0.45112,-0.36334 -0.1713,-0.0835 -0.30277,-0.192 -0.39469,-0.3257 -0.0919,-0.13788 -0.13795,-0.30322 -0.13795,-0.49542 0,-0.16711 0.0335,-0.31744 0.10034,-0.45113 0.0709,-0.13789 0.16942,-0.25261 0.29474,-0.34452 0.12952,-0.0961 0.28191,-0.16934 0.4574,-0.21949 0.17965,-0.0502 0.376,-0.0752 0.5891,-0.0752 z m 4.94517,0 c 0.45541,0 0.81255,0.0959 1.07158,0.28808 0.25902,0.19218 0.38841,0.45761 0.38841,0.79604 0,0.21309 -0.054,0.38851 -0.16265,0.52638 -0.10443,0.1337 -0.23842,0.23835 -0.40136,0.31356 0.0877,0.0376 0.17147,0.0837 0.25086,0.13796 0.0793,0.0543 0.14803,0.12089 0.20655,0.20028 0.0626,0.0751 0.11084,0.16522 0.14423,0.26966 0.0376,0.10034 0.0565,0.21501 0.0565,0.34452 0,0.17547 -0.0377,0.33417 -0.11282,0.47622 -0.0751,0.14204 -0.18157,0.26344 -0.31944,0.36372 -0.1337,0.0961 -0.29655,0.16935 -0.48875,0.21949 -0.188,0.0543 -0.39903,0.0811 -0.633,0.0811 -0.22977,0 -0.43869,-0.0269 -0.62671,-0.0811 -0.188,-0.0502 -0.35089,-0.12548 -0.48877,-0.22576 -0.13369,-0.10023 -0.23833,-0.22128 -0.31355,-0.36333 -0.0751,-0.14206 -0.11294,-0.30322 -0.11294,-0.48289 0,-0.23814 0.0608,-0.43449 0.18186,-0.58908 0.12536,-0.15877 0.27566,-0.27977 0.45114,-0.36334 -0.1713,-0.0835 -0.30277,-0.192 -0.39469,-0.3257 -0.0919,-0.13788 -0.13797,-0.30322 -0.13797,-0.49542 0,-0.16711 0.0335,-0.31744 0.10034,-0.45113 0.0709,-0.13789 0.16939,-0.25261 0.29474,-0.34452 0.1295,-0.0961 0.28193,-0.16934 0.45741,-0.21949 0.17964,-0.0502 0.37601,-0.0752 0.58908,-0.0752 z m 12.10521,0 c 0.45541,0 0.81253,0.0959 1.07158,0.28808 0.25904,0.19218 0.38881,0.45761 0.38881,0.79604 0,0.21309 -0.0544,0.38851 -0.16305,0.52638 -0.10443,0.1337 -0.23804,0.23835 -0.40096,0.31356 0.0877,0.0376 0.17105,0.0837 0.25046,0.13796 0.0793,0.0543 0.14844,0.12089 0.20693,0.20028 0.0628,0.0751 0.11084,0.16522 0.14425,0.26966 0.0378,0.10034 0.0565,0.21501 0.0565,0.34452 0,0.17547 -0.0378,0.33417 -0.11283,0.47622 -0.0751,0.14204 -0.18157,0.26344 -0.31943,0.36372 -0.13371,0.0961 -0.29695,0.16935 -0.48915,0.21949 -0.18803,0.0543 -0.39898,0.0811 -0.63299,0.0811 -0.2298,0 -0.43831,-0.0269 -0.62632,-0.0811 -0.18799,-0.0502 -0.35128,-0.12548 -0.48915,-0.22576 -0.13371,-0.10023 -0.23795,-0.22128 -0.31317,-0.36333 -0.0751,-0.14206 -0.11283,-0.30322 -0.11283,-0.48289 0,-0.23814 0.0608,-0.43449 0.18187,-0.58908 0.12533,-0.15877 0.27569,-0.27977 0.45112,-0.36334 -0.1713,-0.0835 -0.30278,-0.192 -0.39469,-0.3257 -0.0919,-0.13788 -0.13795,-0.30322 -0.13795,-0.49542 0,-0.16711 0.0336,-0.31744 0.10034,-0.45113 0.071,-0.13789 0.16897,-0.25261 0.29435,-0.34452 0.12948,-0.0961 0.28229,-0.16934 0.45779,-0.21949 0.17964,-0.0502 0.37563,-0.0752 0.5887,-0.0752 z m 4.74724,0.0125 c 0.48466,0 0.8669,0.16077 1.14683,0.48248 0.27991,0.32172 0.42016,0.79186 0.42016,1.41022 0,0.35512 -0.0439,0.66451 -0.13169,0.92773 -0.0835,0.26322 -0.20287,0.48259 -0.35745,0.65807 -0.15458,0.17129 -0.34046,0.30069 -0.55774,0.38842 -0.21308,0.0835 -0.44919,0.12543 -0.70825,0.12543 -0.31749,0 -0.57212,-0.0419 -0.76429,-0.12543 -0.18802,-0.0877 -0.2822,-0.2196 -0.2822,-0.39508 0,-0.0835 0.0189,-0.16271 0.0565,-0.23791 0.0419,-0.0751 0.0879,-0.13172 0.13797,-0.16932 0.10862,0.0502 0.22372,0.0919 0.34491,0.12542 0.12115,0.0293 0.24214,0.0439 0.36333,0.0439 0.28404,0 0.51187,-0.0796 0.68316,-0.2383 0.17131,-0.15876 0.25672,-0.38233 0.25672,-0.67062 -0.0793,0.0669 -0.18572,0.12546 -0.31943,0.17559 -0.12948,0.046 -0.27982,0.0691 -0.45113,0.0691 -0.18802,0 -0.36173,-0.0252 -0.5205,-0.0753 -0.15459,-0.0502 -0.29024,-0.12717 -0.40723,-0.23162 -0.11283,-0.10443 -0.2024,-0.23424 -0.26927,-0.38881 -0.0626,-0.15461 -0.094,-0.33631 -0.094,-0.5452 0,-0.18384 0.0314,-0.35508 0.094,-0.51384 0.0669,-0.16295 0.16063,-0.30489 0.28181,-0.42604 0.12533,-0.12117 0.27776,-0.21536 0.4574,-0.2822 0.17968,-0.0709 0.38651,-0.10618 0.62044,-0.10618 z m -26.1682,0.0439 h 0.21322 c 0.15876,0 0.28644,0.0481 0.38254,0.14424 0.0961,0.096 0.14383,0.22337 0.14383,0.38214 v 3.32173 c -0.0459,0.0125 -0.10629,0.0248 -0.18146,0.0372 -0.0751,0.0126 -0.15891,0.0188 -0.25084,0.0188 -0.18801,0 -0.32367,-0.031 -0.40723,-0.0937 -0.0835,-0.0628 -0.12543,-0.18198 -0.12543,-0.35746 v -2.49395 l -0.65807,0.23164 c -0.0586,-0.0376 -0.11712,-0.09 -0.1756,-0.15676 -0.0586,-0.0711 -0.0877,-0.16692 -0.0877,-0.2881 0,-0.2256 0.13813,-0.38639 0.4139,-0.48248 z m 17.05078,0 h 0.21322 c 0.15877,0 0.28606,0.0481 0.38214,0.14424 0.0961,0.096 0.14385,0.22337 0.14385,0.38214 v 3.32173 c -0.0461,0.0125 -0.10629,0.0248 -0.18148,0.0372 -0.0751,0.0126 -0.1589,0.0188 -0.25084,0.0188 -0.188,0 -0.32367,-0.031 -0.40722,-0.0937 -0.0835,-0.0628 -0.12544,-0.18198 -0.12544,-0.35746 v -2.49395 l -0.65806,0.23164 c -0.0586,-0.0376 -0.11672,-0.09 -0.17521,-0.15676 -0.0586,-0.0711 -0.0877,-0.16692 -0.0877,-0.2881 0,-0.2256 0.13776,-0.38639 0.4135,-0.48248 z m -12.6802,0.67062 c -0.15041,0 -0.27144,0.0377 -0.36333,0.11282 -0.0877,0.0751 -0.13169,0.17318 -0.13169,0.29436 0,0.14623 0.0502,0.25717 0.1505,0.33236 0.10022,0.0751 0.22964,0.12714 0.38842,0.1564 0.15041,-0.046 0.26514,-0.1084 0.34451,-0.18775 0.0835,-0.0793 0.12543,-0.17985 0.12543,-0.30101 0,-0.12952 -0.046,-0.22959 -0.13796,-0.30062 -0.0877,-0.0709 -0.21294,-0.10665 -0.37588,-0.10665 z m 4.94517,0 c -0.15041,0 -0.2718,0.0377 -0.36373,0.11282 -0.0877,0.0751 -0.1313,0.17318 -0.1313,0.29436 0,0.14623 0.0499,0.25717 0.15011,0.33236 0.10023,0.0751 0.23004,0.12714 0.38881,0.1564 0.15041,-0.046 0.26515,-0.1084 0.34452,-0.18775 0.0835,-0.0793 0.12543,-0.17985 0.12543,-0.30101 0,-0.12952 -0.0461,-0.22959 -0.13797,-0.30062 -0.0877,-0.0709 -0.21292,-0.10665 -0.37587,-0.10665 z m 12.10521,0 c -0.15039,0 -0.27139,0.0377 -0.36333,0.11282 -0.0877,0.0751 -0.13169,0.17318 -0.13169,0.29436 0,0.14623 0.0502,0.25717 0.1505,0.33236 0.10023,0.0751 0.22965,0.12714 0.38842,0.1564 0.1504,-0.046 0.26555,-0.1084 0.34491,-0.18775 0.0835,-0.0793 0.12543,-0.17985 0.12543,-0.30101 0,-0.12952 -0.0462,-0.22959 -0.13797,-0.30062 -0.0876,-0.0709 -0.21331,-0.10665 -0.37627,-0.10665 z m 4.74724,0.0502 c -0.15874,0 -0.28186,0.0482 -0.3696,0.14424 -0.0877,0.0961 -0.13169,0.22759 -0.13169,0.39468 0,0.17548 0.0524,0.30905 0.15677,0.40097 0.10443,0.0919 0.23592,0.13795 0.39469,0.13795 0.10443,0 0.20494,-0.023 0.30101,-0.069 0.0961,-0.0502 0.17107,-0.11049 0.22537,-0.18147 v -0.0502 c 0,-0.25067 -0.0498,-0.44285 -0.15011,-0.57655 -0.096,-0.13368 -0.23843,-0.20068 -0.42644,-0.20068 z m -13.27595,1.14683 h 1.36631 c 0.0209,0.0376 0.0439,0.0921 0.069,0.16306 0.0251,0.0668 0.0376,0.13801 0.0376,0.21321 0,0.13786 -0.0335,0.23796 -0.10035,0.30061 -0.0626,0.0628 -0.1464,0.0941 -0.25084,0.0941 h -1.3722 c -0.025,-0.0418 -0.0482,-0.0963 -0.069,-0.16306 -0.0209,-0.0668 -0.0313,-0.13763 -0.0313,-0.21283 0,-0.13786 0.0315,-0.23834 0.094,-0.30101 0.0628,-0.0628 0.1481,-0.094 0.25674,-0.094 z m -8.58438,0.31982 c -0.17546,0.0543 -0.30695,0.13137 -0.39468,0.23165 -0.0835,0.10022 -0.12543,0.21331 -0.12543,0.33864 0,0.15042 0.0524,0.26724 0.15678,0.3508 0.10862,0.0835 0.25056,0.12541 0.42604,0.12541 0.17964,0 0.32367,-0.0398 0.43232,-0.11915 0.10862,-0.0793 0.16304,-0.1983 0.16304,-0.35706 0,-0.14205 -0.0565,-0.26134 -0.16932,-0.35745 -0.11283,-0.10022 -0.27567,-0.17107 -0.48875,-0.21284 z m 4.94517,0 c -0.17548,0.0543 -0.30735,0.13137 -0.39509,0.23165 -0.0835,0.10022 -0.12503,0.21331 -0.12503,0.33864 0,0.15042 0.052,0.26724 0.15639,0.3508 0.10863,0.0835 0.25096,0.12541 0.42644,0.12541 0.17967,0 0.32368,-0.0398 0.43232,-0.11915 0.10862,-0.0793 0.16304,-0.1983 0.16304,-0.35706 0,-0.14205 -0.0565,-0.26134 -0.16932,-0.35745 -0.11283,-0.10022 -0.27568,-0.17107 -0.48875,-0.21284 z m 12.1056,0 c -0.17549,0.0543 -0.30732,0.13137 -0.39507,0.23165 -0.0835,0.10022 -0.12543,0.21331 -0.12543,0.33864 0,0.15042 0.0523,0.26724 0.15678,0.3508 0.10862,0.0835 0.25058,0.12541 0.42604,0.12541 0.17968,0 0.3241,-0.0398 0.43271,-0.11915 0.10863,-0.0793 0.16265,-0.1983 0.16265,-0.35706 0,-0.14205 -0.0561,-0.26134 -0.16892,-0.35745 -0.11283,-0.10022 -0.27567,-0.17107 -0.48876,-0.21284 z m -19.46123,0.63928 c 0.17128,0 0.30697,0.054 0.40722,0.16264 0.10022,0.10863 0.15051,0.2426 0.15051,0.40136 0,0.15877 -0.0502,0.29234 -0.15051,0.40096 -0.10022,0.10863 -0.23594,0.16305 -0.40722,0.16305 -0.17548,0 -0.31363,-0.0545 -0.41389,-0.16305 -0.0961,-0.10862 -0.14385,-0.24219 -0.14385,-0.40096 0,-0.15876 0.0478,-0.29272 0.14385,-0.40136 0.10022,-0.10862 0.23841,-0.16264 0.41389,-0.16264 z m 4.94477,0 c 0.17129,0 0.30736,0.054 0.40762,0.16264 0.10022,0.10863 0.15012,0.2426 0.15012,0.40136 0,0.15877 -0.0498,0.29234 -0.15012,0.40096 -0.10022,0.10863 -0.23633,0.16305 -0.40762,0.16305 -0.17546,0 -0.31322,-0.0545 -0.41349,-0.16305 -0.096,-0.10862 -0.14424,-0.24219 -0.14424,-0.40096 0,-0.15876 0.0482,-0.29272 0.14424,-0.40136 0.10022,-0.10862 0.23803,-0.16264 0.41349,-0.16264 z m 12.10561,0 c 0.1713,0 0.30699,0.054 0.40723,0.16264 0.10023,0.10863 0.1505,0.2426 0.1505,0.40136 0,0.15877 -0.0502,0.29234 -0.1505,0.40096 -0.10022,0.10863 -0.23593,0.16305 -0.40723,0.16305 -0.1755,0 -0.31322,-0.0545 -0.4135,-0.16305 -0.0961,-0.10862 -0.14424,-0.24219 -0.14424,-0.40096 0,-0.15876 0.0482,-0.29272 0.14424,-0.40136 0.10023,-0.10862 0.238,-0.16264 0.4135,-0.16264 z m 4.94517,0 c 0.17132,0 0.30695,0.054 0.40723,0.16264 0.10023,0.10863 0.1505,0.2426 0.1505,0.40136 0,0.15877 -0.0502,0.29234 -0.1505,0.40096 -0.10022,0.10863 -0.23591,0.16305 -0.40723,0.16305 -0.17549,0 -0.31323,-0.0545 -0.4135,-0.16305 -0.096,-0.10862 -0.14423,-0.24219 -0.14423,-0.40096 0,-0.15876 0.0482,-0.29272 0.14423,-0.40136 0.10023,-0.10862 0.23801,-0.16264 0.4135,-0.16264 z" />
    </g>
  </g>
</svg>
