<?xml version="1.0" encoding="UTF-8" standalone="no"?>
<!-- Created with Inkscape (http://www.inkscape.org/) -->

<svg
   xmlns:dc="http://purl.org/dc/elements/1.1/"
   xmlns:cc="http://creativecommons.org/ns#"
   xmlns:rdf="http://www.w3.org/1999/02/22-rdf-syntax-ns#"
   xmlns:svg="http://www.w3.org/2000/svg"
   xmlns="http://www.w3.org/2000/svg"
   xmlns:xlink="http://www.w3.org/1999/xlink"
   xmlns:sodipodi="http://sodipodi.sourceforge.net/DTD/sodipodi-0.dtd"
   xmlns:inkscape="http://www.inkscape.org/namespaces/inkscape"
   width="207.49011mm"
   height="66.311119mm"
   viewBox="0 0 207.49011 66.311119"
   version="1.1"
   id="svg8"
   inkscape:version="0.92.4 (5da689c313, 2019-01-14)"
   sodipodi:docname="logo_1.svg">
  <defs
     id="defs2">
    <linearGradient
       id="linearGradient1630"
       inkscape:collect="always">
      <stop
         id="stop1626"
         offset="0"
         style="stop-color:#ffffff;stop-opacity:1;" />
      <stop
         style="stop-color:#ffffff;stop-opacity:1"
         offset="0.51189452"
         id="stop1713" />
      <stop
         id="stop1628"
         offset="1"
         style="stop-color:#d7e4e3;stop-opacity:1" />
    </linearGradient>
    <linearGradient
       gradientTransform="matrix(0.26458333,0,0,0.26458333,75.00002,136.36307)"
       y2="102.88421"
       x2="128.61049"
       y1="-43.465401"
       x1="89.285713"
       gradientUnits="userSpaceOnUse"
       id="linearGradient1634"
       xlink:href="#linearGradient1630"
       inkscape:collect="always" />
    <inkscape:path-effect
       effect="skeletal"
       id="path-effect1337"
       is_visible="true"
       pattern="m -35.459921,187.69288 c 13.826754,0 29.3309779,19.87909 29.3309779,19.87909 0,0 -15.5042209,19.87906 -29.3309759,19.87906 -13.826753,0 -29.330975,-19.87906 -29.330975,-19.87906 0,0 15.504219,-19.87909 29.330973,-19.87909 z"
       copytype="single_stretched"
       prop_scale="0.47179813"
       scale_y_rel="false"
       spacing="0"
       normal_offset="0"
       tang_offset="0"
       prop_units="false"
       vertical_pattern="false"
       fuse_tolerance="0" />
    <inkscape:path-effect
       effect="spiro"
       id="path-effect1335"
       is_visible="true" />
    <inkscape:path-effect
       effect="simplify"
       id="path-effect1333"
       is_visible="true"
       steps="1"
       threshold="0.0093627"
       smooth_angles="360"
       helper_size="0"
       simplify_individual_paths="false"
       simplify_just_coalesce="false"
       simplifyindividualpaths="false"
       simplifyJustCoalesce="false" />
    <inkscape:path-effect
       fuse_tolerance="0"
       vertical_pattern="false"
       prop_units="false"
       tang_offset="0"
       normal_offset="0"
       spacing="0"
       scale_y_rel="false"
       prop_scale="0.47179813"
       copytype="single_stretched"
       pattern="m -35.459921,187.69288 c 13.826754,0 29.3309779,19.87909 29.3309779,19.87909 0,0 -15.5042209,19.87906 -29.3309759,19.87906 -13.826753,0 -29.330975,-19.87906 -29.330975,-19.87906 0,0 15.504219,-19.87909 29.330973,-19.87909 z"
       is_visible="true"
       id="path-effect1327"
       effect="skeletal" />
    <inkscape:path-effect
       is_visible="true"
       id="path-effect1319"
       effect="spiro" />
    <inkscape:path-effect
       simplifyJustCoalesce="false"
       simplifyindividualpaths="false"
       simplify_just_coalesce="false"
       simplify_individual_paths="false"
       helper_size="0"
       smooth_angles="360"
       threshold="0.0093627"
       steps="1"
       is_visible="true"
       id="path-effect1317"
       effect="simplify" />
    <inkscape:path-effect
       fuse_tolerance="0"
       vertical_pattern="false"
       prop_units="false"
       tang_offset="0"
       normal_offset="0"
       spacing="0"
       scale_y_rel="false"
       prop_scale="0.41798948"
       copytype="single_stretched"
       pattern="m -35.459921,187.69288 c 13.826754,0 29.3309779,19.87909 29.3309779,19.87909 0,0 -15.5042209,19.87906 -29.3309759,19.87906 -13.826753,0 -29.330975,-19.87906 -29.330975,-19.87906 0,0 15.504219,-19.87909 29.330973,-19.87909 z"
       is_visible="true"
       id="path-effect1299"
       effect="skeletal" />
    <inkscape:path-effect
       is_visible="true"
       id="path-effect1291"
       effect="spiro" />
    <inkscape:path-effect
       simplifyJustCoalesce="false"
       simplifyindividualpaths="false"
       simplify_just_coalesce="false"
       simplify_individual_paths="false"
       helper_size="0"
       smooth_angles="360"
       threshold="0.0093627"
       steps="1"
       is_visible="true"
       id="path-effect1289"
       effect="simplify" />
    <inkscape:path-effect
       fuse_tolerance="0"
       vertical_pattern="false"
       prop_units="false"
       tang_offset="0"
       normal_offset="0"
       spacing="0"
       scale_y_rel="false"
       prop_scale="0.26458333"
       copytype="single_stretched"
       pattern="m -35.459918,187.69289 c 10.866587,0 23.051512,11.41241 23.051512,11.41241 0,0 -12.184925,11.4124 -23.05151,11.4124 -10.866586,0 -23.051511,-11.4124 -23.051511,-11.4124 0,0 12.184923,-11.41241 23.051509,-11.41241 z"
       is_visible="true"
       id="path-effect1247"
       effect="skeletal" />
    <inkscape:path-effect
       is_visible="true"
       id="path-effect1239"
       effect="spiro" />
    <inkscape:path-effect
       fuse_tolerance="0"
       vertical_pattern="false"
       prop_units="false"
       tang_offset="0"
       normal_offset="0"
       spacing="0"
       scale_y_rel="false"
       prop_scale="0.26458333"
       copytype="single_stretched"
       pattern="m -35.459918,187.69289 c 10.866587,0 23.051512,11.41241 23.051512,11.41241 0,0 -12.184925,11.4124 -23.05151,11.4124 -10.866586,0 -23.051511,-11.4124 -23.051511,-11.4124 0,0 12.184923,-11.41241 23.051509,-11.41241 z"
       is_visible="true"
       id="path-effect1199"
       effect="skeletal" />
    <inkscape:path-effect
       is_visible="true"
       id="path-effect1191"
       effect="spiro" />
    <inkscape:path-effect
       fuse_tolerance="0"
       vertical_pattern="false"
       prop_units="false"
       tang_offset="0"
       normal_offset="0"
       spacing="0"
       scale_y_rel="false"
       prop_scale="0.26458333"
       copytype="single_stretched"
       pattern="m -35.459918,187.69289 c 10.866587,0 23.051512,11.41241 23.051512,11.41241 0,0 -12.184925,11.4124 -23.05151,11.4124 -10.866586,0 -23.051511,-11.4124 -23.051511,-11.4124 0,0 12.184923,-11.41241 23.051509,-11.41241 z"
       is_visible="true"
       id="path-effect1187"
       effect="skeletal" />
    <inkscape:path-effect
       is_visible="true"
       id="path-effect1179"
       effect="spiro" />
    <inkscape:path-effect
       fuse_tolerance="0"
       vertical_pattern="false"
       prop_units="false"
       tang_offset="0"
       normal_offset="0"
       spacing="0"
       scale_y_rel="false"
       prop_scale="0.26458333"
       copytype="single_stretched"
       pattern="m -35.459918,187.69289 c 10.866587,0 23.051512,11.41241 23.051512,11.41241 0,0 -12.184925,11.4124 -23.05151,11.4124 -10.866586,0 -23.051511,-11.4124 -23.051511,-11.4124 0,0 12.184923,-11.41241 23.051509,-11.41241 z"
       is_visible="true"
       id="path-effect1127"
       effect="skeletal" />
    <inkscape:path-effect
       is_visible="true"
       id="path-effect1119"
       effect="spiro" />
    <inkscape:path-effect
       fuse_tolerance="0"
       vertical_pattern="false"
       prop_units="false"
       tang_offset="0"
       normal_offset="0"
       spacing="0"
       scale_y_rel="false"
       prop_scale="0.26458333"
       copytype="single_stretched"
       pattern="m -35.459918,187.69289 c 10.866587,0 23.051512,11.41241 23.051512,11.41241 0,0 -12.184925,11.4124 -23.05151,11.4124 -10.866586,0 -23.051511,-11.4124 -23.051511,-11.4124 0,0 12.184923,-11.41241 23.051509,-11.41241 z"
       is_visible="true"
       id="path-effect1079"
       effect="skeletal" />
    <inkscape:path-effect
       is_visible="true"
       id="path-effect1071"
       effect="spiro" />
    <inkscape:path-effect
       fuse_tolerance="0"
       vertical_pattern="false"
       prop_units="false"
       tang_offset="0"
       normal_offset="0"
       spacing="0"
       scale_y_rel="false"
       prop_scale="0.26458333"
       copytype="single_stretched"
       pattern="m -35.459918,187.69289 c 10.866587,0 23.051512,11.41241 23.051512,11.41241 0,0 -12.184925,11.4124 -23.05151,11.4124 -10.866586,0 -23.051511,-11.4124 -23.051511,-11.4124 0,0 12.184923,-11.41241 23.051509,-11.41241 z"
       is_visible="true"
       id="path-effect1067"
       effect="skeletal" />
    <inkscape:path-effect
       is_visible="true"
       id="path-effect1059"
       effect="spiro" />
    <inkscape:path-effect
       fuse_tolerance="0"
       vertical_pattern="false"
       prop_units="false"
       tang_offset="0"
       normal_offset="0"
       spacing="0"
       scale_y_rel="false"
       prop_scale="0.26458333"
       copytype="single_stretched"
       pattern="m -35.459918,187.69289 c 10.866587,0 23.051512,11.41241 23.051512,11.41241 0,0 -12.184925,11.4124 -23.05151,11.4124 -10.866586,0 -23.051511,-11.4124 -23.051511,-11.4124 0,0 12.184923,-11.41241 23.051509,-11.41241 z"
       is_visible="true"
       id="path-effect1031"
       effect="skeletal" />
    <inkscape:path-effect
       is_visible="true"
       id="path-effect1023"
       effect="spiro" />
    <inkscape:path-effect
       fuse_tolerance="0"
       vertical_pattern="false"
       prop_units="false"
       tang_offset="0"
       normal_offset="0"
       spacing="0"
       scale_y_rel="false"
       prop_scale="0.47179813"
       copytype="single_stretched"
       pattern="m -35.459921,187.69288 c 13.826754,0 29.3309779,19.87909 29.3309779,19.87909 0,0 -15.5042209,19.87906 -29.3309759,19.87906 -13.826753,0 -29.330975,-19.87906 -29.330975,-19.87906 0,0 15.504219,-19.87909 29.330973,-19.87909 z"
       is_visible="true"
       id="path-effect1337-1"
       effect="skeletal" />
    <inkscape:path-effect
       is_visible="true"
       id="path-effect1335-4"
       effect="spiro" />
    <inkscape:path-effect
       simplifyJustCoalesce="false"
       simplifyindividualpaths="false"
       simplify_just_coalesce="false"
       simplify_individual_paths="false"
       helper_size="0"
       smooth_angles="360"
       threshold="0.0093627"
       steps="1"
       is_visible="true"
       id="path-effect1333-0"
       effect="simplify" />
    <inkscape:path-effect
       effect="skeletal"
       id="path-effect1327-5"
       is_visible="true"
       pattern="m -35.459921,187.69288 c 13.826754,0 29.3309779,19.87909 29.3309779,19.87909 0,0 -15.5042209,19.87906 -29.3309759,19.87906 -13.826753,0 -29.330975,-19.87906 -29.330975,-19.87906 0,0 15.504219,-19.87909 29.330973,-19.87909 z"
       copytype="single_stretched"
       prop_scale="0.47179813"
       scale_y_rel="false"
       spacing="0"
       normal_offset="0"
       tang_offset="0"
       prop_units="false"
       vertical_pattern="false"
       fuse_tolerance="0" />
    <inkscape:path-effect
       effect="spiro"
       id="path-effect1319-3"
       is_visible="true" />
    <inkscape:path-effect
       effect="simplify"
       id="path-effect1317-0"
       is_visible="true"
       steps="1"
       threshold="0.0093627"
       smooth_angles="360"
       helper_size="0"
       simplify_individual_paths="false"
       simplify_just_coalesce="false"
       simplifyindividualpaths="false"
       simplifyJustCoalesce="false" />
    <inkscape:path-effect
       effect="skeletal"
       id="path-effect1299-6"
       is_visible="true"
       pattern="m -35.459921,187.69288 c 13.826754,0 29.3309779,19.87909 29.3309779,19.87909 0,0 -15.5042209,19.87906 -29.3309759,19.87906 -13.826753,0 -29.330975,-19.87906 -29.330975,-19.87906 0,0 15.504219,-19.87909 29.330973,-19.87909 z"
       copytype="single_stretched"
       prop_scale="0.41798948"
       scale_y_rel="false"
       spacing="0"
       normal_offset="0"
       tang_offset="0"
       prop_units="false"
       vertical_pattern="false"
       fuse_tolerance="0" />
    <inkscape:path-effect
       effect="spiro"
       id="path-effect1291-0"
       is_visible="true" />
    <inkscape:path-effect
       effect="simplify"
       id="path-effect1289-5"
       is_visible="true"
       steps="1"
       threshold="0.0093627"
       smooth_angles="360"
       helper_size="0"
       simplify_individual_paths="false"
       simplify_just_coalesce="false"
       simplifyindividualpaths="false"
       simplifyJustCoalesce="false" />
    <inkscape:path-effect
       effect="skeletal"
       id="path-effect1247-7"
       is_visible="true"
       pattern="m -35.459918,187.69289 c 10.866587,0 23.051512,11.41241 23.051512,11.41241 0,0 -12.184925,11.4124 -23.05151,11.4124 -10.866586,0 -23.051511,-11.4124 -23.051511,-11.4124 0,0 12.184923,-11.41241 23.051509,-11.41241 z"
       copytype="single_stretched"
       prop_scale="0.26458333"
       scale_y_rel="false"
       spacing="0"
       normal_offset="0"
       tang_offset="0"
       prop_units="false"
       vertical_pattern="false"
       fuse_tolerance="0" />
    <inkscape:path-effect
       effect="spiro"
       id="path-effect1239-0"
       is_visible="true" />
    <inkscape:path-effect
       effect="skeletal"
       id="path-effect1199-1"
       is_visible="true"
       pattern="m -35.459918,187.69289 c 10.866587,0 23.051512,11.41241 23.051512,11.41241 0,0 -12.184925,11.4124 -23.05151,11.4124 -10.866586,0 -23.051511,-11.4124 -23.051511,-11.4124 0,0 12.184923,-11.41241 23.051509,-11.41241 z"
       copytype="single_stretched"
       prop_scale="0.26458333"
       scale_y_rel="false"
       spacing="0"
       normal_offset="0"
       tang_offset="0"
       prop_units="false"
       vertical_pattern="false"
       fuse_tolerance="0" />
    <inkscape:path-effect
       effect="spiro"
       id="path-effect1191-3"
       is_visible="true" />
    <inkscape:path-effect
       effect="skeletal"
       id="path-effect1187-6"
       is_visible="true"
       pattern="m -35.459918,187.69289 c 10.866587,0 23.051512,11.41241 23.051512,11.41241 0,0 -12.184925,11.4124 -23.05151,11.4124 -10.866586,0 -23.051511,-11.4124 -23.051511,-11.4124 0,0 12.184923,-11.41241 23.051509,-11.41241 z"
       copytype="single_stretched"
       prop_scale="0.26458333"
       scale_y_rel="false"
       spacing="0"
       normal_offset="0"
       tang_offset="0"
       prop_units="false"
       vertical_pattern="false"
       fuse_tolerance="0" />
    <inkscape:path-effect
       effect="spiro"
       id="path-effect1179-9"
       is_visible="true" />
    <inkscape:path-effect
       effect="skeletal"
       id="path-effect1127-9"
       is_visible="true"
       pattern="m -35.459918,187.69289 c 10.866587,0 23.051512,11.41241 23.051512,11.41241 0,0 -12.184925,11.4124 -23.05151,11.4124 -10.866586,0 -23.051511,-11.4124 -23.051511,-11.4124 0,0 12.184923,-11.41241 23.051509,-11.41241 z"
       copytype="single_stretched"
       prop_scale="0.26458333"
       scale_y_rel="false"
       spacing="0"
       normal_offset="0"
       tang_offset="0"
       prop_units="false"
       vertical_pattern="false"
       fuse_tolerance="0" />
    <inkscape:path-effect
       effect="spiro"
       id="path-effect1119-8"
       is_visible="true" />
    <inkscape:path-effect
       effect="skeletal"
       id="path-effect1079-6"
       is_visible="true"
       pattern="m -35.459918,187.69289 c 10.866587,0 23.051512,11.41241 23.051512,11.41241 0,0 -12.184925,11.4124 -23.05151,11.4124 -10.866586,0 -23.051511,-11.4124 -23.051511,-11.4124 0,0 12.184923,-11.41241 23.051509,-11.41241 z"
       copytype="single_stretched"
       prop_scale="0.26458333"
       scale_y_rel="false"
       spacing="0"
       normal_offset="0"
       tang_offset="0"
       prop_units="false"
       vertical_pattern="false"
       fuse_tolerance="0" />
    <inkscape:path-effect
       effect="spiro"
       id="path-effect1071-0"
       is_visible="true" />
    <inkscape:path-effect
       effect="skeletal"
       id="path-effect1067-9"
       is_visible="true"
       pattern="m -35.459918,187.69289 c 10.866587,0 23.051512,11.41241 23.051512,11.41241 0,0 -12.184925,11.4124 -23.05151,11.4124 -10.866586,0 -23.051511,-11.4124 -23.051511,-11.4124 0,0 12.184923,-11.41241 23.051509,-11.41241 z"
       copytype="single_stretched"
       prop_scale="0.26458333"
       scale_y_rel="false"
       spacing="0"
       normal_offset="0"
       tang_offset="0"
       prop_units="false"
       vertical_pattern="false"
       fuse_tolerance="0" />
    <inkscape:path-effect
       effect="spiro"
       id="path-effect1059-4"
       is_visible="true" />
    <inkscape:path-effect
       effect="skeletal"
       id="path-effect1031-0"
       is_visible="true"
       pattern="m -35.459918,187.69289 c 10.866587,0 23.051512,11.41241 23.051512,11.41241 0,0 -12.184925,11.4124 -23.05151,11.4124 -10.866586,0 -23.051511,-11.4124 -23.051511,-11.4124 0,0 12.184923,-11.41241 23.051509,-11.41241 z"
       copytype="single_stretched"
       prop_scale="0.26458333"
       scale_y_rel="false"
       spacing="0"
       normal_offset="0"
       tang_offset="0"
       prop_units="false"
       vertical_pattern="false"
       fuse_tolerance="0" />
    <inkscape:path-effect
       effect="spiro"
       id="path-effect1023-8"
       is_visible="true" />
    <linearGradient
       inkscape:collect="always"
       xlink:href="#linearGradient1630"
       id="linearGradient1142"
       gradientUnits="userSpaceOnUse"
       gradientTransform="matrix(0.26458333,0,0,0.26458333,75.00002,136.36307)"
       x1="89.285713"
       y1="-43.465401"
       x2="128.61049"
       y2="102.88421" />
  </defs>
  <sodipodi:namedview
     id="base"
     pagecolor="#ffffff"
     bordercolor="#666666"
     borderopacity="1.0"
     inkscape:pageopacity="0.0"
     inkscape:pageshadow="2"
     inkscape:zoom="0.7"
     inkscape:cx="249.83323"
     inkscape:cy="190.12655"
     inkscape:document-units="mm"
     inkscape:current-layer="layer1"
     showgrid="false"
     inkscape:pagecheckerboard="true"
     inkscape:window-width="1920"
     inkscape:window-height="1017"
     inkscape:window-x="-8"
     inkscape:window-y="-8"
     inkscape:window-maximized="1"
     fit-margin-top="0"
     fit-margin-left="0"
     fit-margin-right="0"
     fit-margin-bottom="0" />
  <metadata
     id="metadata5">
    <rdf:RDF>
      <cc:Work
         rdf:about="">
        <dc:format>image/svg+xml</dc:format>
        <dc:type
           rdf:resource="http://purl.org/dc/dcmitype/StillImage" />
        <dc:title></dc:title>
      </cc:Work>
    </rdf:RDF>
  </metadata>
  <g
     inkscape:label="Layer 1"
     inkscape:groupmode="layer"
     id="layer1"
     transform="translate(8.6121642,-220.04382)">
    <text
       xml:space="preserve"
       style="font-style:normal;font-variant:normal;font-weight:normal;font-stretch:normal;font-size:12.69999981px;line-height:1.25;font-family:Ubuntu;-inkscape-font-specification:Ubuntu;text-align:center;letter-spacing:0px;word-spacing:0px;writing-mode:lr-tb;text-anchor:middle;fill:#000000;fill-opacity:1;stroke:none;stroke-width:0.26458332"
       x="100.85979"
       y="144.81184"
       id="text1385"><tspan
         sodipodi:role="line"
         id="tspan1383"
         x="100.85979"
         y="156.6545"
         style="font-style:normal;font-variant:normal;font-weight:normal;font-stretch:normal;font-family:Ubuntu;-inkscape-font-specification:Ubuntu;writing-mode:lr-tb;stroke-width:0.26458332" /></text>
    <text
       xml:space="preserve"
       style="font-style:normal;font-variant:normal;font-weight:normal;font-stretch:normal;font-size:12.69999981px;line-height:1.25;font-family:Ubuntu;-inkscape-font-specification:Ubuntu;text-align:center;letter-spacing:0px;word-spacing:0px;writing-mode:lr-tb;text-anchor:middle;fill:#000000;fill-opacity:1;stroke:none;stroke-width:0.26458332"
       x="98.721634"
       y="146.95"
       id="text1389"><tspan
         sodipodi:role="line"
         id="tspan1387"
         x="98.721634"
         y="158.79265"
         style="font-style:normal;font-variant:normal;font-weight:normal;font-stretch:normal;font-family:Ubuntu;-inkscape-font-specification:Ubuntu;writing-mode:lr-tb;stroke-width:0.26458332" /></text>
    <g
       id="g1140"
       transform="matrix(2.731772,0,0,2.731772,-169.91121,-152.46872)"
       style="stroke-width:0.36606276">
      <path
         sodipodi:nodetypes="ccccscccccccccscccscccscccccccccscccccccccccccccccccccccccccccccccccccccccccccccccccccccccccccccccccccccccccccccccccccccccccccccccccccccccccccccccccccccccccccccccccccccccccccscccccscccccccccccccccsccccccscccsccccccscscscscsccccccsccccccccccccccccccccccccccccscsccccscccscccccccccccccccccscccsccccscscccccccccccccsccccccsccccscccccccscccsscccscscsscccccsccccccscsccscccscccsccssccscccccccscsccsccccccccccccscccccccccccccsccccccccsccccccscscccccccccscccscccccccccccscccscccscccccscccscccscccscccssscccscccccscccscccscccscccssccccsccccsscccscccscccscccccccccccccccccccccccccccccccccscccscccccccccscccscccccccccscccsccccccccccccccscsccccccccccccccscscccscccccccscscccsccczcccscscccscczscscscscsscscscscsscscscscsscscscscs"
         inkscape:connector-curvature="0"
         id="path1513"
         d="m 117.20055,136.36307 c -0.62393,0 -1.22041,0.10365 -1.79008,0.31161 -0.56062,0.20799 -1.05786,0.52044 -1.49189,0.93638 -0.425,0.41595 -0.76484,0.93077 -1.01803,1.54565 -0.25319,0.60584 -0.3793,1.31138 -0.3793,2.11615 0,0.201 0.0302,0.37827 0.0455,0.56741 l 0.37982,0.0207 c 0.0464,0.56022 0.13793,1.08537 0.31884,1.54099 0.0773,0.19172 0.17907,0.35742 0.2744,0.5302 l 2.8174,0.0351 c -0.22869,-0.13401 -0.45124,-0.27589 -0.62322,-0.4837 -0.20797,-0.27127 -0.37079,-0.59201 -0.48834,-0.96274 -0.0487,-0.16656 -0.0465,-0.37585 -0.0734,-0.56068 l -0.38137,-0.0207 c -0.0332,-0.21837 -0.0858,-0.42053 -0.0858,-0.66661 0,-0.45212 0.0543,-0.8633 0.16278,-1.23403 0.11755,-0.37978 0.28037,-0.70103 0.48834,-0.96326 0.21702,-0.27128 0.47908,-0.47958 0.78652,-0.62424 0.30744,-0.15372 0.65995,-0.23048 1.05781,-0.23048 0.38882,0 0.73694,0.0729 1.04438,0.21756 0.31648,0.14468 0.57906,0.35194 0.78703,0.6232 0.21702,0.26224 0.37932,0.58348 0.48783,0.96326 0.11755,0.37072 0.17673,0.78683 0.17673,1.24799 0,0.3487 -0.0666,0.64661 -0.13384,0.94361 l 0.37517,0.0202 c -0.017,0.0921 -0.0135,0.19974 -0.0403,0.28422 -0.1085,0.37073 -0.27081,0.69147 -0.48782,0.96274 -0.17491,0.22053 -0.41026,0.37573 -0.66198,0.51314 l 2.82774,0.0351 c 0.11391,-0.20103 0.22786,-0.40215 0.31626,-0.62993 0.12984,-0.32702 0.21923,-0.68491 0.28008,-1.06557 l -0.37517,-0.0202 c 0.0517,-0.32919 0.0837,-0.67395 0.0837,-1.04335 0,-0.80477 -0.12224,-1.51031 -0.36639,-2.11615 -0.24414,-0.61488 -0.57908,-1.12969 -1.00407,-1.54564 -0.42499,-0.41595 -0.92223,-0.7284 -1.4919,-0.93638 -0.56966,-0.20797 -1.17545,-0.31162 -1.81746,-0.31162 z m -42.20053,0.21704 0.52917,1.80351 h 2.30529 v 1.58854 l 0.37775,0.0202 v 3.50211 l 2.11615,0.0264 v -3.43494 l -0.37775,-0.0202 v -1.68208 h 2.83496 l -0.52916,-1.80354 z m 9.13175,0 v 3.73105 l 0.37775,0.0202 v 3.24115 l 2.11615,0.0264 v -1.60712 h 3.55379 v 1.65106 l 2.11563,0.0263 v -2.93935 l -0.37775,-0.0202 v -4.12946 l -2.11564,0.52916 v 3.06493 h -3.55379 v -3.06493 z m 9.96063,0 v 4.26641 l 0.37775,0.0202 v 2.82929 l 2.11615,0.0263 v -1.78489 h 3.75739 v -0.77515 l -0.37775,-0.0202 v -0.9405 h -3.75739 v -1.84485 h 3.70261 l 0.52917,-1.77664 z m 11.47061,0 v 4.88342 l 0.37776,0.0202 v 2.35438 l 2.11615,0.0263 v -2.28719 l -0.37776,-0.0202 v -4.97696 z m 17.12144,0 c 0.31648,1.57337 0.67778,3.16924 1.08469,4.78782 0.0985,0.38324 0.21578,0.71782 0.31781,1.09193 l 0.38344,0.0207 c 0.14915,0.54534 0.30801,1.06687 0.46457,1.59318 l 3.11712,0.0382 c 0.0939,-0.29102 0.19514,-0.55979 0.28629,-0.85886 l 0.17363,-0.57568 -0.37155,-0.0202 0.68833,-2.27945 c 0.23911,0.79208 0.48288,1.58402 0.72812,2.37608 l 0.38395,0.0207 c 0.0493,0.15953 0.0971,0.31899 0.14677,0.47852 0.0972,0.30915 0.20117,0.58726 0.30023,0.8878 l 3.08096,0.0382 c 0.11894,-0.40082 0.23697,-0.80432 0.35088,-1.21646 l -0.37207,-0.0202 c 0.14791,-0.53227 0.3148,-1.02198 0.45372,-1.57458 0.41595,-1.61858 0.78216,-2.68528 1.09864,-4.25865 L 132.8027,136.58 c -0.0904,0.53349 -0.18967,1.0894 -0.29818,1.66812 -0.0995,0.56966 -0.20361,1.14366 -0.31212,1.72237 -0.10851,0.57871 -0.22584,1.13952 -0.35244,1.68207 -0.0928,0.42836 -0.18572,0.81155 -0.27853,1.18856 l -0.17984,-0.01 c -0.11208,-0.33705 -0.22466,-0.67685 -0.3421,-1.05678 l -0.46147,-1.49189 c -0.14467,-0.49733 -0.28501,-0.97648 -0.42064,-1.43764 -0.12659,-0.47021 -0.24393,-0.89121 -0.35243,-1.26194 h -1.80351 c -0.0995,0.3617 -0.21292,0.77339 -0.33952,1.23454 -0.11755,0.46117 -0.24806,0.94084 -0.39274,1.43817 -0.14467,0.49733 -0.29431,0.99404 -0.44803,1.49138 -0.0898,0.29055 -0.18434,0.55305 -0.2775,0.82424 l -0.35037,-0.0186 c -0.0757,-0.29411 -0.15116,-0.57579 -0.22686,-0.9002 -0.11755,-0.54255 -0.23488,-1.10336 -0.35243,-1.68207 -0.11756,-0.57871 -0.23049,-1.15271 -0.339,-1.72237 -0.10851,-0.57872 -0.20827,-0.60546 -0.29869,-1.13895 z m 3.89692,6.01411 0.32659,0.0176 c -0.0615,0.18101 -0.12094,0.37468 -0.18396,0.54622 -0.0474,-0.17274 -0.0952,-0.37767 -0.14263,-0.56379 z m 5.19141,0.27853 0.1571,0.009 c -0.0216,0.0898 -0.0435,0.19175 -0.0651,0.27647 -0.0298,-0.0876 -0.0615,-0.19236 -0.092,-0.28525 z m -53.9383,0.62167 v 2.48512 l 2.11615,-0.52917 v -1.92959 z m 6.29729,0.078 v 2.4071 l 2.11615,-0.52917 v -1.85157 z m 5.66993,0.0703 v 1.80764 l 2.11564,0.52917 v -2.31046 z m 4.2907,0.0532 v 2.28358 h 6.66005 l -0.52916,-1.77716 h -4.01474 v -0.48007 z m 11.47061,0.14211 v 2.14147 h 6.28024 l -0.52917,-1.81746 h -3.63492 v -0.29766 z m 7.59902,0.094 c 0.2059,0.37318 0.43815,0.71871 0.72864,1.00303 0.42499,0.4069 0.92275,0.71445 1.49242,0.92242 0.56967,0.20798 1.17545,0.31161 1.81746,0.31161 0.66009,0 1.27466,-0.10363 1.84433,-0.31161 0.57871,-0.20797 1.07647,-0.51552 1.49241,-0.92242 0.25956,-0.25955 0.47137,-0.56966 0.66043,-0.90331 l -2.82774,-0.0351 c -0.0476,0.026 -0.0747,0.0743 -0.12505,0.0971 -0.30744,0.14468 -0.65556,0.21705 -1.04438,0.21705 -0.39787,0 -0.75038,-0.0724 -1.05782,-0.21705 -0.0638,-0.03 -0.1034,-0.0915 -0.1633,-0.1266 z m 11.39517,0.14158 c 0.18725,0.62946 0.35695,1.30419 0.55501,1.90583 h 1.93941 c 0.21679,-0.59463 0.41858,-1.23475 0.6227,-1.86759 z m 5.4529,0.0672 c 0.20518,0.62246 0.40875,1.25323 0.62218,1.83865 h 1.93994 c 0.1871,-0.56836 0.3428,-1.20723 0.51883,-1.80041 z m -16.60622,3.42822 c -0.58771,0 -1.03263,0.15612 -1.33429,0.46818 -0.29645,0.31206 -0.44441,0.73351 -0.44441,1.26402 v 4.32169 l 1.1622,-0.52916 v -2.60656 h 0.9064 l 0.52917,-0.9679 h -1.43557 v -0.20257 c 0,-0.10922 0.0107,-0.21074 0.0315,-0.30437 0.026,-0.0936 0.0648,-0.17424 0.11679,-0.24185 0.0572,-0.0677 0.13273,-0.11966 0.22634,-0.15606 0.0988,-0.0416 0.21821,-0.062 0.35863,-0.062 0.10403,0 0.21628,0.0127 0.3359,0.0387 0.12483,0.0208 0.23912,0.0545 0.34313,0.10129 l 0.22635,-0.92811 c -0.0988,-0.0416 -0.23965,-0.0835 -0.42168,-0.12506 -0.18204,-0.0468 -0.38204,-0.0703 -0.60048,-0.0703 z m -24.04194,0.078 c -0.18724,0 -0.35102,0.0628 -0.49145,0.18758 -0.13522,0.11961 -0.20309,0.28595 -0.20309,0.4992 0,0.21324 0.0679,0.38211 0.20309,0.50693 0.14043,0.11962 0.30421,0.17932 0.49145,0.17932 0.18723,0 0.34846,-0.0597 0.48369,-0.17932 0.14042,-0.12483 0.21032,-0.2937 0.21032,-0.50693 0,-0.21325 -0.0699,-0.37959 -0.21032,-0.4992 -0.13523,-0.12484 -0.29646,-0.18758 -0.48369,-0.18758 z m -7.22023,0.56946 c -0.052,0.35886 -0.10151,0.76195 -0.14832,1.20923 -0.0416,0.44208 -0.0804,0.90537 -0.11678,1.38906 -0.0312,0.47849 -0.0623,0.95912 -0.0935,1.44281 -0.026,0.48368 -0.0495,0.93882 -0.0703,1.36529 l 1.18546,-0.52917 c 0.0156,-0.52529 0.0365,-0.56809 0.0625,-1.187 0.026,-0.61892 0.0648,-1.24292 0.11679,-1.87223 0.0936,0.21843 0.1977,0.46028 0.31212,0.72552 0.11442,0.26526 0.22616,0.53058 0.33538,0.79582 0.11442,0.26527 0.22361,0.51986 0.32763,0.7643 0.10402,0.23925 0.1928,0.44488 0.26562,0.6165 h 0.85059 c 0.0728,-0.17162 0.16108,-0.37725 0.2651,-0.6165 0.10402,-0.24444 0.21066,-0.49904 0.31988,-0.7643 L 86.09701,150.76 c 0.11442,-0.26525 0.21851,-0.5071 0.31212,-0.72552 0.052,0.62931 0.0908,1.25331 0.11679,1.87223 0.026,0.61892 0.0469,1.19089 0.0625,1.71618 l 1.18598,-0.52917 c -0.0208,-0.42647 -0.0468,-0.35244 -0.078,-0.83612 -0.026,-0.4837 -0.0571,-0.96432 -0.0935,-1.44281 -0.0312,-0.48369 -0.0705,-0.94698 -0.11731,-1.38906 -0.0416,-0.44729 -0.088,-0.85037 -0.14004,-1.20923 h -1.10794 c -0.0936,0.17163 -0.20281,0.38491 -0.32763,0.63975 -0.11962,0.24965 -0.24718,0.52312 -0.38241,0.81959 -0.13002,0.29125 -0.26013,0.59026 -0.39016,0.89711 -0.13002,0.30687 -0.25247,0.59513 -0.3669,0.86558 -0.11442,-0.27045 -0.23636,-0.55871 -0.36638,-0.86558 -0.13003,-0.30685 -0.26269,-0.60586 -0.39791,-0.89711 -0.13003,-0.29647 -0.25707,-0.56994 -0.38189,-0.81959 -0.11962,-0.25484 -0.22678,-0.46812 -0.32039,-0.63975 z m 39.92572,0 v 3.5264 c 0,0.34326 -0.0653,0.58818 -0.19533,0.73382 -0.13003,0.14563 -0.3433,0.21807 -0.63976,0.21807 -0.20284,0 -0.39009,-0.0337 -0.56172,-0.10129 -0.17163,-0.0677 -0.33286,-0.14567 -0.48369,-0.2341 l -0.40566,0.94413 c 0.16643,0.11443 0.37715,0.21544 0.632,0.30386 0.25485,0.0832 0.55894,0.12505 0.9126,0.12505 0.38488,0 0.70224,-0.0495 0.95189,-0.14831 0.25485,-0.10402 0.45536,-0.24178 0.60099,-0.41341 0.15083,-0.17683 0.25492,-0.38245 0.31213,-0.6165 0.0624,-0.23404 0.093,-0.48354 0.093,-0.74879 v -3.58893 z m 2.38952,0 v 5.40639 h 3.83026 l -0.52917,-1.02164 h -2.08411 v -1.30277 h 2.16111 v -0.9989 h -2.16111 v -1.06092 h 1.9048 l 0.52916,-1.02216 z m -8.41706,0.0941 -1.1622,0.18708 v 3.44784 c 0,0.26524 0.0235,0.50762 0.0703,0.72606 0.052,0.21844 0.13976,0.40517 0.26458,0.5612 0.12483,0.15084 0.29167,0.27073 0.49971,0.35915 0.20804,0.0832 0.47029,0.12454 0.78755,0.12454 0.24965,0 0.46037,-0.0204 0.632,-0.062 0.17164,-0.0415 0.32828,-0.0911 0.46871,-0.14831 l -0.16433,-0.90485 c -0.10922,0.0416 -0.23168,0.0753 -0.3669,0.10128 -0.13003,0.0208 -0.25707,0.0315 -0.38189,0.0315 -0.26005,0 -0.43403,-0.0735 -0.52245,-0.2191 -0.0832,-0.14565 -0.12506,-0.34053 -0.12506,-0.58498 v -1.44281 h 0.86713 l 0.52917,-0.9679 h -1.3963 z m -18.6278,1.09969 c -0.24965,0 -0.49404,0.0469 -0.73329,0.14055 -0.23404,0.0936 -0.44222,0.23137 -0.62425,0.41341 -0.18203,0.18203 -0.33,0.41113 -0.44442,0.68678 -0.10922,0.27046 -0.16381,0.58729 -0.16381,0.95136 0,0.30166 0.0413,0.58279 0.12454,0.84284 0.0884,0.26004 0.22159,0.48607 0.39842,0.67851 0.18204,0.18723 0.40806,0.33571 0.67852,0.44494 0.27565,0.10922 0.59811,0.16381 0.96738,0.16381 0.14563,0 0.29104,-0.007 0.43666,-0.0232 0.14563,-0.0156 0.28084,-0.0364 0.40566,-0.0625 0.13003,-0.0208 0.24687,-0.0468 0.35089,-0.078 0.10402,-0.0312 0.1877,-0.0629 0.25011,-0.094 l -0.15606,-0.94361 c -0.13003,0.0572 -0.29891,0.1067 -0.50695,0.14831 -0.20284,0.0365 -0.41101,0.0548 -0.62425,0.0548 -0.33286,0 -0.59818,-0.0705 -0.79582,-0.21083 -0.19763,-0.14044 -0.30937,-0.33022 -0.33538,-0.56947 h 2.63705 c 0.005,-0.0624 0.0103,-0.13284 0.0155,-0.21084 0.005,-0.0832 0.008,-0.15821 0.008,-0.22583 0,-0.69173 -0.1694,-1.21471 -0.50746,-1.56838 -0.33806,-0.35886 -0.79828,-0.53846 -1.38079,-0.53846 z m 4.70411,0 c -0.33287,0 -0.6293,0.0571 -0.88936,0.17156 -0.26004,0.11441 -0.48097,0.27055 -0.663,0.46818 -0.18204,0.19245 -0.32235,0.42153 -0.42117,0.68678 -0.0936,0.26006 -0.14056,0.53812 -0.14056,0.83458 0,0.30686 0.0393,0.5931 0.11731,0.85835 0.0832,0.26005 0.21025,0.48607 0.38189,0.6785 0.17683,0.19245 0.40031,0.34602 0.67076,0.46045 0.27045,0.10921 0.59343,0.16381 0.9679,0.16381 0.24444,0 0.46792,-0.0209 0.67076,-0.0625 0.20284,-0.0416 0.37172,-0.0911 0.50694,-0.14831 l -0.16381,-0.95136 c -0.13523,0.0572 -0.28319,0.0985 -0.44442,0.12454 -0.16123,0.026 -0.31226,0.0393 -0.45268,0.0393 -0.39528,0 -0.67335,-0.10153 -0.83458,-0.30437 -0.15603,-0.20285 -0.23409,-0.48909 -0.23409,-0.85836 0,-0.34846 0.0832,-0.62907 0.24959,-0.84232 0.17164,-0.21323 0.4293,-0.31988 0.77257,-0.31988 0.16123,0 0.30664,0.0153 0.43666,0.0465 0.13003,0.0312 0.24993,0.0674 0.35915,0.10904 l 0.24185,-0.92811 c -0.17163,-0.0728 -0.34868,-0.12741 -0.53072,-0.16382 -0.18203,-0.0416 -0.38255,-0.0625 -0.60099,-0.0625 z m 6.67142,0 c -0.13522,0 -0.27043,0.008 -0.40566,0.0238 -0.13002,0.0104 -0.25503,0.0257 -0.37465,0.0465 -0.11962,0.0156 -0.23136,0.0364 -0.33538,0.0625 -0.0988,0.0208 -0.18199,0.0416 -0.2496,0.0625 l 0.1478,0.93638 c 0.14042,-0.0521 0.30727,-0.0913 0.49971,-0.11731 0.19243,-0.0312 0.38734,-0.0465 0.58498,-0.0465 0.29645,0 0.50462,0.0597 0.62425,0.1793 0.11962,0.11962 0.17931,0.27831 0.17931,0.47595 v 0.10903 c -0.0728,-0.0208 -0.16924,-0.0365 -0.28887,-0.047 -0.11442,-0.0156 -0.24656,-0.0233 -0.39739,-0.0233 -0.22364,0 -0.43998,0.0235 -0.64802,0.0703 -0.20804,0.0416 -0.39274,0.11202 -0.55397,0.21084 -0.16123,0.0988 -0.29083,0.23095 -0.38964,0.39739 -0.0936,0.16642 -0.14056,0.36951 -0.14056,0.60875 0,0.24964 0.0413,0.46036 0.12454,0.632 0.0832,0.17163 0.20312,0.31194 0.35915,0.42117 0.15603,0.10401 0.34073,0.17901 0.55397,0.22582 0.21844,0.0468 0.46029,0.0708 0.72554,0.0708 0.42127,0 0.77996,-0.026 1.07642,-0.078 0.29645,-0.0468 0.5281,-0.0886 0.69453,-0.12506 v -2.41846 c 0,-0.25485 -0.0286,-0.48649 -0.0858,-0.69453 -0.0572,-0.20804 -0.1562,-0.38458 -0.29663,-0.5302 -0.13522,-0.14562 -0.31686,-0.25737 -0.5457,-0.33538 -0.22884,-0.078 -0.51508,-0.1173 -0.85835,-0.1173 z m -16.00057,0.0155 c -0.34327,0 -0.67083,0.026 -0.98289,0.078 -0.31205,0.0468 -0.56717,0.0989 -0.76481,0.15606 v 3.96306 l 1.16272,-0.52916 v -2.63809 c 0.0728,-0.0104 0.15598,-0.0181 0.2496,-0.0233 0.0936,-0.0104 0.18188,-0.0155 0.2651,-0.0155 0.27045,0 0.45515,0.078 0.55397,0.23411 0.0988,0.15602 0.14831,0.42133 0.14831,0.7958 v 2.1761 l 1.16272,-0.52917 v -1.78749 c 0,-0.28084 -0.0286,-0.53545 -0.0858,-0.76428 -0.0572,-0.22884 -0.15364,-0.42682 -0.28887,-0.59326 -0.13522,-0.16642 -0.31993,-0.29397 -0.55397,-0.38239 -0.22884,-0.0936 -0.51763,-0.14056 -0.8661,-0.14056 z m 12.9961,0.008 c -0.34846,0 -0.66582,0.0332 -0.95187,0.10077 -0.28086,0.0624 -0.52525,0.13027 -0.73329,0.20308 v 3.88504 l 1.1622,-0.52917 v -2.60656 c 0.052,-0.0156 0.12752,-0.0288 0.22634,-0.0393 0.10402,-0.0156 0.1928,-0.0233 0.26562,-0.0233 0.16123,0 0.31174,0.0158 0.45217,0.047 0.14043,0.026 0.26288,0.0515 0.3669,0.0775 l 0.19482,-0.95963 c -0.0624,-0.026 -0.13793,-0.0464 -0.22634,-0.062 -0.0884,-0.0208 -0.17668,-0.0366 -0.2651,-0.047 -0.0884,-0.0156 -0.17668,-0.0258 -0.2651,-0.031 -0.0884,-0.0104 -0.16393,-0.0155 -0.22635,-0.0155 z m -16.99896,0.0853 v 4.10363 l 1.16272,-0.52917 v -3.57446 z m 8.6434,0.85059 c 0.13523,0 0.24748,0.0234 0.3359,0.0703 0.0936,0.0468 0.16913,0.10703 0.22634,0.17984 0.0624,0.0728 0.10629,0.15546 0.13229,0.24907 0.0312,0.0936 0.0496,0.19006 0.0548,0.28887 h -1.53685 c 0.0156,-0.0988 0.0386,-0.19524 0.0698,-0.28887 0.0364,-0.0988 0.0859,-0.18454 0.14831,-0.25735 0.0624,-0.0728 0.14099,-0.12995 0.23461,-0.17156 0.0936,-0.0468 0.20484,-0.0703 0.33486,-0.0703 z m 11.56261,1.48208 v 5.1e-4 c 0.078,0 0.16373,0.005 0.25734,0.0155 0.0936,0.0104 0.16403,0.0206 0.21084,0.031 v 0.8816 c -0.0624,0.0104 -0.14557,0.0181 -0.24959,0.0233 -0.10402,0.005 -0.21321,0.007 -0.32763,0.007 -0.21324,0 -0.38213,-0.0337 -0.50695,-0.10128 -0.11962,-0.0728 -0.17983,-0.20038 -0.17983,-0.38241 0,-0.0936 0.0209,-0.17168 0.0625,-0.23409 0.0416,-0.0624 0.0987,-0.1119 0.17156,-0.14831 0.0728,-0.0365 0.15598,-0.06 0.2496,-0.0703 0.0988,-0.0156 0.20291,-0.0227 0.31213,-0.0227 z m 10.95385,3.08146 c -0.30609,0 -0.5684,0.0562 -0.78703,0.16795 -0.21378,0.10689 -0.39137,0.24491 -0.53227,0.41496 -0.1409,0.1652 -0.24514,0.34991 -0.31316,0.55397 -0.0632,0.20406 -0.0951,0.40355 -0.0951,0.5979 0,0.2332 0.0343,0.44697 0.10232,0.64131 0.068,0.19433 0.17226,0.36191 0.31316,0.50281 0.14576,0.13604 0.33048,0.24265 0.55397,0.32039 0.22349,0.0729 0.49345,0.10956 0.80925,0.10956 0.0874,0 0.1917,-0.01 0.31316,-0.0289 0.12633,-0.0243 0.24059,-0.0609 0.34262,-0.10956 -0.068,0.21378 -0.16276,0.39085 -0.28422,0.53175 -0.11661,0.1409 -0.2599,0.25517 -0.42995,0.34262 -0.17005,0.0826 -0.36717,0.14355 -0.59066,0.18242 -0.2235,0.034 -0.4734,0.0535 -0.75035,0.0584 0.01,0.15547 0.0192,0.3059 0.0289,0.45165 0.01,0.14576 0.0169,0.29618 0.0217,0.45165 0.55388,-0.005 1.03283,-0.07 1.43609,-0.19637 0.40326,-0.13118 0.73365,-0.32066 0.99116,-0.56844 0.26236,-0.24779 0.45421,-0.55441 0.57567,-0.9188 0.12633,-0.36439 0.18914,-0.78425 0.18914,-1.26039 0,-0.72393 -0.15992,-1.27809 -0.48059,-1.66192 -0.31581,-0.38868 -0.78711,-0.58291 -1.41387,-0.58291 z m -24.28741,0.008 c -0.25264,0 -0.48354,0.0409 -0.69246,0.12352 -0.20406,0.0777 -0.37876,0.18485 -0.52452,0.3209 -0.14575,0.13118 -0.26002,0.28635 -0.34261,0.46612 -0.0777,0.17977 -0.11679,0.36687 -0.11679,0.56121 0,0.25751 0.0491,0.46888 0.14624,0.63407 0.10203,0.16519 0.25721,0.33276 0.46612,0.50281 -0.0972,0.0729 -0.18953,0.15098 -0.27698,0.23358 -0.0826,0.0826 -0.15781,0.17443 -0.22583,0.27646 -0.068,0.0972 -0.12133,0.20669 -0.16019,0.32815 -0.0389,0.12146 -0.0584,0.25525 -0.0584,0.40101 0,0.1409 0.029,0.29608 0.0873,0.46612 0.0583,0.16519 0.15541,0.3185 0.29145,0.4594 0.1409,0.1409 0.32324,0.25992 0.54674,0.35709 0.22835,0.0923 0.51256,0.13849 0.85266,0.13849 0.29637,0 0.5563,-0.0362 0.7798,-0.10904 0.22835,-0.0777 0.41782,-0.18486 0.56844,-0.32091 0.15061,-0.13604 0.2625,-0.29411 0.33538,-0.47387 0.0777,-0.18463 0.11627,-0.38597 0.11627,-0.60461 0,-0.26236 -0.0604,-0.4909 -0.1819,-0.68523 -0.11661,-0.19921 -0.31373,-0.38867 -0.59066,-0.56845 0.18462,-0.1166 0.33794,-0.27467 0.4594,-0.47387 0.12632,-0.20406 0.18965,-0.42255 0.18965,-0.65577 0,-0.16033 -0.0319,-0.32078 -0.0951,-0.48111 -0.0583,-0.16519 -0.15541,-0.31323 -0.29145,-0.44442 -0.13604,-0.13118 -0.31074,-0.23832 -0.52452,-0.32091 -0.20892,-0.0875 -0.46172,-0.13074 -0.75809,-0.13074 z m 5.93556,0 c -0.25265,0 -0.48303,0.0409 -0.69195,0.12352 -0.20406,0.0777 -0.37928,0.18485 -0.52503,0.3209 -0.14576,0.13118 -0.26002,0.28635 -0.34262,0.46612 -0.0777,0.17977 -0.11627,0.36687 -0.11627,0.56121 0,0.25751 0.0485,0.46888 0.14573,0.63407 0.10203,0.16519 0.2572,0.33276 0.46612,0.50281 -0.0972,0.0729 -0.18902,0.15098 -0.27647,0.23358 -0.0826,0.0826 -0.15832,0.17443 -0.22634,0.27646 -0.068,0.0972 -0.12133,0.20669 -0.1602,0.32815 -0.0389,0.12146 -0.0584,0.25525 -0.0584,0.40101 0,0.1409 0.029,0.29608 0.0873,0.46612 0.0583,0.16519 0.15542,0.3185 0.29146,0.4594 0.1409,0.1409 0.32324,0.25992 0.54673,0.35709 0.22836,0.0923 0.51256,0.13849 0.85266,0.13849 0.29638,0 0.55631,-0.0362 0.7798,-0.10904 0.22835,-0.0777 0.41783,-0.18486 0.56844,-0.32091 0.15062,-0.13604 0.2625,-0.29411 0.33538,-0.47387 0.0777,-0.18463 0.11627,-0.38597 0.11627,-0.60461 0,-0.26236 -0.0604,-0.4909 -0.1819,-0.68523 -0.1166,-0.19921 -0.31372,-0.38867 -0.59066,-0.56845 0.18463,-0.1166 0.33794,-0.27467 0.45941,-0.47387 0.12632,-0.20406 0.18965,-0.42255 0.18965,-0.65577 0,-0.16033 -0.0319,-0.32078 -0.0951,-0.48111 -0.0583,-0.16519 -0.15542,-0.31323 -0.29146,-0.44442 -0.13604,-0.13118 -0.31074,-0.23832 -0.52452,-0.32091 -0.20891,-0.0875 -0.46172,-0.13074 -0.75809,-0.13074 z m 12.55479,0 c -0.25265,0 -0.48355,0.0409 -0.69247,0.12352 -0.20406,0.0777 -0.37927,0.18485 -0.52503,0.3209 -0.14576,0.13118 -0.26002,0.28635 -0.34261,0.46612 -0.0777,0.17977 -0.11628,0.36687 -0.11628,0.56121 0,0.25751 0.0486,0.46888 0.14573,0.63407 0.10203,0.16519 0.25772,0.33276 0.46664,0.50281 -0.0972,0.0729 -0.18953,0.15098 -0.27699,0.23358 -0.0826,0.0826 -0.1578,0.17443 -0.22582,0.27646 -0.068,0.0972 -0.12185,0.20669 -0.16072,0.32815 -0.0389,0.12146 -0.0579,0.25525 -0.0579,0.40101 0,0.1409 0.0285,0.29608 0.0868,0.46612 0.0583,0.16519 0.15593,0.3185 0.29197,0.4594 0.1409,0.1409 0.32325,0.25992 0.54674,0.35709 0.22835,0.0923 0.51256,0.13849 0.85266,0.13849 0.29638,0 0.5563,-0.0362 0.7798,-0.10904 0.22835,-0.0777 0.41782,-0.18486 0.56844,-0.32091 0.15062,-0.13604 0.26198,-0.29411 0.33486,-0.47387 0.0777,-0.18463 0.11679,-0.38597 0.11679,-0.60461 0,-0.26236 -0.061,-0.4909 -0.18242,-0.68523 -0.1166,-0.19921 -0.3132,-0.38867 -0.59014,-0.56845 0.18463,-0.1166 0.33794,-0.27467 0.4594,-0.47387 0.12633,-0.20406 0.18914,-0.42255 0.18914,-0.65577 0,-0.16033 -0.0314,-0.32078 -0.0946,-0.48111 -0.0583,-0.16519 -0.15542,-0.31323 -0.29146,-0.44442 -0.13604,-0.13118 -0.31073,-0.23832 -0.52451,-0.32091 -0.20892,-0.0875 -0.46172,-0.13074 -0.7581,-0.13074 z m -24.31687,0.11627 c -0.10688,0.11174 -0.22827,0.21837 -0.36431,0.3204 -0.13119,0.0972 -0.26921,0.19242 -0.41497,0.28473 -0.14575,0.0874 -0.29669,0.1698 -0.45217,0.24753 -0.15061,0.0729 -0.29628,0.13859 -0.43718,0.19689 l 0.32763,0.83819 c 0.17005,-0.0583 0.34527,-0.12638 0.52503,-0.20412 0.17977,-0.0826 0.34259,-0.17257 0.48835,-0.26974 v 4.16564 l 1.08572,-0.52917 v -5.05034 z m 18.49035,0 c -0.10689,0.11174 -0.22828,0.21837 -0.36432,0.3204 -0.13118,0.0972 -0.26972,0.19242 -0.41548,0.28473 -0.14576,0.0874 -0.29618,0.1698 -0.45165,0.24753 -0.15062,0.0729 -0.2968,0.13859 -0.4377,0.19689 l 0.32815,0.83819 c 0.17005,-0.0583 0.34526,-0.12638 0.52503,-0.20412 0.17977,-0.0826 0.34207,-0.17257 0.48782,-0.26974 v 4.16564 l 1.08624,-0.52917 v -5.05034 z m -12.66383,0.7581 c 0.11175,0 0.20648,0.0196 0.28422,0.0584 0.0777,0.034 0.14107,0.0773 0.18965,0.13074 0.0534,0.0534 0.0901,0.11204 0.10956,0.17519 0.0243,0.0583 0.0362,0.11399 0.0362,0.16743 0,0.18463 -0.0414,0.34031 -0.12402,0.46664 -0.0826,0.12632 -0.20161,0.23769 -0.35709,0.33486 -0.27694,-0.0972 -0.47354,-0.21329 -0.59014,-0.34933 -0.11175,-0.13604 -0.16743,-0.28222 -0.16743,-0.4377 0,-0.0583 0.0119,-0.11873 0.0362,-0.1819 0.0243,-0.0632 0.0605,-0.12175 0.10903,-0.17519 0.0534,-0.0583 0.11915,-0.10395 0.19689,-0.13797 0.0777,-0.034 0.1701,-0.0512 0.27699,-0.0512 z m 5.93556,0 c 0.11174,0 0.20648,0.0196 0.28422,0.0584 0.0777,0.034 0.14107,0.0773 0.18965,0.13074 0.0534,0.0534 0.0901,0.11204 0.10955,0.17519 0.0243,0.0583 0.0362,0.11399 0.0362,0.16743 0,0.18463 -0.0414,0.34031 -0.12402,0.46664 -0.0826,0.12632 -0.20161,0.23769 -0.35708,0.33486 -0.27694,-0.0972 -0.47354,-0.21329 -0.59015,-0.34933 -0.11175,-0.13604 -0.16743,-0.28222 -0.16743,-0.4377 0,-0.0583 0.0119,-0.11873 0.0362,-0.1819 0.0243,-0.0632 0.0604,-0.12175 0.10904,-0.17519 0.0534,-0.0583 0.11915,-0.10395 0.19688,-0.13797 0.0777,-0.034 0.1701,-0.0512 0.27699,-0.0512 z m 12.55479,0 c 0.11174,0 0.20648,0.0196 0.28422,0.0584 0.0777,0.034 0.14055,0.0773 0.18913,0.13074 0.0534,0.0534 0.0901,0.11204 0.10956,0.17519 0.0243,0.0583 0.0367,0.11399 0.0367,0.16743 0,0.18463 -0.0414,0.34031 -0.12403,0.46664 -0.0826,0.12632 -0.20161,0.23769 -0.35708,0.33486 -0.27694,-0.0972 -0.47406,-0.21329 -0.59066,-0.34933 -0.11175,-0.13604 -0.16743,-0.28222 -0.16743,-0.4377 0,-0.0583 0.0124,-0.11873 0.0367,-0.1819 0.0243,-0.0632 0.0605,-0.12175 0.10903,-0.17519 0.0534,-0.0583 0.11915,-0.10395 0.19689,-0.13797 0.0777,-0.034 0.1701,-0.0512 0.27698,-0.0512 z m 5.826,0.0217 c 0.14576,0 0.26766,0.0343 0.36483,0.10232 0.10203,0.0632 0.18199,0.15263 0.2403,0.26923 0.0583,0.11175 0.0997,0.24554 0.12402,0.40101 0.0243,0.15061 0.0386,0.31345 0.0434,0.48835 0,0.0146 -0.002,0.0312 -0.007,0.0506 v 0.0584 0.0656 c -0.0583,0.0389 -0.14828,0.0708 -0.26975,0.0951 -0.12146,0.0195 -0.23759,0.0289 -0.34933,0.0289 -0.29152,0 -0.50341,-0.0634 -0.63459,-0.18966 -0.12632,-0.12632 -0.18965,-0.32055 -0.18965,-0.58291 0,-0.0875 0.0124,-0.17692 0.0367,-0.26923 0.0291,-0.0923 0.0706,-0.17805 0.12402,-0.2558 0.0534,-0.0777 0.12391,-0.14054 0.21136,-0.18914 0.0875,-0.0486 0.18932,-0.0729 0.30592,-0.0729 z m -16.12615,1.60301 v 0.98392 h 2.11356 v -0.9834 z m -8.43773,0.4594 c 0.13604,0.0437 0.26218,0.0923 0.37879,0.14573 0.12146,0.0486 0.22622,0.10717 0.31368,0.17518 0.0875,0.0631 0.15502,0.13838 0.2036,0.22582 0.0534,0.0875 0.0801,0.18695 0.0801,0.29869 0,0.15062 -0.0581,0.28678 -0.17466,0.40825 -0.11661,0.12147 -0.30133,0.18191 -0.55398,0.18191 -0.13118,0 -0.24306,-0.019 -0.33538,-0.0579 -0.0923,-0.0389 -0.16752,-0.0874 -0.22582,-0.14573 -0.0583,-0.0583 -0.10211,-0.12162 -0.13126,-0.18965 -0.0243,-0.0729 -0.0362,-0.13858 -0.0362,-0.19689 0,-0.18948 0.0462,-0.3523 0.13849,-0.48834 0.0923,-0.13604 0.20658,-0.25506 0.34262,-0.35708 z m 5.93556,0 c 0.13604,0.0437 0.26218,0.0923 0.37878,0.14573 0.12147,0.0486 0.22623,0.10717 0.31368,0.17518 0.0874,0.0631 0.15502,0.13838 0.20361,0.22582 0.0534,0.0875 0.0801,0.18695 0.0801,0.29869 0,0.15062 -0.0581,0.28678 -0.17467,0.40825 -0.11661,0.12147 -0.30133,0.18191 -0.55397,0.18191 -0.13119,0 -0.24307,-0.019 -0.33538,-0.0579 -0.0923,-0.0389 -0.16753,-0.0874 -0.22583,-0.14573 -0.0583,-0.0583 -0.10159,-0.12162 -0.13074,-0.18965 -0.0243,-0.0729 -0.0367,-0.13858 -0.0367,-0.19689 0,-0.18948 0.0462,-0.3523 0.13849,-0.48834 0.0923,-0.13604 0.20658,-0.25506 0.34262,-0.35708 z m 12.55427,0 c 0.13604,0.0437 0.2627,0.0923 0.3793,0.14573 0.12147,0.0486 0.22571,0.10717 0.31316,0.17518 0.0875,0.0631 0.15554,0.13838 0.20412,0.22582 0.0534,0.0875 0.0801,0.18695 0.0801,0.29869 0,0.15062 -0.0586,0.28678 -0.17518,0.40825 -0.11661,0.12147 -0.30081,0.18191 -0.55345,0.18191 -0.13118,0 -0.24307,-0.019 -0.33538,-0.0579 -0.0923,-0.0389 -0.16753,-0.0874 -0.22583,-0.14573 -0.0583,-0.0583 -0.10211,-0.12162 -0.13126,-0.18965 -0.0243,-0.0729 -0.0367,-0.13858 -0.0367,-0.19689 0,-0.18948 0.0462,-0.3523 0.13849,-0.48834 0.0923,-0.13604 0.20658,-0.25506 0.34262,-0.35708 z M 92.6899,158.8619 c -0.17491,0 -0.33298,0.0581 -0.47387,0.17467 -0.13604,0.11174 -0.20413,0.27694 -0.20413,0.49558 0,0.21863 0.0681,0.38671 0.20413,0.50332 0.14089,0.11175 0.29896,0.16744 0.47387,0.16744 0.17491,0 0.3306,-0.0557 0.46664,-0.16744 0.14089,-0.11661 0.21084,-0.28469 0.21084,-0.50332 0,-0.21864 -0.0699,-0.38384 -0.21084,-0.49558 -0.13604,-0.11661 -0.29173,-0.17467 -0.46664,-0.17467 z m 5.93555,0 c -0.1749,0 -0.33297,0.0581 -0.47387,0.17467 -0.13604,0.11174 -0.20412,0.27694 -0.20412,0.49558 0,0.21863 0.0681,0.38671 0.20412,0.50332 0.1409,0.11175 0.29897,0.16744 0.47387,0.16744 0.17491,0 0.3306,-0.0557 0.46664,-0.16744 0.1409,-0.11661 0.21084,-0.28469 0.21084,-0.50332 0,-0.21864 -0.0699,-0.38384 -0.21084,-0.49558 -0.13604,-0.11661 -0.29173,-0.17467 -0.46664,-0.17467 z m 12.55479,0 c -0.17491,0 -0.33297,0.0581 -0.47387,0.17467 -0.13604,0.11174 -0.20412,0.27694 -0.20412,0.49558 0,0.21863 0.0681,0.38671 0.20412,0.50332 0.1409,0.11175 0.29896,0.16744 0.47387,0.16744 0.17491,0 0.33008,-0.0557 0.46612,-0.16744 0.1409,-0.11661 0.21136,-0.28469 0.21136,-0.50332 0,-0.21864 -0.0705,-0.38384 -0.21136,-0.49558 -0.13604,-0.11661 -0.29121,-0.17467 -0.46612,-0.17467 z m 5.93556,0 c -0.17491,0 -0.33298,0.0581 -0.47388,0.17467 -0.13604,0.11174 -0.20412,0.27694 -0.20412,0.49558 0,0.21863 0.0681,0.38671 0.20412,0.50332 0.1409,0.11175 0.29897,0.16744 0.47388,0.16744 0.1749,0 0.33008,-0.0557 0.46612,-0.16744 0.1409,-0.11661 0.21135,-0.28469 0.21135,-0.50332 0,-0.21864 -0.0705,-0.38384 -0.21135,-0.49558 -0.13604,-0.11661 -0.29122,-0.17467 -0.46612,-0.17467 z"
         style="font-style:normal;font-variant:normal;font-weight:bold;font-stretch:normal;font-size:12.69999981px;line-height:1.25;font-family:Ubuntu;-inkscape-font-specification:'Ubuntu Bold';text-align:center;letter-spacing:0px;word-spacing:0px;writing-mode:lr-tb;text-anchor:middle;fill:url(#linearGradient1142);fill-opacity:1;stroke:none;stroke-width:0.0968541" />
      <path
         inkscape:transform-center-y="-1.9715154"
         inkscape:transform-center-x="0.57923551"
         sodipodi:nodetypes="cccccccccccccccscccccccccccccccccsccccccsccccccccccccccccccccccc"
         inkscape:connector-curvature="0"
         id="path1287"
         d="m 68.615014,136.36305 c 0,0 -1.153366,1.0109 -1.861767,2.98242 -0.39058,1.0347 -0.627733,2.49575 0.276833,4.01252 0.493937,0.73927 1.155183,1.336 1.806463,1.8246 0.619455,0.48989 1.185341,0.87843 1.55303,1.25805 0.113603,0.10598 0.219562,0.21754 0.318977,0.33376 0.555119,0.64892 0.936048,1.48418 1.196019,2.36994 0.151291,0.58873 0.246909,1.13468 0.201336,1.65428 -0.05115,0.56386 -0.22034,1.08301 -0.555432,1.50929 -0.644441,0.91064 -2.245822,1.49357 -2.977595,1.73813 -0.587377,0.19374 -0.940397,0.2843 -0.940397,0.2843 0,0 0.367834,0.0367 1.027167,0.0349 0.814159,2.4e-4 2.719912,-0.0532 4.336906,-1.08892 0.760967,-0.51786 1.372794,-1.22905 1.710029,-2.05974 0.309768,-0.75539 0.423652,-1.5503 0.380576,-2.33248 -0.03533,-1.20262 -0.453375,-2.45715 -1.388274,-3.56902 -0.165205,-0.19647 -0.346645,-0.3885 -0.544745,-0.57474 -0.702219,-0.62336 -1.444756,-1.06556 -2.089294,-1.43919 -0.644988,-0.39652 -1.196686,-0.70179 -1.558891,-1.05819 -0.791702,-0.66059 -1.054861,-1.81544 -1.156508,-2.76339 -0.155073,-1.8194 0.265567,-3.1166 0.265567,-3.1166 z m -0.982533,17.96729 c 0,0 0.697808,-0.27854 1.031406,-1.18944 0.158557,-0.43466 0.190352,-0.9939 -0.0834,-1.58039 -0.271759,-0.55047 -0.710695,-1.01924 -1.17026,-1.39457 -0.287656,-0.25042 -0.57434,-0.46731 -0.802124,-0.65112 -0.107332,-0.0866 -0.206032,-0.16926 -0.292055,-0.25138 -0.312329,-0.28599 -0.589186,-0.6122 -0.742564,-0.966 -0.04031,-0.0915 -0.07194,-0.18423 -0.09701,-0.27741 0.317917,-0.40679 0.677955,-0.89426 0.973896,-1.46891 0.572767,-1.1214 0.571651,-2.26814 0.214512,-3.21494 -0.398882,-1.0359 -1.186923,-1.7049 -1.7693,-2.07217 -0.593722,-0.37441 -1.006676,-0.48929 -1.006676,-0.48929 0,0 0.214685,0.29562 0.396968,0.80022 0.184555,0.51091 0.300454,1.20006 0.102274,1.91562 -0.170866,0.65093 -0.580938,1.2706 -1.132075,1.82636 -0.448058,0.4595 -1.166057,1.00414 -1.78802,1.85196 -0.100368,0.13681 -0.198292,0.2818 -0.291908,0.435 -0.561749,0.96184 -0.695518,2.01584 -0.445543,3.00175 0.274063,1.07235 0.976081,1.93962 1.797099,2.54611 0.80646,0.57688 1.651861,0.8847 2.312433,1.04121 0.656677,0.15558 1.169788,0.17223 1.4133,0.17265 0.146,-0.0213 0.217868,-0.0352 0.217868,-0.0352 0,0 -0.06857,-0.0255 -0.185824,-0.0701 -0.445281,-0.26308 -1.510066,-0.96047 -1.91489,-2.0694 -0.240284,-0.56818 -0.311566,-1.19081 -0.203527,-1.7826 0.01212,-0.0679 0.0265,-0.13565 0.0432,-0.20295 0.04231,0.0534 0.08609,0.10628 0.132856,0.15803 0.144715,0.15655 0.296873,0.29847 0.451255,0.42651 0.334963,0.27784 0.68368,0.49365 1.007851,0.67834 0.484456,0.29607 0.884156,0.485 1.1805,0.73965 0.31766,0.25415 0.538932,0.57555 0.652735,0.89693 0.240847,0.6765 -0.0032,1.22558 -0.0032,1.22558 z m -8.586907,0.62595 1.349688,2.97088 h 15.107327 l 1.368496,-2.97088 z m 2.634184,3.88273 -1.043655,1.79798 H 75.26175 l -1.043652,-1.79798 z"
         style="fill:#ffffff;stroke:none;stroke-width:0.09685409px;stroke-linecap:butt;stroke-linejoin:miter;stroke-opacity:1" />
    </g>
    <text
       xml:space="preserve"
       style="font-style:normal;font-variant:normal;font-weight:normal;font-stretch:normal;font-size:12.69999981px;line-height:1.25;font-family:'Noto Serif CJK JP';-inkscape-font-specification:'Noto Serif CJK JP';text-align:center;letter-spacing:0px;word-spacing:0px;writing-mode:tb-rl;text-anchor:middle;fill:#000000;fill-opacity:1;stroke:none;stroke-width:0.26458332"
       x="-1588.9353"
       y="55.897736"
       id="text1079"><tspan
         sodipodi:role="line"
         id="tspan1077"
         x="55.897736"
         y="-1596.8728"
         style="stroke-width:0.26458332" /></text>
    <text
       xml:space="preserve"
       style="font-style:normal;font-variant:normal;font-weight:normal;font-stretch:normal;font-size:12.69999981px;line-height:1.25;font-family:'Noto Serif CJK JP';-inkscape-font-specification:'Noto Serif CJK JP';text-align:center;letter-spacing:0px;word-spacing:0px;writing-mode:tb-rl;text-anchor:middle;fill:#000000;fill-opacity:1;stroke:none;stroke-width:0.26458332"
       x="-1755.7571"
       y="72.221779"
       id="text1079-0"><tspan
         sodipodi:role="line"
         id="tspan1077-0"
         x="72.221779"
         y="-1763.6946"
         style="stroke-width:0.26458332" /></text>
  </g>
</svg>
