<?xml version="1.0" encoding="UTF-8" standalone="no"?>
<!-- Created with Inkscape (http://www.inkscape.org/) -->

<svg
   xmlns:dc="http://purl.org/dc/elements/1.1/"
   xmlns:cc="http://creativecommons.org/ns#"
   xmlns:rdf="http://www.w3.org/1999/02/22-rdf-syntax-ns#"
   xmlns:svg="http://www.w3.org/2000/svg"
   xmlns="http://www.w3.org/2000/svg"
   xmlns:xlink="http://www.w3.org/1999/xlink"
   xmlns:sodipodi="http://sodipodi.sourceforge.net/DTD/sodipodi-0.dtd"
   xmlns:inkscape="http://www.inkscape.org/namespaces/inkscape"
   width="60mm"
   height="24.905821mm"
   viewBox="0 0 60 24.90582"
   version="1.1"
   id="svg8"
   inkscape:version="0.92.4 (5da689c313, 2019-01-14)"
   sodipodi:docname="logo.svg">
  <defs
     id="defs2">
    <linearGradient
       inkscape:collect="always"
       id="linearGradient1630">
      <stop
         style="stop-color:#ffffff;stop-opacity:1;"
         offset="0"
         id="stop1626" />
      <stop
         id="stop1713"
         offset="0.51189452"
         style="stop-color:#ffffff;stop-opacity:1" />
      <stop
         style="stop-color:#d7e4e3;stop-opacity:1"
         offset="1"
         id="stop1628" />
    </linearGradient>
    <linearGradient
       inkscape:collect="always"
       xlink:href="#linearGradient1630"
       id="linearGradient1634"
       gradientUnits="userSpaceOnUse"
       x1="89.285713"
       y1="-43.465401"
       x2="128.61049"
       y2="102.88421"
       gradientTransform="matrix(0.26458333,0,0,0.26458333,2.297227e-5,279.27473)" />
  </defs>
  <sodipodi:namedview
     id="base"
     pagecolor="#ffffff"
     bordercolor="#666666"
     borderopacity="1.0"
     inkscape:pageopacity="0.0"
     inkscape:pageshadow="2"
     inkscape:zoom="3.959798"
     inkscape:cx="105.58629"
     inkscape:cy="38.109516"
     inkscape:document-units="mm"
     inkscape:current-layer="layer1"
     showgrid="false"
     inkscape:window-width="1920"
     inkscape:window-height="1017"
     inkscape:window-x="-8"
     inkscape:window-y="-8"
     inkscape:window-maximized="1"
     inkscape:pagecheckerboard="true"
     fit-margin-top="0"
     fit-margin-left="0"
     fit-margin-right="0"
     fit-margin-bottom="0" />
  <metadata
     id="metadata5">
    <rdf:RDF>
      <cc:Work
         rdf:about="">
        <dc:format>image/svg+xml</dc:format>
        <dc:type
           rdf:resource="http://purl.org/dc/dcmitype/StillImage" />
        <dc:title />
      </cc:Work>
    </rdf:RDF>
  </metadata>
  <g
     inkscape:label="Layer 1"
     inkscape:groupmode="layer"
     id="layer1"
     transform="translate(4.4441701e-7,-278.95874)">
    <text
       xml:space="preserve"
       style="font-style:normal;font-variant:normal;font-weight:normal;font-stretch:normal;font-size:12.69999981px;line-height:1.25;font-family:Ubuntu;-inkscape-font-specification:Ubuntu;text-align:center;letter-spacing:0px;word-spacing:0px;writing-mode:lr-tb;text-anchor:middle;fill:#000000;fill-opacity:1;stroke:none;stroke-width:0.26458332"
       x="0.80180854"
       y="306.02036"
       id="text1385"><tspan
         sodipodi:role="line"
         id="tspan1383"
         x="0.80180854"
         y="317.86301"
         style="font-style:normal;font-variant:normal;font-weight:normal;font-stretch:normal;font-family:Ubuntu;-inkscape-font-specification:Ubuntu;writing-mode:lr-tb;stroke-width:0.26458332" /></text>
    <text
       xml:space="preserve"
       style="font-style:normal;font-variant:normal;font-weight:normal;font-stretch:normal;font-size:12.69999981px;line-height:1.25;font-family:Ubuntu;-inkscape-font-specification:Ubuntu;text-align:center;letter-spacing:0px;word-spacing:0px;writing-mode:lr-tb;text-anchor:middle;fill:#000000;fill-opacity:1;stroke:none;stroke-width:0.26458332"
       x="-1.3363476"
       y="308.15851"
       id="text1389"><tspan
         sodipodi:role="line"
         id="tspan1387"
         x="-1.3363476"
         y="320.00116"
         style="font-style:normal;font-variant:normal;font-weight:normal;font-stretch:normal;font-family:Ubuntu;-inkscape-font-specification:Ubuntu;writing-mode:lr-tb;stroke-width:0.26458332" /></text>
    <path
       style="font-style:normal;font-variant:normal;font-weight:bold;font-stretch:normal;font-size:12.69999981px;line-height:1.25;font-family:Ubuntu;-inkscape-font-specification:'Ubuntu Bold';text-align:center;letter-spacing:0px;word-spacing:0px;writing-mode:lr-tb;text-anchor:middle;fill:url(#linearGradient1634);fill-opacity:1;stroke:none;stroke-width:0.26458332"
       d="m 42.200548,279.27473 c -0.623925,0 -1.220404,0.10364 -1.790073,0.31161 -0.560626,0.20798 -1.057865,0.52043 -1.491898,0.93638 -0.424993,0.41595 -0.764839,0.93076 -1.018027,1.54564 -0.253185,0.60584 -0.379304,1.31138 -0.379304,2.11615 0,0.201 0.03021,0.37827 0.04548,0.56741 l 0.37982,0.0207 c 0.04639,0.56022 0.137937,1.08537 0.318844,1.54099 0.07726,0.19172 0.179072,0.35742 0.274402,0.5302 l 2.817399,0.0351 c -0.228695,-0.134 -0.451244,-0.27589 -0.623218,-0.48369 -0.207973,-0.27127 -0.370795,-0.59201 -0.488341,-0.96274 -0.04875,-0.16657 -0.04652,-0.37586 -0.07338,-0.56069 l -0.381373,-0.0207 c -0.03324,-0.21837 -0.08578,-0.42054 -0.08578,-0.66662 0,-0.45212 0.05427,-0.8633 0.16278,-1.23403 0.117549,-0.37978 0.280368,-0.70103 0.488341,-0.96325 0.217019,-0.27128 0.479076,-0.47958 0.786516,-0.62425 0.307441,-0.15372 0.659953,-0.23048 1.057818,-0.23048 0.388821,0 0.736938,0.0729 1.044379,0.21756 0.316481,0.14468 0.579059,0.35194 0.787032,0.62321 0.217017,0.26223 0.379315,0.58347 0.487826,0.96325 0.117546,0.37073 0.176733,0.78683 0.176733,1.24799 0,0.3487 -0.06656,0.64661 -0.133842,0.94361 l 0.375172,0.0202 c -0.01697,0.0921 -0.01351,0.19974 -0.04031,0.28422 -0.108508,0.37073 -0.270812,0.69147 -0.487826,0.96274 -0.174908,0.22053 -0.410255,0.37574 -0.661977,0.51314 l 2.827735,0.0351 c 0.113914,-0.20103 0.227864,-0.40215 0.316262,-0.62993 0.129846,-0.32702 0.219231,-0.68491 0.280085,-1.06557 l -0.375171,-0.0202 c 0.05171,-0.32919 0.08372,-0.67395 0.08372,-1.04335 0,-0.80477 -0.122242,-1.51031 -0.366387,-2.11615 -0.244144,-0.61488 -0.579083,-1.12969 -1.004072,-1.54564 -0.424992,-0.41595 -0.922232,-0.7284 -1.491898,-0.93638 -0.569669,-0.20797 -1.175454,-0.31161 -1.81746,-0.31161 z M 2.297227e-5,279.49177 0.52918964,281.29528 H 2.8344753 v 1.58853 l 0.3777546,0.0202 v 3.50211 l 2.11615,0.0264 v -3.43493 l -0.3777547,-0.0202 v -1.68207 h 2.8349689 l -0.5291667,-1.80355 z m 9.13174222773,0 v 3.73104 l 0.3777546,0.0202 v 3.24115 l 2.1161492,0.0264 v -1.60713 h 3.553789 v 1.65106 l 2.115633,0.0263 v -2.93935 l -0.377755,-0.0202 v -4.12947 l -2.115633,0.52917 v 3.06493 h -3.553788 v -3.06493 z m 9.9606318,0 v 4.26641 l 0.377755,0.0202 v 2.82929 l 2.11615,0.0263 v -1.7849 h 3.757393 v -0.77515 l -0.377755,-0.0202 v -0.94051 h -3.757393 v -1.84485 h 3.702616 l 0.529167,-1.77664 z m 11.470617,0 v 4.88342 l 0.377756,0.0202 v 2.35438 l 2.116148,0.0263 v -2.2872 l -0.377753,-0.0202 v -4.97696 z m 17.121436,0 c 0.316484,1.57337 0.677783,3.16924 1.084688,4.78782 0.09848,0.38323 0.215781,0.71782 0.31781,1.09193 l 0.383439,0.0207 c 0.149154,0.54535 0.308015,1.06688 0.464572,1.59318 l 3.117122,0.0382 c 0.09387,-0.29102 0.195138,-0.55978 0.286287,-0.85886 l 0.173633,-0.57568 -0.371554,-0.0202 0.688332,-2.27945 c 0.239114,0.79208 0.482883,1.58402 0.72812,2.37608 l 0.383955,0.0207 c 0.04925,0.15953 0.0971,0.31899 0.146762,0.47852 0.09716,0.30915 0.201173,0.58726 0.300239,0.8878 l 3.080951,0.0382 c 0.118943,-0.40082 0.236971,-0.80432 0.350882,-1.21646 l -0.37207,-0.0202 c 0.147915,-0.53227 0.314801,-1.02198 0.453718,-1.57458 0.415949,-1.61858 0.782161,-2.68528 1.09864,-4.25865 l -2.19728,-0.52917 c -0.09042,0.53349 -0.189664,1.0894 -0.298175,1.66812 -0.09947,0.56966 -0.203615,1.14366 -0.312123,1.72237 -0.108511,0.57871 -0.225841,1.13952 -0.352436,1.68207 -0.0928,0.42836 -0.185719,0.81155 -0.278535,1.18856 l -0.179835,-0.01 c -0.112077,-0.33706 -0.22466,-0.67685 -0.342098,-1.05678 l -0.46147,-1.4919 c -0.144677,-0.49733 -0.285009,-0.97648 -0.420645,-1.43764 -0.126593,-0.4702 -0.243925,-0.8912 -0.352433,-1.26194 h -1.803509 c -0.09947,0.3617 -0.212921,0.77339 -0.339513,1.23455 -0.117552,0.46116 -0.248063,0.94083 -0.392742,1.43816 -0.144677,0.49733 -0.294315,0.99405 -0.448032,1.49138 -0.08982,0.29056 -0.184338,0.55305 -0.277503,0.82424 l -0.350367,-0.0186 c -0.07567,-0.29411 -0.151164,-0.57579 -0.226859,-0.9002 -0.117552,-0.54255 -0.234886,-1.10336 -0.352433,-1.68207 -0.117554,-0.57871 -0.230492,-1.15271 -0.339,-1.72237 -0.108506,-0.57872 -0.208264,-0.60546 -0.298688,-1.13895 z m 3.896918,6.0141 0.326597,0.0176 c -0.06153,0.18101 -0.120947,0.37467 -0.183968,0.54622 -0.04742,-0.17274 -0.0952,-0.37768 -0.142629,-0.56379 z m 5.191416,0.27854 0.157097,0.009 c -0.02163,0.0898 -0.04352,0.19175 -0.06511,0.27646 -0.02983,-0.0876 -0.06153,-0.19236 -0.09198,-0.28525 z m -53.9383087,0.62167 v 2.48512 l 2.1161499,-0.52917 v -1.9296 z m 6.2972899,0.078 v 2.40709 L 11.247915,288.362 v -1.85157 z m 5.6699378,0.0703 v 1.80764 l 2.115633,0.52917 v -2.31046 z m 4.290694,0.0532 v 2.28358 h 6.660058 l -0.529166,-1.77715 h -4.014742 v -0.48008 z m 11.470617,0.14211 v 2.14147 h 6.280237 l -0.529166,-1.81746 h -3.63492 v -0.29766 z m 7.599021,0.094 c 0.205894,0.37318 0.438142,0.71872 0.728636,1.00304 0.424992,0.4069 0.922748,0.71445 1.492417,0.92242 0.569669,0.20798 1.175451,0.31161 1.81746,0.31161 0.66009,0 1.274662,-0.10363 1.844331,-0.31161 0.57871,-0.20797 1.076468,-0.51552 1.492416,-0.92242 0.259557,-0.25956 0.471364,-0.56966 0.660424,-0.90331 l -2.827734,-0.0351 c -0.04759,0.026 -0.07473,0.0743 -0.125058,0.0971 -0.307441,0.14468 -0.655558,0.21705 -1.044379,0.21705 -0.397865,0 -0.750377,-0.0724 -1.057818,-0.21705 -0.06381,-0.03 -0.103396,-0.0915 -0.163298,-0.1266 z m 11.395168,0.14159 c 0.187243,0.62946 0.356952,1.30419 0.555005,1.90583 h 1.939417 c 0.216789,-0.59463 0.418574,-1.23475 0.6227,-1.86759 z m 5.452898,0.0672 c 0.205179,0.62246 0.408752,1.25323 0.622184,1.83865 h 1.939932 c 0.187103,-0.56836 0.342805,-1.20723 0.518832,-1.80041 z m -16.606221,3.42821 c -0.587711,0 -1.032629,0.15613 -1.334286,0.46819 -0.296455,0.31206 -0.444418,0.73351 -0.444418,1.26401 v 4.3217 l 1.162204,-0.52917 v -2.60656 h 0.906404 l 0.529167,-0.9679 H 37.78738 v -0.20257 c 0,-0.10922 0.01071,-0.21074 0.03152,-0.30437 0.026,-0.0936 0.06478,-0.17424 0.11679,-0.24185 0.05721,-0.0677 0.132726,-0.11965 0.226343,-0.15606 0.09882,-0.0416 0.218207,-0.062 0.358632,-0.062 0.104021,0 0.216276,0.0127 0.335899,0.0387 0.124823,0.0208 0.239112,0.0545 0.343131,0.10129 l 0.226343,-0.92811 c -0.09882,-0.0416 -0.239647,-0.0835 -0.42168,-0.12506 -0.182036,-0.0468 -0.38204,-0.0703 -0.60048,-0.0703 z m -24.041944,0.078 c -0.187236,0 -0.351016,0.0628 -0.491442,0.18758 -0.135226,0.11962 -0.203089,0.28596 -0.203089,0.4992 0,0.21324 0.06786,0.38211 0.203089,0.50694 0.140426,0.11962 0.304206,0.17932 0.491442,0.17932 0.187234,0 0.348467,-0.0597 0.483692,-0.17932 0.140427,-0.12483 0.210323,-0.2937 0.210323,-0.50694 0,-0.21324 -0.0699,-0.37958 -0.210323,-0.4992 -0.135225,-0.12483 -0.296458,-0.18758 -0.483692,-0.18758 z m -7.2202301,0.56947 c -0.052012,0.35886 -0.1015026,0.76194 -0.1483114,1.20923 -0.041606,0.44208 -0.080382,0.90537 -0.1167889,1.38906 -0.031206,0.47849 -0.062328,0.95911 -0.093534,1.44281 -0.026003,0.48368 -0.049477,0.93882 -0.07028,1.36529 l 1.1854571,-0.52917 c 0.015603,-0.52529 0.036526,-0.56809 0.062529,-1.18701 0.026003,-0.61892 0.064778,-1.24292 0.1167887,-1.87223 0.093618,0.21843 0.1977025,0.46029 0.3121255,0.72553 0.1144202,0.26525 0.2261595,0.53057 0.33538,0.79582 0.114422,0.26526 0.2236087,0.51986 0.3276288,0.7643 0.1040194,0.23925 0.1928027,0.44488 0.2656168,0.6165 h 0.8505935 c 0.07281,-0.17162 0.161081,-0.37725 0.2651,-0.6165 0.10402,-0.24444 0.210656,-0.49904 0.319877,-0.7643 l 0.343131,-0.79582 c 0.114422,-0.26525 0.218508,-0.5071 0.312126,-0.72553 0.05201,0.62931 0.09078,1.25331 0.116789,1.87223 0.026,0.61892 0.04692,1.19089 0.06253,1.71618 l 1.185974,-0.52917 c -0.0208,-0.42647 -0.04683,-0.35244 -0.07803,-0.83612 -0.026,-0.4837 -0.05712,-0.96432 -0.09353,-1.44281 -0.03121,-0.48369 -0.0705,-0.94698 -0.117306,-1.38906 -0.04161,-0.44729 -0.08803,-0.85037 -0.140043,-1.20923 h -1.107943 c -0.09362,0.17163 -0.202804,0.38491 -0.327628,0.63975 -0.119622,0.24965 -0.247181,0.52312 -0.382406,0.81959 -0.130025,0.29125 -0.260132,0.59026 -0.390157,0.89711 -0.130024,0.30687 -0.2524798,0.59513 -0.3669018,0.86558 -0.1144215,-0.27045 -0.236361,-0.55871 -0.3663857,-0.86558 C 9.2740825,293.17776 9.1414244,292.87875 9.0061987,292.5875 8.876174,292.29103 8.7491335,292.01756 8.62431,291.76791 8.5046871,291.51307 8.397534,291.29979 8.3039163,291.12816 Z m 39.9257281,0 v 3.5264 c 0,0.34326 -0.06531,0.58818 -0.195337,0.73381 -0.130024,0.14563 -0.343297,0.21807 -0.639754,0.21807 -0.202838,0 -0.390091,-0.0337 -0.561724,-0.10129 -0.171633,-0.0677 -0.332862,-0.14567 -0.48369,-0.23409 l -0.405662,0.94413 c 0.166431,0.11443 0.377156,0.21544 0.632002,0.30386 0.25485,0.0832 0.558941,0.12505 0.912606,0.12505 0.384874,0 0.702234,-0.0495 0.951881,-0.14831 0.25485,-0.10402 0.455369,-0.24178 0.600996,-0.41341 0.150828,-0.17683 0.254918,-0.38245 0.312126,-0.6165 0.06241,-0.23404 0.09302,-0.48354 0.09302,-0.74879 v -3.58893 z m 2.389518,0 v 5.40639 h 3.830256 l -0.529166,-1.02164 h -2.08411 v -1.30277 h 2.161109 v -0.9989 h -2.161109 v -1.06092 h 1.904794 l 0.529166,-1.02216 z m -8.417057,0.0941 -1.162204,0.18707 v 3.44785 c 0,0.26524 0.02347,0.50762 0.07028,0.72606 0.05201,0.21844 0.139758,0.40517 0.264583,0.5612 0.124822,0.15083 0.291671,0.27073 0.499711,0.35915 0.208039,0.0832 0.470288,0.12454 0.787548,0.12454 0.249647,0 0.460369,-0.0204 0.632002,-0.062 0.171633,-0.0415 0.328279,-0.0911 0.468707,-0.14831 l -0.164333,-0.90485 c -0.10922,0.0416 -0.231677,0.0753 -0.366903,0.10128 -0.130024,0.0208 -0.257064,0.0315 -0.381889,0.0315 -0.260048,0 -0.43403,-0.0735 -0.522449,-0.2191 -0.08321,-0.14565 -0.125055,-0.34053 -0.125055,-0.58498 v -1.44281 h 0.867129 l 0.529167,-0.9679 h -1.396296 z m -18.627804,1.09968 c -0.249647,0 -0.494043,0.0469 -0.733289,0.14056 -0.234043,0.0936 -0.442217,0.23137 -0.624251,0.41341 -0.182034,0.18203 -0.329996,0.41113 -0.444417,0.68678 -0.109221,0.27045 -0.163814,0.58729 -0.163814,0.95136 1e-6,0.30166 0.04133,0.58279 0.12454,0.84284 0.08842,0.26004 0.221592,0.48607 0.398425,0.67851 0.182034,0.18723 0.40806,0.33571 0.678511,0.44494 0.275652,0.10922 0.598113,0.16381 0.967383,0.16381 0.145628,0 0.291039,-0.007 0.436666,-0.0232 0.145628,-0.0156 0.280836,-0.0364 0.40566,-0.0625 0.130024,-0.0208 0.246864,-0.0468 0.350883,-0.078 0.10402,-0.0312 0.187702,-0.0629 0.250114,-0.094 l -0.156063,-0.94361 c -0.130025,0.0572 -0.298906,0.1067 -0.506946,0.14831 -0.202838,0.0365 -0.41101,0.0548 -0.624251,0.0548 -0.332862,0 -0.598179,-0.0705 -0.795817,-0.21084 -0.197637,-0.14043 -0.309374,-0.33022 -0.33538,-0.56947 h 2.637048 c 0.0053,-0.0624 0.0103,-0.13284 0.0155,-0.21084 0.0053,-0.0832 0.0078,-0.15821 0.0078,-0.22583 0,-0.69173 -0.1694,-1.21471 -0.507463,-1.56838 -0.338064,-0.35886 -0.798283,-0.53846 -1.380794,-0.53846 z m 4.704106,0 c -0.332864,0 -0.629301,0.0571 -0.889352,0.17156 -0.260049,0.11442 -0.480973,0.27056 -0.663008,0.46819 -0.182035,0.19244 -0.322343,0.42153 -0.421163,0.68678 -0.09362,0.26005 -0.14056,0.53812 -0.14056,0.83457 0,0.30686 0.03929,0.5931 0.117305,0.85835 0.08322,0.26005 0.210256,0.48607 0.381889,0.67851 0.176833,0.19244 0.400309,0.34601 0.67076,0.46044 0.270451,0.10922 0.593429,0.16381 0.967899,0.16381 0.244446,0 0.467924,-0.0209 0.670761,-0.0625 0.202838,-0.0416 0.371721,-0.0911 0.506945,-0.14831 l -0.163815,-0.95136 c -0.135223,0.0572 -0.283183,0.0985 -0.444415,0.12454 -0.161232,0.026 -0.312261,0.0393 -0.452686,0.0393 -0.395274,0 -0.673346,-0.10153 -0.834575,-0.30437 -0.15603,-0.20284 -0.234094,-0.48908 -0.234094,-0.85835 0,-0.34847 0.08317,-0.62907 0.249597,-0.84232 0.171631,-0.21323 0.429298,-0.31988 0.772563,-0.31988 0.16123,0 0.306642,0.0153 0.436666,0.0465 0.130024,0.0312 0.249931,0.0674 0.359151,0.10904 l 0.241845,-0.92811 c -0.171633,-0.0728 -0.348681,-0.12741 -0.530717,-0.16382 -0.182034,-0.0416 -0.382556,-0.0625 -0.600996,-0.0625 z m 6.671426,0 c -0.135226,0 -0.270433,0.008 -0.405659,0.0238 -0.130024,0.0104 -0.255032,0.0257 -0.374655,0.0465 -0.119621,0.0156 -0.23136,0.0364 -0.335378,0.0625 -0.09882,0.0208 -0.181986,0.0416 -0.249597,0.0625 l 0.147793,0.93638 c 0.140428,-0.0521 0.307274,-0.0913 0.499711,-0.11731 0.192437,-0.0312 0.387339,-0.0465 0.584978,-0.0465 0.296455,0 0.504629,0.0597 0.62425,0.17931 0.119623,0.11962 0.179318,0.27831 0.179318,0.47594 v 0.10904 c -0.07281,-0.0208 -0.169248,-0.0365 -0.288872,-0.047 -0.114421,-0.0156 -0.246562,-0.0233 -0.397391,-0.0233 -0.223644,0 -0.439983,0.0235 -0.648022,0.0703 -0.20804,0.0416 -0.39274,0.11202 -0.553972,0.21084 -0.161229,0.0988 -0.290822,0.23095 -0.389641,0.39739 -0.09362,0.16642 -0.14056,0.36951 -0.14056,0.60875 0,0.24964 0.04133,0.46036 0.124542,0.632 0.08322,0.17163 0.203121,0.31194 0.359151,0.42117 0.15603,0.10401 0.34073,0.17901 0.553971,0.22582 0.21844,0.0468 0.460288,0.0708 0.725538,0.0708 0.421277,0 0.779962,-0.026 1.076418,-0.078 0.296457,-0.0468 0.5281,-0.0886 0.694531,-0.12506 v -2.41846 c 0,-0.25485 -0.02857,-0.48649 -0.08578,-0.69453 -0.05721,-0.20804 -0.156197,-0.38458 -0.296624,-0.5302 -0.135223,-0.14562 -0.31686,-0.25737 -0.545703,-0.33538 -0.228844,-0.078 -0.515081,-0.1173 -0.858347,-0.1173 z m -16.000573,0.0155 c -0.343265,0 -0.670826,0.026 -0.982885,0.078 -0.312059,0.0468 -0.567175,0.0989 -0.764812,0.15606 v 3.96307 l 1.16272,-0.52917 v -2.63808 c 0.07281,-0.0104 0.15598,-0.0181 0.249597,-0.0233 0.09362,-0.0104 0.181884,-0.0155 0.265101,-0.0155 0.270451,0 0.455152,0.078 0.553971,0.2341 0.09882,0.15603 0.148311,0.42134 0.148311,0.79581 v 2.1761 l 1.16272,-0.52917 v -1.78749 c 0,-0.28085 -0.02857,-0.53545 -0.08578,-0.76429 -0.0572,-0.22884 -0.153645,-0.42682 -0.288871,-0.59325 -0.135225,-0.16643 -0.319928,-0.29397 -0.553972,-0.3824 -0.228843,-0.0936 -0.517631,-0.14056 -0.866097,-0.14056 z m 12.996105,0.008 c -0.348464,0 -0.665824,0.0332 -0.951878,0.10077 -0.280852,0.0624 -0.525248,0.13027 -0.73329,0.20308 v 3.88504 l 1.162203,-0.52917 v -2.60656 c 0.05201,-0.0156 0.127524,-0.0288 0.226344,-0.0393 0.104021,-0.0156 0.192801,-0.0233 0.265617,-0.0233 0.16123,0 0.311743,0.0158 0.452168,0.047 0.140428,0.026 0.262885,0.0515 0.366903,0.0775 l 0.194821,-0.95963 c -0.06241,-0.026 -0.137928,-0.0464 -0.226343,-0.062 -0.08842,-0.0208 -0.176684,-0.0366 -0.265102,-0.047 -0.08842,-0.0156 -0.176681,-0.0258 -0.2651,-0.031 -0.08842,-0.0104 -0.16393,-0.0155 -0.226343,-0.0155 z m -16.998961,0.0853 v 4.10363 l 1.16272,-0.52917 v -3.57446 z m 8.6434,0.8506 c 0.135226,0 0.24748,0.0234 0.335897,0.0703 0.09362,0.0468 0.169132,0.10702 0.226342,0.17983 0.06241,0.0728 0.106287,0.15546 0.132292,0.24908 0.0312,0.0936 0.04958,0.19005 0.05478,0.28887 h -1.536857 c 0.01561,-0.0988 0.03856,-0.19525 0.06976,-0.28887 0.03641,-0.0988 0.0859,-0.18454 0.148312,-0.25735 0.06241,-0.0728 0.140993,-0.12995 0.234611,-0.17156 0.09362,-0.0468 0.204839,-0.0703 0.334863,-0.0703 z m 11.562602,1.48208 v 5.1e-4 c 0.07802,0 0.16373,0.005 0.257347,0.0155 0.09362,0.0104 0.164031,0.0206 0.210841,0.031 v 0.8816 c -0.06241,0.0104 -0.145576,0.0181 -0.249597,0.0233 -0.104021,0.005 -0.213206,0.007 -0.327628,0.007 -0.213241,0 -0.382125,-0.0337 -0.506947,-0.10128 -0.119624,-0.0728 -0.179835,-0.20038 -0.179835,-0.38241 0,-0.0936 0.02093,-0.17168 0.06253,-0.23409 0.04161,-0.0624 0.09875,-0.1119 0.171567,-0.14831 0.07281,-0.0365 0.155979,-0.06 0.249597,-0.0703 0.09882,-0.0156 0.202906,-0.0227 0.312126,-0.0227 z m 10.953853,3.08146 c -0.306091,0 -0.568396,0.0562 -0.787032,0.16795 -0.213778,0.10689 -0.391369,0.24491 -0.532267,0.41496 -0.140899,0.1652 -0.24514,0.34991 -0.313159,0.55397 -0.06316,0.20406 -0.09509,0.40355 -0.09509,0.5979 0,0.2332 0.03431,0.44697 0.10232,0.64131 0.06802,0.19433 0.17226,0.36191 0.313158,0.50281 0.145757,0.13603 0.330478,0.24265 0.553972,0.32039 0.223493,0.0729 0.493445,0.10955 0.809254,0.10955 0.08745,0 0.191693,-0.01 0.313158,-0.0289 0.126323,-0.0243 0.240586,-0.0609 0.342615,-0.10956 -0.06802,0.21378 -0.162756,0.39085 -0.284221,0.53175 -0.116605,0.1409 -0.259898,0.25517 -0.429948,0.34262 -0.17005,0.0826 -0.367168,0.14355 -0.590661,0.18242 -0.223494,0.034 -0.473401,0.0535 -0.750343,0.0584 0.0097,0.15547 0.01922,0.3059 0.02894,0.45165 0.0097,0.14576 0.01685,0.29618 0.0217,0.45165 0.553876,-0.005 1.032828,-0.07 1.436087,-0.19637 0.403262,-0.13118 0.733653,-0.32066 0.991156,-0.56844 0.262363,-0.24779 0.45421,-0.55441 0.575675,-0.9188 0.126323,-0.36439 0.189135,-0.78425 0.189135,-1.26039 0,-0.72393 -0.159922,-1.27809 -0.480589,-1.66192 -0.315807,-0.38868 -0.787112,-0.58291 -1.413868,-0.58291 z m -24.287406,0.008 c -0.252646,0 -0.483546,0.0409 -0.692465,0.12351 -0.204058,0.0777 -0.378758,0.18486 -0.524515,0.32091 -0.145757,0.13118 -0.26002,0.28635 -0.342615,0.46612 -0.07774,0.17977 -0.116789,0.36687 -0.116789,0.56121 0,0.25751 0.04906,0.46888 0.146244,0.63407 0.102031,0.16519 0.257203,0.33276 0.466122,0.50281 -0.09717,0.0729 -0.189532,0.15098 -0.276986,0.23358 -0.0826,0.0826 -0.157806,0.17443 -0.225826,0.27646 -0.06802,0.0972 -0.121328,0.20669 -0.160197,0.32815 -0.03887,0.12146 -0.05839,0.25525 -0.05839,0.40101 0,0.1409 0.02903,0.29608 0.08733,0.46612 0.0583,0.16519 0.155414,0.3185 0.291455,0.4594 0.140898,0.1409 0.323243,0.25992 0.546737,0.35709 0.228353,0.0923 0.512561,0.13849 0.852661,0.13849 0.296373,0 0.556303,-0.0362 0.779797,-0.10904 0.228353,-0.0777 0.417825,-0.18486 0.568441,-0.32091 0.150615,-0.13604 0.262501,-0.29411 0.33538,-0.47387 0.07774,-0.18463 0.116272,-0.38597 0.116272,-0.60461 0,-0.26236 -0.06043,-0.4909 -0.181901,-0.68523 -0.116606,-0.19921 -0.313723,-0.38867 -0.590662,-0.56845 0.184625,-0.1166 0.33794,-0.27467 0.459404,-0.47387 0.126323,-0.20406 0.189652,-0.42255 0.189652,-0.65577 0,-0.16033 -0.03193,-0.32078 -0.09508,-0.48111 -0.0583,-0.16519 -0.155415,-0.31323 -0.291455,-0.44442 -0.13604,-0.13118 -0.310738,-0.23832 -0.524516,-0.32091 -0.208919,-0.0875 -0.46172,-0.13074 -0.758093,-0.13074 z m 5.935555,0 c -0.252646,0 -0.483029,0.0409 -0.691948,0.12351 -0.204061,0.0777 -0.379275,0.18486 -0.525032,0.32091 -0.145758,0.13118 -0.260018,0.28635 -0.342615,0.46612 -0.07774,0.17977 -0.116272,0.36687 -0.116272,0.56121 0,0.25751 0.04855,0.46888 0.145727,0.63407 0.102031,0.16519 0.257203,0.33276 0.466122,0.50281 -0.09717,0.0729 -0.189015,0.15098 -0.276469,0.23358 -0.08259,0.0826 -0.158324,0.17443 -0.226343,0.27646 -0.06802,0.0972 -0.121328,0.20669 -0.160197,0.32815 -0.03887,0.12146 -0.05839,0.25525 -0.05839,0.40101 0,0.1409 0.02903,0.29608 0.08733,0.46612 0.0583,0.16519 0.155415,0.3185 0.291455,0.4594 0.140899,0.1409 0.323242,0.25992 0.546737,0.35709 0.228353,0.0923 0.512561,0.13849 0.852662,0.13849 0.296373,0 0.556302,-0.0362 0.779796,-0.10904 0.228354,-0.0777 0.417825,-0.18486 0.568441,-0.32091 0.150614,-0.13604 0.262501,-0.29411 0.335381,-0.47387 0.07774,-0.18463 0.116271,-0.38597 0.116271,-0.60461 0,-0.26236 -0.06044,-0.4909 -0.181901,-0.68523 -0.116607,-0.19921 -0.313722,-0.38867 -0.590661,-0.56845 0.184626,-0.1166 0.337939,-0.27467 0.459404,-0.47387 0.12632,-0.20406 0.18965,-0.42255 0.18965,-0.65577 0,-0.16033 -0.03193,-0.32078 -0.09508,-0.48111 -0.0583,-0.16519 -0.155416,-0.31323 -0.291454,-0.44442 -0.136041,-0.13118 -0.31074,-0.23832 -0.524518,-0.32091 -0.208918,-0.0875 -0.461719,-0.13074 -0.758092,-0.13074 z m 12.554788,0 c -0.252645,0 -0.483544,0.0409 -0.692465,0.12351 -0.204057,0.0777 -0.379275,0.18486 -0.525031,0.32091 -0.145756,0.13118 -0.260019,0.28635 -0.342614,0.46612 -0.07774,0.17977 -0.116274,0.36687 -0.116274,0.56121 0,0.25751 0.04856,0.46888 0.14573,0.63407 0.102029,0.16519 0.257717,0.33276 0.466638,0.50281 -0.09717,0.0729 -0.189532,0.15098 -0.276987,0.23358 -0.0826,0.0826 -0.157806,0.17443 -0.225825,0.27646 -0.06802,0.0972 -0.121846,0.20669 -0.160716,0.32815 -0.03887,0.12146 -0.05788,0.25525 -0.05788,0.40101 0,0.1409 0.02852,0.29608 0.08682,0.46612 0.0583,0.16519 0.15593,0.3185 0.291971,0.4594 0.140898,0.1409 0.323244,0.25992 0.546737,0.35709 0.228354,0.0923 0.512562,0.13849 0.852663,0.13849 0.296373,0 0.556302,-0.0362 0.779795,-0.10904 0.228354,-0.0777 0.417825,-0.18486 0.568442,-0.32091 0.150617,-0.13604 0.261985,-0.29411 0.334864,-0.47387 0.07774,-0.18463 0.116787,-0.38597 0.116787,-0.60461 0,-0.26236 -0.06095,-0.4909 -0.182416,-0.68523 -0.116605,-0.19921 -0.313206,-0.38867 -0.590146,-0.56845 0.184627,-0.1166 0.337939,-0.27467 0.459404,-0.47387 0.126323,-0.20406 0.189135,-0.42255 0.189135,-0.65577 0,-0.16033 -0.03142,-0.32078 -0.09457,-0.48111 -0.0583,-0.16519 -0.155417,-0.31323 -0.291455,-0.44442 -0.136041,-0.13118 -0.310737,-0.23832 -0.524515,-0.32091 -0.20892,-0.0875 -0.461722,-0.13074 -0.758095,-0.13074 z m -24.316861,0.11627 c -0.106889,0.11174 -0.228279,0.21837 -0.364319,0.3204 -0.131182,0.0972 -0.269205,0.19242 -0.414962,0.28473 -0.145758,0.0874 -0.296694,0.1698 -0.452169,0.24753 -0.150615,0.0729 -0.296283,0.13859 -0.437182,0.19689 l 0.327629,0.83819 c 0.17005,-0.0583 0.345264,-0.12638 0.525032,-0.20412 0.179767,-0.0826 0.342585,-0.17257 0.488342,-0.26975 v 4.16564 l 1.085722,-0.52917 v -5.05034 z m 18.490345,0 c -0.106889,0.11174 -0.22828,0.21837 -0.364321,0.3204 -0.13118,0.0972 -0.269721,0.19242 -0.415478,0.28473 -0.145756,0.0874 -0.296177,0.1698 -0.451651,0.24753 -0.150615,0.0729 -0.296802,0.13859 -0.437701,0.19689 l 0.328147,0.83819 c 0.170051,-0.0583 0.345266,-0.12638 0.525031,-0.20412 0.179769,-0.0826 0.34207,-0.17257 0.487826,-0.26975 v 4.16564 l 1.086239,-0.52917 v -5.05034 z m -12.663827,0.7581 c 0.111746,0 0.206482,0.0196 0.28422,0.0584 0.07774,0.034 0.141066,0.0773 0.189652,0.13074 0.05344,0.0534 0.09012,0.11203 0.109555,0.17519 0.02429,0.0583 0.03617,0.11399 0.03617,0.16743 0,0.18463 -0.04143,0.34031 -0.124024,0.46664 -0.0826,0.12632 -0.201609,0.23769 -0.357084,0.33486 -0.276938,-0.0972 -0.473538,-0.21329 -0.590145,-0.34933 -0.111747,-0.13604 -0.167431,-0.28222 -0.167431,-0.4377 0,-0.0583 0.01189,-0.11873 0.03617,-0.1819 0.02429,-0.0632 0.06045,-0.12175 0.109037,-0.17519 0.05344,-0.0583 0.11915,-0.10395 0.196887,-0.13797 0.07774,-0.034 0.170097,-0.0512 0.276986,-0.0512 z m 5.935555,0 c 0.111746,0 0.206483,0.0196 0.28422,0.0584 0.07774,0.034 0.141068,0.0773 0.189654,0.13074 0.05344,0.0534 0.09012,0.11203 0.109553,0.17519 0.02429,0.0583 0.03617,0.11399 0.03617,0.16743 0,0.18463 -0.04143,0.34031 -0.124024,0.46664 -0.0826,0.12632 -0.201609,0.23769 -0.357084,0.33486 -0.276939,-0.0972 -0.47354,-0.21329 -0.590146,-0.34933 -0.111748,-0.13604 -0.167431,-0.28222 -0.167431,-0.4377 0,-0.0583 0.01188,-0.11873 0.03617,-0.1819 0.02429,-0.0632 0.06045,-0.12175 0.109038,-0.17519 0.05344,-0.0583 0.11915,-0.10395 0.196887,-0.13797 0.07774,-0.034 0.170097,-0.0512 0.276986,-0.0512 z m 12.554788,0 c 0.111747,0 0.206484,0.0196 0.284221,0.0584 0.07774,0.034 0.140549,0.0773 0.189135,0.13074 0.05344,0.0534 0.09012,0.11203 0.109556,0.17519 0.02429,0.0583 0.03669,0.11399 0.03669,0.16743 0,0.18463 -0.04143,0.34031 -0.124023,0.46664 -0.0826,0.12632 -0.20161,0.23769 -0.357084,0.33486 -0.27694,-0.0972 -0.474057,-0.21329 -0.590661,-0.34933 -0.11175,-0.13604 -0.167434,-0.28222 -0.167434,-0.4377 0,-0.0583 0.0124,-0.11873 0.03669,-0.1819 0.02429,-0.0632 0.06045,-0.12175 0.109038,-0.17519 0.05344,-0.0583 0.11915,-0.10395 0.196887,-0.13797 0.07774,-0.034 0.170095,-0.0512 0.276984,-0.0512 z m 5.826001,0.0217 c 0.145759,0 0.267666,0.0343 0.364836,0.10232 0.102029,0.0632 0.181991,0.15262 0.240295,0.26923 0.0583,0.11175 0.09973,0.24554 0.124023,0.40101 0.02429,0.15061 0.03856,0.31344 0.04341,0.48835 0,0.0146 -0.0024,0.0312 -0.0072,0.0506 v 0.0584 0.0656 c -0.0583,0.0389 -0.148285,0.0708 -0.26975,0.0951 -0.121465,0.0195 -0.237586,0.0289 -0.349332,0.0289 -0.291516,0 -0.503407,-0.0634 -0.634588,-0.18966 -0.126322,-0.12632 -0.189653,-0.32055 -0.189653,-0.58291 0,-0.0875 0.0124,-0.17692 0.03669,-0.26923 0.02915,-0.0923 0.07058,-0.17806 0.124023,-0.2558 0.05344,-0.0777 0.123905,-0.14055 0.211357,-0.18914 0.08745,-0.0486 0.18932,-0.0729 0.305925,-0.0729 z m -16.126148,1.603 v 0.98392 h 2.113566 v -0.9834 z m -8.437726,0.45941 c 0.13604,0.0437 0.262182,0.0923 0.378788,0.14572 0.121464,0.0486 0.226221,0.10717 0.313676,0.17519 0.08745,0.0631 0.155019,0.13837 0.203605,0.22582 0.05344,0.0875 0.0801,0.18695 0.0801,0.29869 0,0.15062 -0.05806,0.28678 -0.174666,0.40825 -0.116605,0.12146 -0.301327,0.1819 -0.553971,0.1819 -0.131182,0 -0.243069,-0.019 -0.33538,-0.0579 -0.09231,-0.0389 -0.167523,-0.0874 -0.225826,-0.14573 -0.0583,-0.0583 -0.102107,-0.12162 -0.131259,-0.18965 -0.02429,-0.0729 -0.03617,-0.13858 -0.03617,-0.19689 0,-0.18948 0.04618,-0.3523 0.138493,-0.48834 0.09231,-0.13604 0.206575,-0.25506 0.342615,-0.35708 z m 5.935554,0 c 0.136041,0.0437 0.262183,0.0923 0.378788,0.14572 0.121465,0.0486 0.226224,0.10717 0.313677,0.17519 0.08745,0.0631 0.155019,0.13837 0.203604,0.22582 0.05344,0.0875 0.0801,0.18695 0.0801,0.29869 0,0.15062 -0.05806,0.28678 -0.174667,0.40825 -0.116604,0.12146 -0.301326,0.1819 -0.553971,0.1819 -0.131183,0 -0.243067,-0.019 -0.335381,-0.0579 -0.09231,-0.0389 -0.167523,-0.0874 -0.225825,-0.14573 -0.0583,-0.0583 -0.101591,-0.12162 -0.130742,-0.18965 -0.02429,-0.0729 -0.03669,-0.13858 -0.03669,-0.19689 0,-0.18948 0.04618,-0.3523 0.138493,-0.48834 0.09231,-0.13604 0.206575,-0.25506 0.342614,-0.35708 z m 12.554272,0 c 0.136041,0.0437 0.2627,0.0923 0.379304,0.14572 0.121465,0.0486 0.225706,0.10717 0.313161,0.17519 0.08746,0.0631 0.155536,0.13837 0.204121,0.22582 0.05344,0.0875 0.0801,0.18695 0.0801,0.29869 0,0.15062 -0.05857,0.28678 -0.175183,0.40825 -0.116608,0.12146 -0.30081,0.1819 -0.553456,0.1819 -0.13118,0 -0.243067,-0.019 -0.33538,-0.0579 -0.09231,-0.0389 -0.167521,-0.0874 -0.225825,-0.14573 -0.0583,-0.0583 -0.102108,-0.12162 -0.13126,-0.18965 -0.02429,-0.0729 -0.03669,-0.13858 -0.03669,-0.19689 0,-0.18948 0.04618,-0.3523 0.138493,-0.48834 0.09231,-0.13604 0.206574,-0.25506 0.342614,-0.35708 z m -21.20904,0.96221 c -0.174909,0 -0.332975,0.0581 -0.473873,0.17467 -0.13604,0.11174 -0.204122,0.27694 -0.204122,0.49558 0,0.21863 0.06808,0.38671 0.204122,0.50332 0.140898,0.11175 0.298964,0.16744 0.473873,0.16744 0.174908,0 0.330597,-0.0557 0.466638,-0.16744 0.140898,-0.11661 0.21084,-0.28469 0.21084,-0.50332 0,-0.21864 -0.06994,-0.38384 -0.21084,-0.49558 -0.136041,-0.11661 -0.29173,-0.17467 -0.466638,-0.17467 z m 5.935555,0 c -0.174908,0 -0.332975,0.0581 -0.473873,0.17467 -0.136041,0.11174 -0.204122,0.27694 -0.204122,0.49558 0,0.21863 0.06808,0.38671 0.204122,0.50332 0.140898,0.11175 0.298965,0.16744 0.473873,0.16744 0.174909,0 0.330597,-0.0557 0.466638,-0.16744 0.140898,-0.11661 0.21084,-0.28469 0.21084,-0.50332 0,-0.21864 -0.06994,-0.38384 -0.21084,-0.49558 -0.136041,-0.11661 -0.291729,-0.17467 -0.466638,-0.17467 z m 12.554788,0 c -0.174908,0 -0.332972,0.0581 -0.473874,0.17467 -0.136038,0.11174 -0.20412,0.27694 -0.20412,0.49558 0,0.21863 0.06808,0.38671 0.20412,0.50332 0.140902,0.11175 0.298966,0.16744 0.473874,0.16744 0.174909,0 0.330081,-0.0557 0.466122,-0.16744 0.140899,-0.11661 0.211357,-0.28469 0.211357,-0.50332 0,-0.21864 -0.07046,-0.38384 -0.211357,-0.49558 -0.136041,-0.11661 -0.291213,-0.17467 -0.466122,-0.17467 z m 5.935554,0 c -0.174908,0 -0.332972,0.0581 -0.473871,0.17467 -0.136041,0.11174 -0.204123,0.27694 -0.204123,0.49558 0,0.21863 0.06808,0.38671 0.204123,0.50332 0.140899,0.11175 0.298963,0.16744 0.473871,0.16744 0.174909,0 0.330081,-0.0557 0.466122,-0.16744 0.140899,-0.11661 0.211357,-0.28469 0.211357,-0.50332 0,-0.21864 -0.07046,-0.38384 -0.211357,-0.49558 -0.136041,-0.11661 -0.291213,-0.17467 -0.466122,-0.17467 z"
       id="path1513"
       inkscape:connector-curvature="0"
       sodipodi:nodetypes="ccccscccccccccscccscccscccccccccscccccccccccccccccccccccccccccccccccccccccccccccccccccccccccccccccccccccccccccccccccccccccccccccccccccccccccccccccccccccccccccccccccccccccccccscccccscccccccccccccccsccccccscccsccccccscscscscsccccccsccccccccccccccccccccccccccccscsccccscccscccccccccccccccccscccsccccscscccccccccccccsccccccsccccscccccccscccsscccscscsscccccsccccccscsccscccscccsccssccscccccccscsccsccccccccccccscccccccccccccsccccccccsccccccscscccccccccscccscccccccccccscccscccscccccscccscccscccscccssscccscccccscccscccscccscccssccccsccccsscccscccscccscccccccccccccccccccccccccccccccccscccscccccccccscccscccccccccscccsccccccccccccccscsccccccccccccccscscccscccccccscscccsccczcccscscccscczscscscscsscscscscsscscscscsscscscscs" />
  </g>
</svg>
